<?xml version="1.0" encoding="UTF-8"?>
<svg width="40px" height="40px" viewBox="0 0 40 40" version="1.1" xmlns="http://www.w3.org/2000/svg" xmlns:xlink="http://www.w3.org/1999/xlink">
    <title>1060EED9-C0D9-4E56-8F39-E34CD545B3BF</title>
    <defs>
        <circle id="path-1" cx="20" cy="20" r="20"></circle>
    </defs>
    <g id="WSG" stroke="none" stroke-width="1" fill="none" fill-rule="evenodd">
        <g id="20Icon_기관로고" transform="translate(-639.000000, -1914.000000)">
            <g id="#-Con" transform="translate(79.500000, 136.000000)">
                <g id="보험" transform="translate(0.500000, 1692.000000)">
                    <g id="AXA손해보험" transform="translate(559.000000, 54.000000)">
                        <g id="icon_32_insurance_axa" transform="translate(0.000000, 32.000000)">
                            <mask id="mask-2" fill="white">
                                <use xlink:href="#path-1"></use>
                            </mask>
                            <use id="Mask" fill="#163278" xlink:href="#path-1"></use>
                            <g id="Group" mask="url(#mask-2)">
                                <g transform="translate(1.600122, 1.599939)">
                                    <polygon id="Fill-2-Copy" fill="#E6292A" points="30.1205638 0 17.9434971 15.7601524 19.7760305 15.7601524 31.9125638 0"></polygon>
                                    <path d="M13.393981,26.5502476 L14.2713905,25.345219 C14.190019,25.2583619 13.6963048,23.7598476 13.6963048,23.7598476 L12.8475429,24.8603429 L13.393981,26.5502476 Z M8.5952,19.1216762 C8.25325714,19.8570667 6.24121905,22.3070476 6.24121905,22.3070476 L9.42841905,22.3070476 C9.42841905,22.3070476 8.81066667,20.404419 8.70278095,19.975619 C8.61714286,19.6342857 8.64,19.1951238 8.64,19.1424 C8.64,19.1033905 8.63238095,19.04 8.5952,19.1216762 L8.5952,19.1216762 Z M20.8414476,19.1216762 C20.4995048,19.8570667 18.4865524,22.3070476 18.4865524,22.3070476 L21.6737524,22.3070476 C21.6737524,22.3070476 21.056,20.404419 20.9481143,19.975619 C20.8624762,19.6342857 20.8853333,19.1951238 20.8853333,19.1424 C20.8853333,19.1033905 20.8789333,19.04 20.8414476,19.1216762 L20.8414476,19.1216762 Z M24.3846095,22.7928381 C24.9411048,24.3492571 26.0867048,28.3989333 26.5432381,28.7216762 L23.5343238,28.7216762 C23.5343238,28.7216762 23.5233524,28.1234286 23.3926095,27.659581 C23.2624762,27.1966476 22.1741714,23.6949333 22.1741714,23.6949333 L17.3948952,23.6949333 L16.6427429,24.760381 C16.6427429,24.760381 17.5454476,27.5858286 17.6015238,27.7244952 C17.6993524,27.9737905 18.1302857,28.7216762 18.1302857,28.7216762 L15.2463238,28.7216762 C15.2463238,28.7216762 15.1716571,28.2898286 15.1430095,28.1103238 C15.1210667,27.9652571 14.8705524,27.1704381 14.8705524,27.1704381 C14.8705524,27.1704381 14.2162286,27.8866286 14.0382476,28.2185143 C13.8590476,28.5500952 13.7788952,28.7216762 13.7788952,28.7216762 L11.5227429,28.7216762 C11.5227429,28.7216762 11.4480762,28.2898286 11.4194286,28.1103238 C11.3974857,27.9652571 11.1216762,27.1064381 11.1216762,27.1064381 C11.1216762,27.1064381 10.4905143,27.873219 10.3100952,28.2048 C10.1321143,28.5369905 10.0550095,28.7216762 10.0550095,28.7216762 L7.8232381,28.7216762 C7.8232381,28.7216762 8.4544,28.1212952 8.6744381,27.8634667 C9.0456381,27.4264381 10.4310857,25.6167619 10.4310857,25.6167619 L9.87580952,23.6949333 L5.13219048,23.6949333 C5.13219048,23.6949333 2.42742857,27.2487619 2.3207619,27.358781 C2.21287619,27.4672762 1.4247619,28.5985524 1.40708571,28.7216762 L4.4408921e-16,28.7216762 L4.4408921e-16,27.8265905 C0.0274285714,27.7991619 0.0460190476,27.7793524 0.0557714286,27.7729524 C0.0987428571,27.7409524 2.10651429,25.2495238 3.95001905,22.7928381 C5.60670476,20.6509714 7.1616,18.5673143 7.29782857,18.3689143 C7.62758095,17.889219 8.10361905,16.8527238 8.10361905,16.8527238 L10.5563429,16.8527238 C10.5563429,16.8527238 10.6322286,17.806019 10.7038476,18.0373333 C10.7675429,18.2418286 12.2614857,23.1442286 12.2965333,23.1969524 L13.1224381,22.1403429 L11.7110857,17.7935238 C11.7110857,17.7935238 11.3801143,16.9755429 11.2722286,16.8527238 L14.136381,16.8527238 C14.136381,16.8527238 14.1141333,17.2732952 14.2296381,17.6316952 C14.3460571,17.9900952 14.9607619,20.206019 14.9607619,20.206019 C14.9607619,20.206019 16.9142857,17.7569524 17.0285714,17.5811048 C17.2431238,17.2860952 17.2696381,16.8527238 17.2696381,16.8527238 L19.6562286,16.8527238 C19.6562286,16.8527238 19.2198095,17.172419 18.4536381,18.1409524 C18.196419,18.4667429 15.6763429,21.6697905 15.6763429,21.6697905 C15.6763429,21.6697905 15.896381,22.4198095 16.0030476,22.7928381 C16.0326095,22.9001143 16.052419,22.9726476 16.052419,22.9805714 C16.052419,22.983619 16.1084952,22.9156571 16.2041905,22.7928381 C16.8539429,21.9690667 19.8125714,18.0903619 19.9914667,17.7581714 C20.135619,17.489981 20.3489524,17.1849143 20.4732952,16.8527238 L22.8016762,16.8527238 C22.8016762,16.8527238 22.855619,17.5481905 22.9269333,17.7404952 L24.3846095,22.7928381 Z" id="Fill-3-Copy" fill="#FEFEFE"></path>
                                </g>
                            </g>
                        </g>
                    </g>
                </g>
            </g>
        </g>
    </g>
</svg>