<svg width="41" height="40" xmlns="http://www.w3.org/2000/svg">
    <g transform="translate(.5)" fill="none" fill-rule="evenodd">
        <circle fill="#F8F8F8" cx="20" cy="20" r="20"/>
        <g fill="#FF3B42">
            <path d="M5 22.921h1.148v-5.635H5v5.635zm1.148-2.839 2.861-2.796h1.446l-2.871 2.796 3.073 2.839H9.168l-3.02-2.839zm10.996.021c0 1.706-1.425 3.104-3.137 3.104s-3.137-1.398-3.137-3.104c0-1.705 1.425-3.103 3.137-3.103s3.137 1.398 3.137 3.103zm-1.127 0c0-1.165-.883-2.097-2.01-2.097-1.127 0-2.01.932-2.01 2.097 0 1.166.883 2.13 2.01 2.13 1.127 0 2.01-.964 2.01-2.13zm6.699 2.818v-4.597h-3.36v4.597h-1.149v-5.635h5.657v5.635h-1.148zm2.042 0 3.126-5.794 3.126 5.794h-1.318l-1.808-3.57-1.808 3.57h-1.318zM33.852 22.92H35v-5.634h-1.148z"/>
        </g>
    </g>
</svg>
