<?xml version="1.0" encoding="UTF-8"?>
<svg width="40px" height="40px" viewBox="0 0 40 40" version="1.1" xmlns="http://www.w3.org/2000/svg" xmlns:xlink="http://www.w3.org/1999/xlink">
    <title>576FCE0D-9941-45AF-B5EE-29A54F3C9CA2</title>
    <g id="WSG" stroke="none" stroke-width="1" fill="none" fill-rule="evenodd">
        <g id="20Icon_기관로고" transform="translate(-746.000000, -367.000000)">
            <g id="#-Con" transform="translate(79.500000, 136.000000)">
                <g id="은행" transform="translate(0.500000, 144.000000)">
                    <g id="신한은행" transform="translate(666.000000, 54.000000)">
                        <g id="icon_32_bank_shinhan" transform="translate(0.000000, 33.000000)">
                            <circle id="Oval" fill="#00337F" cx="20" cy="20" r="20"></circle>
                            <g id="Group-7" transform="translate(10.000000, 8.750000)" fill="#D3A243">
                                <path d="M11.2925102,22.4733433 C11.2802375,22.1863953 11.7013089,22.1136356 11.7013089,22.1136356 L11.7013089,22.1136356 C15.4620232,21.3737654 14.3627375,18.9063628 13.0308543,17.6484083 L13.0308543,17.6484083 C12.4718608,17.1180511 7.23783487,12.6028563 7.23783487,12.6028563 L7.23783487,12.6028563 C2.24546474,8.30418751 2.64608162,4.94934984 2.64608162,4.94934984 L2.64608162,4.94934984 C2.8853998,0.818992701 6.50147123,-0.205195611 9.23741279,0.0320771162 L9.23741279,0.0320771162 C9.55621149,0.0601290642 9.73358162,0.255031662 9.67776993,0.520648545 L9.67776993,0.520648545 C9.61699071,0.812564129 9.19328941,0.834479714 9.19328941,0.834479714 L9.19328941,0.834479714 C8.32367902,0.884739454 7.54465305,0.974739454 6.95351668,1.37243426 L6.95351668,1.37243426 C4.74793227,2.85451218 5.40043227,5.37772647 8.3379972,8.18525893 L8.3379972,8.18525893 C8.70647123,8.53795374 9.10065954,8.90964205 9.50332188,9.2862979 L9.50332188,9.2862979 C9.50332188,9.2862979 10.0947504,9.80818101 11.2676725,10.924707 L11.2676725,10.924707 C13.5290686,13.0084408 14.7677375,14.1319797 14.7677375,14.1319797 L14.7677375,14.1319797 C18.7505297,17.4494148 17.3920556,20.481655 15.866731,21.5359408 L15.866731,21.5359408 C14.706666,22.3398044 13.4206595,22.7182135 11.7334517,22.8076291 L11.7334517,22.8076291 C11.7191336,22.8096745 11.7033543,22.8108433 11.6869907,22.8108433 L11.6869907,22.8108433 C11.5321206,22.8108433 11.3041985,22.716168 11.2925102,22.4733433 L11.2925102,22.4733433 Z M12.2237764,10.2266226 C10.9328024,9.95545374 10.6698154,8.78223945 10.6698154,8.78223945 L10.6698154,8.78223945 C10.5649128,8.3713953 10.5389063,7.85184984 10.6253998,7.18912257 L10.6253998,7.18912257 C10.8018933,5.80113556 11.1750427,5.14805114 11.6010816,4.07272647 L11.6010816,4.07272647 C12.1758543,2.62775893 10.7785167,1.78240179 11.0111141,1.25116803 L11.0111141,1.25116803 C11.3240686,0.531460233 12.3207894,1.44607062 13.4332245,1.51210958 L13.4332245,1.51210958 C14.3925427,1.56558361 14.966731,1.51707712 15.7109842,1.6175966 L15.7109842,1.6175966 C16.7027375,1.7490901 17.886179,2.08366803 18.4127375,2.70344075 L18.4127375,2.70344075 C18.8960492,3.26710958 18.1579323,3.96051867 17.2681595,3.52688231 L17.2681595,3.52688231 C16.6212115,3.21100569 15.8036141,3.40415504 16.2837115,4.08061608 L16.2837115,4.08061608 C16.8587764,4.72434984 17.1375427,4.74363556 17.7245881,4.89675244 L17.7245881,4.89675244 C19.3431271,5.32366803 19.3778998,6.87441478 18.2806595,7.67681738 L18.2806595,7.67681738 C17.0341011,8.58996673 15.771179,8.21243426 15.2636141,6.42061608 L15.2636141,6.42061608 C15.0123154,5.52821348 14.3796855,5.07266153 13.7339063,5.32892777 L13.7339063,5.32892777 C13.0910492,5.58022647 13.4709193,6.75665504 13.9597829,7.84571348 L13.9597829,7.84571348 C14.8089388,10.0133109 13.0890037,10.2359732 12.4347504,10.2359732 L12.4347504,10.2359732 C12.335692,10.2359732 12.261179,10.2307135 12.2237764,10.2266226 L12.2237764,10.2266226 Z M7.48562707,22.0686356 C6.08215305,21.9307135 4.40371149,21.4883109 2.94384136,20.2233433 L2.94384136,20.2233433 C1.60026993,19.0606485 0.766893307,17.4640252 0.364230969,16.063181 L0.364230969,16.063181 C-0.0504118877,14.6266875 -0.222814485,12.9459083 0.45949071,13.0794472 L0.45949071,13.0794472 C0.669588112,13.1206485 1.03221798,14.0428563 1.42786733,14.7166875 L1.42786733,14.7166875 C1.8354972,15.4098044 2.16598422,15.7925966 2.47952318,16.026655 L2.47952318,16.026655 C2.62036733,16.1341875 3.09988032,15.0667524 3.79621149,14.4604213 L3.79621149,14.4604213 C4.20121149,14.1270122 4.64478292,14.0115901 4.71578941,15.0094797 L4.71578941,15.0094797 C4.80432837,16.2344148 4.58283487,17.6928239 4.9404972,17.6928239 L4.9404972,17.6928239 C5.27565954,17.6928239 6.02692577,17.4388953 7.68403616,17.2995122 L7.68403616,17.2995122 C8.30760759,17.2457459 8.66117902,17.3635057 8.06682837,18.2012654 L8.06682837,18.2012654 C7.77082188,18.6179537 7.37458811,19.2079213 6.4366011,19.8799992 L6.4366011,19.8799992 C7.8429972,21.1969797 9.53137383,21.041233 9.56147123,21.5999343 L9.56147123,21.5999343 C9.57988032,21.9225317 8.9490037,22.1004862 8.11913357,22.1004862 L8.11913357,22.1004862 C7.91751019,22.1004862 7.7041985,22.0902589 7.48562707,22.0686356 L7.48562707,22.0686356 Z" id="Fill-4"></path>
                            </g>
                        </g>
                    </g>
                </g>
            </g>
        </g>
    </g>
</svg>