<?xml version="1.0" encoding="UTF-8"?>
<svg width="40px" height="40px" viewBox="0 0 40 40" version="1.1" xmlns="http://www.w3.org/2000/svg" xmlns:xlink="http://www.w3.org/1999/xlink">
    <title>9AD05BF8-4C69-44A2-850A-846D549AB845</title>
    <defs>
        <polygon id="path-1" points="0 0 22.4996573 0 22.4996573 21.7934204 0 21.7934204"></polygon>
        <polygon id="path-3" points="0 21.79375 22.5 21.79375 22.5 0 0 0"></polygon>
    </defs>
    <g id="WSG" stroke="none" stroke-width="1" fill="none" fill-rule="evenodd">
        <g id="20Icon_기관로고" transform="translate(-635.000000, -366.000000)">
            <g id="#-Con" transform="translate(79.500000, 136.000000)">
                <g id="은행" transform="translate(0.500000, 144.000000)">
                    <g id="중소기업은행" transform="translate(555.000000, 54.000000)">
                        <g id="Group" transform="translate(0.000000, 32.000000)">
                            <circle id="Oval" fill="#245295" cx="20" cy="20" r="20"></circle>
                            <g id="Group-8" transform="translate(8.750000, 8.750000)">
                                <g id="Group-3" transform="translate(0.000343, 0.000330)">
                                    <mask id="mask-2" fill="white">
                                        <use xlink:href="#path-1"></use>
                                    </mask>
                                    <g id="Clip-2"></g>
                                    <path d="M5.47365728,0.270545373 C4.86615728,0.574295373 4.41365728,1.09554537 4.19865728,1.74179537 L0.132407279,13.9680454 C-0.0838427209,14.6092954 -0.0338427209,15.3005454 0.272407279,15.9105454 C0.576157279,16.5155454 1.09865728,16.9680454 1.73990728,17.1830454 L15.0811573,21.6617954 C15.7286573,21.8767954 16.4174073,21.8280454 17.0249073,21.5230454 C17.6336573,21.2167954 18.0874073,20.6967954 18.2986573,20.0517954 L22.3686573,7.82804537 C22.8149073,6.49679537 22.0886573,5.05179537 20.7574073,4.60929537 L7.41865728,0.131795373 C6.76990728,-0.0819546274 6.08365728,-0.0357046274 5.47365728,0.270545373" id="Fill-1" fill="#FEFEFE" mask="url(#mask-2)"></path>
                                </g>
                                <mask id="mask-4" fill="white">
                                    <use xlink:href="#path-3"></use>
                                </mask>
                                <g id="Clip-5"></g>
                                <path d="M5.72375,14.46125 L6.6425,14.46125 L6.6425,8.11 L5.72375,8.11 L5.72375,14.46125 Z M11.995,12.01375 C11.27,12.82125 10.36625,13.47375 9.31875,13.87875 L8.71875,14.11125 L8.71875,8.4475 L9.3125,8.67875 C10.36,9.07875 11.26625,9.73 11.995,10.535 C12.51375,9.70125 12.835,8.73375 12.90125,7.68125 C13.06625,4.965 11.36625,2.47375 9.0275,1.60625 L7.10125,0.965 C6.23125,0.675 5.30625,1.155 5.01875,2.0225 L0.93875,14.255 C0.65,15.12625 1.1375,16.07 2.00875,16.3575 L11.26625,19.4475 C12.21,18.44375 12.82375,17.11375 12.9125,15.63125 C12.995,14.3075 12.64875,13.05875 11.995,12.01375 L11.995,12.01375 Z" id="Fill-4" fill="#2591CA" mask="url(#mask-4)"></path>
                                <path d="M11.4615,11.27425 C10.94275,10.66925 10.319,10.15925 9.59775,9.78675 L9.59775,12.77175 C10.319,12.39675 10.94775,11.883 11.4615,11.27425" id="Fill-6" fill="#E8510F" mask="url(#mask-4)"></path>
                                <path d="M18.21075,14.44075 L17.06325,14.44325 L14.702,11.267 L17.10075,8.092 L18.25825,8.087 L15.8545,11.272 L18.21075,14.44075 Z M20.462,5.42575 L11.96575,2.58575 C13.107,3.83575 13.80575,5.4945 13.8095,7.312 C13.8095,8.7495 13.362,10.12325 12.582,11.2745 C13.36575,12.422 13.81575,13.7945 13.82075,15.23075 C13.82075,16.94825 13.20325,18.5295 12.17575,19.75325 L15.367,20.8195 C16.24075,21.10825 17.16075,20.6295 17.45075,19.7595 L21.53325,7.527 C21.822,6.657 21.33325,5.7145 20.462,5.42575 L20.462,5.42575 Z" id="Fill-7" fill="#245295" mask="url(#mask-4)"></path>
                            </g>
                        </g>
                    </g>
                </g>
            </g>
        </g>
    </g>
</svg>