<?xml version="1.0" encoding="UTF-8"?>
<svg width="40px" height="40px" viewBox="0 0 40 40" version="1.1" xmlns="http://www.w3.org/2000/svg" xmlns:xlink="http://www.w3.org/1999/xlink">
    <title>F1994A0F-B5BD-4B6F-8C4D-4E79463C4173</title>
    <g id="WSG" stroke="none" stroke-width="1" fill="none" fill-rule="evenodd">
        <g id="20Icon_기관로고" transform="translate(-80.000000, -469.000000)">
            <g id="#-Con" transform="translate(79.500000, 136.000000)">
                <g id="은행" transform="translate(0.500000, 144.000000)">
                    <g id="카카오뱅크" transform="translate(0.000000, 156.000000)">
                        <g id="Group-Copy" transform="translate(0.000000, 33.000000)">
                            <circle id="Oval" fill="#FAE100" cx="20" cy="20" r="20"></circle>
                            <path d="M18.75,25 L21.25,25 L21.25,15 L18.75,15 L18.75,25 Z M26.0722402,20.6248311 C27.6850686,19.5889624 28.75,17.8110646 28.75,15.7879627 C28.75,12.5915293 26.0888852,10 22.8063582,10 L12.8443428,10 C12.653966,10 12.5,10.1499595 12.5,10.3347068 L12.5,30.9139422 C12.5,31.1000405 12.653966,31.25 12.8443428,31.25 L22.8063582,31.25 C26.0888852,31.25 28.75,28.6588084 28.75,25.4613618 C28.75,23.4389354 27.6850686,21.6596866 26.0722402,20.6248311 L26.0722402,20.6248311 Z" id="Fill-1" fill="#1E1E1E"></path>
                        </g>
                    </g>
                </g>
            </g>
        </g>
    </g>
</svg>