<?xml version="1.0" encoding="UTF-8"?>
<svg width="40px" height="40px" viewBox="0 0 40 40" version="1.1" xmlns="http://www.w3.org/2000/svg" xmlns:xlink="http://www.w3.org/1999/xlink">
    <title>FD02EF7C-37DE-4564-88E4-5BB0C8B23F0E</title>
    <defs>
        <polygon id="path-1" points="1.38777878e-16 1.38777878e-16 17.0729739 1.38777878e-16 17.0729739 18.4478857 1.38777878e-16 18.4478857"></polygon>
        <polygon id="path-3" points="0 2.77555756e-16 17.0640696 2.77555756e-16 17.0640696 18.4226286 0 18.4226286"></polygon>
    </defs>
    <g id="WSG" stroke="none" stroke-width="1" fill="none" fill-rule="evenodd">
        <g id="20Icon_기관로고" transform="translate(-814.000000, -754.000000)">
            <g id="#-Con" transform="translate(79.500000, 136.000000)">
                <g id="저축은행" transform="translate(0.500000, 531.000000)">
                    <g id="JT" transform="translate(734.000000, 54.000000)">
                        <g id="icon_32_saving_jt" transform="translate(0.000000, 33.000000)">
                            <circle id="Oval" fill="#009FE7" cx="20" cy="20" r="20"></circle>
                            <g id="Group-5" transform="translate(7.200000, 8.769143)">
                                <g id="Group-3" transform="translate(8.235743, 0.000000)">
                                    <mask id="mask-2" fill="white">
                                        <use xlink:href="#path-1"></use>
                                    </mask>
                                    <g id="Clip-2"></g>
                                    <path d="M17.0729739,9.2376 C17.0729739,4.13817143 13.0025739,-0.000114285714 7.98274783,-0.000114285714 C4.53676522,-0.000114285714 1.54156522,1.94502857 1.38777878e-16,4.80902857 C0.268243478,4.78502857 0.545391304,4.7736 0.82253913,4.7736 C5.84236522,4.7736 9.91276522,8.90502857 9.91276522,14.0067429 C9.91276522,15.6227429 9.51095652,17.1313143 8.79972174,18.4478857 C13.4344348,18.0273143 17.0729739,14.0661714 17.0729739,9.2376" id="Fill-1" fill="#FFFFFF" mask="url(#mask-2)"></path>
                                </g>
                                <g id="Group-6" transform="translate(0.000000, 4.808229)">
                                    <mask id="mask-4" fill="white">
                                        <use xlink:href="#path-3"></use>
                                    </mask>
                                    <g id="Clip-5"></g>
                                    <path d="M15.6304696,14.9382857 C15.5336348,15.0114286 15.4234435,15.0674286 15.3121391,15.1314286 C15.0561391,15.2708571 14.7912348,15.3908571 14.5107478,15.4902857 C14.1334261,15.6285714 13.7416348,15.7165714 13.3576348,15.7714286 C11.6624696,15.9897143 9.99067826,15.4068571 8.82086957,14.2537143 C8.2944,13.736 7.87144348,13.0982857 7.60097391,12.3657143 C6.78511304,10.1577143 7.57426087,7.76228571 9.38963478,6.38857143 C6.62928696,7.42285714 5.18455652,10.4891429 6.09725217,13.2982857 C6.02490435,13.1942857 5.96034783,13.0834286 5.89133913,12.9691429 C4.1906087,9.94171429 5.17342609,6.07657143 8.09961739,4.34285714 C10.8955826,2.68342857 14.4506435,3.57714286 16.2515478,6.30628571 C16.2370783,6.29371429 16.2281739,6.27314286 16.2181565,6.25371429 C14.1334261,2.53828571 9.53321739,1.248 5.95589565,3.36914286 C3.86226087,4.608 2.58114783,6.73257143 2.29064348,9.02285714 C2.12034783,8.41485714 2.02462609,7.768 2.02462609,7.10285714 C2.02462609,3.46971429 4.73043478,0.474285714 8.23429565,2.77555756e-16 C3.6096,0.437714286 0,4.38171429 0,9.18857143 C0,14.288 4.06928696,18.4228571 9.08354783,18.4228571 C12.5295304,18.4228571 15.5236174,16.4708571 17.0640696,13.5942857 C16.6778435,14.1234286 16.1970087,14.5794286 15.6304696,14.9382857" id="Fill-4" fill="#FFFFFF" mask="url(#mask-4)"></path>
                                </g>
                            </g>
                        </g>
                    </g>
                </g>
            </g>
        </g>
    </g>
</svg>