<?xml version="1.0" encoding="UTF-8"?>
<svg width="40px" height="40px" viewBox="0 0 40 40" version="1.1" xmlns="http://www.w3.org/2000/svg" xmlns:xlink="http://www.w3.org/1999/xlink">
    <title>447C0C80-F379-4150-9031-8A9F422DF4C8</title>
    <defs>
        <polygon id="path-1" points="-3.81639165e-16 3.46944695e-17 11.4236541 3.46944695e-17 11.4236541 4.17250595 -3.81639165e-16 4.17250595"></polygon>
    </defs>
    <g id="WSG" stroke="none" stroke-width="1" fill="none" fill-rule="evenodd">
        <g id="20Icon_기관로고" transform="translate(-196.000000, -754.000000)">
            <g id="#-Con" transform="translate(79.500000, 136.000000)">
                <g id="저축은행" transform="translate(0.500000, 531.000000)">
                    <g id="OK" transform="translate(116.000000, 54.000000)">
                        <g id="icon_32_saving_ok" transform="translate(0.000000, 33.000000)">
                            <circle id="Oval" fill="#5C4B4D" cx="20" cy="20" r="20"></circle>
                            <g id="Group-4" transform="translate(4.000400, 10.564151)">
                                <path d="M2.71394595,9.71118703 C2.71394595,11.439187 3.98996757,12.7027546 5.5468973,12.7027546 C7.10244324,12.7027546 8.37915676,11.439187 8.37915676,9.71118703 C8.37915676,8.3270573 7.10244324,7.06314378 5.5468973,7.06314378 C3.98996757,7.06314378 2.71394595,8.3270573 2.71394595,9.71118703 M11.0925838,9.69700324 C11.0925838,12.9416303 8.76454054,15.2304086 5.5468973,15.2304086 C2.32804324,15.2304086 2.78455937e-16,12.9416303 2.78455937e-16,9.69700324 C2.78455937e-16,6.66513297 2.6604973,4.53618162 5.5468973,4.53618162 C8.43260541,4.53618162 11.0925838,6.66513297 11.0925838,9.69700324" id="Fill-4" fill="#FFFFFF"></path>
                                <polygon id="Fill-6" fill="#FFFFFF" points="18.3740714 4.86886054 21.377747 4.86886054 17.2355632 9.61696865 21.7785254 14.8969686 18.5868281 14.8969686 14.7034119 10.5477362 14.6757362 10.5477362 14.6757362 14.8969686 12.0700714 14.8969686 12.0700714 4.86886054 14.6757362 4.86886054 14.6757362 9.00550919 14.7034119 9.00550919"></polygon>
                                <path d="M27.4396195,14.0017124 C27.4396195,14.6425773 26.9189708,15.1632259 26.2774141,15.1632259 C25.6362032,15.1632259 25.1155546,14.6425773 25.1155546,14.0017124 C25.1155546,13.3594638 25.6362032,12.839507 26.2774141,12.839507 C26.9189708,12.839507 27.4396195,13.3594638 27.4396195,14.0017124" id="Fill-8" fill="#E8470B"></path>
                                <path d="M26.2774486,12.3733449 C26.5372541,12.3733449 26.7818378,12.2868584 26.9760865,11.6757449 C27.4197622,10.286253 28.0125405,5.88772324 27.5436108,4.70631784 C27.2808649,4.04313946 26.6832432,3.87500973 26.2774486,3.87500973 C25.872,3.87500973 25.2743784,4.04313946 25.0116324,4.70631784 C24.5433946,5.88772324 25.1354811,10.286253 25.5791568,11.6757449 C25.7737514,12.2868584 26.0176432,12.3733449 26.2774486,12.3733449" id="Fill-10" fill="#E8470B"></path>
                                <g id="Group-14" transform="translate(20.565933, 0.000000)">
                                    <mask id="mask-2" fill="white">
                                        <use xlink:href="#path-1"></use>
                                    </mask>
                                    <g id="Clip-13"></g>
                                    <path d="M5.71658378,2.22223568 C7.37297297,2.22223568 8.85206486,2.98037622 9.8176,4.16108973 L11.4236541,2.58911135 C10.0429838,1.00571676 7.99775135,-0.000121081081 5.71658378,-0.000121081081 C3.43005405,-0.000121081081 1.3804973,1.01004108 -3.81639165e-16,2.5996627 L1.60674595,4.17250595 C2.57158919,2.98504649 4.05517838,2.22223568 5.71658378,2.22223568" id="Fill-12" fill="#F5AB00" mask="url(#mask-2)"></path>
                                </g>
                            </g>
                        </g>
                    </g>
                </g>
            </g>
        </g>
    </g>
</svg>