<svg width="41" height="40" xmlns="http://www.w3.org/2000/svg" xmlns:xlink="http://www.w3.org/1999/xlink">
    <defs>
        <path id="c" d="M0 0h4.359v6.313H0z"/>
        <path id="e" d="M0 0h3.149v5.132H0z"/>
        <circle id="a" cx="20" cy="20" r="20"/>
    </defs>
    <g transform="translate(.5)" fill="none" fill-rule="evenodd">
        <mask id="b" fill="#fff">
            <use xlink:href="#a"/>
        </mask>
        <use fill="#F8F8F8" xlink:href="#a"/>
        <g mask="url(#b)">
            <g transform="translate(3 20.056)">
                <mask id="d" fill="#fff">
                    <use xlink:href="#c"/>
                </mask>
                <path d="M2.702 2.49c-.51-.239-.93-.432-.93-.822 0-.298.239-.515.71-.515.174 0 .316.02.462.047a1.4 1.4 0 0 0 .226.025c.412 0 .644-.246.798-.712l.065-.19C3.966.294 3.295 0 2.417 0 1.022 0 .284.895.285 1.823c0 .47.147.809.376 1.076.296.344.717.57 1.112.762.576.282 1.095.49 1.095.908 0 .371-.382.583-.896.583-.703 0-1.315-.402-1.396-.45L0 5.782c.103.058.845.53 2.068.53 1.302-.002 2.29-.748 2.29-1.897 0-1.143-.916-1.568-1.656-1.926" fill="#E21837" mask="url(#d)"/>
            </g>
            <path d="m10.798 23.08 2.362-2.898h-1.683l-1.886 2.5h-.027v-2.5H8.176v6.137h.084c.6 0 1.313-.277 1.313-1.28v-1.41h.03l1.92 2.614h1.766l-2.491-3.164zM13.24 13.607c-.49.092-1.212.536-1.212 1.32.002.713.585 1.144.587 2.078.002.702-.384 1.174-.803 1.437.17-.015.354-.025.558-.026.428-.001.685.04.701.043l2.192-2.691a9.137 9.137 0 0 0-2.023-2.16M15.08 20.872c.277-.43.312-1.114.334-1.813.027-.649.162-1.139 1.032-1.142.194 0 .377.026.71.024 1.274-.005 2.107-.444 2.623-.733-1.057-.673-2.6-1.362-4.516-1.44-.125.353-1.095 3.051-1.168 3.27.011.012.181.203.392.575.314.51.483.943.594 1.259" fill="#E21837"/>
            <path d="M10.45 18.666c-.11 0-.165-.073-.18-.2l-.644-5.901c-.012-.112-.04-.315-.04-.387 0-.116.077-.178.165-.178.26-.001 1.677.33 3.178 1.384-.433.122-1.216.571-1.212 1.504.003.824.594 1.278.597 2.107.005 1.346-1.543 1.671-1.864 1.671M15.207 21.228a.946.946 0 0 0 .067.153c.036.058.08.085.135.084a.312.312 0 0 0 .125-.033c.116-.053 4.694-2.183 5.384-2.502.099-.049.29-.133.352-.17.064-.037.095-.09.095-.145 0-.03-.01-.062-.027-.09-.086-.14-.53-.609-1.27-1.124-.587.325-1.506.825-2.871.831-.335 0-.41-.022-.639-.022-.667.003-.833.288-.857.872-.005.11-.006.26-.013.422-.02.523-.083 1.243-.481 1.724M36.042 25.185v-1.65h.709l.249-.638h-.958V21.9s-.076-.002-.079 0c-.378 0-.769.16-.769.988v.01h-.628v.637h.628v1.944c0 .549.325.835.788.835.374 0 .855-.113.855-.853-.03.018-.21.135-.41.135-.277 0-.385-.169-.385-.411M32.766 22.846c-.811 0-1.496.66-1.496 1.74 0 1.106.663 1.733 1.656 1.733.79 0 1.197-.344 1.248-.375l-.1-.16c-.11-.181-.236-.24-.376-.24-.279 0-.316.117-.693.117-.65 0-.875-.507-.89-.844h2.173v-.253c0-1.035-.597-1.718-1.522-1.718zm-.653 1.37c0-.38.268-.734.64-.734.419 0 .649.363.655.733h-1.295zM22.704 25.308v-3.465c0-.391-.261-.694-.666-.694h-.182v4.499c0 .414.257.671.703.671.55 0 .714-.391.714-.759a.664.664 0 0 1-.256.06c-.196 0-.313-.115-.313-.312M25.916 25.91c.06.153.202.333.499.333.157 0 .36-.04.391-.054-.024-.096-.101-.357-.101-.94v-1.167c0-.865-.558-1.237-1.42-1.237a2.42 2.42 0 0 0-1.302.387l.058.104c.071.123.137.304.349.304.212 0 .393-.161.796-.161.442 0 .658.214.658.54v.12h-.28c-1.134 0-1.732.438-1.732 1.142 0 .622.475 1.038 1.13 1.038.625 0 .9-.363.954-.409zm-.072-.503c-.054.03-.281.237-.62.237-.294 0-.516-.178-.516-.47 0-.25.24-.464.699-.464h.437v.697z" fill="#F48025"/>
            <g transform="translate(18.014 22.84)">
                <mask id="f" fill="#fff">
                    <use xlink:href="#e"/>
                </mask>
                <path d="M1.376 0C.644 0 .096.181 0 .212v4.92h.135c.392 0 .718-.26.718-.78v-.926c.024.006.281.078.582.078.917 0 1.714-.571 1.714-1.78C3.149.71 2.495 0 1.376 0m-.11 2.806c-.21 0-.363-.038-.414-.05L.853.743c.047-.01.194-.052.413-.052.514 0 .965.334.965 1.056 0 .688-.404 1.058-.965 1.058" fill="#F48025" mask="url(#f)"/>
            </g>
            <path d="M27.564 24.002v2.241h.842v-2.329c.046-.042.345-.328.677-.328.433 0 .658.313.658.722v1.935h.84v-2.145c0-1.02-.784-1.245-1.222-1.245-.525 0-.9.333-1.011.442-.036-.137-.197-.368-.564-.368-.13 0-.3.039-.315.043.025.127.095.427.095 1.032" fill="#F48025"/>
        </g>
    </g>
</svg>
