<?xml version="1.0" encoding="UTF-8"?>
<svg width="40px" height="40px" viewBox="0 0 40 40" version="1.1" xmlns="http://www.w3.org/2000/svg" xmlns:xlink="http://www.w3.org/1999/xlink">
    <title>38263625-3F0C-421A-A4CD-0641C16A7C4E</title>
    <defs>
        <polygon id="path-1" points="3.46944695e-17 -3.46944695e-17 2.98966452 -3.46944695e-17 2.98966452 4.45965354 3.46944695e-17 4.45965354"></polygon>
    </defs>
    <g id="WSG" stroke="none" stroke-width="1" fill="none" fill-rule="evenodd">
        <g id="20Icon_기관로고" transform="translate(-311.000000, -754.000000)">
            <g id="#-Con" transform="translate(79.500000, 136.000000)">
                <g id="저축은행" transform="translate(0.500000, 531.000000)">
                    <g id="웰컴" transform="translate(231.000000, 54.000000)">
                        <g id="icon_32_saving_welcome" transform="translate(0.000000, 33.000000)">
                            <circle id="Oval" fill="#D50000" cx="20" cy="20" r="20"></circle>
                            <g id="Group-18" transform="translate(8.799865, 8.189090)">
                                <polygon id="Fill-1" fill="#FFFFFF" points="12.1454516 12.0838299 13.2403548 12.0838299 13.2403548 7.51400315 12.1454516 7.51400315 12.1454516 9.3856252 11.2477742 9.3856252 11.2477742 10.267578 12.1454516 10.267578"></polygon>
                                <polygon id="Fill-2" fill="#FFFFFF" points="13.8705871 12.0837921 14.9656839 12.0837921 14.9656839 7.51396535 13.8705871 7.51396535"></polygon>
                                <g id="Group-17">
                                    <path d="M9.24383226,8.06677795 C9.79002581,8.06677795 10.1157677,8.32340787 10.1157677,8.75351811 C10.1157677,9.18325039 9.79002581,9.44025827 9.24383226,9.44025827 C8.69667097,9.44025827 8.37092903,9.18325039 8.37092903,8.75351811 C8.37092903,8.32340787 8.69667097,8.06677795 9.24383226,8.06677795 M9.24383226,10.2675969 C10.4968645,10.2675969 11.2462839,9.49770709 11.2462839,8.75351811 C11.2462839,8.00895118 10.4968645,7.23943937 9.24383226,7.23943937 C7.9908,7.23943937 7.24234839,8.00895118 7.24234839,8.75351811 C7.24234839,9.49770709 7.9908,10.2675969 9.24383226,10.2675969" id="Fill-3" fill="#FFFFFF"></path>
                                    <polygon id="Fill-5" fill="#FFFFFF" points="8.7296129 12.1352126 9.85916129 12.1352126 9.85916129 11.5006299 11.7512903 11.5006299 11.7497419 10.6179213 7.01670968 10.6179213 7.01670968 11.5006299 8.7296129 11.5006299"></polygon>
                                    <path d="M8.25576774,13.338463 L13.8468,13.338463 L13.8468,13.7657386 L8.25576774,13.7657386 L8.25576774,15.0645732 C8.25576774,15.202715 8.30512258,15.3193134 8.40383226,15.4156913 L8.86544516,15.8646992 C8.95099355,15.9489827 9.05221935,15.9916913 9.16892903,15.9916913 L14.9655097,15.9916913 L14.9655097,15.1191874 L9.39692903,15.1191874 L9.39692903,14.6155654 L14.9655097,14.6155654 L14.9655097,12.4669039 L8.25576774,12.4669039 L8.25576774,13.338463 Z" id="Fill-7" fill="#FFFFFF"></path>
                                    <path d="M20.3887355,12.8874331 C21.4631226,12.8874331 22.2750581,13.3814173 22.2750581,14.0364094 C22.2750581,14.6919685 21.4631226,15.1855748 20.3887355,15.1855748 C19.3118323,15.1855748 18.500671,14.6919685 18.500671,14.0364094 C18.500671,13.3814173 19.3118323,12.8874331 20.3887355,12.8874331 M17.3711226,14.0364094 C17.3711226,15.1634646 18.6963484,16.0461732 20.3887355,16.0461732 C22.0793806,16.0461732 23.4038323,15.1634646 23.4038323,14.0364094 C23.4038323,12.9095433 22.0793806,12.0266457 20.3887355,12.0266457 C18.6963484,12.0266457 17.3711226,12.9095433 17.3711226,14.0364094" id="Fill-9" fill="#FFFFFF"></path>
                                    <g id="Group-13" transform="translate(21.004858, 7.514117)">
                                        <mask id="mask-2" fill="white">
                                            <use xlink:href="#path-1"></use>
                                        </mask>
                                        <g id="Clip-12"></g>
                                        <polygon id="Fill-11" fill="#FFFFFF" mask="url(#mask-2)" points="1.89387097 1.43092913 1.09509677 1.43092913 1.09509677 -3.46944695e-17 3.46944695e-17 -3.46944695e-17 3.46944695e-17 4.01952756 1.09509677 4.01952756 1.09509677 2.32459843 1.89387097 2.32459843 1.89387097 4.45965354 2.98974194 4.45965354 2.98974194 -3.46944695e-17 1.89387097 -3.46944695e-17"></polygon>
                                    </g>
                                    <path d="M17.4837484,10.7777764 L19.2125226,10.7777764 L19.2125226,9.77091024 L17.4837484,9.77091024 L17.4837484,10.7777764 Z M20.3693613,7.63226457 L19.2125226,7.63226457 L19.2125226,8.85097323 L17.4839419,8.85097323 L17.4839419,7.63226457 L16.3278774,7.63226457 L16.3278774,10.7316661 C16.3278774,10.8756661 16.3776194,10.9975559 16.4786516,11.0975244 L16.9505226,11.5661858 C17.0382,11.6540598 17.1417484,11.6977134 17.2605871,11.6977134 L20.3693613,11.6977134 L20.3693613,7.63226457 Z" id="Fill-14" fill="#FFFFFF"></path>
                                    <path d="M10.0000645,2.50979528 L5.43058065,2.50979528 C5.11645161,2.50979528 4.85922581,2.25883465 4.85922581,1.95193701 C4.85922581,1.64522835 5.11645161,1.39426772 5.43058065,1.39426772 L10.0000645,1.39426772 C10.3141935,1.39426772 10.5712258,1.64522835 10.5712258,1.95193701 C10.5712258,2.25883465 10.3141935,2.50979528 10.0000645,2.50979528 L10.0000645,2.50979528 Z M15.7774839,6.24869291 L15.7774839,3.34620472 C15.7774839,1.50576378 14.2350968,-1.04083409e-16 12.3503226,-1.04083409e-16 L3.42735484,-1.04083409e-16 C1.5423871,-1.04083409e-16 -3.79640167e-16,1.50576378 -3.79640167e-16,3.34620472 L-3.79640167e-16,20.1059528 C-3.79640167e-16,21.9465827 1.5423871,23.4521575 3.42735484,23.4521575 L12.3503226,23.4521575 C14.2350968,23.4521575 15.7774839,21.9465827 15.7774839,20.1059528 L15.7774839,17.3576693 L13.9985806,17.3576693 L13.9985806,19.7467087 L1.77909677,19.7467087 L1.77909677,3.7056378 L13.9985806,3.7056378 L13.9985806,6.24869291 L15.7774839,6.24869291 Z" id="Fill-16" fill="#FFFFFF"></path>
                                </g>
                            </g>
                        </g>
                    </g>
                </g>
            </g>
        </g>
    </g>
</svg>