<?xml version="1.0" encoding="UTF-8"?>
<svg width="40px" height="40px" viewBox="0 0 40 40" version="1.1" xmlns="http://www.w3.org/2000/svg" xmlns:xlink="http://www.w3.org/1999/xlink">
    <title>3F9B7049-7A1E-4081-A1A1-81AD80EE64FE</title>
    <g id="WSG" stroke="none" stroke-width="1" fill="none" fill-rule="evenodd">
        <g id="20Icon_기관로고" transform="translate(-682.000000, -2018.000000)">
            <g id="#-Con" transform="translate(79.500000, 136.000000)">
                <g id="보험" transform="translate(0.500000, 1692.000000)">
                    <g id="캐롯손해보험" transform="translate(601.000000, 158.000000)">
                        <g id="Group" transform="translate(1.000000, 32.000000)">
                            <circle id="Oval" fill="#F05014" cx="20" cy="20" r="20"></circle>
                            <path d="M14.9831247,23.2243513 C15.112,22.6028973 15.2513282,21.9824467 15.4184427,21.3693966 C15.4844682,21.1270615 15.4111654,21.0132944 15.1857659,20.946439 C14.7804173,20.8262749 14.4186667,20.9366553 14.1075267,21.1760427 C13.4181628,21.7064957 13.047944,22.4184492 12.9185394,23.2365183 C12.8411349,23.7253905 13.1890585,24.0736531 13.6898066,24.0744728 C14.3238626,24.0755346 14.8861374,23.6919628 14.9831247,23.2243513 Z M28.8985496,23.505884 C29.0461476,24.0439884 29.548285,24.2851319 30.1012977,24.0934087 C30.7186819,23.8793585 31.2726209,22.686686 31.0434504,22.0969036 C30.892743,21.7091298 30.7578473,21.3145827 30.6441221,20.9158336 C30.5925191,20.7349602 30.4975165,20.6863553 30.3218677,20.6939439 C29.8917761,20.7126333 29.6102087,20.9530869 29.3954606,21.2690508 C29.0301374,21.8065907 28.8659338,22.4059687 28.8370891,23.1014277 C28.8511807,23.1987632 28.857598,23.3565569 28.8985496,23.505884 Z M2.66666667,20.731699 C2.73031043,20.4370587 2.77615776,20.1377773 2.86050891,19.8485933 C3.45308397,17.817218 4.96842748,16.7022508 7.02401527,16.1790102 C8.21511959,15.8758404 9.40404071,15.9441383 10.5278626,16.4885769 C11.5147379,16.966662 12.0232265,17.8148975 11.9169771,18.8100143 C11.8664326,19.2830193 11.6163562,19.6460202 11.1565598,19.8319735 C10.9693995,19.9076091 10.7046361,19.9439845 10.5244885,19.8776936 C9.92232061,19.6561175 9.51994911,19.200234 9.13378626,18.7101075 C9.38624427,18.5698115 9.61700254,18.4674588 9.81554198,18.3247169 C10.0563562,18.1516204 10.269715,17.9317377 10.2046158,17.6132652 C10.1370025,17.2825004 9.85325191,17.1564409 9.54164885,17.0752863 C9.06246819,16.9505439 8.60253944,17.0409806 8.14856489,17.1857294 C6.41007125,17.7400772 5.22128244,19.2735491 5.23239695,20.9440558 C5.24232061,22.4426576 6.37394911,23.6148219 7.94744529,23.8271787 C9.07728753,23.9796416 10.0540407,23.6798586 10.9697303,23.0891354 C11.1738931,22.9574315 11.2834504,22.7961257 11.3400814,22.5675254 C11.6054402,21.4968984 12.2840204,20.7232323 13.2914707,20.2002426 C14.1485445,19.7552717 14.9927837,19.7532648 15.8259746,20.313696 C15.8933893,20.2287157 15.9529975,20.1580973 16.0075115,20.0840296 C16.254743,19.7480593 16.480341,19.6984509 16.84143,19.9292462 C16.9849262,20.0209372 17.1096336,20.1448015 17.2250127,20.2689795 C17.3993384,20.4567515 17.4353944,20.6513597 17.3006972,20.8973323 C16.8352774,21.7470103 16.5105089,22.6440391 16.451827,23.6069824 C16.4376692,23.8387812 16.5313486,24.0764753 16.5754758,24.3114726 C16.8188702,24.2150152 17.0972621,24.1610167 17.2977863,24.0125676 C17.6273842,23.768351 17.8240051,23.4447985 17.9261527,23.025604 C18.1559186,22.0829179 18.4604427,21.1553464 18.7649008,20.2305972 C18.9154097,19.7735848 19.2100763,19.668159 19.6600814,19.8870383 C20.0341374,20.0689777 20.4034962,20.2838432 20.2442545,20.8383164 C20.7732519,20.4923743 21.239598,20.1257985 21.8693537,20.1890164 C22.5248448,20.2548056 22.8234148,20.7073652 22.9876183,21.281594 C23.0179186,21.2702424 23.048285,21.2588907 23.0786514,21.2476018 C23.1818575,20.969205 23.2820865,20.6898046 23.388799,20.4126621 C23.6176387,19.8184895 23.7463155,19.7214677 24.1678066,19.81573 C24.6870789,19.9318176 25.0183969,20.3281835 24.9701679,20.8218848 C25.466285,20.5018444 25.9261476,20.1375892 26.550743,20.1855043 C27.249369,20.2390639 27.5054656,20.7250511 27.6584224,21.3758563 C27.8332112,21.18614 27.9439593,21.0765123 28.0421374,20.9576025 C28.4978982,20.4057006 29.0621578,20.0103382 29.7926718,19.8500985 C30.1091043,19.7806717 30.4215674,19.7365196 30.7119338,19.9358941 C30.7520254,19.9634265 30.8192417,19.9829939 30.864626,19.9719559 C31.3617354,19.8516664 31.6323868,20.1446761 31.8579847,20.4788276 C32.18143,20.9578534 32.3058066,21.4933236 32.2884733,22.061469 C32.2787481,22.3812585 32.3456336,22.4346926 32.6751654,22.3492733 C33.1272214,22.2321196 33.5168244,22.053504 33.589598,21.5322076 C33.6233384,21.2904997 33.7321679,21.0581992 33.8120865,20.805704 C33.6052112,20.7777326 33.4332672,20.7505766 33.2602646,20.7318872 C32.9508448,20.698334 32.9073791,20.4931896 32.9104224,20.2556836 C32.9137964,19.9987357 33.1164377,20.0087703 33.2878524,20.0284631 C33.9050382,20.0993951 34.3080051,19.9077973 34.437145,19.2872212 C34.530626,18.8379229 34.8653181,18.606375 35.3279593,18.5234016 C35.5872316,18.4769289 35.8429975,18.4061851 36.104056,18.3775866 C36.2556896,18.3609668 36.4147328,18.4061851 36.6296132,18.4301427 C36.3357405,18.9614737 36.0746819,19.4333498 35.8075369,19.9162013 L37.3333333,19.9162013 L37.3333333,20.1044123 C37.146173,20.6629621 36.7331501,20.8628384 36.1391858,20.7922201 C35.9872875,20.7741578 35.8242087,20.7639978 35.6787939,20.7981154 C35.5620254,20.8255223 35.3957048,20.9068024 35.3687125,20.9960475 C35.1271043,21.7950509 34.8897303,22.5966257 34.7024377,23.4080469 C34.6504377,23.6332605 34.7270483,23.9100894 34.8211247,24.1343623 C34.9410025,24.4199088 35.385715,24.4925341 35.6814402,24.3190613 C35.9153079,24.1819638 36.0238728,23.8695748 35.8405496,23.7006803 C35.5171043,23.4025906 35.7662545,23.2149439 35.9473944,23.0271719 C36.1366718,22.830745 36.4134758,22.63852 36.6683817,22.7874081 C36.8235216,22.8779702 36.915084,23.1827706 36.9082697,23.3875387 C36.8641425,24.717246 35.7076387,25.6719735 34.1129059,25.1807808 C33.610173,25.025872 33.2868601,24.6825012 33.1952316,24.1988972 C33.1303969,23.8562163 33.1600356,23.4966648 33.1569924,23.1445764 C33.1558677,23.0177644 33.1825954,22.8907016 33.1976132,22.7536668 C32.9087023,22.8107385 32.6738422,22.8888201 32.4369313,22.8949663 C32.1951908,22.9013006 32.1324733,23.0051585 32.0741221,23.2011464 C31.898341,23.7916814 31.6248448,24.3421408 31.1158931,24.7428969 C30.2930229,25.3910053 29.3463053,25.4880898 28.3871501,25.1196953 C27.4996438,24.7787705 27.3208193,24.0116896 27.3536997,23.1939967 C27.3710992,22.7613809 27.4414911,22.3306466 27.4838321,21.9379809 C27.1742137,21.8186949 26.8712112,21.7091298 26.5744936,21.5862062 C25.9850941,21.3420523 25.4421374,21.4166845 25.0056947,21.8665473 C24.7781781,22.1009801 24.5879084,22.3799415 24.4352824,22.6649862 C24.097084,23.2964749 23.9627176,23.9823384 23.9056896,24.685637 C23.8671858,25.1595828 23.7582239,25.2487024 23.2503308,25.2936699 C23.1736539,25.3005059 23.0963155,25.3023247 23.0191756,25.3035163 C22.5277557,25.3111049 22.3276947,25.1235837 22.3820763,24.6502651 C22.446117,24.0914645 22.5347684,23.534608 22.633542,22.9802602 C22.6983104,22.6170084 22.7999288,22.2596519 22.8699898,21.9634437 C22.501028,21.824402 22.1931959,21.70267 21.8807328,21.5930423 C21.7274453,21.5392318 21.5678728,21.4861113 21.4069771,21.4701187 C20.6196997,21.3917235 20.1964224,21.8660455 19.8563715,22.4321213 C19.4401069,23.125009 19.2655165,23.8866336 19.2037913,24.6756652 C19.1662799,25.1553181 19.0892723,25.2305774 18.5845547,25.2900323 C18.4755267,25.3028891 18.364514,25.3053351 18.2544936,25.3042689 C17.8567532,25.3005686 17.6752163,25.1255906 17.6691959,24.7442139 C17.667542,24.6375965 17.6689313,24.5308536 17.6689313,24.4145779 C17.2991756,24.6642508 16.9883664,24.942585 16.6209924,25.1076538 C15.9119796,25.426189 15.2994911,25.497999 14.9252366,24.5931935 C14.3355064,25.0502686 13.695827,25.3854235 12.9070941,25.2918511 C12.0756896,25.1931986 11.5814911,24.7013161 11.312229,23.9773211 C11.25143,24.0004007 11.2161018,24.0051044 11.1934758,24.0236056 C9.96486005,25.0315792 8.51415267,25.356825 6.92729262,25.299377 C5.08943003,25.2328352 3.39466667,24.0041636 2.88597964,22.3311483 C2.78938931,22.0135539 2.73858015,21.6833535 2.66666667,21.358923 L2.66666667,20.731699 Z" id="Fill-1" fill="#FFFFFF"></path>
                        </g>
                    </g>
                </g>
            </g>
        </g>
    </g>
</svg>