<?xml version="1.0" encoding="UTF-8"?>
<svg width="40px" height="40px" viewBox="0 0 40 40" version="1.1" xmlns="http://www.w3.org/2000/svg" xmlns:xlink="http://www.w3.org/1999/xlink">
    <title>B501057B-7D62-4D6B-8997-04CBFF3CD2E8</title>
    <defs>
        <polygon id="path-1" points="0 2.42861287e-16 8.52361436 2.42861287e-16 8.52361436 5.64551385 0 5.64551385"></polygon>
        <polygon id="path-3" points="0 8.75239385 30.2508062 8.75239385 30.2508062 -1.71608875e-16 0 -1.71608875e-16"></polygon>
    </defs>
    <g id="WSG" stroke="none" stroke-width="1" fill="none" fill-rule="evenodd">
        <g id="20Icon_기관로고" transform="translate(-202.000000, -1347.000000)">
            <g id="#-Con" transform="translate(79.500000, 136.000000)">
                <g id="증권" transform="translate(0.500000, 918.000000)">
                    <g id="메리츠증권" transform="translate(122.000000, 260.000000)">
                        <g id="icon_32_stock_meritz" transform="translate(0.000000, 33.000000)">
                            <circle id="icon_50_stock_kdb-copy" fill="#E7310E" cx="20" cy="20" r="20"></circle>
                            <g id="Group-12" transform="translate(4.800000, 15.200047)">
                                <g id="Group-3" transform="translate(0.000000, 2.908563)">
                                    <mask id="mask-2" fill="white">
                                        <use xlink:href="#path-1"></use>
                                    </mask>
                                    <g id="Clip-2"></g>
                                    <path d="M6.49460923,2.42861287e-16 C5.75612308,2.42861287e-16 5.22669538,0.242420513 4.79657436,0.860086154 C4.52079179,0.319745641 3.95846974,2.42861287e-16 3.17570872,2.42861287e-16 C2.58033641,2.42861287e-16 1.87443282,0.308676923 1.59896205,0.793829744 L1.59896205,0.165251282 L-7.79487179e-05,0.165251282 L-7.79487179e-05,5.64551385 L1.67613128,5.64551385 L1.67613128,2.49186462 C1.67613128,1.99579897 1.99587692,1.54354051 2.58033641,1.54354051 C3.18646564,1.54354051 3.4624041,1.95168 3.4624041,2.46988308 L3.4624041,5.64551385 L5.1164759,5.64551385 L5.1164759,2.48095179 C5.1164759,1.99579897 5.43637744,1.54354051 6.03159385,1.54354051 C6.62712205,1.54354051 6.90259282,1.95168 6.90259282,2.46988308 L6.90259282,5.64551385 L8.52361436,5.64551385 L8.52361436,2.09494974 C8.52361436,0.606441026 7.53117128,2.42861287e-16 6.49460923,2.42861287e-16" id="Fill-1" fill="#FFFFFF" mask="url(#mask-2)"></path>
                                </g>
                                <path d="M16.8089551,3.81273682 L16.8089551,3.07378297 L15.1879335,3.07378297 L15.1879335,8.55404554 L16.8639869,8.55404554 L16.8639869,6.16133169 C16.8639869,5.06958195 17.4705838,4.67282297 18.1431253,4.67282297 C18.3086884,4.67282297 18.4850084,4.68373579 18.672553,4.72785477 L18.672553,3.07378297 C18.5621776,3.04088862 18.3967705,3.01875118 18.2315192,3.01875118 C17.7904853,3.01875118 17.0956505,3.19522708 16.8089551,3.81273682" id="Fill-4" fill="#FFFFFF"></path>
                                <mask id="mask-4" fill="white">
                                    <use xlink:href="#path-3"></use>
                                </mask>
                                <g id="Clip-7"></g>
                                <polygon id="Fill-6" fill="#FFFFFF" mask="url(#mask-4)" points="19.2458503 8.55409231 20.9219036 8.55409231 20.9219036 3.07382974 19.2458503 3.07382974"></polygon>
                                <path d="M23.954592,1.47496123 L22.4551705,1.47496123 L22.4551705,2.18055303 C22.4551705,2.68784328 22.1793879,3.07384533 21.6058412,3.07384533 L21.3303705,3.07384533 L21.3303705,4.54052841 L22.3005202,4.54052841 L22.3005202,6.88912328 C22.3005202,7.98071713 22.9953551,8.65325867 24.1310679,8.65325867 C24.6600279,8.65325867 24.9358105,8.53197046 25.0022228,8.49892021 L25.0022228,7.10987405 C24.9027602,7.13185559 24.737353,7.16474995 24.5611889,7.16474995 C24.1971684,7.16474995 23.954592,7.04361764 23.954592,6.59135918 L23.954592,4.54052841 L25.0242043,4.54052841 L25.0242043,3.07384533 L23.954592,3.07384533 L23.954592,1.47496123 Z" id="Fill-8" fill="#FFFFFF" mask="url(#mask-4)"></path>
                                <path d="M20.0720755,-4.67692308e-05 C19.4890191,-4.67692308e-05 19.0029309,0.485729641 19.0029309,1.08110195 C19.0029309,1.67600656 19.4890191,2.16193887 20.0720755,2.16193887 C20.6791401,2.16193887 21.1649165,1.67600656 21.1649165,1.08110195 C21.1649165,0.485729641 20.6791401,-4.67692308e-05 20.0720755,-4.67692308e-05" id="Fill-9" fill="#FFFFFF" mask="url(#mask-4)"></path>
                                <path d="M10.7538519,5.15058626 C10.7870581,4.73808164 11.1437514,4.21379856 11.8576057,4.21379856 C12.6604775,4.21379856 12.9504468,4.72685703 12.972896,5.15058626 L10.7538519,5.15058626 Z M11.8353124,2.87573087 C10.3968468,2.87573087 9.0696919,4.01315856 9.0696919,5.79724882 C9.0696919,7.65975549 10.4300529,8.75244062 11.9581596,8.75244062 C13.2143811,8.75244062 14.0501473,8.11014318 14.4046581,7.28871959 L13.0184181,6.76225395 C12.8371093,7.09914831 12.5080098,7.31397497 11.980297,7.31397497 C11.3222539,7.31397497 10.7538519,6.86795241 10.7200222,6.24342728 L14.5787955,6.24342728 C14.5897083,6.21006523 14.6121575,5.95361395 14.6121575,5.71914421 C14.6121575,3.93520985 13.5525227,2.87573087 11.8353124,2.87573087 L11.8353124,2.87573087 Z" id="Fill-10" fill="#FFFFFF" mask="url(#mask-4)"></path>
                                <polygon id="Fill-11" fill="#FFFFFF" mask="url(#mask-4)" points="27.7027561 7.08750277 30.2070925 4.45221251 30.2070925 3.07376738 25.7188053 3.07376738 25.7188053 4.50740021 25.7188053 4.54060636 28.0363766 4.54060636 25.6527048 7.07658995 25.6527048 8.55402995 30.2508997 8.55402995 30.2508997 7.1097961 30.2508997 7.08750277"></polygon>
                            </g>
                        </g>
                    </g>
                </g>
            </g>
        </g>
    </g>
</svg>