<?xml version="1.0" encoding="UTF-8"?>
<svg width="40px" height="40px" viewBox="0 0 40 40" version="1.1" xmlns="http://www.w3.org/2000/svg" xmlns:xlink="http://www.w3.org/1999/xlink">
    <title>29DA4251-A19D-4378-8888-EA5106E0CBAE</title>
    <defs>
        <polygon id="path-1" points="-3.81639165e-16 3.46944695e-16 15.0018103 3.46944695e-16 15.0018103 16.7778233 -3.81639165e-16 16.7778233"></polygon>
    </defs>
    <g id="WSG" stroke="none" stroke-width="1" fill="none" fill-rule="evenodd">
        <g id="20Icon_기관로고" transform="translate(-452.000000, -1141.000000)">
            <g id="#-Con" transform="translate(79.500000, 136.000000)">
                <g id="증권" transform="translate(0.500000, 918.000000)">
                    <g id="키움증권" transform="translate(372.000000, 54.000000)">
                        <g id="icon_32_stock_kium" transform="translate(0.000000, 33.000000)">
                            <circle id="Oval" fill="#003D79" cx="20" cy="20" r="20"></circle>
                            <g id="Group-5" transform="translate(11.250000, 8.146810)">
                                <polygon id="Fill-1" fill="#FFFFFF" points="0 6.68469828 0 22.7392241 4.53685345 22.7392241 4.53685345 16.3635776 8.80538793 22.7392241 14.2881466 22.7392241 8.62435345 14.3159483 4.53685345 14.3159483 4.53685345 6.68469828"></polygon>
                                <g id="Group-4" transform="translate(3.508966, 0.000000)">
                                    <mask id="mask-2" fill="white">
                                        <use xlink:href="#path-1"></use>
                                    </mask>
                                    <g id="Clip-3"></g>
                                    <path d="M15.0019397,-0.000193965517 L12.2224138,14.9429095 L10.8827586,12.4161853 C10.8827586,12.4161853 9.98987069,10.7972198 9.25474138,10.0633836 L3.41896552,16.7778233 L-3.81639165e-16,13.805625 L5.83642241,7.09053879 C5.00818966,6.46403017 3.28060345,5.80648707 3.28060345,5.80648707 L0.592241379,4.83148707 L15.0019397,-0.000193965517 Z" id="Fill-2" fill="#EB008B" mask="url(#mask-2)"></path>
                                </g>
                            </g>
                        </g>
                    </g>
                </g>
            </g>
        </g>
    </g>
</svg>