<svg width="41" height="40" xmlns="http://www.w3.org/2000/svg" xmlns:xlink="http://www.w3.org/1999/xlink">
    <defs>
        <circle id="a" cx="20" cy="20" r="20"/>
    </defs>
    <g transform="translate(.5)" fill="none" fill-rule="evenodd">
        <mask id="b" fill="#fff">
            <use xlink:href="#a"/>
        </mask>
        <use fill="#FA2828" xlink:href="#a"/>
        <g mask="url(#b)" fill="#FFF">
            <path d="M4.697 14.226c0-.245-.048-.416-.21-.511-.026-.015-.053-.023-.08-.004-.058.04-.239.216-.315.3-.072.08-.092.129-.092.26v2.585c0 .215.048.368.208.45.028.016.054.021.08.005.06-.035.24-.191.316-.266.073-.072.093-.112.093-.228v-2.591zM9.293 14.226c0-.245-.047-.416-.208-.511-.027-.015-.054-.023-.08-.004-.057.04-.24.216-.316.3-.073.08-.091.129-.091.26v2.585c0 .215.047.368.209.45.026.016.051.021.08.005a3.13 3.13 0 0 0 .315-.266c.073-.072.091-.112.091-.228v-2.591zM7.77 15.657c.204.105.324.223.326.414.001.034-.005.06-.034.078a2.979 2.979 0 0 1-.403.17c-.102.035-.152.032-.261-.023l-1.82-.927c-.229-.116-.369-.245-.38-.441-.003-.033.002-.064.034-.079.065-.037.32-.123.435-.153.112-.03.167-.024.288.037l1.815.924zM14.309 14.226c0-.245-.048-.416-.209-.511-.026-.015-.052-.023-.08-.004-.058.04-.24.216-.316.3-.072.08-.091.129-.091.26v2.585c0 .215.048.368.208.45.027.016.053.021.081.005.058-.035.239-.191.316-.266.072-.072.091-.112.091-.228v-2.591zM18.905 14.226c0-.245-.046-.416-.208-.511-.026-.015-.053-.023-.08-.004-.059.04-.239.216-.315.3-.073.08-.093.129-.093.26v2.585c0 .215.05.368.21.45.026.016.054.021.08.005a3.13 3.13 0 0 0 .316-.266c.072-.072.09-.112.09-.228v-2.591zM17.383 15.657c.203.105.325.223.326.414 0 .034-.006.06-.035.078a2.89 2.89 0 0 1-.403.17c-.102.035-.152.032-.26-.023l-1.82-.927c-.23-.116-.367-.245-.38-.441-.003-.033.003-.064.034-.079.066-.037.32-.123.435-.153.11-.03.166-.024.288.037l1.815.924zM10.49 15.142c-.137 0-.188.019-.275.097-.09.08-.276.272-.317.333-.02.03-.013.057.005.086.1.17.283.222.54.222h1.973c.137 0 .189-.022.276-.098.088-.08.274-.274.318-.335.019-.03.01-.056-.006-.084-.1-.171-.283-.221-.54-.221H10.49zM11.687 23.322l.97-2.31.97 2.31h-1.94zm1.93-3.57c-.17-.38-.47-.61-.89-.61h-.09c-.42 0-.73.23-.9.61l-2.441 5.511a.82.82 0 0 0-.09.33c0 .4.31.72.71.72.32 0 .58-.18.71-.48l.49-1.15h3.081l.47 1.1c.14.32.38.53.74.53.41 0 .73-.33.73-.74 0-.1-.03-.2-.08-.31l-2.44-5.511zM27.436 24.233a.72.72 0 0 0-.46.17c-.44.35-.87.55-1.52.55-1.2 0-2.03-1-2.03-2.2v-.02c0-1.2.85-2.181 2.03-2.181.55 0 1 .18 1.43.5.11.07.25.15.46.15.42 0 .76-.33.76-.75a.77.77 0 0 0-.3-.61c-.58-.43-1.29-.71-2.34-.71-2.151 0-3.651 1.63-3.651 3.62v.02c0 2.01 1.53 3.601 3.59 3.601 1.12 0 1.861-.33 2.491-.88.14-.12.26-.31.26-.55 0-.39-.33-.71-.72-.71M21.018 19.181c-.32 0-.55.18-.74.46l-1.731 2.471-1.7-2.45c-.19-.28-.41-.47-.76-.47-.43 0-.771.33-.771.74 0 .22.08.4.19.55l2.26 3.07v1.991c0 .43.34.77.771.77.43 0 .77-.34.77-.77v-2.02l2.26-3.051c.101-.14.2-.33.2-.54 0-.42-.28-.75-.75-.75M7.981 21.662c0 .6-.45 1.06-1.22 1.06H5.54v-2.14h1.19c.77 0 1.25.37 1.25 1.06v.02zm1.56-.05c0-1.43-1.01-2.42-2.68-2.42H4.77c-.431 0-.771.34-.771.77v5.581c0 .43.34.77.77.77s.77-.34.77-.77v-1.45h1.17c1.571 0 2.831-.84 2.831-2.461v-.02zM34.39 22.772c0 1.2-.86 2.18-2.1 2.18-1.241 0-2.122-.999-2.122-2.2v-.02c0-1.2.86-2.18 2.1-2.18 1.241 0 2.122 1 2.122 2.2v.02zm-2.1-3.64c-2.162 0-3.732 1.63-3.732 3.62v.02c0 1.99 1.55 3.601 3.71 3.601 2.161 0 3.732-1.63 3.732-3.62v-.02c0-1.991-1.55-3.602-3.71-3.602z"/>
        </g>
    </g>
</svg>
