<svg width="41" height="40" xmlns="http://www.w3.org/2000/svg" xmlns:xlink="http://www.w3.org/1999/xlink">
    <defs>
        <circle id="a" cx="20" cy="20" r="20"/>
        <path id="c" d="M0 0h19v19H0z"/>
    </defs>
    <g transform="translate(.5)" fill="none" fill-rule="evenodd">
        <mask id="b" fill="#fff">
            <use xlink:href="#a"/>
        </mask>
        <use fill="#920983" xlink:href="#a"/>
        <g mask="url(#b)">
            <path d="M13.848 24.905a2.757 2.757 0 0 1-2.754-2.754V8.847a2.757 2.757 0 0 1 2.754-2.753H27.15a2.757 2.757 0 0 1 2.754 2.753v13.304a2.757 2.757 0 0 1-2.754 2.754H13.848z" fill="#FEFEFE"/>
            <g transform="translate(11 6)">
                <mask id="d" fill="#fff">
                    <use xlink:href="#c"/>
                </mask>
                <path d="M16.15.19a2.663 2.663 0 0 1 2.66 2.66v13.3a2.664 2.664 0 0 1-2.66 2.66H2.85a2.664 2.664 0 0 1-2.66-2.66V2.85A2.663 2.663 0 0 1 2.85.19h13.3zm0-.19H2.85A2.85 2.85 0 0 0 0 2.85v13.3A2.85 2.85 0 0 0 2.85 19h13.3A2.85 2.85 0 0 0 19 16.15V2.85A2.85 2.85 0 0 0 16.15 0z" fill="#888889" mask="url(#d)"/>
            </g>
            <path d="M19.042 13.252v7.817c0 .802.652 1.46 1.455 1.46.804 0 1.457-.658 1.457-1.46v-7.882c0-2.59-1.371-3.957-3.967-3.957h-2.35c-.802 0-1.454.653-1.454 1.457 0 .803.652 1.461 1.454 1.461h2.28c.546 0 1.125.366 1.125 1.104" fill="#920983"/>
            <path d="M25.355 9.23h-2.341c-.784 0-1.457.126-2.012.37.785.614 1.268 1.535 1.418 2.745.194-.131.428-.197.658-.197h2.277a1.459 1.459 0 1 0 0-2.919" fill="#EF8200"/>
            <path d="M15.753 34.022c0 .308.217.478.524.478.308 0 .525-.17.525-.478v-5.124c0-.308-.217-.478-.525-.478-.307 0-.524.17-.524.478v5.124zm-2.719-.95c.557 0 1.33-.06 1.809-.145.248-.045.425-.229.373-.504-.053-.269-.255-.34-.504-.308a11.22 11.22 0 0 1-1.566.125h-.302c-.091 0-.111-.027-.111-.118v-.904h1.526c.256 0 .446-.138.446-.413 0-.268-.19-.406-.446-.406h-1.526v-.747c0-.092.02-.112.111-.112H14.3c.256 0 .439-.144.439-.412 0-.275-.183-.42-.44-.42H12.36c-.433 0-.649.217-.649.643v3.079c0 .426.216.642.649.642h.674zM22.063 30.3h-1.016v-.923c0-.426-.23-.649-.655-.649H18.61c-.426 0-.655.223-.655.649v2.89c0 .425.229.64.655.64h1.782c.426 0 .655-.215.655-.64v-1.095h1.016v2.85c0 .308.216.478.524.478.308 0 .524-.17.524-.478v-5.124c0-.308-.216-.478-.524-.478-.308 0-.524.17-.524.478v1.403zm-3.086-.596c0-.092.02-.11.11-.11h.846c.092 0 .112.018.112.11v2.228c0 .092-.02.111-.112.111h-.845c-.092 0-.111-.02-.111-.111v-2.228zM28.24 34.022c0 .308.217.478.525.478.308 0 .524-.17.524-.478v-5.124c0-.308-.216-.478-.524-.478-.308 0-.524.17-.524.478v5.124zm-.93-1.363c.25-.045.433-.25.38-.537-.045-.282-.262-.374-.51-.335a10.15 10.15 0 0 1-1.612.119h-.145c-.091 0-.111-.02-.111-.112v-2.581c0-.288-.19-.505-.524-.505s-.524.217-.524.505v2.941c0 .433.216.656.662.656h.55c.675 0 1.245-.053 1.834-.15z" fill="#FEFEFE"/>
        </g>
    </g>
</svg>
