<svg width="41" height="40" xmlns="http://www.w3.org/2000/svg" xmlns:xlink="http://www.w3.org/1999/xlink">
    <defs>
        <path id="c" d="M0 0h2.764v4.006H0z"/>
        <path id="e" d="M0 0h1.366v2.481H0z"/>
        <path id="g" d="M0 9.132h36V0H0z"/>
        <circle id="a" cx="20" cy="20" r="20"/>
    </defs>
    <g transform="translate(.5)" fill="none" fill-rule="evenodd">
        <mask id="b" fill="#fff">
            <use xlink:href="#a"/>
        </mask>
        <use fill="#F8F8F8" xlink:href="#a"/>
        <g mask="url(#b)">
            <g transform="translate(2 15)">
                <g transform="translate(0 5.111)">
                    <mask id="d" fill="#fff">
                        <use xlink:href="#c"/>
                    </mask>
                    <path d="M1.714 1.58c-.324-.152-.59-.274-.59-.522 0-.189.152-.327.45-.327.11 0 .2.013.294.03.049.009.1.016.144.016.26 0 .408-.156.506-.452l.04-.12C2.519.188 2.09 0 1.534 0 .648 0 .18.568.18 1.157c0 .298.094.513.24.683.187.218.455.361.705.483.365.18.694.311.694.577 0 .235-.243.37-.568.37-.446 0-.836-.255-.885-.286L0 3.67c.065.036.536.336 1.312.336.827 0 1.452-.475 1.452-1.204 0-.725-.58-.994-1.05-1.222" fill="#E21837" mask="url(#d)"/>
                </g>
                <path d="m4.947 7.03 1.5-1.839H5.378L4.182 6.778h-.017V5.19h-.88v3.895h.052c.38 0 .834-.176.834-.813V7.38h.018l1.218 1.657h1.121L4.948 7.03M6.497 1.02c-.31.058-.77.34-.768.837 0 .453.37.726.371 1.318.002.446-.243.746-.509.912a3.97 3.97 0 0 1 .354-.016c.272 0 .435.026.445.027L7.781 2.39A5.795 5.795 0 0 0 6.497 1.02M7.665 5.628c.175-.272.197-.706.212-1.149.017-.412.103-.723.655-.724.122-.001.239.016.45.015.809-.004 1.337-.282 1.665-.465a5.777 5.777 0 0 0-2.866-.914c-.08.224-.695 1.936-.742 2.075.007.007.115.128.25.364.199.324.305.599.376.798" fill="#E21837"/>
                <path d="M4.727 4.23c-.07 0-.105-.046-.114-.128-.01-.08-.357-3.262-.409-3.744-.008-.07-.025-.2-.025-.245 0-.074.048-.113.105-.113.165 0 1.063.21 2.016.878-.275.077-.771.363-.77.954.002.524.377.812.38 1.337.002.854-.98 1.06-1.183 1.06M7.793 5.76a.646.646 0 0 0 .042.094c.022.037.05.053.085.053a.198.198 0 0 0 .077-.021c.073-.033 2.929-1.363 3.36-1.562.062-.03.18-.082.22-.105.04-.023.059-.057.059-.091a.112.112 0 0 0-.017-.056c-.054-.087-.33-.38-.792-.701-.367.202-.94.514-1.792.518-.209 0-.256-.014-.398-.013-.417.001-.52.18-.536.544-.002.068-.003.161-.008.263-.013.326-.051.775-.3 1.076M20.548 7.826v1.306h.505V7.775c.027-.025.206-.192.405-.192.26 0 .395.183.395.421v1.128h.503v-1.25c0-.594-.47-.726-.732-.726a.903.903 0 0 0-.607.258c-.02-.08-.118-.215-.338-.215-.077 0-.18.023-.189.025.016.074.058.25.058.602M32.35 7.826v1.306h.504V7.775c.028-.025.207-.192.406-.192.26 0 .395.183.395.421v1.128h.503v-1.25c0-.594-.47-.726-.733-.726a.904.904 0 0 0-.606.258c-.021-.08-.118-.215-.338-.215-.078 0-.18.023-.19.025.016.074.058.25.058.602M25.288 8.59c-.038.024-.216.139-.464.139-.34 0-.58-.268-.58-.618 0-.39.274-.621.58-.621.165 0 .234.05.343.05.116 0 .179-.057.236-.17l.051-.097c-.025-.016-.277-.187-.706-.187-.629 0-1.004.45-1.004 1.025 0 .627.43 1.021 1.004 1.021.416 0 .669-.17.713-.201l-.173-.342M26.964 8.891c.036.09.12.197.294.197a.988.988 0 0 0 .232-.032c-.015-.057-.061-.21-.061-.554v-.688c0-.51-.329-.729-.836-.729-.427 0-.732.204-.767.229l.034.06c.043.073.08.18.206.18.125 0 .231-.096.468-.096.261 0 .388.127.388.32v.07h-.164c-.669 0-1.02.258-1.02.673 0 .366.279.611.665.611.367 0 .53-.214.561-.241m-.042-.296c-.031.018-.166.14-.366.14-.172 0-.303-.105-.303-.278 0-.147.14-.273.411-.273h.258v.411" fill="#F48025"/>
                <g transform="translate(27.647 6.651)">
                    <mask id="f" fill="#fff">
                        <use xlink:href="#e"/>
                    </mask>
                    <path d="M.829 1.846V.92h.399l.138-.358H.83V0H.785C.572 0 .352.09.352.555v.005H0v.358h.352v1.092c0 .31.183.47.442.47.21 0 .48-.064.48-.48-.016.01-.117.076-.229.076-.155 0-.216-.094-.216-.23" fill="#F48025" mask="url(#f)"/>
                </g>
                <path d="M13.903 7.219c-.411 0-.623.271-.657.312a.586.586 0 0 0-.545-.312c-.362 0-.568.21-.602.245-.015-.057-.09-.21-.323-.21a.985.985 0 0 0-.175.023c.01.044.054.258.054.554v1.301h.476V7.805c.01-.008.188-.189.402-.189.22 0 .321.16.321.38v1.136h.479V7.805c.01-.01.184-.189.401-.189.218 0 .318.16.318.38v1.136h.48V7.921c0-.425-.241-.702-.629-.702M17.28 7.219c-.412 0-.624.271-.657.312a.586.586 0 0 0-.546-.312c-.362 0-.568.21-.602.245-.015-.057-.089-.21-.323-.21a.983.983 0 0 0-.175.023c.01.044.055.258.055.554v1.301h.476V7.805c.009-.008.187-.189.401-.189.22 0 .321.16.321.38v1.136h.479V7.805c.01-.01.184-.189.402-.189.217 0 .317.16.317.38v1.136h.481V7.921c0-.425-.242-.702-.63-.702M8.697 8.746c-.324 0-.555-.255-.555-.59 0-.372.262-.594.554-.594.158 0 .224.048.329.048.11 0 .17-.054.226-.161l.048-.094c-.024-.015-.265-.179-.675-.179-.6 0-.96.43-.96.98 0 .6.411.976.96.976.399 0 .64-.162.682-.193l-.165-.326c-.037.024-.207.133-.444.133M10.403 9.132c-.583 0-.935-.385-.935-.977 0-.59.347-.979.935-.979.59 0 .935.39.935.979 0 .557-.32.977-.935.977m0-.367c.292 0 .46-.25.46-.61 0-.356-.164-.612-.46-.612-.288 0-.46.25-.46.612 0 .35.164.61.46.61M31.113 9.132c-.542 0-.869-.358-.869-.909 0-.548.322-.91.87-.91s.87.362.87.91c0 .519-.298.91-.87.91m0-.342c.271 0 .428-.234.428-.568 0-.33-.153-.569-.429-.569-.267 0-.428.232-.428.57 0 .325.153.567.428.567M20.119 8.496v-1.24h-.467v1.301c-.025.024-.187.17-.386.17-.211 0-.353-.13-.353-.391v-1.08h-.464v1.186c0 .566.433.69.676.69.29 0 .498-.184.56-.245.019.075.108.204.312.204.072 0 .165-.02.174-.022-.014-.071-.052-.238-.052-.573M23.543 6.732a.285.285 0 0 1-.29.281.285.285 0 0 1-.288-.28c0-.156.13-.282.289-.282.16 0 .289.126.289.281" fill="#F48025"/>
                <mask id="h" fill="#fff">
                    <use xlink:href="#g"/>
                </mask>
                <path fill="#F48025" mask="url(#h)" d="M23.021 9.132h.466V7.297h-.466zM29.932 6.732a.285.285 0 0 1-.289.281.285.285 0 0 1-.289-.28c0-.156.13-.282.29-.282.16 0 .288.126.288.281M29.41 9.132h.466V7.297h-.465zM35.26 9.132c-.3 0-.527-.08-.678-.171l.151-.34c.136.092.31.164.492.164.19 0 .311-.079.311-.203 0-.14-.209-.21-.363-.272-.225-.091-.478-.208-.478-.547 0-.316.253-.54.692-.54.329 0 .556.102.574.11l-.024.075c-.019.063-.066.221-.215.221-.108 0-.174-.051-.34-.051-.148 0-.24.063-.24.162 0 .126.164.178.347.25.21.083.511.237.511.573 0 .409-.347.57-.74.57"/>
            </g>
        </g>
    </g>
</svg>
