<svg width="40" height="40" xmlns="http://www.w3.org/2000/svg" xmlns:xlink="http://www.w3.org/1999/xlink">
    <defs>
        <path id="a" d="M0 0h26.667v14.222H0z"/>
    </defs>
    <g fill="none" fill-rule="evenodd">
        <circle fill="#053266" cx="20" cy="20" r="20"/>
        <g transform="matrix(1 0 0 -1 6.667 27.556)">
            <mask id="b" fill="#fff">
                <use xlink:href="#a"/>
            </mask>
            <path d="M8.454 1.63c.28-.06.494-.06.559.018.04.044.056.123 0 .218-.032.052-.06.095-.115.168-2.36 2.894-4.153 7.165-4.662 8.396-.04.087-.078.173-.106.227-.054.088-.114.155-.229.164a.503.503 0 0 1-.275-.096C2.065 9.72 1.097 8.468 1.097 7.112c0-2.452 3.031-4.564 7.357-5.482m2.412 1.844c.219-.533.603-1.682 1.482-2.14.265-.137.597-.2.89-.211h.136c2.418 0 4.668.343 6.567.937.138.044.442.101.442.305 0 .092-.049.163-.112.226a.878.878 0 0 1-.122.112c-.441.387-1.776 1.392-4.284 2.39-.882.358-1.989.79-3.137 1.045-.68.148-3.188.546-1.862-2.664m11.714.096c.046-.09.11-.162.225-.168.061-.009.144.01.272.092 1.568 1.006 2.497 2.255 2.497 3.615 0 2.455-3.025 4.56-7.355 5.484-.28.056-.46.056-.525-.02-.04-.048-.054-.124 0-.22a.836.836 0 0 1 .115-.164c2.358-2.897 4.155-7.165 4.662-8.403a2.58 2.58 0 0 1 .109-.216m-6.739 7.167c-.217.533-.605 1.682-1.48 2.14a2.166 2.166 0 0 1-.893.208c-.064.005-.11 0-.131 0-2.412 0-4.666-.34-6.561-.925-.14-.042-.448-.121-.448-.319 0-.087.045-.157.11-.223.028-.03.067-.063.119-.11.44-.388 1.78-1.395 4.29-2.393.88-.35 1.98-.788 3.133-1.041.682-.15 3.19-.546 1.861 2.663m-2.509 3.485c7.367 0 13.335-3.183 13.335-7.11C26.667 3.185 20.699 0 13.332 0 5.972 0 0 3.185 0 7.112s5.972 7.11 13.332 7.11" fill="#FEFEFE" mask="url(#b)"/>
        </g>
    </g>
</svg>
