<?xml version="1.0" encoding="UTF-8"?>
<svg width="40px" height="40px" viewBox="0 0 40 40" version="1.1" xmlns="http://www.w3.org/2000/svg" xmlns:xlink="http://www.w3.org/1999/xlink">
    <title>4AFDDD46-EAFF-490D-ADAC-E93FA65DBDB1</title>
    <defs>
        <path d="M10.3572277,7.97972799e-16 C6.4170103,7.97972799e-16 2.91374943,1.85978261 0.671358121,4.70543478 L0.671358121,4.70543478 C3.29744508,3.06413043 4.99309725,4.65217391 4.17244508,6.62173913 L4.17244508,6.62173913 C3.78983638,7.55108696 2.09418421,8.20869565 1.27353203,9.08478261 L1.27353203,9.08478261 C-0.752554922,11.1097826 -0.205815792,14.8858696 1.82027116,15.5967391 L1.82027116,15.5967391 C3.7344016,16.198913 1.92896682,12.751087 3.7344016,11.2184783 L3.7344016,11.2184783 C5.65070595,9.79565217 10.6311407,12.3673913 6.63548856,15.7054348 L6.63548856,15.7054348 C5.70614073,16.3630435 5.59635812,16.5815217 4.99309725,17.1836957 L4.99309725,17.1836957 C1.76483638,20.4673913 7.01809725,24.1336957 10.849619,23.6413043 L10.849619,23.6413043 C14.2974451,23.2586957 15.2267929,21.0141304 15.6648364,17.7858696 L15.6648364,17.7858696 C16.1028799,14.8858696 15.5561407,13.9 15.9941842,11.7663043 L15.9941842,11.7663043 C17.4170103,7.77173913 22.1224451,11.1630435 22.7789668,13.1336957 L22.7789668,13.1336957 C22.7789668,12.9152174 22.8344016,12.6967391 22.8344016,12.4771739 L22.8344016,12.4771739 C22.8344016,5.5826087 17.2517929,7.97972799e-16 10.3572277,7.97972799e-16 Z" id="path-1"></path>
        <path d="M2.73695652,0.682608696 C1.04021739,2.8173913 0,5.49891304 0,8.45434783 L0,8.45434783 C0,15.2956522 5.58152174,20.8771739 12.4228261,20.8771739 L12.4228261,20.8771739 C14.6673913,20.8771739 16.801087,20.276087 18.6065217,19.2358696 L18.6065217,19.2358696 L18.6065217,6.70326087 C18.3869565,6.97717391 18.223913,7.35978261 18.0597826,7.74347826 L18.0597826,7.74347826 C17.6217391,9.87717391 18.1684783,10.8630435 17.7304348,13.7630435 L17.7304348,13.7630435 C17.2923913,16.9913043 16.3630435,19.2358696 12.9152174,19.6184783 L12.9152174,19.6184783 C9.08369565,20.1108696 3.83043478,16.4445652 7.05869565,13.1608696 L7.05869565,13.1608696 C7.66195652,12.5586957 7.77173913,12.3402174 8.70108696,11.6826087 L8.70108696,11.6826087 C12.6967391,8.34456522 7.71630435,5.77282609 5.8,7.19565217 L5.8,7.19565217 C3.99456522,8.72826087 5.8,12.176087 3.88586957,11.573913 L3.88586957,11.573913 C1.85978261,10.8630435 1.31304348,7.08695652 3.33913043,5.06195652 L3.33913043,5.06195652 C4.15978261,4.18586957 5.85543478,3.52826087 6.23804348,2.59891304 L6.23804348,2.59891304 C6.81956522,1.20326087 6.13804348,0 4.7576087,0 L4.7576087,0 C4.19021739,0 3.50326087,0.204347826 2.73695652,0.682608696 L2.73695652,0.682608696 Z M16.4717391,0.956521739 C15.8706522,1.77717391 16.3630435,3.09130435 17.5663043,3.9673913 L17.5663043,3.9673913 C17.8945652,4.18586957 18.2782609,4.40543478 18.6065217,4.51413043 L18.6065217,4.51413043 L18.6065217,0.573913043 C18.3032609,0.460869565 17.998913,0.405434783 17.7163043,0.405434783 L17.7163043,0.405434783 C17.1826087,0.405434783 16.7228261,0.6 16.4717391,0.956521739 L16.4717391,0.956521739 Z M18.6065217,4.51413043 C19.4826087,4.78804348 20.3576087,4.67826087 20.7402174,4.07608696 L20.7402174,4.07608696 C21.3423913,3.31086957 20.85,1.9423913 19.6467391,1.06630435 L19.6467391,1.06630435 C19.3173913,0.84673913 18.9347826,0.682608696 18.6065217,0.573913043 L18.6065217,0.573913043 L18.6065217,4.51413043 Z M18.6065217,6.70326087 L18.6065217,19.2358696 C22.1630435,17.2108696 24.6271739,13.4347826 24.8445652,9.11086957 L24.8445652,9.11086957 C24.398913,7.81304348 22.1815217,5.88586957 20.3271739,5.88586957 L20.3271739,5.88586957 C19.6782609,5.88586957 19.075,6.12173913 18.6065217,6.70326087 L18.6065217,6.70326087 Z" id="path-3"></path>
    </defs>
    <g id="WSG" stroke="none" stroke-width="1" fill="none" fill-rule="evenodd">
        <g id="20Icon_기관로고" transform="translate(-424.000000, -1347.000000)">
            <g id="#-Con" transform="translate(79.500000, 136.000000)">
                <g id="증권" transform="translate(0.500000, 918.000000)">
                    <g id="유진투자증권" transform="translate(344.000000, 260.000000)">
                        <g id="icon_32_stock_eugene" transform="translate(0.000000, 33.000000)">
                            <circle id="Oval" fill="#BE1F24" cx="20" cy="20" r="20"></circle>
                            <g id="Group-7" transform="translate(7.500000, 8.586739)">
                                <g id="Group-3" transform="translate(2.065598, 0.000000)">
                                    <mask id="mask-2" fill="white">
                                        <use xlink:href="#path-1"></use>
                                    </mask>
                                    <g id="Clip-2"></g>
                                    <path d="M10.3572277,7.97972799e-16 C6.4170103,7.97972799e-16 2.91374943,1.85978261 0.671358121,4.70543478 L0.671358121,4.70543478 C3.29744508,3.06413043 4.99309725,4.65217391 4.17244508,6.62173913 L4.17244508,6.62173913 C3.78983638,7.55108696 2.09418421,8.20869565 1.27353203,9.08478261 L1.27353203,9.08478261 C-0.752554922,11.1097826 -0.205815792,14.8858696 1.82027116,15.5967391 L1.82027116,15.5967391 C3.7344016,16.198913 1.92896682,12.751087 3.7344016,11.2184783 L3.7344016,11.2184783 C5.65070595,9.79565217 10.6311407,12.3673913 6.63548856,15.7054348 L6.63548856,15.7054348 C5.70614073,16.3630435 5.59635812,16.5815217 4.99309725,17.1836957 L4.99309725,17.1836957 C1.76483638,20.4673913 7.01809725,24.1336957 10.849619,23.6413043 L10.849619,23.6413043 C14.2974451,23.2586957 15.2267929,21.0141304 15.6648364,17.7858696 L15.6648364,17.7858696 C16.1028799,14.8858696 15.5561407,13.9 15.9941842,11.7663043 L15.9941842,11.7663043 C17.4170103,7.77173913 22.1224451,11.1630435 22.7789668,13.1336957 L22.7789668,13.1336957 C22.7789668,12.9152174 22.8344016,12.6967391 22.8344016,12.4771739 L22.8344016,12.4771739 C22.8344016,5.5826087 17.2517929,7.97972799e-16 10.3572277,7.97972799e-16 Z" id="Fill-1" mask="url(#mask-2)"></path>
                                </g>
                                <g id="Group-6" transform="translate(0.000000, 4.022826)">
                                    <mask id="mask-4" fill="white">
                                        <use xlink:href="#path-3"></use>
                                    </mask>
                                    <g id="Clip-5"></g>
                                    <path d="M2.73695652,0.682608696 C1.04021739,2.8173913 0,5.49891304 0,8.45434783 L0,8.45434783 C0,15.2956522 5.58152174,20.8771739 12.4228261,20.8771739 L12.4228261,20.8771739 C14.6673913,20.8771739 16.801087,20.276087 18.6065217,19.2358696 L18.6065217,19.2358696 L18.6065217,6.70326087 C18.3869565,6.97717391 18.223913,7.35978261 18.0597826,7.74347826 L18.0597826,7.74347826 C17.6217391,9.87717391 18.1684783,10.8630435 17.7304348,13.7630435 L17.7304348,13.7630435 C17.2923913,16.9913043 16.3630435,19.2358696 12.9152174,19.6184783 L12.9152174,19.6184783 C9.08369565,20.1108696 3.83043478,16.4445652 7.05869565,13.1608696 L7.05869565,13.1608696 C7.66195652,12.5586957 7.77173913,12.3402174 8.70108696,11.6826087 L8.70108696,11.6826087 C12.6967391,8.34456522 7.71630435,5.77282609 5.8,7.19565217 L5.8,7.19565217 C3.99456522,8.72826087 5.8,12.176087 3.88586957,11.573913 L3.88586957,11.573913 C1.85978261,10.8630435 1.31304348,7.08695652 3.33913043,5.06195652 L3.33913043,5.06195652 C4.15978261,4.18586957 5.85543478,3.52826087 6.23804348,2.59891304 L6.23804348,2.59891304 C6.81956522,1.20326087 6.13804348,0 4.7576087,0 L4.7576087,0 C4.19021739,0 3.50326087,0.204347826 2.73695652,0.682608696 L2.73695652,0.682608696 Z M16.4717391,0.956521739 C15.8706522,1.77717391 16.3630435,3.09130435 17.5663043,3.9673913 L17.5663043,3.9673913 C17.8945652,4.18586957 18.2782609,4.40543478 18.6065217,4.51413043 L18.6065217,4.51413043 L18.6065217,0.573913043 C18.3032609,0.460869565 17.998913,0.405434783 17.7163043,0.405434783 L17.7163043,0.405434783 C17.1826087,0.405434783 16.7228261,0.6 16.4717391,0.956521739 L16.4717391,0.956521739 Z M18.6065217,4.51413043 C19.4826087,4.78804348 20.3576087,4.67826087 20.7402174,4.07608696 L20.7402174,4.07608696 C21.3423913,3.31086957 20.85,1.9423913 19.6467391,1.06630435 L19.6467391,1.06630435 C19.3173913,0.84673913 18.9347826,0.682608696 18.6065217,0.573913043 L18.6065217,0.573913043 L18.6065217,4.51413043 Z M18.6065217,6.70326087 L18.6065217,19.2358696 C22.1630435,17.2108696 24.6271739,13.4347826 24.8445652,9.11086957 L24.8445652,9.11086957 C24.398913,7.81304348 22.1815217,5.88586957 20.3271739,5.88586957 L20.3271739,5.88586957 C19.6782609,5.88586957 19.075,6.12173913 18.6065217,6.70326087 L18.6065217,6.70326087 Z" id="Fill-4" fill="#FFFFFF" mask="url(#mask-4)"></path>
                                </g>
                            </g>
                        </g>
                    </g>
                </g>
            </g>
        </g>
    </g>
</svg>