<?xml version="1.0" encoding="UTF-8"?>
<svg width="41px" height="40px" viewBox="0 0 41 40" version="1.1" xmlns="http://www.w3.org/2000/svg" xmlns:xlink="http://www.w3.org/1999/xlink">
    <title>4C2E9443-E9DB-4010-8003-69A112D1046C</title>
    <defs>
        <polygon id="path-1" points="7.21417961e-16 -1.04083409e-16 35.9764751 -1.04083409e-16 35.9764751 7.15881306 7.21417961e-16 7.15881306"></polygon>
    </defs>
    <g id="WSG" stroke="none" stroke-width="1" fill="none" fill-rule="evenodd">
        <g id="20Icon_기관로고" transform="translate(-635.000000, -1633.000000)">
            <g id="#-Con" transform="translate(79.500000, 136.000000)">
                <g id="카드" transform="translate(1.000000, 1410.000000)">
                    <g id="현대" transform="translate(555.000000, 54.000000)">
                        <g id="Group" transform="translate(0.000000, 33.000000)">
                            <circle id="Oval" fill="#000000" cx="20" cy="20" r="20"></circle>
                            <g id="Group-26" transform="translate(2.400015, 16.146939)">
                                <g id="Group-3">
                                    <mask id="mask-2" fill="white">
                                        <use xlink:href="#path-1"></use>
                                    </mask>
                                    <g id="Clip-2"></g>
                                    <path d="M1.95237551,-1.04083409e-16 C0.876195918,-1.04083409e-16 7.21417961e-16,0.875902041 7.21417961e-16,1.95222857 L7.21417961e-16,7.15885714 L0.650644898,7.15885714 L0.650644898,1.95222857 C0.650644898,1.23355102 1.23340408,0.650791837 1.95237551,0.650791837 L34.0244082,0.650791837 C34.7432327,0.650791837 35.325698,1.23355102 35.325698,1.95222857 L35.325698,7.15885714 L35.9767837,7.15885714 L35.9767837,1.95222857 C35.9767837,0.875755102 35.1004408,-1.04083409e-16 34.0244082,-1.04083409e-16 L1.95237551,-1.04083409e-16 Z" id="Fill-1" fill="#FFFFFF" mask="url(#mask-2)"></path>
                                </g>
                                <path d="M5.99635102,5.78758041 C5.99635102,5.8387151 5.96387755,5.85737633 5.90818776,5.85737633 L5.42549388,5.85737633 C5.36980408,5.85737633 5.35143673,5.8387151 5.35143673,5.78302531 L5.35143673,4.46968653 C5.35143673,4.40944163 5.30955918,4.37667429 5.24931429,4.37667429 L3.9825551,4.37667429 C3.92686531,4.37667429 3.89409796,4.40944163 3.89409796,4.46968653 L3.89409796,5.78302531 C3.89409796,5.8387151 3.86177143,5.85737633 3.81093061,5.85737633 L3.31868571,5.85737633 C3.27254694,5.85737633 3.25388571,5.8387151 3.25388571,5.78758041 L3.25388571,2.52539265 C3.25388571,2.4744049 3.27254694,2.44648653 3.31868571,2.44648653 L3.81093061,2.44648653 C3.86177143,2.44648653 3.89409796,2.4744049 3.89409796,2.52539265 L3.89409796,3.78759673 C3.89409796,3.84784163 3.92686531,3.87561306 3.9825551,3.87561306 L5.24931429,3.87561306 C5.30955918,3.87561306 5.35143673,3.84784163 5.35143673,3.78759673 L5.35143673,2.52539265 C5.35143673,2.4744049 5.36980408,2.44648653 5.42549388,2.44648653 L5.90818776,2.44648653 C5.96387755,2.44648653 5.99635102,2.4744049 5.99635102,2.52539265 L5.99635102,5.78758041 Z" id="Fill-4" fill="#FFFFFF"></path>
                                <path d="M7.16123755,5.9035151 C6.80388245,5.9035151 6.61829878,5.61595592 6.61829878,5.36998041 L6.61829878,3.34222531 C6.61829878,3.28183347 6.6415151,3.2539151 6.6972049,3.2539151 L7.16123755,3.2539151 C7.20737633,3.2539151 7.24014367,3.28183347 7.24014367,3.34222531 L7.24014367,5.30033143 C7.24014367,5.35587429 7.26336,5.38379265 7.32830694,5.38379265 L8.17746612,5.38379265 C8.23315592,5.38379265 8.27018449,5.35587429 8.27018449,5.30033143 L8.27018449,3.34222531 C8.27018449,3.28183347 8.29340082,3.2539151 8.34909061,3.2539151 L8.81312327,3.2539151 C8.86425796,3.2539151 8.89658449,3.28183347 8.89658449,3.34222531 L8.89658449,6.29819265 C8.89658449,6.37210286 8.87336816,6.44189878 8.84104163,6.51140082 L8.5252702,7.02656816 C8.49749878,7.07300082 8.45576816,7.10077224 8.40933551,7.10077224 L8.34909061,7.10077224 C8.29340082,7.10077224 8.27018449,7.06844571 8.27018449,7.01731102 L8.27018449,5.70867429 C8.27018449,5.65298449 8.23771102,5.62976816 8.18657633,5.64372735 L7.29583347,5.8944049 C7.25395592,5.9035151 7.20282122,5.9035151 7.16123755,5.9035151" id="Fill-6" fill="#FFFFFF"></path>
                                <path d="M10.0520963,5.89893061 C9.76909224,5.89893061 9.51856163,5.66676735 9.51856163,5.36539592 L9.51856163,3.34219592 C9.51856163,3.28180408 9.54148408,3.25403265 9.59717388,3.25403265 L10.0659086,3.25403265 C10.1077861,3.25403265 10.1402596,3.28180408 10.1402596,3.34219592 L10.1402596,5.30030204 C10.1402596,5.35599184 10.168031,5.37920816 10.2331249,5.37920816 L11.0821371,5.37920816 C11.1378269,5.37920816 11.1751494,5.35599184 11.1751494,5.30030204 L11.1751494,3.34219592 C11.1751494,3.28180408 11.1938106,3.25403265 11.2493535,3.25403265 L11.7132392,3.25403265 C11.7642269,3.25403265 11.7969943,3.28180408 11.7969943,3.34219592 L11.7969943,5.78755102 C11.7969943,5.83868571 11.7642269,5.85734694 11.7132392,5.85734694 L11.2493535,5.85734694 C11.1938106,5.85734694 11.1751494,5.83868571 11.1751494,5.78299592 L11.1751494,5.7086449 C11.1751494,5.6484 11.1378269,5.62518367 11.0869861,5.6438449 L10.1958024,5.88482449 C10.1496637,5.89893061 10.098529,5.89893061 10.0520963,5.89893061" id="Fill-8" fill="#FFFFFF"></path>
                                <path d="M14.697022,3.75510857 L14.697022,5.78756571 C14.697022,5.83870041 14.6645486,5.85736163 14.6135608,5.85736163 L14.1493812,5.85736163 C14.0938384,5.85736163 14.0751771,5.83870041 14.0751771,5.78301061 L14.0751771,3.82461061 C14.0751771,3.76421878 14.0381486,3.73203918 13.9824588,3.73203918 L13.1331527,3.73203918 C13.0683527,3.73203918 13.0405812,3.76421878 13.0405812,3.82461061 L13.0405812,5.78301061 C13.0405812,5.83870041 13.0081078,5.85736163 12.9662302,5.85736163 L12.4974955,5.85736163 C12.4418057,5.85736163 12.4185894,5.83870041 12.4185894,5.78756571 L12.4185894,3.34206367 C12.4185894,3.28167184 12.4418057,3.25404735 12.4974955,3.25404735 L12.9662302,3.25404735 C13.0081078,3.25404735 13.0405812,3.28167184 13.0405812,3.34206367 L13.0405812,3.42126367 C13.0405812,3.47195755 13.0637976,3.49502694 13.1331527,3.47665959 L14.0197812,3.23553306 C14.06592,3.22598204 14.1077976,3.21231673 14.1540833,3.21231673 C14.4605976,3.21231673 14.697022,3.46725551 14.697022,3.75510857" id="Fill-10" fill="#FFFFFF"></path>
                                <path d="M15.225649,5.36541061 L15.225649,4.1959249 C15.225649,3.94539429 15.3324735,3.75525551 15.5550857,3.63447184 L16.0470367,3.34676571 C16.1491592,3.28181878 16.2511347,3.25390041 16.3719184,3.25390041 L16.7986286,3.25390041 C16.8588735,3.25390041 16.8867918,3.23068408 16.8867918,3.17499429 L16.8867918,2.21445551 C16.8867918,2.16346776 16.9100082,2.12643918 16.9564408,2.12643918 L17.4297306,2.12643918 C17.4854204,2.12643918 17.5086367,2.16346776 17.5086367,2.21445551 L17.5086367,5.78756571 C17.5086367,5.83870041 17.4854204,5.85736163 17.4297306,5.85736163 L16.9564408,5.85736163 C16.9100082,5.85736163 16.8867918,5.83870041 16.8867918,5.78301061 L16.8867918,5.70865959 C16.8867918,5.64841469 16.8588735,5.62519837 16.7986286,5.64385959 L15.9031837,5.88483918 C15.8521959,5.89894531 15.8103184,5.89894531 15.7640327,5.89894531 C15.5227592,5.90805551 15.225649,5.68544327 15.225649,5.36541061 M16.8867918,5.30031673 L16.8867918,3.82945959 C16.8867918,3.76436571 16.8588735,3.73189224 16.7940735,3.73189224 L15.9356571,3.73189224 C15.8705633,3.73189224 15.8472,3.76436571 15.8472,3.82945959 L15.8472,5.30031673 C15.8472,5.35600653 15.8705633,5.37922286 15.9356571,5.37922286 L16.7940735,5.37922286 C16.8588735,5.37922286 16.8867918,5.35600653 16.8867918,5.30031673" id="Fill-12" fill="#FFFFFF"></path>
                                <path d="M18.5753241,5.89893061 C18.2832098,5.89893061 18.0372343,5.66250612 18.0372343,5.36539592 L18.0372343,4.1959102 C18.0372343,3.94537959 18.1439118,3.75524082 18.3621159,3.63445714 L18.858622,3.34675102 C18.9607445,3.28180408 19.0625731,3.25403265 19.1785078,3.25403265 L20.2413159,3.25403265 C20.2923037,3.25403265 20.320222,3.28180408 20.320222,3.34219592 L20.320222,5.78755102 C20.320222,5.83868571 20.2923037,5.85734694 20.2413159,5.85734694 L19.7680261,5.85734694 C19.7170384,5.85734694 19.6982302,5.83868571 19.6982302,5.78299592 L19.6982302,5.7086449 C19.6982302,5.6484 19.6659037,5.62518367 19.6056588,5.6438449 L18.7144751,5.88482449 C18.6636343,5.89893061 18.6217567,5.89893061 18.5753241,5.89893061 M19.6982302,5.30030204 L19.6982302,3.8294449 C19.6982302,3.76435102 19.6659037,3.73187755 19.6056588,3.73187755 L18.7472424,3.73187755 C18.6820016,3.73187755 18.6587853,3.76435102 18.6587853,3.8294449 L18.6587853,5.30030204 C18.6587853,5.35599184 18.6820016,5.37920816 18.7472424,5.37920816 L19.6056588,5.37920816 C19.6659037,5.37920816 19.6982302,5.35599184 19.6982302,5.30030204" id="Fill-14" fill="#FFFFFF"></path>
                                <path d="M21.6922727,2.66590085 C21.6922727,2.7301943 21.652911,2.75151265 21.5970599,2.75151265 L21.0371308,2.75151265 C20.9644358,2.75151265 20.9422727,2.7301943 20.9422727,2.66590085 L20.9422727,2.22769024 C20.9422727,2.16898017 20.9644358,2.12651265 21.0371308,2.12651265 L21.5970599,2.12651265 C21.652911,2.12651265 21.6922727,2.16898017 21.6922727,2.22769024 L21.6922727,2.66590085 Z" id="Path" fill="#FFFFFF"></path>
                                <path d="M21.6922727,5.78763918 C21.6922727,5.83862694 21.652911,5.85728816 21.5970599,5.85728816 L21.0371308,5.85728816 C20.9644358,5.85728816 20.9422727,5.83862694 20.9422727,5.78763918 L20.9422727,3.34228408 C20.9422727,3.28189224 20.9644358,3.25382694 21.0371308,3.25382694 L21.5970599,3.25382694 C21.652911,3.25382694 21.6922727,3.28189224 21.6922727,3.34228408 L21.6922727,5.78763918 Z" id="Path" fill="#FFFFFF"></path>
                                <path d="M22.8656131,5.18892245 L22.8656131,3.43035918 C22.8656131,3.17042449 22.9769927,2.97088163 23.2043069,2.83628571 L23.7472457,2.53476735 C23.8445192,2.47437551 23.9607478,2.44645714 24.0675722,2.44645714 L25.2181029,2.44645714 C25.2737927,2.44645714 25.301858,2.47437551 25.301858,2.53006531 L25.301858,2.86875918 C25.301858,2.91989388 25.2737927,2.94296327 25.2181029,2.94296327 L23.6080947,2.94296327 C23.5524049,2.94296327 23.5291886,2.97558367 23.5291886,3.03582857 L23.5291886,5.27238367 C23.5291886,5.33277551 23.5524049,5.36054694 23.6080947,5.36054694 L25.2645355,5.36054694 C25.3156702,5.36054694 25.3481437,5.38376327 25.3481437,5.43034286 C25.3481437,5.48133061 25.3246335,5.52291429 25.2737927,5.55083265 L24.8748539,5.77359184 C24.7678824,5.83413061 24.6566498,5.85734694 24.5454171,5.85734694 L23.5427069,5.85734694 C23.2134171,5.85734694 22.8656131,5.62062857 22.8656131,5.18892245" id="Fill-18" fill="#FFFFFF"></path>
                                <path d="M26.2721829,5.89893061 C25.9797747,5.89893061 25.7337992,5.66250612 25.7337992,5.36539592 L25.7337992,4.1959102 C25.7337992,3.94537959 25.8404767,3.75524082 26.0586808,3.63445714 L26.5551869,3.34675102 C26.6573094,3.28180408 26.7592849,3.25403265 26.8752196,3.25403265 L27.9381747,3.25403265 C27.9890155,3.25403265 28.0170808,3.28180408 28.0170808,3.34219592 L28.0170808,5.78755102 C28.0170808,5.83868571 27.9890155,5.85734694 27.9381747,5.85734694 L27.464591,5.85734694 C27.4136033,5.85734694 27.3952359,5.83868571 27.3952359,5.78299592 L27.3952359,5.7086449 C27.3952359,5.6484 27.3627624,5.62518367 27.3022237,5.6438449 L26.4111869,5.88482449 C26.3603461,5.89893061 26.3181747,5.89893061 26.2721829,5.89893061 M27.3952359,5.30030204 L27.3952359,3.8294449 C27.3952359,3.76435102 27.3627624,3.73187755 27.3022237,3.73187755 L26.4438073,3.73187755 C26.3790073,3.73187755 26.3554971,3.76435102 26.3554971,3.8294449 L26.3554971,5.30030204 C26.3554971,5.35599184 26.3790073,5.37920816 26.4438073,5.37920816 L27.3022237,5.37920816 C27.3627624,5.37920816 27.3952359,5.35599184 27.3952359,5.30030204" id="Fill-20" fill="#FFFFFF"></path>
                                <path d="M30.3462808,3.66212571 C30.3462808,3.70855837 30.3136604,3.73206857 30.2628196,3.73206857 L29.3487135,3.73206857 C29.2884686,3.73206857 29.2652522,3.76424816 29.2652522,3.82449306 L29.2652522,5.78304 C29.2652522,5.8387298 29.2282237,5.85724408 29.1816441,5.85724408 L28.7130563,5.85724408 C28.6573665,5.85724408 28.6387053,5.8387298 28.6387053,5.7875951 L28.6387053,3.34209306 C28.6387053,3.28170122 28.6573665,3.25407673 28.7130563,3.25407673 L29.1816441,3.25407673 C29.2282237,3.25407673 29.2652522,3.28170122 29.2652522,3.34209306 L29.2652522,3.41629714 C29.2652522,3.46743184 29.2884686,3.49050122 29.3487135,3.49050122 C29.3628196,3.49050122 29.3811869,3.49050122 29.3998482,3.48153796 L29.6687461,3.30477061 C29.7663135,3.25407673 29.8684359,3.22601143 29.9887788,3.22601143 L30.2628196,3.22601143 C30.3136604,3.22601143 30.3462808,3.25407673 30.3462808,3.30477061 L30.3462808,3.66212571 Z" id="Fill-22" fill="#FFFFFF"></path>
                                <path d="M30.4395576,5.36541061 L30.4395576,4.1959249 C30.4395576,3.94539429 30.546382,3.75525551 30.7689943,3.63447184 L31.2609453,3.34676571 C31.3630678,3.28181878 31.4650433,3.25390041 31.5858269,3.25390041 L32.012831,3.25390041 C32.0730759,3.25390041 32.1009943,3.23068408 32.1009943,3.17499429 L32.1009943,2.21445551 C32.1009943,2.16346776 32.1242106,2.12643918 32.1702024,2.12643918 L32.6439331,2.12643918 C32.699329,2.12643918 32.7225453,2.16346776 32.7225453,2.21445551 L32.7225453,5.78756571 C32.7225453,5.83870041 32.699329,5.85736163 32.6439331,5.85736163 L32.1702024,5.85736163 C32.1242106,5.85736163 32.1009943,5.83870041 32.1009943,5.78301061 L32.1009943,5.70865959 C32.1009943,5.64841469 32.0730759,5.62519837 32.012831,5.64385959 L31.1169453,5.88483918 C31.0661045,5.89894531 31.0242269,5.89894531 30.9779412,5.89894531 C30.7365208,5.90805551 30.4395576,5.68544327 30.4395576,5.36541061 M32.1009943,5.30031673 L32.1009943,3.82945959 C32.1009943,3.76436571 32.0730759,3.73189224 32.007982,3.73189224 L31.1495657,3.73189224 C31.0847657,3.73189224 31.0612555,3.76436571 31.0612555,3.82945959 L31.0612555,5.30031673 C31.0612555,5.35600653 31.0847657,5.37922286 31.1495657,5.37922286 L32.007982,5.37922286 C32.0730759,5.37922286 32.1009943,5.35600653 32.1009943,5.30031673" id="Fill-24" fill="#FFFFFF"></path>
                            </g>
                        </g>
                    </g>
                </g>
            </g>
        </g>
    </g>
</svg>