<svg width="40" height="40" xmlns="http://www.w3.org/2000/svg" xmlns:xlink="http://www.w3.org/1999/xlink">
    <defs>
        <path id="a" d="M0 0h5.955v6.665H0z"/>
    </defs>
    <g fill="none" fill-rule="evenodd">
        <circle fill="#003E77" cx="20" cy="20" r="20"/>
        <path d="M11.95 14.632c-.049.33-.72 5.018-.783 5.455h1.503c.048-.331.719-5.019.783-5.455H11.95zM24.25 14.632l-.782 5.455h3.524l.168-1.176h-2.135l.146-1.01h1.936l.157-1.098h-1.936l.142-.995h2.078c.035-.24.126-.872.168-1.176h-3.465zM7.51 17.757s1.257-2.874 1.355-3.125h1.893c0 .383-.251 5.07-.25 5.455H9.147l.226-3.82s-1.533 3.578-1.635 3.82H6.662l-.482-3.82c-.037.173-.546 2.726-.823 3.82H4c.14-.487 1.177-5.175 1.26-5.455h1.822l.428 3.125zM20.321 17.858l.862-2.026.28 2.026h-1.142zm1.287 1.125s.097.89.13 1.104h1.441c-.08-.45-.866-5.137-.923-5.455h-1.824c-.106.227-2.188 4.92-2.435 5.455h1.466c.077-.183.447-1.102.447-1.102l1.698-.002zM15.548 15.656h.336c.228 0 .484.024.643.207.113.13.153.314.12.548 0 0-.045.417-.32.548 0 0-.19.123-.502.132h-.68l1.283 2.996h1.458l-1.102-2.298c.667-.124 1.19-.322 1.322-1.36.017-.129.027-.252.027-.369 0-.384-.1-.693-.3-.924-.362-.417-.982-.503-1.443-.503h-2.06l-.783 5.454h1.368c.047-.304.633-4.431.633-4.431" fill="#FFF"/>
        <g transform="translate(31.595 14.618)">
            <mask id="b" fill="#fff">
                <use xlink:href="#a"/>
            </mask>
            <path d="M5.955 0C5.077 3.63 1.931 5.608.08 6.665L0 6.558C.759 5.94 3.362 4.019 4.195.835L5.955 0z" fill="#E57F14" mask="url(#b)"/>
        </g>
        <path d="m24.937 23.762.081-.019-.083.019h.002zM25.543 23.619c-.114.026-.229.056-.347.082.118-.026.233-.056.347-.082M25.9 23.528l-.205.055.205-.055M27.895 22.948c-.153.053-.314.1-.477.15.163-.05.324-.097.477-.15M27.34 23.125l-.206.061c.071-.02.138-.042.206-.061M27.05 23.21c-.224.066-.455.134-.695.2.24-.066.471-.134.695-.2M26.24 23.44l-.207.054.207-.054M18.83 24.64c-.009.001-.02.004-.027.004.007 0 .018-.003.027-.004M15.234 24.74h-.09.09M13.293 24.676h.009-.01zM17.946 24.692h.01-.01zM15.744 24.744h.05-.05zM19.258 24.61c-.01 0-.022 0-.036.004.014-.003.026-.003.036-.003M19.639 24.578h.011-.011zM18.395 24.668h-.02.02" fill="#003E77"/>
        <path d="M27.338 21.591c-.035.227-.14.947-.192 1.298 1.062-.296 2.342-.72 3.53-1.298h-3.338zM17.449 24.012a2.278 2.278 0 0 0-.465-.275 47.76 47.76 0 0 0-.396-.197l-.003-.002-.007-.004c-.129-.073-.427-.247-.427-.54 0-.142.056-.265.157-.35.124-.103.315-.14.52-.104.257.04.553.208.879.487.155-.298.449-.867.557-1.071-.374-.306-.736-.471-1.275-.566-.668-.1-1.31.043-1.763.384-.38.292-.616.719-.68 1.234-.01.09-.012.173-.012.254 0 .244.042.455.125.64a42.334 42.334 0 0 0 2.79.11M24.556 22.768h2.078l.169-1.176h-3.468c-.018.14-.153 1.069-.304 2.124.479-.06.956-.13 1.417-.214l.108-.734z" fill="#FFF"/>
        <path d="M27.895 22.948c-.154.053-.314.1-.477.15-.024.01-.05.018-.078.027l-.206.062-.084.023c-.225.066-.454.133-.695.2-.039.009-.076.02-.114.03l-.209.053c-.043.012-.087.025-.133.035l-.204.055c-.05.01-.102.022-.152.037l-.347.082-.178.041-.081.019h-.002a37.181 37.181 0 0 1-2.009.395c-.128.024-.26.046-.393.068l-.084.01c-.136.024-.274.045-.413.065l-.027.003c-.747.11-1.534.203-2.357.274h-.013c-.125.012-.252.022-.38.033l-.037.003a16.437 16.437 0 0 1-.42.03c-.136.009-.27.018-.407.025-.008.002-.015.002-.02.002-.14.006-.278.014-.42.022h-.01c-.692.034-1.41.052-2.15.052h-.052a48.672 48.672 0 0 0-.51-.003c-.027 0-.059 0-.09-.002-.6-.01-1.212-.03-1.841-.063h-.01a47.815 47.815 0 0 1-2.938-.245l1.164-1.093s.675.203 1.612.37c-.18-1.054-.335-1.981-.36-2.117h-1.824c-.105.227-2.188 4.92-2.432 5.455h1.463l.569-1.354 1.527-.002s.148 1.141.18 1.356h1.44l-.33-1.954c1.029.058 2.057.067 3.018.056a.484.484 0 0 1 .066.361.445.445 0 0 1-.183.292c-.2.14-.485.11-.683.075-.463-.08-.833-.433-1.132-.726l-.707 1.152c.55.5 1.143.807 1.773.895.635.095 1.265-.048 1.733-.393.407-.302.664-.742.743-1.271a1.97 1.97 0 0 0 .028-.434 56.776 56.776 0 0 0 2.434-.155c.178.13.27.286.27.463a.658.658 0 0 1-.007.102.445.445 0 0 1-.186.292c-.199.14-.483.11-.678.075-.467-.08-.839-.433-1.136-.726-.187.305-.578.945-.707 1.152.551.5 1.145.807 1.774.895.635.095 1.265-.048 1.73-.393a1.89 1.89 0 0 0 .748-1.271c.05-.295.038-.56-.034-.8.234-.03.456-.065.67-.1-.162 1.144-.316 2.215-.344 2.413h3.525c.032-.24.123-.87.166-1.177H24.11l.145-1.008h1.936l.145-.999a7.56 7.56 0 0 0 .397-.133s.653-.197 1.503-.508l-.549 3.825h1.525l.59-4.098h1.104c.031-.235.138-.984.188-1.323-.575.318-1.655.817-3.199 1.323" fill="#FFF"/>
        <path d="m21.254 23.737-.397-.199h-.006l-.004-.005c-.13-.073-.43-.246-.43-.538a.456.456 0 0 1 .159-.352c.124-.103.315-.14.517-.104.26.04.556.21.882.487l.557-1.07c-.375-.307-.736-.47-1.275-.566-.668-.098-1.31.043-1.76.385-.382.29-.619.718-.682 1.233a2.24 2.24 0 0 0-.015.255c0 .285.06.53.18.737a43.231 43.231 0 0 0 2.53-.13 2.601 2.601 0 0 0-.256-.133" fill="#FFF"/>
    </g>
</svg>
