<?xml version="1.0" encoding="UTF-8"?>
<svg width="40px" height="40px" viewBox="0 0 40 40" version="1.1" xmlns="http://www.w3.org/2000/svg" xmlns:xlink="http://www.w3.org/1999/xlink">
    <title>CF40C7E3-CF13-4FB7-9BE0-7DB62429F48F</title>
    <defs>
        <polygon id="path-1" points="0 2.42861287e-16 7.91053507 2.42861287e-16 7.91053507 11.6539491 0 11.6539491"></polygon>
        <polygon id="path-3" points="9.64491006e-16 -2.08166817e-16 22.1551555 -2.08166817e-16 22.1551555 5.15638105 9.64491006e-16 5.15638105"></polygon>
        <polygon id="path-5" points="0 -1.38777878e-16 3.6995625 -1.38777878e-16 3.6995625 3.7456875 0 3.7456875"></polygon>
    </defs>
    <g id="WSG" stroke="none" stroke-width="1" fill="none" fill-rule="evenodd">
        <g id="20Icon_기관로고" transform="translate(-857.000000, -367.000000)">
            <g id="#-Con" transform="translate(79.500000, 136.000000)">
                <g id="은행" transform="translate(0.500000, 144.000000)">
                    <g id="KEB하나은행" transform="translate(777.000000, 54.000000)">
                        <g id="icon_32_bank_keb" transform="translate(0.000000, 33.000000)">
                            <circle id="Oval" fill="#008375" cx="20" cy="20" r="20"></circle>
                            <g id="Group-10" transform="translate(8.750032, 10.562556)">
                                <g id="Group-3" transform="translate(6.661195, 8.490301)">
                                    <mask id="mask-2" fill="white">
                                        <use xlink:href="#path-1"></use>
                                    </mask>
                                    <g id="Clip-2"></g>
                                    <path d="M7.84103501,3.44684906 C7.78928501,3.13972406 7.70547251,2.84272406 7.58172251,2.56709906 C7.19303501,1.72672406 6.65078501,1.02134906 5.83853501,0.548286557 C4.57572251,-0.189713443 3.04909751,-0.184088443 1.79978501,0.573599057 C1.23334751,0.915036557 0.768160009,1.40666156 0.467222509,1.99784906 C0.366535009,2.19753656 0.284410009,2.40791156 0.216910009,2.62222406 C-0.112152491,3.66847406 -0.102027491,5.07584906 0.493097509,6.03153656 C0.686035009,6.34316156 0.966160009,6.60922406 1.30872251,6.74253656 C1.65072251,6.87472406 2.05741001,6.86066156 2.36566001,6.66041156 C2.76278501,6.40447406 2.83422251,5.91341156 2.75997251,5.47747406 C2.66659751,4.92284906 2.59459751,4.37441156 2.79934751,3.82991156 C2.86516001,3.65609906 2.95684751,3.48847406 3.09184751,3.35966156 C3.17341001,3.28203656 3.26959751,3.21734906 3.37084751,3.16841156 C3.58684751,3.06322406 3.83153501,3.01597406 4.06891001,3.05534906 C4.48234751,3.12284906 4.82041001,3.44291156 5.00434751,3.81978656 C5.18828501,4.19553656 5.23891001,4.62247406 5.25859751,5.04041156 C5.34578501,6.86403656 4.91097251,8.75403656 4.44466001,10.5050991 C4.39684751,10.6862241 4.34678501,10.8650991 4.29672251,11.0445366 C4.25622251,11.1834741 4.18534751,11.3589741 4.27422251,11.4950991 C4.31247251,11.5519116 4.37266001,11.5924116 4.43622251,11.6188491 C4.70566001,11.7285366 4.92784751,11.5625991 5.10841001,11.3797866 C6.17772251,10.3037241 6.86453501,8.91659906 7.33197251,7.48953656 C7.50803501,6.95741156 7.65709751,6.41347406 7.75891001,5.86222406 C7.89672251,5.10622406 7.97547251,4.24334906 7.84103501,3.44684906" id="Fill-1" fill="#FFFFFF" mask="url(#mask-2)"></path>
                                </g>
                                <g id="Group-6" transform="translate(0.000000, 3.062080)">
                                    <mask id="mask-4" fill="white">
                                        <use xlink:href="#path-3"></use>
                                    </mask>
                                    <g id="Clip-5"></g>
                                    <path d="M22.1553242,0.445782756 C22.1553242,0.172970256 21.9140117,-0.00815474445 21.6535742,0.000282755553 C21.3903242,0.0109702556 21.1439492,0.144845256 20.9015117,0.238782756 C16.1990117,2.02697026 10.8935117,2.36503276 5.93732421,1.65178276 C5.09019921,1.52859526 4.23013671,1.35872026 3.37738671,1.22484526 C2.84469921,1.14159526 2.31763671,1.02065776 1.77988671,0.980157756 C1.31976171,0.945845256 0.748824208,0.928970256 0.378699208,1.24734526 C-0.110675792,1.67034526 -0.0758007923,2.47078276 0.200949208,2.99953276 C0.533949208,3.63403276 1.11782421,4.10934526 1.72419921,4.47159526 C2.31426171,4.82203276 3.01682421,5.19722026 3.71938671,5.15278276 C5.61388671,5.03240776 7.50276171,4.84903276 9.38601171,4.60490776 C12.5961992,4.18697026 15.9633242,3.79322026 18.9783242,2.54840776 C19.9649492,2.14115776 20.9369492,1.63322026 21.7818242,0.976782756 C21.9348242,0.860345256 22.1553242,0.668532756 22.1553242,0.445782756" id="Fill-4" fill="#FFFFFF" mask="url(#mask-4)"></path>
                                </g>
                                <g id="Group-9" transform="translate(8.667643, -0.000000)">
                                    <mask id="mask-6" fill="white">
                                        <use xlink:href="#path-5"></use>
                                    </mask>
                                    <g id="Clip-8"></g>
                                    <path d="M0,1.8961875 C0,2.9176875 0.8285625,3.7456875 1.8495,3.7456875 C2.871,3.7456875 3.6995625,2.9176875 3.6995625,1.8961875 C3.6995625,1.7443125 3.66525,1.591875 3.6,1.4540625 C3.441375,1.117125 3.2630625,0.9534375 3.2810625,0.55125 C3.3046875,0.0073125 2.60775,-4.05925293e-15 2.2325625,-4.05925293e-15 C1.8230625,-4.05925293e-15 1.3888125,0.05625 1.0198125,0.2424375 C0.7250625,0.3909375 0.4719375,0.61875 0.293625,0.8960625 C0.109125,1.180125 0.0084375,1.515375 0,1.854 L0,1.8961875" id="Fill-7" fill="#FFFFFF" mask="url(#mask-6)"></path>
                                </g>
                            </g>
                        </g>
                    </g>
                </g>
            </g>
        </g>
    </g>
</svg>