<?xml version="1.0" encoding="UTF-8"?>
<svg width="41px" height="40px" viewBox="0 0 41 40" version="1.1" xmlns="http://www.w3.org/2000/svg" xmlns:xlink="http://www.w3.org/1999/xlink">
    <title>1C2D1AD1-80CD-4A22-AD5C-B2E290C8B7FA</title>
    <defs>
        <polygon id="path-1" points="0 -6.24500451e-16 35.8059661 -6.24500451e-16 35.8059661 35.8084068 0 35.8084068"></polygon>
    </defs>
    <g id="WSG" stroke="none" stroke-width="1" fill="none" fill-rule="evenodd">
        <g id="20Icon_기관로고" transform="translate(-413.000000, -1633.000000)">
            <g id="#-Con" transform="translate(79.500000, 136.000000)">
                <g id="카드" transform="translate(1.000000, 1410.000000)">
                    <g id="롯데" transform="translate(333.000000, 54.000000)">
                        <g id="우리은행" transform="translate(0.000000, 33.000000)">
                            <circle id="Oval" fill="#E50113" cx="20" cy="20" r="20"></circle>
                            <g id="Group-8" transform="translate(2.400000, 2.210292)">
                                <g id="Group-3">
                                    <mask id="mask-2" fill="white">
                                        <use xlink:href="#path-1"></use>
                                    </mask>
                                    <g id="Clip-2"></g>
                                    <path d="M25.2729153,32.7652475 C21.2165085,36.8228746 14.5864068,36.8228746 10.5306102,32.7652475 L3.04138983,25.2772475 C-1.01379661,21.2208407 -1.01379661,14.5858576 3.04138983,10.530061 L10.5306102,3.04206102 C14.5864068,-1.01434576 21.2165085,-1.01434576 25.2729153,3.04206102 L32.7639661,10.530061 C36.8203729,14.5858576 36.8203729,21.2208407 32.7639661,25.2772475 L25.2729153,32.7652475 Z" id="Fill-1" fill="#E50113" mask="url(#mask-2)"></path>
                                </g>
                                <path d="M13.4613153,28.9054983 C12.8633492,28.9054983 12.3770441,28.4411593 12.3532475,27.8450237 C12.3416542,27.5503119 12.4441627,27.2678034 12.6461288,27.0493627 C12.8456542,26.8333627 13.122061,26.7070576 13.4161627,26.6918034 C14.0238915,26.6631254 14.5443661,27.1421085 14.5675525,27.752278 C14.5931797,28.3661085 14.1166373,28.8817017 13.5076881,28.9054983 L13.4613153,28.9054983" id="Fill-4" fill="#FEFEFE"></path>
                                <path d="M17.4911797,8.45945085 C16.8834508,8.45945085 16.3953153,8.65104407 16.0035864,9.04277288 C15.1524,9.88480678 14.7069763,11.628061 14.7472475,13.9473153 C14.796061,16.8065695 15.4745695,22.4189085 17.7242644,25.3068407 C18.0909763,25.7730102 18.4796542,26.1470441 18.8866373,26.4179593 C19.2820271,26.6827729 19.7329424,26.9347729 20.4248746,26.9347729 C20.6128068,26.9347729 20.8141627,26.9176881 21.024061,26.8804678 C22.3145695,26.5668407 23.932739,25.1329424 25.1305017,23.2231119 C25.3123322,22.9326712 25.6314508,22.7551119 25.9755864,22.7551119 C26.161078,22.7551119 26.3453492,22.8112475 26.5027729,22.9088746 C26.7267051,23.0504339 26.881078,23.2707051 26.9414847,23.5306373 C27.0012814,23.788739 26.9542983,24.0572136 26.8145695,24.2799254 C25.2958576,26.6968068 23.2890102,28.3918576 21.448739,28.8208068 C21.4395864,28.8226373 21.4231119,28.8244678 21.4011458,28.8305695 C21.0649424,28.8909763 20.7311797,28.9214847 20.415722,28.9214847 C19.2289424,28.9214847 18.3924,28.4717898 17.7962644,28.0770102 C17.2074508,27.6846712 16.6540271,27.1660271 16.156739,26.5271797 C12.9881288,22.4622305 12.7764,14.835722 12.7587051,13.9808746 C12.7269763,11.9545017 13.0174169,9.20568814 14.6020271,7.63023051 C15.3738915,6.86507797 16.3446712,6.4764 17.4814169,6.4764 L17.6669085,6.4764 C18.8054847,6.4764 19.7762644,6.86507797 20.5493492,7.63023051 C22.1309085,9.20568814 22.4250102,11.9545017 22.3896203,13.9808746 C22.3578915,16.0926712 21.9686034,20.1881288 19.7762644,23.8595186 C19.5987051,24.1585017 19.2728746,24.3439932 18.9226373,24.3439932 C18.7462983,24.3439932 18.5675186,24.2945695 18.4161966,24.2067051 C17.9469763,23.9241966 17.7895525,23.3091458 18.0714508,22.8405356 C19.6041966,20.2735525 20.3479932,17.449078 20.404739,13.9473153 C20.4425695,11.6250102 19.9953153,9.88480678 19.1514508,9.04277288 C18.7585017,8.65104407 18.2691458,8.45945085 17.6638576,8.45945085 L17.4911797,8.45945085 Z" id="Fill-6" fill="#FEFEFE"></path>
                            </g>
                        </g>
                    </g>
                </g>
            </g>
        </g>
    </g>
</svg>