<?xml version="1.0" encoding="UTF-8"?>
<svg width="41px" height="40px" viewBox="0 0 41 40" version="1.1" xmlns="http://www.w3.org/2000/svg" xmlns:xlink="http://www.w3.org/1999/xlink">
    <title>F125274F-12AC-41EB-9D9E-62BE025C103F</title>
    <defs>
        <polygon id="path-1" points="3.46944695e-17 8.67361738e-17 4.15394286 8.67361738e-17 4.15394286 4.67634514 3.46944695e-17 4.67634514"></polygon>
        <polygon id="path-3" points="0 21.4832457 30.0816686 21.4832457 30.0816686 5.89805982e-16 0 5.89805982e-16"></polygon>
    </defs>
    <g id="WSG" stroke="none" stroke-width="1" fill="none" fill-rule="evenodd">
        <g id="20Icon_기관로고" transform="translate(-191.000000, -1738.000000)">
            <g id="#-Con" transform="translate(79.500000, 136.000000)">
                <g id="카드" transform="translate(1.000000, 1410.000000)">
                    <g id="국민" transform="translate(111.000000, 159.000000)">
                        <g id="icon_32_card_kbcard" transform="translate(0.000000, 33.000000)">
                            <circle id="Oval" fill="#FFCC00" cx="20" cy="20" r="20"></circle>
                            <g id="Group-17" transform="translate(4.999957, 8.434199)">
                                <path d="M15.8922949,19.2227886 L18.6778034,19.2227886 L18.6778034,16.8711314 L15.8922949,16.8711314 L15.8922949,19.2227886 Z M16.4772777,18.7098971 L18.0932549,18.7098971 L18.0932549,17.3814171 L16.4772777,17.3814171 L16.4772777,18.7098971 Z" id="Fill-1" fill="#222222"></path>
                                <polygon id="Fill-2" fill="#222222" points="10.926064 16.7898331 10.926064 17.2953417 14.2900411 17.2953417 14.2900411 18.3107017 10.5013326 18.3107017 10.5013326 18.8183817 12.5971954 18.8183817 12.5971954 19.5527589 10.8617897 19.5527589 10.8617897 20.0604389 14.318704 20.0604389 14.318704 21.4744731 14.9067269 21.4744731 14.9067269 19.5527589 13.1843497 19.5527589 13.1843497 18.8183817 15.3019269 18.8183817 15.3019269 18.3076617 14.8802354 18.3076617 14.8802354 16.7898331"></polygon>
                                <polygon id="Fill-3" fill="#222222" points="16.4234697 19.7282971 16.4234697 21.4558857 20.1188069 21.4558857 20.1188069 20.9460343 17.0119269 20.9460343 17.0119269 19.7282971"></polygon>
                                <polygon id="Fill-4" fill="#222222" points="19.4881806 19.8459886 20.0731634 19.8459886 20.0731634 16.7577829 19.4881806 16.7577829"></polygon>
                                <polygon id="Fill-5" fill="#222222" points="3.26018286 16.7968686 0.747405714 18.8901257 0.747405714 16.7968686 1.88888347e-18 16.7968686 1.88888347e-18 21.4732571 0.747405714 21.4732571 0.747405714 18.9674286 3.48166857 21.4732571 4.53698286 21.4732571 1.66201143 18.9096686 4.31723429 16.7968686"></polygon>
                                <g id="Group-16" transform="translate(0.000043, 0.000000)">
                                    <g id="Group-8" transform="translate(5.057952, 16.806901)">
                                        <mask id="mask-2" fill="white">
                                            <use xlink:href="#path-1"></use>
                                        </mask>
                                        <g id="Clip-7"></g>
                                        <path d="M0.745668571,4.14612571 L2.21572571,4.14612571 C3.12859429,4.14612571 3.37092571,3.79001143 3.37092571,3.33618286 C3.37092571,2.79810286 2.99917714,2.50148571 2.17620571,2.50148571 L0.745668571,2.50148571 L0.745668571,4.14612571 Z M0.745668571,1.96948571 L2.26219429,1.96948571 C2.82546286,1.96948571 3.24194286,1.75581714 3.24194286,1.25725714 C3.24194286,0.822971429 3.03652571,0.532868571 2.17620571,0.532868571 L0.745668571,0.532868571 L0.745668571,1.96948571 Z M0,0 L2.29910857,0 C3.39307429,0 3.96459429,0.362194286 3.96459429,1.15737143 C3.96459429,1.72194286 3.56939429,2.11062857 3.04521143,2.21572571 L3.04521143,2.23526857 C3.79782857,2.32429714 4.15394286,2.81764571 4.15394286,3.37570286 C4.15394286,4.07273143 3.64235429,4.67638857 2.37250286,4.67638857 L0,4.67638857 L0,0 Z" id="Fill-6" fill="#222222" mask="url(#mask-2)"></path>
                                    </g>
                                    <polygon id="Fill-9" fill="#222222" points="20.6770377 16.8794697 20.6770377 17.3897554 22.772032 17.3897554 22.772032 18.0941669 20.6770377 18.0941669 20.6770377 18.5983726 22.772032 18.5983726 22.772032 19.9481326 23.3652663 19.9481326 23.3652663 16.8794697"></polygon>
                                    <mask id="mask-4" fill="white">
                                        <use xlink:href="#path-3"></use>
                                    </mask>
                                    <g id="Clip-12"></g>
                                    <polygon id="Fill-11" fill="#222222" mask="url(#mask-4)" points="25.5915886 21.1557943 30.0816686 21.1557943 30.0816686 20.6524571 25.5915886 20.6524571"></polygon>
                                    <polygon id="Fill-13" fill="#222222" mask="url(#mask-4)" points="26.6531566 17.3837189 29.5993509 17.3837189 29.5993509 16.8795131 26.0725166 16.8795131 26.0725166 19.5868503 29.5993509 19.5868503 29.5993509 19.0826446 26.6531566 19.0826446"></polygon>
                                    <polygon id="Fill-14" fill="#222222" mask="url(#mask-4)" points="24.0796663 21.4729531 24.6698606 21.4729531 24.6698606 18.461616 25.2674377 18.461616 25.2674377 17.9513303 24.6698606 17.9513303 24.6698606 16.7770217 24.0796663 16.7770217"></polygon>
                                    <path d="M24.924048,7.46641371 L24.7468594,7.354368 C24.1445051,6.75201371 23.3045966,6.49231086 22.1837051,6.557888 C21.2504251,6.61434514 20.5104023,6.98479086 19.9449623,7.32917943 C19.9449623,7.32049371 19.9432251,7.31224229 19.9432251,7.30312229 C19.9432251,7.00997943 19.9762309,6.69381943 20.0096709,6.38591086 C20.0426766,6.07279086 20.0761166,5.75402514 20.0761166,5.45263086 C20.0761166,5.14559086 20.0409394,4.85331657 19.9349737,4.60447086 C19.9076137,4.54019657 19.8498537,4.502848 19.7747223,4.502848 C19.4741966,4.50849371 18.8840023,4.715648 18.7424251,4.84072229 C18.7424251,4.84202514 18.6642537,5.01096229 18.6642537,5.01096229 C18.6590423,5.344928 18.5852137,6.278208 18.5113851,6.390688 C18.5139909,6.38677943 18.4709966,6.503168 18.4709966,6.503168 C18.3446194,7.83555657 18.3420137,9.00682514 18.4597051,10.0117623 C18.4727337,10.1125166 18.6655566,10.263648 18.8158194,10.3188023 C18.9795451,10.379168 19.491568,10.2414994 19.7881851,10.1307566 C19.7838423,10.1316251 19.8993623,10.1125166 19.8993623,10.1125166 C19.9927337,10.1020937 20.0474537,10.0243566 20.0444137,9.91795657 C20.0426766,9.91535086 20.0513623,9.628288 20.0513623,9.628288 C20.2641623,8.76015086 21.1283909,7.72437943 22.1511337,7.56890514 C22.7287337,7.47727086 23.1842994,7.62579657 23.5447566,8.01839086 C23.5942651,8.08917943 23.698928,8.71411657 23.3193623,9.430688 C23.0349051,9.962688 22.4685966,10.4104366 21.7220594,10.6896823 C21.0159109,10.9585051 20.239408,11.0670766 19.2800709,11.0345051 C19.2405509,11.0075794 18.3810994,10.4265051 18.3810994,10.4265051 C17.6193623,9.89233371 16.6743566,9.22657371 15.8175109,8.90259657 C15.6676823,8.84570514 15.3975566,8.62074514 15.2346994,8.48655086 L15.1469737,8.41402514 C14.651888,8.01795657 13.7120937,7.38954514 12.9560023,6.88794514 C12.9560023,6.88794514 12.6142194,6.658208 12.5490766,6.61434514 C12.5490766,6.58611657 12.5495109,6.52922514 12.5495109,6.52922514 C12.572528,6.50490514 13.0463337,6.220448 13.0463337,6.220448 C13.7120937,5.83089371 14.0178309,5.64111086 14.0829737,5.542528 C14.071248,5.557728 14.1711337,5.49041371 14.1711337,5.49041371 C14.1772137,5.48737371 15.8183794,4.55843657 15.8183794,4.55843657 C17.4004823,3.68986514 19.1923451,2.70360229 20.1334423,1.72906514 C20.1343109,1.727328 20.1794766,1.57967086 20.1794766,1.57967086 L20.1994537,1.447648 C20.2628594,1.23875657 20.2654651,1.07937371 20.2129166,0.894368 C20.1994537,0.840950857 20.151248,0.780150857 20.0852366,0.767990857 C19.3512937,0.695465143 18.4028137,1.13539657 17.5403223,1.94447086 C17.3461966,2.12773943 17.1820366,2.216768 17.0100594,2.31057371 L16.8784709,2.383968 C15.9269509,2.925088 13.7846194,4.25487086 12.6624251,4.97231086 C12.7353851,3.76629943 12.9590423,2.05043657 13.2339451,0.620333714 L13.2035451,0.450093714 C13.1992023,0.443145143 13.086288,0.233819429 13.086288,0.233819429 L12.9998651,0.0783451429 L12.9742423,0.0718308571 C12.7505851,-0.0410834286 12.5681851,0.00451657143 12.4335566,0.0383908571 L12.2094651,0.120905143 L11.9115451,0.229042286 C11.8516137,0.241202286 11.809488,0.277682286 11.7869051,0.335008 C11.2518651,1.630048 10.8045509,3.75891657 10.6985851,5.46218514 C9.62807086,4.78079086 8.63920229,4.29178514 8.15323657,4.05553371 L8.14064229,4.04815086 L8.08288229,4.03555657 C7.90786514,4.013408 7.69419657,3.88442514 7.489648,3.76065371 C7.46967086,3.74762514 7.08272229,3.496608 7.08272229,3.496608 L6.46082514,3.098368 C6.46603657,3.10184229 6.29709943,3.06058514 6.29709943,3.06058514 C6.03001371,3.10661943 5.51755657,3.45144229 5.36512229,3.68682514 C5.34471086,3.71722514 5.33689371,3.75109943 5.33689371,3.78671086 C5.33689371,3.83578514 5.352528,3.885728 5.36512229,3.93393371 L5.392048,4.05987657 L5.42201371,4.13717943 C5.71993371,4.44248229 6.47298514,4.95233371 7.20909943,5.347968 L8.06594514,5.80136229 L9.37271086,6.51663086 C9.37271086,6.52227657 9.59680229,6.69381943 9.59680229,6.69381943 L9.75097371,6.78197943 C9.75097371,6.78197943 9.76921371,6.79283657 9.77920229,6.79978514 C9.42960229,7.03343086 7.398448,8.39013943 7.398448,8.39013943 L6.14640229,9.21875657 C6.02827657,9.30040229 5.53319086,9.52145371 5.42461943,9.56488229 C5.15405943,9.67605943 4.94864229,9.84543086 4.86221943,10.029568 L4.82921371,10.1020937 L4.86221943,10.1502994 L4.95819657,10.2223909 C4.95472229,10.2223909 5.08674514,10.306208 5.08674514,10.306208 L5.22441371,10.4000137 C5.227888,10.4021851 5.35469943,10.421728 5.35469943,10.421728 C5.574448,10.4299794 5.90059657,10.3044709 6.51120229,10.0373851 C7.070128,9.78984229 8.59056229,8.87176229 9.24155657,8.48090514 L9.51863086,8.31457371 C9.63328229,8.324128 9.75922514,8.22728229 9.87170514,8.14216229 C10.0015566,8.03793371 10.2860137,7.86335086 10.4584251,7.78778514 C10.4636366,7.786048 10.563088,7.73089371 10.6555909,7.67921371 C10.6547223,7.70831086 10.6547223,7.75391086 10.6547223,7.75391086 C10.6829509,9.74207086 10.7967337,11.187808 11.0143109,12.3021851 L11.0177851,12.3208594 L11.0381966,12.3660251 C11.1463337,12.5228023 11.2674994,12.9944366 11.3756366,13.410048 L11.6231794,14.239968 C11.6288251,14.2495223 11.6926651,14.3172709 11.6926651,14.3172709 C11.833808,14.4141166 12.265488,14.5795794 12.5529851,14.5452709 L12.6250766,14.5361509 L12.669808,14.4353966 C12.6936937,14.3116251 12.703248,14.1891566 12.703248,14.0549623 C12.703248,13.9029623 12.6919566,13.7366309 12.6793623,13.5320823 L12.6589509,13.2324251 C12.5681851,11.8440137 12.4765509,9.83978514 12.4765509,8.50696229 L12.4765509,8.40099657 C12.7132366,8.54952229 13.7446651,9.19834514 13.7446651,9.19834514 C15.5004823,10.3383451 18.1526651,12.0585509 19.7551794,12.513248 C19.838128,12.5397394 19.926288,12.5197623 19.9875223,12.4606994 C19.990128,12.4580937 20.2341966,12.3026194 20.2341966,12.3026194 L20.2810994,12.2835109 C20.3718651,12.2400823 20.433968,12.0850423 20.4452594,11.9165394 C21.795888,11.8496594 23.680688,11.3289509 24.6890994,10.0621394 C25.0777851,9.56922514 25.2532366,8.96773943 25.2532366,8.45267657 C25.2532366,8.03098514 25.1359794,7.66661943 24.924048,7.46641371" id="Fill-15" fill="#222222" mask="url(#mask-4)"></path>
                                </g>
                            </g>
                        </g>
                    </g>
                </g>
            </g>
        </g>
    </g>
</svg>