<?xml version="1.0" encoding="UTF-8"?>
<svg width="40px" height="40px" viewBox="0 0 40 40" version="1.1" xmlns="http://www.w3.org/2000/svg" xmlns:xlink="http://www.w3.org/1999/xlink">
    <title>3C215E05-92C8-47BF-B9FA-86CAD93AFBAE</title>
    <defs>
        <polygon id="path-1" points="-4.02455846e-16 1.04083409e-16 11.5517406 1.04083409e-16 11.5517406 11.4312 -4.02455846e-16 11.4312"></polygon>
    </defs>
    <g id="WSG" stroke="none" stroke-width="1" fill="none" fill-rule="evenodd">
        <g id="20Icon_기관로고" transform="translate(-82.000000, -1914.000000)">
            <g id="#-Con" transform="translate(79.500000, 136.000000)">
                <g id="보험" transform="translate(0.500000, 1692.000000)">
                    <g id="에이아이지손해보험" transform="translate(2.000000, 54.000000)">
                        <g id="icon_32_insurance_aig" transform="translate(0.000000, 32.000000)">
                            <circle id="Oval" fill="#019EDD" cx="20" cy="20" r="20"></circle>
                            <g id="Group-6" transform="translate(5.600000, 13.900000)">
                                <polygon id="Fill-1" fill="#FEFEFE" points="12.7359663 10.9593 14.3972716 10.9593 14.3972716 0.3246 12.7359663 0.3246"></polygon>
                                <path d="M0,11.13204 L1.91535158,11.13204 L3.13010526,8.60454 L7.93667368,8.60454 L9.17416421,11.13204 L10.8879158,11.13204 L5.51080421,0.32454 L0,11.13204 Z M5.51080421,3.64944 L7.15513263,7.00854 L3.89709474,7.00854 L5.51080421,3.64944 Z" id="Fill-2" fill="#FEFEFE"></path>
                                <g id="Group-5" transform="translate(16.969960, 0.000000)">
                                    <mask id="mask-2" fill="white">
                                        <use xlink:href="#path-1"></use>
                                    </mask>
                                    <g id="Clip-4"></g>
                                    <path d="M11.5478905,5.6418 L9.88052211,5.6418 L6.28416,5.6418 L6.28416,7.2081 L9.59373474,7.2081 C8.99075368,8.7126 7.50861474,9.7812 5.77576421,9.7812 C3.51056842,9.7812 1.66736842,7.9575 1.66736842,5.7156 C1.66736842,3.4737 3.51056842,1.65 5.77576421,1.65 C7.18090105,1.65 8.42233263,2.3523 9.16355368,3.4203 L10.5808168,2.5452 C9.54492632,1.011 7.78024421,1.04083409e-16 5.77576421,1.04083409e-16 C2.58593684,1.04083409e-16 -4.02455846e-16,2.559 -4.02455846e-16,5.7156 C-4.02455846e-16,8.8722 2.58593684,11.4312 5.77576421,11.4312 C8.96559158,11.4312 11.5518316,8.8722 11.5518316,5.7156 C11.5518316,5.6907 11.5481937,5.6667 11.5478905,5.6418" id="Fill-3" fill="#FEFEFE" mask="url(#mask-2)"></path>
                                </g>
                            </g>
                        </g>
                    </g>
                </g>
            </g>
        </g>
    </g>
</svg>