<?xml version="1.0" encoding="UTF-8"?>
<svg width="40px" height="40px" viewBox="0 0 40 40" version="1.1" xmlns="http://www.w3.org/2000/svg" xmlns:xlink="http://www.w3.org/1999/xlink">
    <title>AB1CA78B-7288-44C8-AFD2-39490287790D</title>
    <g id="WSG" stroke="none" stroke-width="1" fill="none" fill-rule="evenodd">
        <g id="20Icon_기관로고" transform="translate(-414.000000, -2018.000000)">
            <g id="#-Con" transform="translate(79.500000, 136.000000)">
                <g id="보험" transform="translate(0.500000, 1692.000000)">
                    <g id="삼성화재해상보험" transform="translate(334.000000, 158.000000)">
                        <g id="icon_32_insurance_samsung" transform="translate(0.000000, 32.000000)">
                            <circle id="Oval" fill="#0060A8" cx="20" cy="20" r="20"></circle>
                            <g id="Group-3" transform="translate(5.600000, 15.199956)" fill="#FFFFFF">
                                <path d="M2.256,2.44756364 C2.256,2.44756364 3.06370909,3.97701818 3.87010909,4.23490909 L4.46661818,3.63752727 C4.46661818,3.63752727 2.7216,2.55229091 2.80712727,0.212072727 L1.70225455,0.212072727 C1.70225455,0.212072727 1.95578182,2.48858182 0,3.59389091 L0.594327273,4.2768 C0.594327273,4.2768 1.7424,3.63752727 2.256,2.44756364 L2.256,2.44756364 Z M9.40276364,2.44756364 C9.40276364,2.44756364 10.2122182,3.97701818 11.0199273,4.23490909 L11.6142545,3.63752727 C11.6142545,3.63752727 9.87098182,2.55229091 9.95694545,0.212072727 L8.84814545,0.212072727 C8.84814545,0.212072727 9.10429091,2.48858182 7.14894545,3.59389091 L7.74196364,4.2768 C7.74196364,4.2768 8.89134545,3.63752727 9.40276364,2.44756364 L9.40276364,2.44756364 Z M6.38138182,2.44756364 L7.27418182,2.44756364 L7.27418182,1.46705455 L6.38138182,1.46705455 L6.38138182,0.0427636364 L5.31709091,0.0427636364 L5.31709091,4.36058182 L6.38138182,4.36058182 L6.38138182,2.44756364 Z M1.31869091,8.44450909 L6.42414545,8.44450909 L6.42414545,4.78647273 L1.31869091,4.78647273 L1.31869091,8.44450909 Z M2.38036364,7.46705455 L5.31796364,7.46705455 L5.31796364,5.72334545 L2.38036364,5.72334545 L2.38036364,7.46705455 Z M12.5938909,4.44698182 L13.7419636,4.44698182 L13.7419636,0.0641454545 L12.5938909,0.0641454545 L12.5938909,1.46705455 L11.2738909,1.46705455 L11.2738909,2.44756364 L12.5938909,2.44756364 L12.5938909,4.44698182 Z M11.0199273,4.44698182 C9.46865455,4.44698182 8.21061818,5.4 8.21061818,6.57381818 C8.21061818,7.74938182 9.46865455,8.70065455 11.0199273,8.70065455 C12.5707636,8.70065455 13.8270545,7.74938182 13.8270545,6.57381818 C13.8270545,5.4 12.5707636,4.44698182 11.0199273,4.44698182 L11.0199273,4.44698182 Z M11.0199273,7.7664 C10.0564364,7.7664 9.27447273,7.23316364 9.27447273,6.57381818 C9.27447273,5.91578182 10.0564364,5.38210909 11.0199273,5.38210909 C11.9821091,5.38210909 12.7627636,5.91578182 12.7627636,6.57381818 C12.7627636,7.23316364 11.9821091,7.7664 11.0199273,7.7664 L11.0199273,7.7664 Z M18.9316364,0.744436364 L17.4008727,0.744436364 L17.4008727,0 L16.296,0 L16.296,0.702981818 L14.6360727,0.702981818 L14.6360727,1.59621818 L18.9316364,1.59621818 L18.9316364,0.744436364 Z M21.5698909,3.26923636 L20.5501091,3.26923636 L20.5501091,0.0641454545 L19.5294545,0.0641454545 L19.5294545,8.44450909 L20.5501091,8.44450909 L20.5501091,4.11970909 L21.5698909,4.11970909 L21.5698909,3.26923636 Z M24.0379636,1.39287273 L25.3143273,1.39287273 L25.3143273,0.447709091 L21.9111273,0.447709091 L21.9111273,1.39287273 L23.1028364,1.39287273 C23.1028364,1.39287273 23.3568,5.29832727 21.4023273,6.61745455 L22.0817455,7.34007273 C22.0817455,7.34007273 23.1442909,6.65978182 23.5282909,5.33890909 C23.5282909,5.33890909 24.2945455,6.91592727 24.9320727,7.34007273 L25.6542545,6.61745455 C25.6542545,6.61745455 23.9218909,5.54749091 24.0379636,1.39287273 L24.0379636,1.39287273 Z M27.3573818,0.0641454545 L27.3573818,3.05716364 L26.8459636,3.05716364 L26.8459636,0.0641454545 L25.8253091,0.0641454545 L25.8253091,8.44450909 L26.8459636,8.44450909 L26.8459636,3.90763636 L27.3573818,3.90763636 L27.3573818,8.44450909 L28.4216727,8.44450909 L28.4216727,0.0641454545 L27.3573818,0.0641454545 Z M17.3589818,5.55927273 C18.2962909,5.36770909 18.9936,4.65556364 18.9936,3.80509091 C18.9936,2.80974545 18.0366545,2.00072727 16.8536727,2.00072727 C15.672,2.00072727 14.7154909,2.80974545 14.7154909,3.80509091 C14.7154909,4.64029091 15.3857455,5.33890909 16.296,5.54705455 L16.296,6.2352 L14.5924364,6.2352 L14.5924364,7.12538182 L19.1031273,7.12538182 L19.1031273,6.27578182 L17.3589818,6.27578182 L17.3589818,5.55927273 Z M15.7147636,3.80509091 C15.7147636,3.26923636 16.2253091,2.83461818 16.8536727,2.83461818 C17.4846545,2.83461818 17.9917091,3.26923636 17.9917091,3.80509091 C17.9917091,4.34443636 17.4846545,4.77774545 16.8536727,4.77774545 C16.2253091,4.77774545 15.7147636,4.34443636 15.7147636,3.80509091 L15.7147636,3.80509091 Z" id="Fill-1"></path>
                            </g>
                        </g>
                    </g>
                </g>
            </g>
        </g>
    </g>
</svg>