<svg width="40" height="40" xmlns="http://www.w3.org/2000/svg" xmlns:xlink="http://www.w3.org/1999/xlink">
    <defs>
        <path id="a" d="M0 0h6.875v9.963H0z"/>
    </defs>
    <g fill="none" fill-rule="evenodd">
        <circle fill="#F8F8F8" cx="20" cy="20" r="20"/>
        <g transform="translate(7.5 20.212)">
            <mask id="b" fill="#fff">
                <use xlink:href="#a"/>
            </mask>
            <path d="M4.264 3.93c-.807-.377-1.468-.681-1.468-1.298 0-.47.377-.812 1.122-.812.272 0 .496.031.728.075.12.02.25.038.357.038.648 0 1.016-.388 1.26-1.123l.1-.3C6.26.466 5.198 0 3.814 0 1.612 0 .449 1.414.45 2.879c0 .74.231 1.275.593 1.697.468.543 1.133.898 1.755 1.203.91.445 1.728.774 1.728 1.434 0 .586-.605.918-1.415.918-1.109 0-2.076-.634-2.201-.71L0 9.127c.161.092 1.334.837 3.263.837 2.056-.003 3.612-1.18 3.612-2.994 0-1.805-1.442-2.474-2.611-3.04" fill="#DC062B" mask="url(#b)"/>
        </g>
        <path d="m19.805 24.984 3.728-4.572h-2.657l-2.973 3.946h-.046v-3.946h-2.19l.001 9.686h.13c.948 0 2.074-.439 2.074-2.02v-2.224h.045l3.031 4.123h2.788l-3.931-4.993zM23.657 10.037c-.77.146-1.914.845-1.91 2.084.004 1.122.923 1.805.925 3.277.004 1.108-.606 1.854-1.267 2.268.267-.024.56-.039.88-.04a7.209 7.209 0 0 1 1.107.067l3.46-4.245a14.4 14.4 0 0 0-3.195-3.41" fill="#DC062B"/>
        <path d="M26.564 21.5c.436-.678.49-1.758.527-2.86.041-1.024.255-1.798 1.629-1.802.304 0 .592.04 1.117.04 2.013-.01 3.325-.702 4.143-1.157-1.669-1.064-4.106-2.15-7.129-2.273-.196.555-1.727 4.815-1.844 5.16.018.02.285.32.62.907.494.805.76 1.487.937 1.985" fill="#DC062B"/>
        <path d="M19.258 18.021c-.177 0-.263-.115-.287-.316l-1.016-9.314c-.018-.173-.062-.496-.062-.61 0-.183.12-.281.261-.281.41-.001 2.644.521 5.015 2.184-.684.192-1.919.902-1.914 2.374.005 1.302.938 2.018.943 3.325.006 2.123-2.435 2.637-2.94 2.638M26.761 22.065c.038.099.074.181.11.239.053.093.124.135.212.135a.517.517 0 0 0 .197-.054c.183-.084 7.405-3.445 8.495-3.949.158-.075.456-.209.555-.267.103-.058.149-.143.149-.23a.272.272 0 0 0-.041-.142c-.137-.22-.835-.962-2.003-1.772-.929.511-2.377 1.3-4.531 1.31-.529 0-.649-.036-1.009-.034-1.052.004-1.315.454-1.352 1.376-.008.174-.01.409-.02.665-.034.824-.132 1.962-.762 2.723" fill="#ED7013"/>
    </g>
</svg>
