<svg width="40" height="40" xmlns="http://www.w3.org/2000/svg" xmlns:xlink="http://www.w3.org/1999/xlink">
    <defs>
        <linearGradient x1="50%" y1="0%" x2="50%" y2="100%" id="c">
            <stop stop-color="#7FBE26" offset="0%"/>
            <stop stop-color="#009140" offset="63.076%"/>
            <stop stop-color="#007259" offset="100%"/>
        </linearGradient>
        <circle id="a" cx="20" cy="20" r="20"/>
    </defs>
    <g fill="none" fill-rule="evenodd">
        <mask id="b" fill="#fff">
            <use xlink:href="#a"/>
        </mask>
        <use fill="#FFF" xlink:href="#a"/>
        <g mask="url(#b)">
            <path d="M19.604 0C4.095 0 0 5.475 0 12.162v15.68C0 34.529 4.095 40 19.604 40h.766V6.58l2.217-.002c1.68.009 6.625.266 8.364 5.232 1.023 2.92.274 5.688-.932 7.195 1.92 1.633 3.903 4.966 1.892 9.323-1.696 3.67-5.508 4.805-8.346 4.83v6.75C36.461 39.198 40 34.047 40 27.842v-15.68C40 5.475 35.905 0 20.397 0h-.793zM18.4 6.4l-.004 3.364-.113.004-.125.004c-.958-.002-2.492.004-3.822.485l-.281.11c-1.482.631-2.394 1.999-2.528 3.772l-.014.244c-.071 2.008 1.415 3.636 2.386 4.48l.118.102c2.247 1.884 5.028 4.22 4.131 8.615l-.067.302c-.454 1.904-2.187 3.885-3.351 4.8l-.155.118h-4.81c1.032-.724 4.182-3.362 4.837-5.417l.059-.21c.568-2.4-.531-3.554-2.738-5.417l-.224-.188C9.314 19.567 8.009 17.107 8 14.61l.004-.278c.107-3.134 1.757-5.723 4.433-6.977l.262-.117c1.891-.805 3.965-.838 5.307-.835l.217.001c.087 0 .1-.005.177-.005zm5.661 3.2c.109.002.307.005.357.008l.21.016c2.285.226 4.024 2.298 4.024 4.662l-.008.29c-.166 3.044-2.92 4.495-3.22 4.599l.016.002c.312.06 4.16 1.368 4.16 5.21l-.005.22C29.472 27.514 26.911 29.6 24 29.6v-20z" fill="url(#c)"/>
        </g>
    </g>
</svg>
