<?xml version="1.0" encoding="UTF-8"?>
<svg width="40px" height="40px" viewBox="0 0 40 40" version="1.1" xmlns="http://www.w3.org/2000/svg" xmlns:xlink="http://www.w3.org/1999/xlink">
    <title>9C4039D6-241C-48FA-9B5C-2A034EBC82E2</title>
    <defs>
        <polygon id="path-1" points="0 0 32 0 32 22.6105506 0 22.6105506"></polygon>
    </defs>
    <g id="WSG" stroke="none" stroke-width="1" fill="none" fill-rule="evenodd">
        <g id="20Icon_기관로고" transform="translate(-302.000000, -468.000000)">
            <g id="#-Con" transform="translate(79.500000, 136.000000)">
                <g id="은행" transform="translate(0.500000, 144.000000)">
                    <g id="대구은행" transform="translate(222.000000, 156.000000)">
                        <g id="icon_40_bank_dgb" transform="translate(0.000000, 32.000000)">
                            <circle id="Oval" fill="#0075C1" cx="20" cy="20" r="20"></circle>
                            <g id="Group-14" transform="translate(4.000000, 9.000000)">
                                <g id="Group-3">
                                    <mask id="mask-2" fill="white">
                                        <use xlink:href="#path-1"></use>
                                    </mask>
                                    <g id="Clip-2"></g>
                                    <path d="M15.9986386,0 C6.35530095,0 0,5.06083889 0,11.3057537 C0,17.5491966 6.35530095,22.6107714 15.9986386,22.6107714 C25.643448,22.6107714 32.0002208,17.5491966 32.0002208,11.3057537 C32.0002208,5.06083889 25.643448,0 15.9986386,0" id="Fill-1" fill="#FEFEFE" mask="url(#mask-2)"></path>
                                </g>
                                <path d="M18.8495459,15.5303068 C21.5966903,15.0534384 30.8728098,13.1444932 29.7299448,7.85110743 C29.3185722,5.95246495 27.3654726,3.86395822 24.4188972,2.41201186 C22.0639918,1.35230443 19.1895354,0.737085391 15.9611073,0.737085391 C7.00805129,0.737085391 0.782270138,5.46823752 0.782270138,11.3054593 C0.782270138,15.3706147 3.80464404,18.9000292 8.66458006,20.6662083 C9.69558708,17.9521798 13.8019534,16.4060372 18.8495459,15.5303068" id="Fill-4" fill="#0075C1"></path>
                                <path d="M16.0187289,17.4027509 C12.0036151,17.9068479 10.1616376,19.2035176 8.97829761,20.7776247 C11.0241217,21.4782091 13.3775553,21.8726557 15.961328,21.8726557 C24.9151199,21.8726557 31.1409011,17.1422395 31.1409011,11.3057537 C31.1409011,10.7884104 31.0908593,10.279898 30.9959272,9.78242422 C30.6986204,16.6359348 20.4113633,16.8567072 16.0187289,17.4027509" id="Fill-6" fill="#0075C1"></path>
                                <path d="M5.75266594,6.54376697 C5.92560431,6.52904882 6.45545802,6.4907816 6.83886606,6.4907816 C9.13121928,6.4907816 10.2004935,7.60200259 10.2004935,9.98855203 C10.2004935,12.4545795 9.25043637,13.6548454 7.29807261,13.6548454 C5.8689394,13.6548454 5.75266594,13.58567 5.75266594,12.73864 L5.75266594,6.54376697 Z M7.32162167,5.78725361 L4.31911728,5.78725361 L4.35444086,5.87335484 C4.4876402,6.19715434 4.47954521,6.7873525 4.47071431,7.30984714 C4.46703477,7.43274376 4.46556296,14.241364 4.46556296,14.241364 L4.5251715,14.2428358 C4.53915375,14.2443076 5.89322436,14.2928776 7.1766478,14.2928776 C9.85829633,14.2928776 11.6605349,12.475185 11.6605349,9.76998737 C11.6605349,7.35032207 9.9576439,5.78725361 7.32162167,5.78725361 L7.32162167,5.78725361 Z" id="Fill-8" fill="#FEFEFE"></path>
                                <path d="M19.7213025,14.1860237 C19.6764121,13.6900218 19.6580144,13.3515041 19.6580144,13.0600846 L19.6580144,10.098791 L18.2318248,10.098791 L18.2774511,10.1900436 C18.2789229,10.1922513 18.422425,10.4763118 18.422425,11.0974181 C18.422425,11.1187594 18.4275763,13.1550167 18.3701755,13.6377723 C18.0257706,13.7260813 17.5650922,13.7577253 17.2663136,13.7577253 C15.0033967,13.7577253 13.8546444,12.4581119 13.8546444,9.89788817 C13.8546444,7.94331669 15.1476346,6.48401125 16.9977072,6.35007601 C17.9713134,6.28090066 18.9081242,6.54582752 19.4983224,7.05801944 L19.6013495,7.14780021 L19.6013495,5.9512139 L19.5520436,5.9416471 C18.9640532,5.82831728 18.2737716,5.70910019 17.5982081,5.70910019 C14.3403436,5.70910019 12.3938671,7.42450159 12.3938671,10.2967503 C12.3938671,13.3566555 14.7701139,14.4465351 16.9947636,14.4465351 C17.9374616,14.4465351 18.9125396,14.3766239 19.6697889,14.2522554 L19.7264538,14.2426886 L19.7213025,14.1860237 Z" id="Fill-10" fill="#FEFEFE"></path>
                                <path d="M22.4557892,6.45074821 L23.2947242,6.45074821 C24.6164149,6.45074821 25.1779126,6.85034622 25.1779126,7.78642112 C25.1779126,8.85201581 24.4854233,9.34801776 22.9988892,9.34801776 L22.4513737,9.34801776 L22.4557892,6.45074821 Z M22.4513737,10.0118067 L23.1136909,10.0118067 C24.6458512,10.0118067 25.4200264,10.6123076 25.4200264,11.7971194 C25.4200264,13.0466911 24.7518219,13.654551 23.3778818,13.654551 C22.7118851,13.654551 22.4513737,13.4139091 22.4513737,12.7972183 L22.4513737,10.0118067 Z M24.8114305,9.59969828 C25.6268165,9.38260544 26.4068789,8.66362338 26.4068789,7.61421866 C26.4068789,6.46914591 25.3758719,5.78695925 23.6457523,5.78695925 L21.0774336,5.78695925 L21.0943595,5.86275777 C21.0958313,5.86643731 21.170158,6.20348314 21.170158,6.98280965 L21.170158,14.3139245 L21.2334461,14.3124527 C21.2437488,14.3124527 22.2431118,14.2925832 23.4816448,14.2925832 C25.6400628,14.2925832 26.87786,13.3550365 26.87786,11.7213209 C26.87786,10.7101834 26.0411327,9.86315332 24.8114305,9.59969828 L24.8114305,9.59969828 Z" id="Fill-12" fill="#FEFEFE"></path>
                            </g>
                        </g>
                    </g>
                </g>
            </g>
        </g>
    </g>
</svg>