<svg width="40" height="40" xmlns="http://www.w3.org/2000/svg" xmlns:xlink="http://www.w3.org/1999/xlink">
    <defs>
        <path id="a" d="M0 0h25v22.5H0z"/>
    </defs>
    <g fill="none" fill-rule="evenodd">
        <circle cx="20" cy="20" r="20" fill="#E5007F"/>
        <g transform="translate(7.5 8.75)">
            <mask id="b" fill="#fff">
                <use xlink:href="#a"/>
            </mask>
            <path d="M23.362 4.98 20.07 2.613 17.354.662c-1.293-.935-3.099-.672-4.068-.455L2.61 2.662C1.17 2.993 0 4.48 0 5.984v10.624c0 1.504 1.17 2.99 2.61 3.322l10.672 2.458c1.442.333 3.587-.102 4.792-.969l5.288-3.806c1.383-.989 1.638-1.789 1.638-3.22V8.201c0-1.472-.242-2.226-1.638-3.22" fill="#FEFEFE" mask="url(#b)"/>
        </g>
        <path d="m30.883 14.967-1.817-.888v-.443c0-1.76-.828-2.507-1.372-2.942l.034-.05-2.8-1.894h-.007c.893.602 1.549 1.721 1.549 3.726v.332l-2.843-1.391a2.303 2.303 0 0 0-1.164-.177l-3.2.498c-.374.058-.68.4-.68.766v8.603c0 1.764-1.26 2.194-2.65 2.066l-1.98-.18c-1.515-.142-2.076-1.21-2.076-2.457v-6.987c0-.362-.304-.612-.681-.554l-1.765.27c-.375.057-.681.403-.681.765v6.825c0 2.868 1.913 4.443 5.341 4.938l2.482.364c3.635.52 6.502-1.13 6.502-5.092v-5.841l3.395.832v3.417c0 .365.306.632.686.6l1.223-.088c.378-.034.687-.356.687-.718v-2.575l1.784.437c.223.056.4-.077.4-.294v-1.292c0-.217-.165-.475-.367-.576" fill="#E5007F"/>
    </g>
</svg>
