<?xml version="1.0" encoding="UTF-8"?>
<svg width="41px" height="40px" viewBox="0 0 41 40" version="1.1" xmlns="http://www.w3.org/2000/svg" xmlns:xlink="http://www.w3.org/1999/xlink">
    <title>118C5B85-FF74-45DC-94D3-A07DC1D900D4</title>
    <defs>
        <polygon id="path-1" points="0 0 30.3880242 0 30.3880242 9.29775709 0 9.29775709"></polygon>
    </defs>
    <g id="WSG" stroke="none" stroke-width="1" fill="none" fill-rule="evenodd">
        <g id="20Icon_기관로고" transform="translate(-524.000000, -1633.000000)">
            <g id="#-Con" transform="translate(79.500000, 136.000000)">
                <g id="카드" transform="translate(1.000000, 1410.000000)">
                    <g id="삼성" transform="translate(444.000000, 54.000000)">
                        <g id="icon_32_card_samsungcard" transform="translate(0.000000, 33.000000)">
                            <circle id="Oval" fill="#0060A8" cx="20" cy="20" r="20"></circle>
                            <g id="Group-6" transform="translate(4.800000, 15.199982)">
                                <mask id="mask-2" fill="white">
                                    <use xlink:href="#path-1"></use>
                                </mask>
                                <g id="Clip-2"></g>
                                <path d="M2.61218909,7.87857455 L5.77452606,7.87857455 L5.77452606,6.80407273 L2.61218909,6.80407273 L2.61218909,7.87857455 Z M1.45514667,9.07854545 L6.91977697,9.07854545 L6.91977697,5.60428606 L1.45514667,5.60428606 L1.45514667,9.07854545 Z M4.46179879,4.97786182 C4.13532121,4.81112242 3.80368485,4.57989818 3.46578424,4.28400485 C3.12751515,3.98829576 2.83917576,3.63878788 2.60058182,3.23511273 C2.41744485,3.63878788 2.16521697,4.00764121 1.84316121,4.34167273 C1.52073697,4.67515152 1.18504727,4.95722667 0.834802424,5.18679273 L0,4.23683879 C0.508877576,3.97281939 0.968009697,3.56545939 1.37794909,3.01586424 C1.78733576,2.46645333 1.99202909,1.90617212 1.99202909,1.33575758 L1.99202909,0.219248485 L3.22129455,0.219248485 L3.22129455,1.33575758 C3.22129455,1.90617212 3.42967273,2.44194909 3.84753455,2.94290424 C4.26484364,3.44441212 4.70039273,3.78176 5.15381333,3.95513212 L4.46179879,4.97786182 Z M6.91996121,3.21410909 L6.91996121,5.16523636 L5.76218182,5.16523636 L5.76218182,0 L6.91996121,0 L6.91996121,2.01413818 L7.92131879,2.01413818 L7.92131879,3.21410909 L6.91996121,3.21410909 Z" id="Fill-1" fill="#FFFFFF" mask="url(#mask-2)"></path>
                                <path d="M13.0801251,6.77308315 C12.7505154,6.61979345 12.3389178,6.54314861 11.8458851,6.54314861 C11.3683287,6.54314861 10.9628112,6.61445042 10.6284112,6.75686982 C10.2941954,6.8996577 10.1276402,7.09661285 10.1276402,7.34662982 C10.1276402,7.58301285 10.2941954,7.78641648 10.6284112,7.95702497 C10.9628112,8.12763345 11.3683287,8.21275345 11.8458851,8.21275345 C12.3389178,8.21275345 12.7505154,8.13445042 13.0801251,7.97784436 C13.4101033,7.8212383 13.575553,7.62483588 13.575553,7.38845285 C13.575553,7.13143467 13.4101033,6.92600436 13.0801251,6.77308315 L13.0801251,6.77308315 Z M14.0345008,8.76050618 C13.4979869,9.11848921 12.7645178,9.29775709 11.8339093,9.29775709 C10.9114075,9.29775709 10.1816233,9.12033164 9.64474085,8.76548073 C9.10767418,8.41081406 8.83923297,7.94836558 8.83923297,7.37795103 C8.83923297,6.81490618 9.10767418,6.35172073 9.64474085,5.99005285 C10.1816233,5.62875345 10.9114075,5.44782739 11.8339093,5.44782739 C12.7562269,5.44782739 13.4878536,5.62691103 14.0286051,5.9850783 C14.5695408,6.34342982 14.840193,6.80753648 14.840193,7.37795103 C14.840193,7.94154861 14.5717518,8.40215467 14.0345008,8.76050618 L14.0345008,8.76050618 Z M11.988673,4.99901285 C11.6706705,4.83172073 11.3403239,4.60031224 10.9983699,4.30497164 C10.6562318,4.00944679 10.3662342,3.65938618 10.1276402,3.25589527 C9.94431903,3.65938618 9.69393358,4.028608 9.37611539,4.36245527 C9.05774448,4.69648679 8.71984388,4.97782497 8.36186085,5.20739103 L7.52724267,4.25780558 C8.03612024,3.99360194 8.49451539,3.58661042 8.90482327,3.03719952 C9.31439418,2.48723588 9.519456,1.92732315 9.519456,1.35635588 L9.519456,0.187521939 L10.759776,0.187521939 L10.759776,1.35635588 C10.759776,1.92732315 10.9688912,2.46310012 11.386753,2.96368679 C11.8040621,3.46501042 12.2392427,3.80217406 12.6928475,3.97591467 L11.988673,4.99901285 Z M13.5040669,5.35349527 L13.5040669,2.79676315 L12.0128087,2.79676315 L12.0128087,1.57578861 L13.5040669,1.57578861 L13.5040669,-3.68484848e-05 L14.6609251,-3.68484848e-05 L14.6609251,5.35349527 L13.5040669,5.35349527 Z" id="Fill-3" fill="#FFFFFF" mask="url(#mask-2)"></path>
                                <path d="M22.1364325,4.8943263 L22.1364325,9.18293721 L20.9909973,9.18293721 L20.9909973,0.000110545455 L22.1364325,0.000110545455 L22.1364325,3.62121115 L23.2101973,3.62121115 L23.2101973,4.8943263 L22.1364325,4.8943263 Z M18.9503282,5.19150933 C18.2824495,6.30820267 17.4353028,7.16935176 16.4098095,7.77421964 L15.514944,6.94015418 C15.9445973,6.71740509 16.4291549,6.34523539 16.9700907,5.82346085 C17.5110264,5.30131782 17.8728785,4.77622691 18.0561998,4.24726691 C17.7776252,4.31709479 17.4533585,4.37292024 17.0833998,4.41437479 C16.7138095,4.45601358 16.2906046,4.47683297 15.813601,4.47683297 L15.813601,3.37064145 C16.3294798,3.37064145 16.8433319,3.34668994 17.351841,3.29768145 C17.861087,3.24940994 18.2310458,3.19340024 18.4617173,3.13075782 C18.493407,2.97783661 18.5210434,2.80943903 18.5451792,2.62445964 C18.5693149,2.44021721 18.5890288,2.27495176 18.6048737,2.12884752 L16.0755937,2.12884752 L16.0755937,0.939194182 L19.9527913,0.939194182 C19.9527913,2.65743903 19.6185755,4.07536873 18.9503282,5.19150933 L18.9503282,5.19150933 Z" id="Fill-4" fill="#FFFFFF" mask="url(#mask-2)"></path>
                                <path d="M22.7893139,8.2032097 L30.3882085,8.2032097 L30.3882085,7.01429333 L22.7893139,7.01429333 L22.7893139,8.2032097 Z M29.5535903,5.42796606 L23.7197382,5.42796606 L23.7197382,0.804586667 L29.5060558,0.804586667 L29.5060558,2.00474182 L24.8765964,2.00474182 L24.8765964,4.22744242 L29.5535903,4.22744242 L29.5535903,5.42796606 Z" id="Fill-5" fill="#FFFFFF" mask="url(#mask-2)"></path>
                            </g>
                        </g>
                    </g>
                </g>
            </g>
        </g>
    </g>
</svg>