<svg width="40" height="40" xmlns="http://www.w3.org/2000/svg" xmlns:xlink="http://www.w3.org/1999/xlink">
    <defs>
        <path id="a" d="M0 0h30v30H0z"/>
        <path id="c" d="M0 0h30v30H0z"/>
    </defs>
    <g fill="none" fill-rule="evenodd">
        <circle fill="#F8F8F8" cx="20" cy="20" r="20"/>
        <g transform="translate(5 5)">
            <mask id="b" fill="#fff">
                <use xlink:href="#a"/>
            </mask>
            <path d="M29.855 15.007c0 8.19-6.645 14.834-14.848 14.834-8.204 0-14.849-6.644-14.849-14.834C.158 6.803 6.803.158 15.007.158c8.203 0 14.848 6.645 14.848 14.849M15.007 30C23.29 30 30 23.29 30 15.007 30 6.71 23.29 0 15.007 0 6.724 0 0 6.71 0 15.007 0 23.29 6.724 30 15.007 30" fill="#24388D" mask="url(#b)"/>
        </g>
        <g transform="translate(5 5)">
            <mask id="d" fill="#fff">
                <use xlink:href="#c"/>
            </mask>
            <path d="M29.432 15.007c0 7.965-6.46 14.412-14.425 14.412C7.04 29.419.58 22.972.58 15.007.581 7.04 7.041.58 15.007.58c7.965 0 14.425 6.46 14.425 14.426M15.007 30C23.289 30 30 23.29 30 15.007 30 6.71 23.29 0 15.007 0 6.724 0 0 6.71 0 15.007 0 23.29 6.724 30 15.007 30" fill="#23398E" mask="url(#d)"/>
        </g>
        <path d="M34.01 20.007c0 7.727-6.276 13.989-14.003 13.989-7.729 0-14.003-6.262-14.003-13.99 0-7.74 6.274-14.002 14.003-14.002 7.727 0 14.002 6.262 14.002 14.003m.846 0c0-8.204-6.645-14.849-14.848-14.849-8.204 0-14.849 6.645-14.849 14.849 0 8.19 6.645 14.834 14.849 14.834 8.203 0 14.848-6.644 14.848-14.834" fill="#213A8F"/>
        <path d="M33.586 20.007c0 7.49-6.076 13.566-13.58 13.566-7.503 0-13.579-6.076-13.579-13.566 0-7.503 6.076-13.58 13.58-13.58 7.503 0 13.58 6.077 13.58 13.58m.845 0c0-7.966-6.46-14.426-14.425-14.426-7.966 0-14.425 6.46-14.425 14.426 0 7.965 6.46 14.412 14.425 14.412 7.965 0 14.425-6.447 14.425-14.412" fill="#1F3C8F"/>
        <path d="M33.164 20.007c0 7.252-5.892 13.143-13.157 13.143-7.266 0-13.157-5.891-13.157-13.143 0-7.266 5.89-13.158 13.157-13.158 7.265 0 13.157 5.892 13.157 13.158m.845 0c0-7.741-6.275-14.003-14.002-14.003-7.728 0-14.003 6.262-14.003 14.003 0 7.727 6.275 13.989 14.003 13.989 7.727 0 14.002-6.262 14.002-13.99" fill="#1E3D90"/>
        <path d="M32.74 20.007c0 7.027-5.705 12.72-12.733 12.72-7.028 0-12.735-5.693-12.735-12.72 0-7.028 5.707-12.735 12.735-12.735S32.74 12.979 32.74 20.007m.845 0c0-7.503-6.076-13.58-13.58-13.58-7.503 0-13.58 6.077-13.58 13.58 0 7.49 6.077 13.566 13.58 13.566 7.504 0 13.58-6.076 13.58-13.566" fill="#1B3E91"/>
        <path d="M32.305 20.007c0 6.79-5.508 12.298-12.299 12.298-6.79 0-12.298-5.509-12.298-12.298 0-6.804 5.509-12.312 12.298-12.312 6.79 0 12.3 5.508 12.3 12.312m.858 0c0-7.266-5.892-13.158-13.158-13.158-7.265 0-13.157 5.892-13.157 13.158 0 7.252 5.892 13.143 13.157 13.143 7.266 0 13.158-5.891 13.158-13.143" fill="#194092"/>
        <path d="M31.882 20.007c0 6.552-5.31 11.875-11.876 11.875-6.565 0-11.875-5.323-11.875-11.875 0-6.566 5.31-11.89 11.875-11.89 6.566 0 11.876 5.324 11.876 11.89m.86 0c0-7.028-5.708-12.735-12.736-12.735-7.027 0-12.734 5.707-12.734 12.735 0 7.027 5.707 12.72 12.734 12.72 7.028 0 12.735-5.693 12.735-12.72" fill="#164193"/>
        <path d="M31.46 20.007c0 6.314-5.125 11.453-11.453 11.453-6.328 0-11.453-5.14-11.453-11.453 0-6.328 5.125-11.454 11.453-11.454 6.328 0 11.453 5.126 11.453 11.454m.845 0c0-6.804-5.509-12.312-12.298-12.312-6.79 0-12.299 5.508-12.299 12.312 0 6.79 5.509 12.298 12.299 12.298 6.79 0 12.298-5.509 12.298-12.298" fill="#134394"/>
        <path d="M31.037 20.007c0 6.09-4.94 11.016-11.03 11.016-6.09 0-11.03-4.927-11.03-11.016 0-6.103 4.94-11.03 11.03-11.03 6.09 0 11.03 4.927 11.03 11.03m.845 0c0-6.566-5.31-11.89-11.875-11.89-6.566 0-11.876 5.324-11.876 11.89 0 6.552 5.31 11.875 11.876 11.875 6.565 0 11.875-5.323 11.875-11.875" fill="#104496"/>
        <path d="M30.614 20.007c0 5.852-4.755 10.594-10.607 10.594-5.852 0-10.608-4.742-10.608-10.594 0-5.866 4.756-10.608 10.608-10.608s10.607 4.742 10.607 10.608m.846 0c0-6.328-5.125-11.454-11.453-11.454-6.328 0-11.454 5.126-11.454 11.454 0 6.314 5.126 11.453 11.454 11.453S31.46 26.32 31.46 20.007" fill="#0C4597"/>
        <path d="M30.191 20.007c0 5.614-4.557 10.171-10.184 10.171-5.628 0-10.185-4.557-10.185-10.171A10.182 10.182 0 0 1 20.007 9.822 10.182 10.182 0 0 1 30.19 20.007m.846 0c0-6.103-4.94-11.03-11.03-11.03-6.09 0-11.03 4.927-11.03 11.03 0 6.09 4.94 11.016 11.03 11.016 6.09 0 11.03-4.927 11.03-11.016" fill="#074798"/>
        <path d="M29.769 20.007c0 5.39-4.373 9.748-9.762 9.748-5.39 0-9.763-4.359-9.763-9.748 0-5.39 4.373-9.763 9.763-9.763s9.762 4.373 9.762 9.763m.845 0c0-5.866-4.755-10.608-10.607-10.608-5.852 0-10.608 4.742-10.608 10.608 0 5.852 4.756 10.594 10.608 10.594s10.607-4.742 10.607-10.594" fill="#014899"/>
        <path d="M29.346 20.007c0 5.152-4.187 9.326-9.34 9.326-5.151 0-9.34-4.174-9.34-9.326 0-5.165 4.189-9.34 9.34-9.34 5.153 0 9.34 4.175 9.34 9.34m.845 0A10.182 10.182 0 0 0 20.007 9.822 10.182 10.182 0 0 0 9.82 20.007c0 5.614 4.558 10.171 10.186 10.171 5.627 0 10.184-4.557 10.184-10.171" fill="#004A9A"/>
        <path d="M28.91 20.007c0 4.914-3.99 8.903-8.904 8.903-4.913 0-8.903-3.99-8.903-8.903 0-4.928 3.99-8.917 8.903-8.917 4.915 0 8.904 3.99 8.904 8.917m.859 0c0-5.39-4.373-9.763-9.763-9.763s-9.762 4.373-9.762 9.763 4.373 9.748 9.762 9.748c5.39 0 9.763-4.359 9.763-9.748" fill="#004B9B"/>
        <path d="M28.487 20.007a8.481 8.481 0 0 1-16.961 0c0-4.69 3.79-8.495 8.48-8.495s8.481 3.805 8.481 8.495m.86 0c0-5.165-4.188-9.34-9.34-9.34s-9.34 4.175-9.34 9.34c0 5.152 4.188 9.326 9.34 9.326s9.34-4.174 9.34-9.326" fill="#004C9C"/>
        <path d="M28.065 20.007a8.056 8.056 0 0 1-8.059 8.058 8.056 8.056 0 0 1-8.057-8.058c0-4.452 3.606-8.072 8.057-8.072 4.452 0 8.059 3.62 8.059 8.072m.845 0c0-4.928-3.99-8.917-8.904-8.917s-8.903 3.99-8.903 8.917c0 4.914 3.99 8.903 8.903 8.903 4.915 0 8.904-3.99 8.904-8.903" fill="#004E9D"/>
        <path d="M27.642 20.007a7.639 7.639 0 0 1-7.635 7.635 7.639 7.639 0 0 1-7.636-7.635 7.63 7.63 0 0 1 7.636-7.636 7.63 7.63 0 0 1 7.635 7.636m.845 0c0-4.69-3.79-8.495-8.48-8.495s-8.481 3.805-8.481 8.495a8.481 8.481 0 0 0 16.961 0" fill="#004F9E"/>
        <path d="M27.22 20.007c0 3.976-3.237 7.2-7.213 7.2-3.977 0-7.213-3.224-7.213-7.2a7.213 7.213 0 0 1 14.425 0m.846 0c0-4.452-3.607-8.072-8.058-8.072-4.452 0-8.058 3.62-8.058 8.072a8.056 8.056 0 0 0 8.058 8.058 8.056 8.056 0 0 0 8.058-8.058" fill="#00509F"/>
        <path d="M26.796 20.007c0 3.738-3.038 6.776-6.79 6.776-3.751 0-6.79-3.038-6.79-6.776a6.788 6.788 0 0 1 6.79-6.79 6.788 6.788 0 0 1 6.79 6.79m.846 0a7.63 7.63 0 0 0-7.635-7.636 7.63 7.63 0 0 0-7.636 7.636 7.639 7.639 0 0 0 7.636 7.635 7.639 7.639 0 0 0 7.635-7.635" fill="#0052A0"/>
        <path d="M26.374 20.007c0 3.514-2.853 6.353-6.367 6.353s-6.368-2.84-6.368-6.353a6.37 6.37 0 0 1 6.368-6.368 6.37 6.37 0 0 1 6.367 6.368m.845 0a7.213 7.213 0 0 0-14.425 0c0 3.976 3.236 7.2 7.213 7.2 3.976 0 7.212-3.224 7.212-7.2" fill="#0053A1"/>
        <path d="M25.938 20.007a5.93 5.93 0 0 1-5.932 5.93 5.93 5.93 0 0 1-5.93-5.93 5.934 5.934 0 0 1 5.93-5.945 5.934 5.934 0 0 1 5.932 5.945m.859 0a6.788 6.788 0 0 0-6.79-6.79 6.788 6.788 0 0 0-6.79 6.79c0 3.738 3.038 6.776 6.79 6.776 3.751 0 6.79-3.038 6.79-6.776" fill="#0054A2"/>
        <path d="M25.515 20.007a5.505 5.505 0 0 1-5.509 5.508 5.504 5.504 0 0 1-5.508-5.508 5.508 5.508 0 1 1 11.017 0m.859 0a6.37 6.37 0 0 0-6.368-6.368 6.371 6.371 0 0 0-6.367 6.368c0 3.514 2.854 6.353 6.367 6.353 3.514 0 6.368-2.84 6.368-6.353" fill="#0056A3"/>
        <path d="M25.092 20.007c0 2.8-2.271 5.085-5.086 5.085a5.087 5.087 0 0 1-5.085-5.085 5.09 5.09 0 0 1 5.085-5.1 5.09 5.09 0 0 1 5.086 5.1m.846 0a5.934 5.934 0 0 0-5.932-5.945 5.934 5.934 0 0 0-5.93 5.945 5.93 5.93 0 1 0 11.862 0" fill="#0057A4"/>
        <path d="M24.67 20.007a4.662 4.662 0 0 1-4.664 4.662 4.662 4.662 0 0 1-4.663-4.662 4.665 4.665 0 0 1 4.663-4.677c2.576 0 4.664 2.1 4.664 4.677m.845 0a5.508 5.508 0 1 0-11.017 0 5.505 5.505 0 0 0 5.508 5.508 5.505 5.505 0 0 0 5.509-5.508" fill="#0058A5"/>
        <path d="M24.247 20.007a4.245 4.245 0 0 1-4.24 4.24 4.245 4.245 0 0 1-4.241-4.24 4.248 4.248 0 0 1 4.24-4.254 4.248 4.248 0 0 1 4.24 4.254m.846 0a5.09 5.09 0 0 0-5.086-5.1 5.09 5.09 0 0 0-5.085 5.1c0 2.8 2.272 5.085 5.085 5.085a5.087 5.087 0 0 0 5.086-5.085" fill="#005AA6"/>
        <path d="M23.824 20.007a3.82 3.82 0 0 1-3.817 3.817 3.82 3.82 0 0 1-3.818-3.817 3.811 3.811 0 0 1 3.818-3.818 3.811 3.811 0 0 1 3.817 3.818m.846 0a4.665 4.665 0 0 0-4.663-4.677c-2.577 0-4.664 2.1-4.664 4.677a4.662 4.662 0 0 0 4.664 4.662 4.662 4.662 0 0 0 4.663-4.662" fill="#005BA8"/>
        <path d="M23.401 20.007a3.39 3.39 0 0 1-3.394 3.381 3.39 3.39 0 0 1-3.395-3.381 3.394 3.394 0 0 1 3.395-3.395 3.393 3.393 0 0 1 3.394 3.395m.846 0a4.248 4.248 0 0 0-4.24-4.254 4.248 4.248 0 0 0 0 8.494 4.245 4.245 0 0 0 4.24-4.24" fill="#005CA9"/>
        <path d="M22.98 20.007a2.965 2.965 0 0 1-2.973 2.958 2.965 2.965 0 1 1 0-5.93 2.968 2.968 0 0 1 2.972 2.972m.845 0a3.811 3.811 0 0 0-3.817-3.818 3.811 3.811 0 0 0-3.818 3.818 3.82 3.82 0 0 0 3.818 3.817 3.82 3.82 0 0 0 3.817-3.817" fill="#005DAA"/>
        <path d="M22.543 20.007a2.536 2.536 0 0 1-5.073 0 2.54 2.54 0 0 1 2.537-2.55 2.54 2.54 0 0 1 2.536 2.55m.859 0a3.394 3.394 0 0 0-3.395-3.395 3.394 3.394 0 0 0-3.396 3.395 3.391 3.391 0 0 0 3.396 3.381 3.39 3.39 0 0 0 3.395-3.381" fill="#005FAB"/>
        <path d="M22.12 20.007a2.11 2.11 0 0 1-2.114 2.113 2.111 2.111 0 0 1-2.113-2.113 2.114 2.114 0 1 1 4.227 0m.86 0a2.969 2.969 0 0 0-2.974-2.973 2.965 2.965 0 1 0 0 5.93 2.966 2.966 0 0 0 2.973-2.957" fill="#0060AC"/>
        <path d="M21.697 20.007c0 .925-.752 1.69-1.69 1.69s-1.691-.765-1.691-1.69c0-.938.753-1.704 1.69-1.704.939 0 1.691.766 1.691 1.704m.846 0a2.54 2.54 0 0 0-2.537-2.55 2.54 2.54 0 0 0-2.536 2.55 2.536 2.536 0 0 0 5.073 0" fill="#0061AD"/>
        <path d="M21.275 20.007a1.268 1.268 0 0 1-2.537 0c0-.714.569-1.282 1.268-1.282.7 0 1.269.568 1.269 1.282m.845 0a2.114 2.114 0 1 0-4.227 0c0 1.162.938 2.113 2.113 2.113a2.11 2.11 0 0 0 2.114-2.113" fill="#0062AE"/>
        <path d="M20.852 20.007a.851.851 0 0 1-.846.845.852.852 0 0 1 0-1.704c.463 0 .846.383.846.859m.845 0c0-.938-.752-1.704-1.69-1.704a1.697 1.697 0 0 0 0 3.394c.938 0 1.69-.765 1.69-1.69" fill="#0064AF"/>
        <path d="M21.275 20.007c0-.714-.568-1.282-1.269-1.282-.7 0-1.268.568-1.268 1.282a1.268 1.268 0 0 0 2.537 0" fill="#0065B0"/>
        <path d="M20.852 20.007a.854.854 0 0 0-.846-.859.852.852 0 0 0 0 1.704.851.851 0 0 0 .846-.845" fill="#0066B1"/>
        <path d="M20.43 20.007a.429.429 0 0 0-.424-.436.429.429 0 0 0-.422.436c0 .224.185.423.422.423a.426.426 0 0 0 .424-.423" fill="#0069B3"/>
        <path d="m20.297 16.995 3.25-7.384a11.417 11.417 0 0 0-3.25-.476c-1.123 0-2.206.171-3.236.476l3.236 7.384zm0 7.04 3.157 7.174c-1.003.304-2.06.449-3.157.449-1.083 0-2.14-.145-3.144-.45l3.144-7.172zm8.019-.871 2.72-6.209c.344 1.083.543 2.246.543 3.448 0 3.078-1.242 5.879-3.263 7.913a11.32 11.32 0 0 1-3.25 2.298l3.25-7.45zm0-10.674c.396.397.78.832 1.11 1.295l-1.11 2.536-4.122 9.498-2.153-4.875h-3.474l-2.14 4.875-4.135-9.498-1.11-2.536c.344-.463.714-.898 1.11-1.295.687-.7 1.453-1.308 2.298-1.797l3.924 9.102h3.58l3.923-9.102c.846.49 1.612 1.097 2.299 1.797zm0 18.705a13.397 13.397 0 0 0 5.443-10.792c0-4.426-2.14-8.349-5.443-10.806a13.357 13.357 0 0 0-8.019-2.642c-2.998 0-5.76.978-8.005 2.642-3.302 2.457-5.443 6.38-5.443 10.806 0 4.425 2.14 8.348 5.443 10.792a13.387 13.387 0 0 0 8.005 2.656c3.012 0 5.786-.991 8.019-2.656zm-16.024-2.88c.938.939 2.034 1.731 3.25 2.3l-3.25-7.451-2.721-6.209a11.394 11.394 0 0 0-.529 3.448c0 3.078 1.242 5.879 3.25 7.913z" fill="#312783"/>
        <path d="m20.007 16.585 3.236-7.37a10.897 10.897 0 0 0-3.236-.477 10.96 10.96 0 0 0-3.237.476l3.237 7.371zm0 7.054 3.144 7.174c-.991.29-2.048.45-3.144.45-1.097 0-2.154-.16-3.144-.45l3.144-7.174zm8.018-.871 2.708-6.21a11.03 11.03 0 0 1 .542 3.449c0 3.078-1.242 5.878-3.25 7.912a11.8 11.8 0 0 1-3.25 2.299l3.25-7.45zm0-10.674c.397.396.766.832 1.096 1.294l-1.096 2.537-4.134 9.498-2.141-4.875h-3.487l-2.14 4.875-4.135-9.498-1.096-2.537c.33-.462.7-.898 1.096-1.294.687-.7 1.466-1.308 2.312-1.797l3.91 9.102h3.593l3.91-9.102c.846.49 1.625 1.097 2.312 1.797zm0 18.705a13.42 13.42 0 0 0 5.43-10.792c0-4.426-2.14-8.35-5.43-10.806a13.427 13.427 0 0 0-8.018-2.655c-2.999 0-5.773.99-8.019 2.655-3.289 2.457-5.43 6.38-5.43 10.806 0 4.425 2.141 8.349 5.43 10.792a13.427 13.427 0 0 0 8.019 2.655c2.998 0 5.772-.99 8.018-2.655zm-16.037-2.88a11.8 11.8 0 0 0 3.25 2.299l-3.25-7.45-2.708-6.21a11.015 11.015 0 0 0-.541 3.449c0 3.078 1.241 5.878 3.249 7.912z" fill="#FEFEFE"/>
    </g>
</svg>
