<?xml version="1.0" encoding="UTF-8"?>
<svg width="40px" height="40px" viewBox="0 0 40 40" version="1.1" xmlns="http://www.w3.org/2000/svg" xmlns:xlink="http://www.w3.org/1999/xlink">
    <title>0A270FEC-507E-4C31-8AE5-E3748431FD0D</title>
    <defs>
        <polygon id="path-1" points="0 4.88263672e-16 21.6657 4.88263672e-16 21.6657 17.27487 0 17.27487"></polygon>
    </defs>
    <g id="WSG" stroke="none" stroke-width="1" fill="none" fill-rule="evenodd">
        <g id="20Icon_기관로고" transform="translate(-429.000000, -1244.000000)">
            <g id="#-Con" transform="translate(79.500000, 136.000000)">
                <g id="증권" transform="translate(0.500000, 918.000000)">
                    <g id="교보증권" transform="translate(349.000000, 157.000000)">
                        <g id="icon_32_stock_kyobo" transform="translate(0.000000, 33.000000)">
                            <circle id="Oval" fill="#00447C" cx="20" cy="20" r="20"></circle>
                            <g id="Group-3" transform="translate(8.750000, 11.250270)">
                                <mask id="mask-2" fill="white">
                                    <use xlink:href="#path-1"></use>
                                </mask>
                                <g id="Clip-2"></g>
                                <path d="M4.7943,6.62517 C3.8259,6.68457 2.9997,5.95557 2.9376,4.99437 C2.88,4.03227 3.6054,3.20067 4.5756,3.13947 C5.5341,3.07827 6.3585,3.81267 6.4197,4.77387 C6.4818,5.73597 5.7537,6.56577 4.7943,6.62517 M20.8764,4.03407 C19.746,2.89017 17.8776,3.08817 16.776,4.25547 C15.3423,5.76027 14.2272,6.32277 12.8979,6.26697 C11.0439,6.18597 10.1286,4.75047 9.1773,2.94237 C8.1882,1.05327 6.6663,-0.00063 4.77,-0.00063 C1.7874,-0.00063 0,2.41497 0,5.10777 C0,9.25047 2.9133,11.72817 4.9302,12.77217 C6.606,13.64517 8.4699,14.00967 10.1286,14.05197 C10.0305,15.04197 9.7389,16.34877 9.4176,17.27487 L9.5877,17.27487 L11.1357,17.27487 L12.6819,17.27487 L12.8286,17.27487 C12.4929,16.34877 12.195,14.93397 12.1032,13.94127 C17.1009,13.29237 19.4751,11.02347 20.7747,8.86257 C21.3579,7.91397 21.6693,6.92847 21.6657309,6.04467 C21.6612,5.26977 21.4146,4.56507 20.8764,4.03407" id="Fill-1" fill="#6DB33F" mask="url(#mask-2)"></path>
                            </g>
                        </g>
                    </g>
                </g>
            </g>
        </g>
    </g>
</svg>