<svg width="40" height="40" xmlns="http://www.w3.org/2000/svg" xmlns:xlink="http://www.w3.org/1999/xlink">
    <defs>
        <path id="a" d="M0 0h24.616v24.616H0z"/>
        <path id="c" d="M0 0h23.593v5.511H0z"/>
    </defs>
    <g fill="none" fill-rule="evenodd">
        <circle fill="#F8F8F8" cx="20" cy="20" r="20"/>
        <path d="M20.585 32.496c6.731 0 12.188-5.457 12.188-12.188 0-6.731-5.457-12.188-12.188-12.188-6.731 0-12.188 5.457-12.188 12.188 0 6.731 5.457 12.188 12.188 12.188" fill="#FFF"/>
        <g transform="translate(8.277 8)">
            <mask id="b" fill="#fff">
                <use xlink:href="#a"/>
            </mask>
            <path d="M12.308.24C5.654.24.241 5.655.241 12.309s5.413 12.067 12.067 12.067 12.067-5.413 12.067-12.067S18.962.241 12.308.241m0 24.375C5.521 24.616 0 19.095 0 12.308S5.521 0 12.308 0s12.308 5.521 12.308 12.308-5.521 12.308-12.308 12.308" fill="#1D1D1B" mask="url(#b)"/>
        </g>
        <path d="M20.585 9.183c-6.135 0-11.125 4.99-11.125 11.125s4.99 11.125 11.125 11.125c6.134 0 11.125-4.99 11.125-11.125 0-6.134-4.99-11.125-11.125-11.125m0 22.422c-6.23 0-11.297-5.068-11.297-11.297 0-6.23 5.068-11.297 11.297-11.297 6.23 0 11.297 5.068 11.297 11.297 0 6.23-5.068 11.297-11.297 11.297" fill="#1D1D1B"/>
        <path d="M20.585 9.877c-5.752 0-10.431 4.68-10.431 10.431 0 5.752 4.68 10.43 10.43 10.43 5.753 0 10.432-4.678 10.432-10.43s-4.68-10.43-10.431-10.43m0 21.033c-5.846 0-10.603-4.757-10.603-10.603S14.74 9.705 20.585 9.705s10.603 4.757 10.603 10.603-4.757 10.603-10.603 10.603" fill="#1D1D1B"/>
        <path d="M23.736 16.822c-5.1 0-6.16.73-6.38 1.052-.096.141-.06.238-.058.242l.007.035c-.002.155.065.296.205.43 1.59 1.529 11.258 1.023 11.356 1.017.838-.02 1.583-.07 2.217-.15.1-.014.363.053.527.098a.26.26 0 0 1 .035-.134.145.145 0 0 1 .097-.066c1.988-.364 1.934-.972 1.933-.978 0-.39-1.744-1.482-9.49-1.544a52.508 52.508 0 0 0-.45-.002m1.51 3.037c-2.978 0-6.855-.194-7.854-1.154-.169-.162-.255-.343-.257-.54-.025-.073-.031-.216.071-.374.351-.543 1.846-1.181 6.981-1.139 7.625.061 9.66 1.099 9.66 1.702.001 0 .02.131-.1.306-.177.258-.664.616-1.973.855.005.008.007.077.02.129l.034.144-.143-.042c-.233-.07-.513-.137-.579-.128-.64.08-1.391.132-2.232.152a73.2 73.2 0 0 1-3.628.09" fill="#1D1D1B"/>
        <path d="m31.715 19.48-.006.184s-.557-.097-.644-.086c-.591.073-1.312.126-2.19.147 0 0-11.681.634-11.65-1.534 0 0-.675-1.473 6.966-1.412 7.64.062 9.574 1.115 9.574 1.616 0 0 .13.697-2.05 1.085m.516-3.008-1.059.077-.967-.49s-3.232-.406-6.014-.507c0 0-11.682-.031-11.682 2.654 0 0-.04 2.685 11.682 2.685 0 0 11.722 0 11.722-2.496 0 0 .154-1.002-3.682-1.923" fill="#FFF"/>
        <path d="M23.741 16.863c-5.1 0-6.16.73-6.38 1.052-.096.141-.06.237-.057.242l.006.035c-.002.155.065.296.205.43 1.59 1.529 11.258 1.023 11.356 1.017.824-.02 1.557-.069 2.184-.147.075-.01.388.04.571.07l.005-.154.069-.012c1.351-.241 1.776-.6 1.909-.791.08-.116.072-.193.072-.194-.002-.393-1.745-1.484-9.491-1.546a52.378 52.378 0 0 0-.449-.002zm1.51 3.037c-2.979 0-6.856-.194-7.855-1.154-.169-.162-.255-.343-.257-.54a.45.45 0 0 1 .071-.375c.351-.542 1.847-1.18 6.981-1.138 7.625.061 9.66 1.099 9.66 1.702.001 0 .02.132-.1.308-.179.256-.662.61-1.953.85l-.006.212-.098-.017c-.258-.045-.567-.09-.618-.085a22.56 22.56 0 0 1-2.198.148c-.157.008-1.705.09-3.628.09zm-1.07-4.263c-.29 0-9.395.019-11.264 1.883-.214.213-.322.444-.322.686 0 .026.162 2.6 11.596 2.6.03 0 2.96-.004 5.853-.312 3.783-.403 5.783-1.129 5.783-2.099.002-.02.047-.958-3.603-1.836l-1.07.077-.974-.493c-.241-.03-3.341-.409-5.992-.506h-.007zm.01 5.34c-8.125 0-10.623-1.304-11.39-2.082-.378-.385-.378-.678-.378-.69 0-.289.125-.56.372-.807 1.94-1.935 11.016-1.933 11.396-1.932 2.757.1 5.992.505 6.025.509l.028.008.946.479 1.048-.077.013.004c1.603.385 2.719.83 3.314 1.324.465.385.438.665.433.695.001 2.54-11.325 2.57-11.807 2.57z" fill="#1D1D1B"/>
        <path d="M17.225 18.19s-.676-1.472 6.966-1.41c7.592.06 9.548 1.1 9.573 1.605l.922.01c0-1.002-5.013-1.76-5.013-1.76-3.089-.49-9.083-.347-9.083-.347-5.565.43-5.094 1.923-5.094 1.923l1.73-.003-.001-.017" fill="#1D1D1B"/>
        <path d="M24.19 20.482c-8.796-.123-8.694-2.27-8.694-2.27v-.006H12.51s-.04 2.685 11.682 2.685c0 0 11.722 0 11.722-2.496h-1.227c-.102 2.046-10.495 2.087-10.495 2.087" fill="#1D1D1B"/>
        <path d="m30.727 17.27.8-.123s.17.657.2 1l-.889-.463" fill="#FFF"/>
        <path d="m30.727 17.27.8-.123s.17.657.2 1l-.889-.463"/>
        <path d="m31.433 17.209.2 1.105.122 1.166.997-.261s-.184-1.12-.184-1.182c0-.061-.169-.66-.169-.66l-.966-.168z" fill="#1D1D1B"/>
        <path d="M7.251 23.152c0-.501 1.934-1.555 9.575-1.616 7.64-.062 6.966 1.411 6.966 1.411.03 2.169-11.651 1.534-11.651 1.534-.878-.02-1.207-.06-1.207-.06l-.66.199s-.951-.338-1.228-.46c-1.917-.23-1.795-1.008-1.795-1.008m-2.148 0c0 2.496 11.723 2.496 11.723 2.496 11.722 0 11.681-2.686 11.681-2.686 0-2.685-11.681-2.654-11.681-2.654-2.782.102-6.72.63-6.72.63l-.707.485-.92-.118c-3.836.921-3.376 1.847-3.376 1.847" fill="#FFF"/>
        <g transform="translate(5 20.222)">
            <mask id="d" fill="#fff">
                <use xlink:href="#c"/>
            </mask>
            <path d="M2.336 2.942c0 .01-.013.135.112.295.166.212.58.491 1.609.615l.024.007c.245.108 1.04.392 1.195.448l.65-.196.018.002c.003 0 .338.04 1.199.06.1.006 9.767.512 11.359-1.016.14-.135.206-.275.204-.43v-.02l.008-.018c0-.002.037-.098-.059-.24-.225-.33-1.341-1.095-6.829-1.05-7.745.063-9.489 1.154-9.489 1.53v.013zm2.936 1.546-.027-.01a31.373 31.373 0 0 1-1.222-.457c-1.09-.133-1.536-.448-1.719-.69-.15-.199-.143-.367-.139-.407.014-.605 2.06-1.635 9.66-1.697 5.135-.038 6.63.597 6.981 1.139.103.159.096.301.072.375-.002.196-.089.377-.257.54C16.976 4.86 7.537 4.367 7.136 4.345a15.674 15.674 0 0 1-1.194-.06l-.67.203zM3.483 1.17C.993 1.77.368 2.362.218 2.661c-.073.145-.038.229-.037.232l.008.037c0 .97 2 1.695 5.785 2.098 2.892.308 5.822.312 5.852.312 11.434 0 11.595-2.573 11.595-2.6 0-.242-.108-.473-.321-.686C21.21.17 11.919.171 11.826.172c-2.641.097-6.379.585-6.69.625l-.715.493-.938-.12zm8.343 4.341c-.481 0-11.76-.029-11.809-2.565-.016-.049-.042-.171.038-.343C.245 2.199.988 1.593 3.46 1l.015-.004.904.115.716-.481C5.134.625 9.068.1 11.823 0c.387 0 9.458-.002 11.398 1.933.247.246.372.518.372.807 0 .011 0 .305-.379.69-.765.777-3.263 2.081-11.388 2.081z" fill="#1D1D1B" mask="url(#d)"/>
        </g>
        <path d="M23.792 22.947s.675-1.473-6.966-1.411c-7.592.06-9.549 1.1-9.574 1.606l-.921.01c0-1.003 5.012-1.76 5.012-1.76 3.09-.49 9.083-.347 9.083-.347 5.565.43 5.094 1.923 5.094 1.923l-1.73-.004.002-.017" fill="#1D1D1B"/>
        <path d="M16.826 25.238c8.797-.122 8.694-2.27 8.694-2.27v-.005h2.987s.041 2.685-11.681 2.685c0 0-11.815.025-11.815-2.47l1.32-.026c.102 2.046 10.495 2.086 10.495 2.086" fill="#1D1D1B"/>
        <path fill="#FFF" d="m31.187 20.508.522-.215-.015.506"/>
        <path fill="#1D1D1B" d="m31.801 20.262-.061 1.366-.261 1.396-.322 1.043-1.028 2.118-1.32 1.733-1.028.983.69.72 1.919-2.025 1.288-2.194.86-2.67.245-2.593"/>
        <path d="m31.801 20.262-.061 1.366-.261 1.396-.322 1.043-1.028 2.118-1.32 1.733-1.028.983.69.72 1.919-2.025 1.288-2.194.86-2.67.245-2.593"/>
        <path fill="#1D1D1B" d="m27.832 28.89-1.207.9-1.31.716-1.124.471-1.228.307-1.125.184-1.719.061-1.575-.184-1.186-.286-.225.961 1.432.328 2.537.163 1.882-.225 2.209-.654 1.78-.92 1.637-1.29"/>
        <path d="m27.832 28.89-1.207.9-1.31.716-1.124.471-1.228.307-1.125.184-1.719.061-1.575-.184-1.186-.286-.225.961 1.432.328 2.537.163 1.882-.225 2.209-.654 1.78-.92 1.637-1.29"/>
        <path d="m17.358 31.059-2.22-.93-1.626-1.106-1.565-1.565-1.136-1.565-.276-.613-1.105-.185.706 1.596 1.197 1.565 1.176 1.136 1.463 1.135s1.258.798 1.38.828c.124.031 1.873.676 1.873.676" fill="#1D1D1B"/>
        <path d="m17.358 31.059-2.22-.93-1.626-1.106-1.565-1.565-1.136-1.565-.276-.613-1.105-.185.706 1.596 1.197 1.565 1.176 1.136 1.463 1.135s1.258.798 1.38.828c.124.031 1.873.676 1.873.676"/>
        <path fill="#1D1D1B" d="m9.553 22.088.123.982.43 1.227.168.323.66-.2-.522-1.411-.245-1.105"/>
        <path d="m9.553 22.088.123.982.43 1.227.168.323.66-.2-.522-1.411-.245-1.105"/>
        <path d="m9.4 21.423.705-.486.03-1.948s.43-2.149.676-2.578c.246-.43.737-1.719 1.136-2.056 0 0 1.503-2.118 2.608-2.7 1.105-.584 1.81-1.136 3.1-1.443 1.288-.307 3.283-.614 4.388-.307l.03-.706s-2.24-.184-2.731 0c0 0-.86-.092-2.24.43-1.38.522-2.21 1.043-2.21 1.043s-1.196.645-1.81 1.29c-.614.643-.798.797-1.81 2.086 0 0-.86 1.35-1.075 1.964-.214.614-.583 1.78-.736 2.608" fill="#1D1D1B"/>
        <path d="m9.4 21.423.705-.486.03-1.948s.43-2.149.676-2.578c.246-.43.737-1.719 1.136-2.056 0 0 1.503-2.118 2.608-2.7 1.105-.584 1.81-1.136 3.1-1.443 1.288-.307 3.283-.614 4.388-.307l.03-.706s-2.24-.184-2.731 0c0 0-.86-.092-2.24.43-1.38.522-2.21 1.043-2.21 1.043s-1.196.645-1.81 1.29c-.614.643-.798.797-1.81 2.086 0 0-.86 1.35-1.075 1.964-.214.614-.583 1.78-.736 2.608"/>
        <g>
            <path d="M21.981 9.89s1.565.245 1.98.49c.414.246.352-.168 2.332 1.152 1.98 1.32 1.335 1.043 1.826 1.473.49.43 1.334 1.657 1.334 1.657l.752 1.398.967.489s-.583-1.596-1.258-2.455c-.675-.86-1.243-1.596-1.719-2.04-.475-.446-2.102-1.535-2.347-1.658-.246-.123-2.087-.844-2.087-.844l-1.78-.337" fill="#1D1D1B"/>
            <path d="M21.981 9.89s1.565.245 1.98.49c.414.246.352-.168 2.332 1.152 1.98 1.32 1.335 1.043 1.826 1.473.49.43 1.334 1.657 1.334 1.657l.752 1.398.967.489s-.583-1.596-1.258-2.455c-.675-.86-1.243-1.596-1.719-2.04-.475-.446-2.102-1.535-2.347-1.658-.246-.123-2.087-.844-2.087-.844l-1.78-.337"/>
        </g>
        <g>
            <path d="M10.796 25.697s.061.216-.2-.51l.69.216s.093.275.323.784" fill="#FFF"/>
            <path d="M10.796 25.697s.061.216-.2-.51l.69.216s.093.275.323.784"/>
        </g>
        <g>
            <path d="M31.141 19.215s.022.105.043.896l.957-.083-.02-.333-.192.062-.107-.646" fill="#FFF"/>
            <path d="M31.141 19.215s.022.105.043.896l.957-.083-.02-.333-.192.062-.107-.646"/>
        </g>
        <path fill="#1D1D1B" d="m31.758 19.749-.736-.108.024-.17.737.108z"/>
        <path fill="#1D1D1B" d="m31.755 19.74 1.043-.445-.613-.69-.368.537-.062.337"/>
    </g>
</svg>
