<?xml version="1.0" encoding="UTF-8"?>
<svg width="40px" height="40px" viewBox="0 0 40 40" version="1.1" xmlns="http://www.w3.org/2000/svg" xmlns:xlink="http://www.w3.org/1999/xlink">
    <title>2939620E-5491-42BA-982A-6BBBB2DDB604</title>
    <defs>
        <circle id="path-1" cx="20" cy="20" r="20"></circle>
        <path d="M0,6.96839005 C0,11.0610602 3.31825916,14.3795812 7.4125,14.3795812 L7.4125,14.3795812 C8.72225131,14.3795812 9.95405759,14.0384817 11.0229058,13.4424738 L11.0229058,13.4424738 L11.0229058,8.65674084 C10.3965314,9.47709424 9.40890052,10.0078534 8.29581152,10.0078534 L8.29581152,10.0078534 C6.40301047,10.0078534 4.86897906,8.47284031 4.86897906,6.58108639 L4.86897906,6.58108639 C4.86897906,5.68376963 5.21459424,4.86537958 5.77859948,4.25471204 L5.77859948,4.25471204 C5.18782723,3.16924084 4.85301047,1.92768325 4.85301047,0.605104712 L4.85301047,0.605104712 C4.85301047,0.403337696 4.86145288,0.19921466 4.87709424,3.53449908e-16 L4.87709424,3.53449908e-16 C2.03193717,1.03527487 0,3.76367801 0,6.96839005" id="path-3"></path>
        <path d="M7.63448953,3.55618313e-16 C3.41767016,3.55618313e-16 -1.86482774e-16,3.41832461 -1.86482774e-16,7.6328534 L-1.86482774e-16,7.6328534 C-1.86482774e-16,8.95543194 0.334816754,10.1969895 0.925589005,11.2824607 L0.925589005,11.2824607 C1.55229058,10.6039267 2.4479712,10.179712 3.44280105,10.179712 L3.44280105,10.179712 C3.82918848,10.179712 4.20183246,10.2448953 4.54901832,10.3636126 L4.54901832,10.3636126 C4.16459424,9.7796466 3.93835079,9.07925393 3.93835079,8.32899215 L3.93835079,8.32899215 C3.93835079,6.28861257 5.59371728,4.63390052 7.63514398,4.63390052 L7.63514398,4.63390052 C9.12421466,4.63390052 10.4066099,5.51485602 10.9921466,6.78350785 L10.9921466,6.78350785 C11.5435864,6.65209424 12.1187173,6.58403141 12.7094895,6.58403141 L12.7094895,6.58403141 C13.6002618,6.58403141 14.4543194,6.7395288 15.2446335,7.02774869 L15.2446335,7.02774869 C14.9342277,3.09620419 11.645877,3.55618313e-16 7.63448953,3.55618313e-16 Z" id="path-5"></path>
        <path d="M1.89339005,0.19947644 C2.11001309,0.669698953 2.23128272,1.19201571 2.23128272,1.74496073 L2.23128272,1.74496073 C2.23128272,2.49522251 2.0065445,3.19561518 1.62074607,3.7776178 L1.62074607,3.7776178 C1.96832461,3.66086387 2.3388089,3.59568063 2.72643979,3.59568063 L2.72643979,3.59568063 C4.61930628,3.59568063 6.1539267,5.13010471 6.1539267,7.02480366 L6.1539267,7.02480366 C6.1539267,8.91655759 4.61930628,10.4515707 2.72643979,10.4515707 L2.72643979,10.4515707 C1.61498691,10.4515707 0.626701571,9.92205497 1.62630326e-16,9.10170157 L1.62630326e-16,9.10170157 L1.62630326e-16,13.8861911 C1.06924084,14.482199 2.29967277,14.8232984 3.61073298,14.8232984 L3.61073298,14.8232984 C7.70399215,14.8232984 11.023233,11.5047775 11.023233,7.41210733 L11.023233,7.41210733 C11.023233,3.31688482 7.70399215,4.33680869e-17 3.61073298,4.33680869e-17 L3.61073298,4.33680869e-17 C3.01996073,4.33680869e-17 2.44482984,0.0680628272 1.89339005,0.19947644" id="path-7"></path>
    </defs>
    <g id="WSG" stroke="none" stroke-width="1" fill="none" fill-rule="evenodd">
        <g id="20Icon_기관로고" transform="translate(-413.000000, -577.000000)">
            <g id="#-Con" transform="translate(79.500000, 136.000000)">
                <g id="은행" transform="translate(0.500000, 144.000000)">
                    <g id="새마을금고" transform="translate(333.000000, 264.000000)">
                        <g id="icon_32_bank_saemaeul" transform="translate(0.000000, 33.000000)">
                            <mask id="mask-2" fill="white">
                                <use xlink:href="#path-1"></use>
                            </mask>
                            <use id="Oval" fill="#6FC9F3" xlink:href="#path-1"></use>
                            <g id="Group-10" mask="url(#mask-2)">
                                <g transform="translate(7.500000, 8.815445)">
                                    <g id="Group-3" transform="translate(0.000000, 7.027749)">
                                        <mask id="mask-4" fill="white">
                                            <use xlink:href="#path-3"></use>
                                        </mask>
                                        <g id="Clip-2"></g>
                                        <path d="M0,6.96839005 C0,11.0610602 3.31825916,14.3795812 7.4125,14.3795812 L7.4125,14.3795812 C8.72225131,14.3795812 9.95405759,14.0384817 11.0229058,13.4424738 L11.0229058,13.4424738 L11.0229058,8.65674084 C10.3965314,9.47709424 9.40890052,10.0078534 8.29581152,10.0078534 L8.29581152,10.0078534 C6.40301047,10.0078534 4.86897906,8.47284031 4.86897906,6.58108639 L4.86897906,6.58108639 C4.86897906,5.68376963 5.21459424,4.86537958 5.77859948,4.25471204 L5.77859948,4.25471204 C5.18782723,3.16924084 4.85301047,1.92768325 4.85301047,0.605104712 L4.85301047,0.605104712 C4.85301047,0.403337696 4.86145288,0.19921466 4.87709424,3.53449908e-16 L4.87709424,3.53449908e-16 C2.03193717,1.03527487 0,3.76367801 0,6.96839005" id="Fill-1" fill="#FFFFFF" mask="url(#mask-4)"></path>
                                    </g>
                                    <g id="Group-6" transform="translate(4.853010, 0.000000)">
                                        <mask id="mask-6" fill="white">
                                            <use xlink:href="#path-5"></use>
                                        </mask>
                                        <g id="Clip-5"></g>
                                        <path d="M7.63448953,3.55618313e-16 C3.41767016,3.55618313e-16 -1.86482774e-16,3.41832461 -1.86482774e-16,7.6328534 L-1.86482774e-16,7.6328534 C-1.86482774e-16,8.95543194 0.334816754,10.1969895 0.925589005,11.2824607 L0.925589005,11.2824607 C1.55229058,10.6039267 2.4479712,10.179712 3.44280105,10.179712 L3.44280105,10.179712 C3.82918848,10.179712 4.20183246,10.2448953 4.54901832,10.3636126 L4.54901832,10.3636126 C4.16459424,9.7796466 3.93835079,9.07925393 3.93835079,8.32899215 L3.93835079,8.32899215 C3.93835079,6.28861257 5.59371728,4.63390052 7.63514398,4.63390052 L7.63514398,4.63390052 C9.12421466,4.63390052 10.4066099,5.51485602 10.9921466,6.78350785 L10.9921466,6.78350785 C11.5435864,6.65209424 12.1187173,6.58403141 12.7094895,6.58403141 L12.7094895,6.58403141 C13.6002618,6.58403141 14.4543194,6.7395288 15.2446335,7.02774869 L15.2446335,7.02774869 C14.9342277,3.09620419 11.645877,3.55618313e-16 7.63448953,3.55618313e-16 Z" id="Fill-4" fill="#FFFFFF" mask="url(#mask-6)"></path>
                                    </g>
                                    <g id="Group-9" transform="translate(13.951767, 6.584031)">
                                        <mask id="mask-8" fill="white">
                                            <use xlink:href="#path-7"></use>
                                        </mask>
                                        <g id="Clip-8"></g>
                                        <path d="M1.89339005,0.19947644 C2.11001309,0.669698953 2.23128272,1.19201571 2.23128272,1.74496073 L2.23128272,1.74496073 C2.23128272,2.49522251 2.0065445,3.19561518 1.62074607,3.7776178 L1.62074607,3.7776178 C1.96832461,3.66086387 2.3388089,3.59568063 2.72643979,3.59568063 L2.72643979,3.59568063 C4.61930628,3.59568063 6.1539267,5.13010471 6.1539267,7.02480366 L6.1539267,7.02480366 C6.1539267,8.91655759 4.61930628,10.4515707 2.72643979,10.4515707 L2.72643979,10.4515707 C1.61498691,10.4515707 0.626701571,9.92205497 1.62630326e-16,9.10170157 L1.62630326e-16,9.10170157 L1.62630326e-16,13.8861911 C1.06924084,14.482199 2.29967277,14.8232984 3.61073298,14.8232984 L3.61073298,14.8232984 C7.70399215,14.8232984 11.023233,11.5047775 11.023233,7.41210733 L11.023233,7.41210733 C11.023233,3.31688482 7.70399215,4.33680869e-17 3.61073298,4.33680869e-17 L3.61073298,4.33680869e-17 C3.01996073,4.33680869e-17 2.44482984,0.0680628272 1.89339005,0.19947644" id="Fill-7" fill="#FFFFFF" mask="url(#mask-8)"></path>
                                    </g>
                                </g>
                            </g>
                        </g>
                    </g>
                </g>
            </g>
        </g>
    </g>
</svg>