<?xml version="1.0" encoding="UTF-8"?>
<svg width="40px" height="40px" viewBox="0 0 40 40" version="1.1" xmlns="http://www.w3.org/2000/svg" xmlns:xlink="http://www.w3.org/1999/xlink">
    <title>DFD24DF2-8D44-4323-8C2A-15CD180F537B</title>
    <defs>
        <polygon id="path-1" points="1.73472348e-16 -4.85722573e-16 9.59725175 -4.85722573e-16 9.59725175 11.1972465 1.73472348e-16 11.1972465"></polygon>
    </defs>
    <g id="WSG" stroke="none" stroke-width="1" fill="none" fill-rule="evenodd">
        <g id="20Icon_기관로고" transform="translate(-80.000000, -754.000000)">
            <g id="#-Con" transform="translate(79.500000, 136.000000)">
                <g id="저축은행" transform="translate(0.500000, 531.000000)">
                    <g id="SBI" transform="translate(0.000000, 54.000000)">
                        <g id="icon_32_saving_sbi" transform="translate(0.000000, 33.000000)">
                            <circle id="Oval" fill="#005FA1" cx="20" cy="20" r="20"></circle>
                            <g id="Group" transform="translate(3.200080, 9.599958)">
                                <g id="Group-16" transform="translate(4.188610, 7.316007)">
                                    <mask id="mask-2" fill="white">
                                        <use xlink:href="#path-1"></use>
                                    </mask>
                                    <g id="Clip-15"></g>
                                    <path d="M2.76280702,7.36173643 C2.53359772,8.62734884 3.17880702,9.03094574 4.30277602,9.03094574 C5.09930315,9.03094574 5.9923264,8.73029457 6.17241943,7.93277519 C6.38674501,6.98468217 4.97849695,6.80409302 3.61316361,6.36626357 C2.26172175,5.93215504 0.898124853,5.2375814 1.34488454,3.26747287 C1.878714,0.920806202 4.31666749,-4.85722573e-16 6.22178377,-4.85722573e-16 C8.24001633,-4.85722573e-16 10.0374737,1.03913178 9.50141168,3.46517829 L6.8583109,3.46517829 C7.12324113,2.48508527 6.32745819,2.16905426 5.51827989,2.16905426 C4.94897757,2.16905426 4.19015586,2.37693023 4.03090005,3.08688372 C3.84262098,3.91466667 5.27344268,4.06499225 6.65167524,4.50282171 C8.0175047,4.93693023 9.33000082,5.65854264 8.89142718,7.6016124 C8.27474501,10.3253333 5.88665199,11.1972713 3.65533416,11.1972713 C1.32404733,11.1972713 -0.490278247,10.1142326 0.118962063,7.36173643 L2.76280702,7.36173643 Z" id="Fill-14" fill="#FFFFFF" mask="url(#mask-2)"></path>
                                </g>
                                <polygon id="Fill-17" fill="#FFFFFF" points="25.2405333 7.54328128 27.8826419 7.54328128 25.4481612 18.2883355 22.8043163 18.2883355"></polygon>
                                <path d="M16.3221829,16.0462022 L18.4403845,16.0462022 C19.2790822,16.0462022 19.9327256,15.7304193 20.1341519,14.8431014 C20.350462,13.89352 19.7950512,13.5777371 18.9992682,13.5777371 L16.8810667,13.5777371 L16.3221829,16.0462022 Z M17.290369,11.7728379 L19.3373767,11.7728379 C19.7915783,11.7728379 20.4767256,11.5143572 20.6478884,10.7490859 C20.8277333,9.96669833 20.3588961,9.70995414 19.8072062,9.70995414 L17.7601984,9.70995414 L17.290369,11.7728379 Z M15.6077643,7.5433805 L20.3512062,7.5433805 C22.1082295,7.51386112 23.918338,7.99435724 23.410555,10.2370859 C23.190276,11.1985743 22.474369,11.9841867 21.582338,12.4031634 C22.5877333,12.7343262 23.0307721,13.7297991 22.7536868,14.9462952 C22.1739659,17.5080317 20.2207256,18.2884348 18.0457178,18.2884348 L13.1717953,18.2884348 L15.6077643,7.5433805 Z" id="Fill-19" fill="#FFFFFF"></path>
                                <path d="M31.5755659,3.22692779 C30.1134884,-0.653506321 21.752062,-1.09629702 12.904186,2.23592004 C6.59249612,4.61508283 1.73866667,8.27151693 7.22935923e-16,11.5821526 C2.40248062,9.07250918 6.28068217,6.60900531 10.9611163,4.84478825 C19.8114729,1.50934639 28.1711628,1.95362546 29.6332403,5.83505182 C30.0537054,6.94760996 29.8579845,8.22165647 29.1594419,9.55449368 C31.2984806,7.32119135 32.264186,5.05514484 31.5755659,3.22692779" id="Fill-21" fill="#ED323B"></path>
                            </g>
                        </g>
                    </g>
                </g>
            </g>
        </g>
    </g>
</svg>