<?xml version="1.0" encoding="UTF-8"?>
<svg width="40px" height="40px" viewBox="0 0 40 40" version="1.1" xmlns="http://www.w3.org/2000/svg" xmlns:xlink="http://www.w3.org/1999/xlink">
    <title>F5B09717-1C62-4B78-8877-ECA86AD23E2B</title>
    <defs>
        <polygon id="path-1" points="0 9.37718253e-16 6.83767307 9.37718253e-16 6.83767307 6.59377541 0 6.59377541"></polygon>
        <polygon id="path-3" points="3.75087301e-15 1.87543651e-15 25.2828674 1.87543651e-15 25.2828674 5.91126807 3.75087301e-15 5.91126807"></polygon>
    </defs>
    <g id="WSG" stroke="none" stroke-width="1" fill="none" fill-rule="evenodd">
        <g id="20Icon_기관로고" transform="translate(-80.000000, -190.000000)">
            <g id="#-Con" transform="translate(79.500000, 136.000000)">
                <g id="차차차" transform="translate(0.500000, 0.000000)">
                    <g id="img_40_profile_chachacha" transform="translate(0.000000, 54.000000)">
                        <circle id="Oval" fill="#FFCC00" cx="20" cy="20" r="20"></circle>
                        <g id="Group-21" transform="translate(4.285714, 12.142857)">
                            <g id="Group-3" transform="translate(11.377989, 7.565116)">
                                <mask id="mask-2" fill="white">
                                    <use xlink:href="#path-1"></use>
                                </mask>
                                <g id="Clip-2"></g>
                                <path d="M5.68093751,9.37718253e-16 L5.68093751,2.40083666 L6.83767307,2.40083666 L6.83767307,3.24941734 L5.68093751,3.24941734 L5.68093751,6.59378861 L4.61711032,6.59378861 L4.61711032,9.37718253e-16 L5.68093751,9.37718253e-16 Z M3.89258342,5.22833915 C3.27937501,4.87386206 2.7266758,4.44178537 2.33353088,3.83326196 C1.94309139,4.46494647 1.33938496,5.00840763 0.626009712,5.423064 L0,4.70348606 C0.998830928,4.16325822 1.80062749,3.35024403 1.80062749,2.28984811 L1.80062749,1.74625498 L0.310002491,1.74625498 L0.310002491,0.922287103 L1.80062749,0.922287103 L1.80062749,9.37718253e-16 L2.86293701,9.37718253e-16 L2.86293701,0.922287103 L4.19618527,0.922287103 L4.19618527,1.74625498 L2.86293701,1.74625498 L2.86293701,2.31611056 C2.86293701,3.32358566 3.50729084,4.05629483 4.36484562,4.46494647 L3.89258342,5.22833915 Z" id="Fill-1" fill="#212121" mask="url(#mask-2)"></path>
                            </g>
                            <path d="M23.8267466,6.29507596 L23.8267466,8.69940988 L24.9849338,8.69940988 L24.9849338,9.54356949 L23.8267466,9.54356949 L23.8267466,12.8895244 L22.764437,12.8895244 L22.764437,6.29507596 L23.8267466,6.29507596 Z M22.0413618,11.5208417 C21.4313867,11.169136 20.8741345,10.7325722 20.483563,10.1254345 C20.0920018,10.7542816 19.4866457,11.3071788 18.7758439,11.7203175 L18.1443574,11.0023232 C19.1474114,10.4570145 19.9494059,9.64545196 19.9494059,8.57898533 L19.9494059,8.03875749 L18.4600346,8.03875749 L18.4600346,7.21346989 L19.9494059,7.21346989 L19.9494059,6.29507596 L21.0101318,6.29507596 L21.0101318,7.21346989 L22.347999,7.21346989 L22.347999,8.03875749 L21.0101318,8.03875749 L21.0101318,8.60696342 C21.0101318,9.62268678 21.6542876,10.3499191 22.513756,10.7542816 L22.0413618,11.5208417 Z" id="Fill-4" fill="#212121"></path>
                            <path d="M30.6001756,6.7922611 L30.6001756,9.19349367 L31.7563173,9.19349367 L31.7563173,10.0406886 L30.6001756,10.0406886 L30.6001756,13.3849939 L29.5332471,13.3849939 L29.5332471,6.7922611 L30.6001756,6.7922611 Z M28.8106338,12.0162452 C28.2031661,11.6631538 27.6459799,11.2297574 27.252703,10.625853 C26.85969,11.2527205 26.2603387,11.8006027 25.5481512,12.2090564 L24.9164667,11.4960111 C25.9193887,10.952352 26.7217792,10.1413174 26.7217792,9.08059153 L26.7217792,8.53389706 L25.2291746,8.53389706 L25.2291746,7.71012714 L26.7217792,7.71012714 L26.7217792,6.7922611 L27.7820431,6.7922611 L27.7820431,7.71012714 L29.1151594,7.71012714 L29.1151594,8.53389706 L27.7820431,8.53389706 L27.7820431,9.10540229 C27.7820431,10.1116896 28.426199,10.8473022 29.2854034,11.2527205 L28.8106338,12.0162452 Z" id="Fill-6" fill="#212121"></path>
                            <path d="M14.597079,5.63421901 C14.597079,5.93597325 14.3524686,6.18546653 14.0522981,6.18546653 C13.7488282,6.18546653 13.5091009,5.93597325 13.5091009,5.63421901 C13.5091009,5.33352056 13.7488282,5.0905599 14.0522981,5.0905599 C14.3524686,5.0905599 14.597079,5.33352056 14.597079,5.63421901" id="Fill-8" fill="#212121"></path>
                            <path d="M21.466973,4.26549005 C21.466973,4.57008169 21.2269157,4.81680355 20.9235778,4.81680355 C20.6244631,4.81680355 20.3799847,4.57008169 20.3799847,4.26549005 C20.3799847,3.96208617 20.6244631,3.72183094 20.9235778,3.72183094 C21.2269157,3.72183094 21.466973,3.96208617 21.466973,4.26549005" id="Fill-10" fill="#212121"></path>
                            <path d="M28.1229271,4.72536667 C28.1229271,5.02547126 27.8814181,5.26856388 27.5780142,5.26856388 C27.2775137,5.26856388 27.0343551,5.02547126 27.0343551,4.72536667 C27.0343551,4.42631787 27.2775137,4.17887016 27.5780142,4.17887016 C27.8814181,4.17887016 28.1229271,4.42631787 28.1229271,4.72536667" id="Fill-12" fill="#212121"></path>
                            <polygon id="Fill-14" fill="#212121" points="1.15673556 14.0383219 0 14.0383219 0 7.77664108 1.15673556 7.77664108 1.15673556 10.4118602 3.52721863 7.77664108 4.93417331 7.77664108 2.37312251 10.6285584 5.03796938 14.0383219 3.6925137 14.0383219 1.65182894 11.4384713 1.15673556 11.9865514"></polygon>
                            <path d="M7.92836319,13.1187402 C8.61158281,13.1187402 8.97998296,12.7733032 8.97998296,12.1416847 C8.97998296,11.5886555 8.55754023,11.1955106 7.94545357,11.1955106 L6.68538385,11.1955106 L6.68538385,13.1187402 L7.92836319,13.1187402 Z M6.68538385,8.68876633 L6.68538385,10.2866847 L7.9226224,10.2866847 C8.45044486,10.2866847 8.70165377,9.97556041 8.70165377,9.43229721 C8.70165377,8.9444623 8.36076981,8.68876633 7.89167494,8.68876633 L6.68538385,8.68876633 Z M9.87646951,9.35773297 C9.87646951,9.84391822 9.67508007,10.3253525 9.23567892,10.6487501 C9.78356115,11.0143789 10.1832387,11.6429621 10.158296,12.2130156 C10.1224655,13.247281 9.47725387,14.0383219 7.90876533,14.0383219 L5.52693265,14.0383219 L5.52693265,7.77664108 L7.84799217,7.77664108 C8.913535,7.77664108 9.87646951,8.24751757 9.87646951,9.35773297 L9.87646951,9.35773297 Z" id="Fill-16" fill="#212121"></path>
                            <g id="Group-20" transform="translate(7.574275, 0.000000)">
                                <mask id="mask-4" fill="white">
                                    <use xlink:href="#path-3"></use>
                                </mask>
                                <g id="Clip-19"></g>
                                <path d="M25.0743713,3.53471428 C25.0682346,3.34276084 24.6083778,2.51278823 23.2085496,2.35653325 C21.1123706,2.14445407 20.8922411,1.25542394 18.952383,0.654818857 C16.4828549,-0.11147721 12.6305229,-0.351402509 9.82050674,0.743042214 C7.84204683,1.51263758 7.85755355,1.87661667 5.85401893,2.23096179 C2.50337899,2.81797374 1.50177665,2.97106139 0.465861555,4.50239979 C0.123855827,5.01471553 0.0821526396,5.27641623 3.75087301e-15,5.91126807 C0.0774016436,5.39261767 0.375856574,4.72958978 1.12849353,4.0177982 C1.95206549,3.24345183 3.25126495,2.87980268 5.93940489,2.4585477 C7.43636455,2.22178973 7.83280878,1.92914157 9.54805031,1.11467568 C12.1489567,0.049726725 15.5587861,-0.0607339325 18.7619472,0.867030013 C20.4928275,1.37466074 20.708074,2.19829869 23.1975299,2.62278699 C23.5337289,2.6828343 24.4286977,2.77884401 24.820391,3.55140875 C24.9780977,3.86899964 25.1994149,4.85047623 25.2256773,5.02276583 L25.2815015,5.02276583 C25.3003735,4.58890751 25.1253125,3.70179097 25.0743713,3.53471428" id="Fill-18" fill="#212121" mask="url(#mask-4)"></path>
                            </g>
                        </g>
                    </g>
                </g>
            </g>
        </g>
    </g>
</svg>