<svg width="41" height="40" xmlns="http://www.w3.org/2000/svg" xmlns:xlink="http://www.w3.org/1999/xlink">
    <defs>
        <path id="a" d="M0 0h36.636v6.19H0z"/>
    </defs>
    <g transform="translate(.5)" fill="none" fill-rule="evenodd">
        <circle fill="#3677BB" cx="20" cy="20" r="20"/>
        <g transform="translate(1.6 16.971)">
            <mask id="b" fill="#fff">
                <use xlink:href="#a"/>
            </mask>
            <path d="M34.938 0H1.697A1.7 1.7 0 0 0 0 1.697v4.492h.565V1.697c0-.623.51-1.134 1.132-1.134h33.241c.623 0 1.133.51 1.133 1.134v4.492h.565V1.697A1.7 1.7 0 0 0 34.938 0" fill="#FFF" mask="url(#b)"/>
        </g>
        <path d="M20.526 18.787h-.411c-.053 0-.068.032-.068.076v.337c0 .05.015.066.068.066h.41c.041 0 .07-.016.07-.066v-.337c0-.044-.029-.076-.07-.076M29.791 18.788h-.408c-.053 0-.07.033-.07.078v.336c0 .05.017.065.07.065h.408c.042 0 .07-.015.07-.065v-.336c0-.045-.028-.078-.07-.078M35.348 18.788h-.41c-.053 0-.074.033-.074.078v3.154c0 .046.021.06.073.06h.41c.038 0 .066-.014.066-.06v-3.154c0-.045-.028-.078-.065-.078M11.891 19.784h-.41c-.05 0-.066.025-.066.078v1.729c0 .047-.032.068-.082.068h-.749c-.058 0-.082-.02-.082-.068v-1.73c0-.052-.029-.077-.066-.077h-.413c-.05 0-.07.025-.07.078v1.784c0 .267.222.472.472.472.04 0 .085 0 .126-.012l.786-.213c.046-.017.078.003.078.057v.066c0 .05.017.064.066.064h.41c.044 0 .073-.014.073-.06v-2.158c0-.053-.029-.078-.073-.078M14.048 19.747c-.04 0-.078.013-.12.021l-.781.212c-.062.017-.082-.004-.082-.048v-.071c0-.053-.03-.078-.066-.078h-.413c-.05 0-.07.025-.07.078v2.16c0 .045.02.06.07.06h.413c.037 0 .066-.015.066-.065v-1.73c0-.053.024-.08.082-.08h.749c.05 0 .082.027.082.08v1.73c0 .05.017.064.066.064h.409c.044 0 .075-.014.075-.06v-1.794a.482.482 0 0 0-.48-.479M16.46 21.587c0 .05-.024.07-.08.07h-.759c-.056 0-.076-.02-.076-.07V20.29c0-.057.02-.086.076-.086h.759c.056 0 .08.03.08.086v1.298zm.48-2.8h-.417c-.042 0-.062.032-.062.076v.848c0 .05-.025.07-.079.07h-.375a.513.513 0 0 0-.288.082l-.433.255a.526.526 0 0 0-.29.496v1.031c0 .282.26.48.474.47.04 0 .078 0 .123-.01l.79-.215c.053-.015.078.004.078.058v.065c0 .05.02.067.062.067h.418c.047 0 .069-.017.069-.062v-3.155c0-.044-.022-.076-.07-.076zM18.945 21.59c0 .048-.028.069-.081.069h-.759c-.057 0-.077-.02-.077-.068v-1.3c0-.057.02-.086.077-.086h.759c.053 0 .081.029.081.086v1.3zm.48-1.806h-.938a.512.512 0 0 0-.283.082l-.438.254a.527.527 0 0 0-.287.494v1.033c0 .262.217.471.475.471.042 0 .078 0 .124-.012l.786-.213c.053-.017.081.003.081.057v.066c0 .05.018.064.062.064h.418c.045 0 .07-.014.07-.06v-2.159c0-.052-.025-.077-.07-.077zM20.526 19.782h-.411c-.053 0-.068.024-.068.077v2.158c0 .046.015.063.068.063h.41c.041 0 .07-.017.07-.063V19.86c0-.053-.029-.077-.07-.077M23.836 21.642h-1.463c-.047 0-.068-.024-.068-.078V19.59c0-.053.02-.081.068-.081h1.422c.05 0 .074-.021.074-.066v-.298c0-.05-.024-.075-.074-.075H22.78a.546.546 0 0 0-.282.078l-.48.267a.57.57 0 0 0-.298.524v1.553c0 .381.307.589.598.589h.885a.597.597 0 0 0 .291-.073l.352-.198a.113.113 0 0 0 .065-.106c0-.041-.028-.061-.074-.061M25.731 21.59c0 .048-.028.069-.082.069h-.758c-.057 0-.079-.02-.079-.068v-1.3c0-.057.022-.086.079-.086h.758c.054 0 .082.029.082.086v1.3zm.48-1.806h-.94a.505.505 0 0 0-.281.082l-.44.254a.528.528 0 0 0-.286.494v1.033c0 .262.218.471.476.471.041 0 .077 0 .122-.012l.787-.213c.054-.017.082.003.082.057v.066c0 .05.016.064.06.064h.42c.045 0 .069-.014.069-.06v-2.159c0-.052-.024-.077-.069-.077zM28.29 21.59c0 .048-.028.069-.081.069h-.753c-.059 0-.079-.02-.079-.07v-1.298c0-.058.02-.086.08-.086h.752c.053 0 .081.028.081.086v1.299zm.074-1.843c-.037 0-.083.013-.127.022l-.78.211c-.06.017-.08-.004-.08-.049v-.07c0-.053-.03-.078-.07-.078h-.413c-.05 0-.07.025-.07.078v3.135c0 .052.02.08.07.08h.412c.042 0 .071-.028.071-.08v-.829c0-.053.02-.087.08-.087h.374a.513.513 0 0 0 .28-.07l.445-.252a.547.547 0 0 0 .283-.496v-1.036a.478.478 0 0 0-.475-.479zM29.791 19.783h-.408c-.053 0-.07.025-.07.078v2.16c0 .045.017.06.07.06h.408c.042 0 .07-.015.07-.06v-2.16c0-.053-.028-.078-.07-.078M31.863 21.66h-.813c-.053 0-.074-.022-.074-.07V20.29c0-.058.021-.086.074-.086h.725c.054 0 .08-.02.08-.061v-.283c0-.053-.026-.078-.08-.078h-.746c-.036 0-.053-.015-.053-.057v-.43c0-.04-.03-.057-.068-.049l-.423.107c-.049.02-.064.049-.064.098v2.068c0 .283.225.566.568.566h.274a.531.531 0 0 0 .287-.07l.324-.193c.045-.025.066-.054.066-.093 0-.046-.024-.07-.077-.07M33.81 21.59c0 .048-.028.069-.083.069h-.757c-.056 0-.078-.02-.078-.07v-1.298c0-.058.022-.086.078-.086h.757c.055 0 .084.028.084.086v1.299zm.425-1.807h-.938a.5.5 0 0 0-.281.083l-.439.254a.531.531 0 0 0-.286.494v1.033c0 .262.217.471.474.471.042 0 .08 0 .124-.012l.787-.213c.052-.017.081.003.081.057v.066c0 .05.016.064.062.064h.416c.046 0 .071-.014.071-.06v-2.159c0-.053-.025-.078-.07-.078zM6.761 19.069h-.426c-.05 0-.065.025-.065.071v1.114c0 .052-.038.077-.091.077H5.06c-.05 0-.079-.025-.079-.077V19.14c0-.046-.027-.071-.074-.071h-.432c-.042 0-.058.025-.058.071v2.878c0 .045.016.062.058.062h.432c.047 0 .074-.017.074-.066v-1.159c0-.054.03-.082.08-.082h1.117c.053 0 .091.028.091.082v1.16c0 .048.015.065.065.065h.426c.049 0 .077-.017.077-.062V19.14c0-.046-.028-.071-.077-.071M9.328 19.783h-.41c-.05 0-.07.025-.07.078v1.729c0 .048-.032.073-.08.073h-.751c-.058 0-.078-.025-.078-.073v-1.73c0-.052-.028-.077-.07-.077H7.46c-.049 0-.07.025-.07.078v1.79c0 .218.165.473.48.473.037 0 .082 0 .118-.01l.787-.221c.045-.013.073.006.073.057v1.156c0 .044.02.074.07.074h.054c.041 0 .077-.025.103-.066l.278-.455a.45.45 0 0 0 .048-.188v-2.61c0-.053-.028-.078-.073-.078" fill="#FFF"/>
    </g>
</svg>
