<?xml version="1.0" encoding="UTF-8"?>
<svg width="40px" height="40px" viewBox="0 0 40 40" version="1.1" xmlns="http://www.w3.org/2000/svg" xmlns:xlink="http://www.w3.org/1999/xlink">
    <title>682B21E5-33D7-416D-9E64-478C0F701B81</title>
    <defs>
        <polygon id="path-1" points="0 0 19.730566 0 19.730566 19.7316226 0 19.7316226"></polygon>
        <path d="M0,9.39698113 C0,14.5901887 4.20566038,18.7932075 9.39962264,18.7932075 L9.39962264,18.7932075 C14.5830189,18.7932075 18.7913208,14.5883019 18.7913208,9.39698113 L18.7913208,9.39698113 C18.7913208,4.2090566 14.5830189,0 9.39358491,0 L9.39358491,0 C4.20566038,0 0,4.2090566 0,9.39698113" id="path-3"></path>
        <path d="M0,9.39698113 C0,14.5901887 4.20566038,18.7932075 9.39962264,18.7932075 L9.39962264,18.7932075 C14.5830189,18.7932075 18.7913208,14.5883019 18.7913208,9.39698113 L18.7913208,9.39698113 C18.7913208,4.2090566 14.5830189,0 9.39358491,0 L9.39358491,0 C4.20566038,0 0,4.2090566 0,9.39698113" id="path-5"></path>
        <path d="M0,9.39698113 C0,14.5901887 4.20566038,18.7932075 9.39962264,18.7932075 L9.39962264,18.7932075 C14.5830189,18.7932075 18.7913208,14.5883019 18.7913208,9.39698113 L18.7913208,9.39698113 C18.7913208,4.2090566 14.5830189,0 9.39358491,0 L9.39358491,0 C4.20566038,0 0,4.2090566 0,9.39698113" id="path-7"></path>
        <path d="M0,9.39698113 C0,14.5901887 4.20566038,18.7932075 9.39962264,18.7932075 L9.39962264,18.7932075 C14.5830189,18.7932075 18.7913208,14.5883019 18.7913208,9.39698113 L18.7913208,9.39698113 C18.7913208,4.2090566 14.5830189,0 9.39358491,0 L9.39358491,0 C4.20566038,0 0,4.2090566 0,9.39698113" id="path-9"></path>
        <path d="M0,9.39698113 C0,14.5901887 4.20566038,18.7932075 9.39962264,18.7932075 L9.39962264,18.7932075 C14.5830189,18.7932075 18.7913208,14.5883019 18.7913208,9.39698113 L18.7913208,9.39698113 C18.7913208,4.2090566 14.5830189,0 9.39358491,0 L9.39358491,0 C4.20566038,0 0,4.2090566 0,9.39698113" id="path-11"></path>
        <path d="M0,9.39698113 C0,14.5901887 4.20566038,18.7932075 9.39962264,18.7932075 L9.39962264,18.7932075 C14.5830189,18.7932075 18.7913208,14.5883019 18.7913208,9.39698113 L18.7913208,9.39698113 C18.7913208,4.2090566 14.5830189,0 9.39358491,0 L9.39358491,0 C4.20566038,0 0,4.2090566 0,9.39698113" id="path-13"></path>
        <path d="M0,9.39698113 C0,14.5901887 4.20566038,18.7932075 9.39962264,18.7932075 L9.39962264,18.7932075 C14.5830189,18.7932075 18.7913208,14.5883019 18.7913208,9.39698113 L18.7913208,9.39698113 C18.7913208,4.2090566 14.5830189,0 9.39358491,0 L9.39358491,0 C4.20566038,0 0,4.2090566 0,9.39698113" id="path-15"></path>
        <path d="M0,9.39698113 C0,14.5901887 4.20566038,18.7932075 9.39962264,18.7932075 L9.39962264,18.7932075 C14.5830189,18.7932075 18.7913208,14.5883019 18.7913208,9.39698113 L18.7913208,9.39698113 C18.7913208,4.2090566 14.5830189,0 9.39358491,0 L9.39358491,0 C4.20566038,0 0,4.2090566 0,9.39698113" id="path-17"></path>
        <path d="M0,9.39698113 C0,14.5901887 4.20566038,18.7932075 9.39962264,18.7932075 L9.39962264,18.7932075 C14.5830189,18.7932075 18.7913208,14.5883019 18.7913208,9.39698113 L18.7913208,9.39698113 C18.7913208,4.2090566 14.5830189,0 9.39358491,0 L9.39358491,0 C4.20566038,0 0,4.2090566 0,9.39698113" id="path-19"></path>
        <path d="M0,9.39698113 C0,14.5901887 4.20566038,18.7932075 9.39962264,18.7932075 L9.39962264,18.7932075 C14.5830189,18.7932075 18.7913208,14.5883019 18.7913208,9.39698113 L18.7913208,9.39698113 C18.7913208,4.2090566 14.5830189,0 9.39358491,0 L9.39358491,0 C4.20566038,0 0,4.2090566 0,9.39698113" id="path-21"></path>
        <path d="M0,9.39698113 C0,14.5901887 4.20566038,18.7932075 9.39962264,18.7932075 L9.39962264,18.7932075 C14.5830189,18.7932075 18.7913208,14.5883019 18.7913208,9.39698113 L18.7913208,9.39698113 C18.7913208,4.2090566 14.5830189,0 9.39358491,0 L9.39358491,0 C4.20566038,0 0,4.2090566 0,9.39698113" id="path-23"></path>
        <path d="M0,9.39698113 C0,14.5901887 4.20566038,18.7932075 9.39962264,18.7932075 L9.39962264,18.7932075 C14.5830189,18.7932075 18.7913208,14.5883019 18.7913208,9.39698113 L18.7913208,9.39698113 C18.7913208,4.2090566 14.5830189,0 9.39358491,0 L9.39358491,0 C4.20566038,0 0,4.2090566 0,9.39698113" id="path-25"></path>
        <path d="M0,9.39698113 C0,14.5901887 4.20566038,18.7932075 9.39962264,18.7932075 L9.39962264,18.7932075 C14.5830189,18.7932075 18.7913208,14.5883019 18.7913208,9.39698113 L18.7913208,9.39698113 C18.7913208,4.2090566 14.5830189,0 9.39358491,0 L9.39358491,0 C4.20566038,0 0,4.2090566 0,9.39698113" id="path-27"></path>
        <path d="M0,9.39698113 C0,14.5901887 4.20566038,18.7932075 9.39962264,18.7932075 L9.39962264,18.7932075 C14.5830189,18.7932075 18.7913208,14.5883019 18.7913208,9.39698113 L18.7913208,9.39698113 C18.7913208,4.2090566 14.5830189,0 9.39358491,0 L9.39358491,0 C4.20566038,0 0,4.2090566 0,9.39698113" id="path-29"></path>
        <path d="M0,9.39698113 C0,14.5901887 4.20566038,18.7932075 9.39962264,18.7932075 L9.39962264,18.7932075 C14.5830189,18.7932075 18.7913208,14.5883019 18.7913208,9.39698113 L18.7913208,9.39698113 C18.7913208,4.2090566 14.5830189,0 9.39358491,0 L9.39358491,0 C4.20566038,0 0,4.2090566 0,9.39698113" id="path-31"></path>
        <path d="M0,9.39698113 C0,14.5901887 4.20566038,18.7932075 9.39962264,18.7932075 L9.39962264,18.7932075 C14.5830189,18.7932075 18.7913208,14.5883019 18.7913208,9.39698113 L18.7913208,9.39698113 C18.7913208,4.2090566 14.5830189,0 9.39358491,0 L9.39358491,0 C4.20566038,0 0,4.2090566 0,9.39698113" id="path-33"></path>
        <path d="M0,9.39698113 C0,14.5901887 4.20566038,18.7932075 9.39962264,18.7932075 L9.39962264,18.7932075 C14.5830189,18.7932075 18.7913208,14.5883019 18.7913208,9.39698113 L18.7913208,9.39698113 C18.7913208,4.2090566 14.5830189,0 9.39358491,0 L9.39358491,0 C4.20566038,0 0,4.2090566 0,9.39698113" id="path-35"></path>
        <path d="M0,9.39698113 C0,14.5901887 4.20566038,18.7932075 9.39962264,18.7932075 L9.39962264,18.7932075 C14.5830189,18.7932075 18.7913208,14.5883019 18.7913208,9.39698113 L18.7913208,9.39698113 C18.7913208,4.2090566 14.5830189,0 9.39358491,0 L9.39358491,0 C4.20566038,0 0,4.2090566 0,9.39698113" id="path-37"></path>
        <path d="M0,9.39698113 C0,14.5901887 4.20566038,18.7932075 9.39962264,18.7932075 L9.39962264,18.7932075 C14.5830189,18.7932075 18.7913208,14.5883019 18.7913208,9.39698113 L18.7913208,9.39698113 C18.7913208,4.2090566 14.5830189,0 9.39358491,0 L9.39358491,0 C4.20566038,0 0,4.2090566 0,9.39698113" id="path-39"></path>
        <path d="M0,9.39698113 C0,14.5901887 4.20566038,18.7932075 9.39962264,18.7932075 L9.39962264,18.7932075 C14.5830189,18.7932075 18.7913208,14.5883019 18.7913208,9.39698113 L18.7913208,9.39698113 C18.7913208,4.2090566 14.5830189,0 9.39358491,0 L9.39358491,0 C4.20566038,0 0,4.2090566 0,9.39698113" id="path-41"></path>
        <path d="M0,9.39698113 C0,14.5901887 4.20566038,18.7932075 9.39962264,18.7932075 L9.39962264,18.7932075 C14.5830189,18.7932075 18.7913208,14.5883019 18.7913208,9.39698113 L18.7913208,9.39698113 C18.7913208,4.2090566 14.5830189,0 9.39358491,0 L9.39358491,0 C4.20566038,0 0,4.2090566 0,9.39698113" id="path-43"></path>
        <path d="M0,9.39698113 C0,14.5901887 4.20566038,18.7932075 9.39962264,18.7932075 L9.39962264,18.7932075 C14.5830189,18.7932075 18.7913208,14.5883019 18.7913208,9.39698113 L18.7913208,9.39698113 C18.7913208,4.2090566 14.5830189,0 9.39358491,0 L9.39358491,0 C4.20566038,0 0,4.2090566 0,9.39698113" id="path-45"></path>
        <path d="M0,9.39698113 C0,14.5901887 4.20566038,18.7932075 9.39962264,18.7932075 L9.39962264,18.7932075 C14.5830189,18.7932075 18.7913208,14.5883019 18.7913208,9.39698113 L18.7913208,9.39698113 C18.7913208,4.2090566 14.5830189,0 9.39358491,0 L9.39358491,0 C4.20566038,0 0,4.2090566 0,9.39698113" id="path-47"></path>
        <path d="M0,9.39698113 C0,14.5901887 4.20566038,18.7932075 9.39962264,18.7932075 L9.39962264,18.7932075 C14.5830189,18.7932075 18.7913208,14.5883019 18.7913208,9.39698113 L18.7913208,9.39698113 C18.7913208,4.2090566 14.5830189,0 9.39358491,0 L9.39358491,0 C4.20566038,0 0,4.2090566 0,9.39698113" id="path-49"></path>
        <path d="M0,9.39698113 C0,14.5901887 4.20566038,18.7932075 9.39962264,18.7932075 L9.39962264,18.7932075 C14.5830189,18.7932075 18.7913208,14.5883019 18.7913208,9.39698113 L18.7913208,9.39698113 C18.7913208,4.2090566 14.5830189,0 9.39358491,0 L9.39358491,0 C4.20566038,0 0,4.2090566 0,9.39698113" id="path-51"></path>
        <path d="M0,9.39698113 C0,14.5901887 4.20566038,18.7932075 9.39962264,18.7932075 L9.39962264,18.7932075 C14.5830189,18.7932075 18.7913208,14.5883019 18.7913208,9.39698113 L18.7913208,9.39698113 C18.7913208,4.2090566 14.5830189,0 9.39358491,0 L9.39358491,0 C4.20566038,0 0,4.2090566 0,9.39698113" id="path-53"></path>
        <path d="M0,9.39698113 C0,14.5901887 4.20566038,18.7932075 9.39962264,18.7932075 L9.39962264,18.7932075 C14.5830189,18.7932075 18.7913208,14.5883019 18.7913208,9.39698113 L18.7913208,9.39698113 C18.7913208,4.2090566 14.5830189,0 9.39358491,0 L9.39358491,0 C4.20566038,0 0,4.2090566 0,9.39698113" id="path-55"></path>
        <path d="M0,9.39698113 C0,14.5901887 4.20566038,18.7932075 9.39962264,18.7932075 L9.39962264,18.7932075 C14.5830189,18.7932075 18.7913208,14.5883019 18.7913208,9.39698113 L18.7913208,9.39698113 C18.7913208,4.2090566 14.5830189,0 9.39358491,0 L9.39358491,0 C4.20566038,0 0,4.2090566 0,9.39698113" id="path-57"></path>
        <path d="M0,9.39698113 C0,14.5901887 4.20566038,18.7932075 9.39962264,18.7932075 L9.39962264,18.7932075 C14.5830189,18.7932075 18.7913208,14.5883019 18.7913208,9.39698113 L18.7913208,9.39698113 C18.7913208,4.2090566 14.5830189,0 9.39358491,0 L9.39358491,0 C4.20566038,0 0,4.2090566 0,9.39698113" id="path-59"></path>
        <path d="M0,9.39698113 C0,14.5901887 4.20566038,18.7932075 9.39962264,18.7932075 L9.39962264,18.7932075 C14.5830189,18.7932075 18.7913208,14.5883019 18.7913208,9.39698113 L18.7913208,9.39698113 C18.7913208,4.2090566 14.5830189,0 9.39358491,0 L9.39358491,0 C4.20566038,0 0,4.2090566 0,9.39698113" id="path-61"></path>
        <path d="M0,9.39698113 C0,14.5901887 4.20566038,18.7932075 9.39962264,18.7932075 L9.39962264,18.7932075 C14.5830189,18.7932075 18.7913208,14.5883019 18.7913208,9.39698113 L18.7913208,9.39698113 C18.7913208,4.2090566 14.5830189,0 9.39358491,0 L9.39358491,0 C4.20566038,0 0,4.2090566 0,9.39698113" id="path-63"></path>
        <path d="M0,9.39698113 C0,14.5901887 4.20566038,18.7932075 9.39962264,18.7932075 L9.39962264,18.7932075 C14.5830189,18.7932075 18.7913208,14.5883019 18.7913208,9.39698113 L18.7913208,9.39698113 C18.7913208,4.2090566 14.5830189,0 9.39358491,0 L9.39358491,0 C4.20566038,0 0,4.2090566 0,9.39698113" id="path-65"></path>
        <path d="M0,9.39698113 C0,14.5901887 4.20566038,18.7932075 9.39962264,18.7932075 L9.39962264,18.7932075 C14.5830189,18.7932075 18.7913208,14.5883019 18.7913208,9.39698113 L18.7913208,9.39698113 C18.7913208,4.2090566 14.5830189,0 9.39358491,0 L9.39358491,0 C4.20566038,0 0,4.2090566 0,9.39698113" id="path-67"></path>
        <path d="M0,9.39698113 C0,14.5901887 4.20566038,18.7932075 9.39962264,18.7932075 L9.39962264,18.7932075 C14.5830189,18.7932075 18.7913208,14.5883019 18.7913208,9.39698113 L18.7913208,9.39698113 C18.7913208,4.2090566 14.5830189,0 9.39358491,0 L9.39358491,0 C4.20566038,0 0,4.2090566 0,9.39698113" id="path-69"></path>
        <path d="M0,9.39698113 C0,14.5901887 4.20566038,18.7932075 9.39962264,18.7932075 L9.39962264,18.7932075 C14.5830189,18.7932075 18.7913208,14.5883019 18.7913208,9.39698113 L18.7913208,9.39698113 C18.7913208,4.2090566 14.5830189,0 9.39358491,0 L9.39358491,0 C4.20566038,0 0,4.2090566 0,9.39698113" id="path-71"></path>
        <path d="M0,9.39698113 C0,14.5901887 4.20566038,18.7932075 9.39962264,18.7932075 L9.39962264,18.7932075 C14.5830189,18.7932075 18.7913208,14.5883019 18.7913208,9.39698113 L18.7913208,9.39698113 C18.7913208,4.2090566 14.5830189,0 9.39358491,0 L9.39358491,0 C4.20566038,0 0,4.2090566 0,9.39698113" id="path-73"></path>
        <path d="M0,9.39698113 C0,14.5901887 4.20566038,18.7932075 9.39962264,18.7932075 L9.39962264,18.7932075 C14.5830189,18.7932075 18.7913208,14.5883019 18.7913208,9.39698113 L18.7913208,9.39698113 C18.7913208,4.2090566 14.5830189,0 9.39358491,0 L9.39358491,0 C4.20566038,0 0,4.2090566 0,9.39698113" id="path-75"></path>
        <path d="M0,9.39698113 C0,14.5901887 4.20566038,18.7932075 9.39962264,18.7932075 L9.39962264,18.7932075 C14.5830189,18.7932075 18.7913208,14.5883019 18.7913208,9.39698113 L18.7913208,9.39698113 C18.7913208,4.2090566 14.5830189,0 9.39358491,0 L9.39358491,0 C4.20566038,0 0,4.2090566 0,9.39698113" id="path-77"></path>
        <path d="M0,9.39698113 C0,14.5901887 4.20566038,18.7932075 9.39962264,18.7932075 L9.39962264,18.7932075 C14.5830189,18.7932075 18.7913208,14.5883019 18.7913208,9.39698113 L18.7913208,9.39698113 C18.7913208,4.2090566 14.5830189,0 9.39358491,0 L9.39358491,0 C4.20566038,0 0,4.2090566 0,9.39698113" id="path-79"></path>
        <path d="M0,9.39698113 C0,14.5901887 4.20566038,18.7932075 9.39962264,18.7932075 L9.39962264,18.7932075 C14.5830189,18.7932075 18.7913208,14.5883019 18.7913208,9.39698113 L18.7913208,9.39698113 C18.7913208,4.2090566 14.5830189,0 9.39358491,0 L9.39358491,0 C4.20566038,0 0,4.2090566 0,9.39698113" id="path-81"></path>
        <path d="M0,9.39698113 C0,14.5901887 4.20566038,18.7932075 9.39962264,18.7932075 L9.39962264,18.7932075 C14.5830189,18.7932075 18.7913208,14.5883019 18.7913208,9.39698113 L18.7913208,9.39698113 C18.7913208,4.2090566 14.5830189,0 9.39358491,0 L9.39358491,0 C4.20566038,0 0,4.2090566 0,9.39698113" id="path-83"></path>
        <path d="M0,9.39698113 C0,14.5901887 4.20566038,18.7932075 9.39962264,18.7932075 L9.39962264,18.7932075 C14.5830189,18.7932075 18.7913208,14.5883019 18.7913208,9.39698113 L18.7913208,9.39698113 C18.7913208,4.2090566 14.5830189,0 9.39358491,0 L9.39358491,0 C4.20566038,0 0,4.2090566 0,9.39698113" id="path-85"></path>
        <path d="M0,9.39698113 C0,14.5901887 4.20566038,18.7932075 9.39962264,18.7932075 L9.39962264,18.7932075 C14.5830189,18.7932075 18.7913208,14.5883019 18.7913208,9.39698113 L18.7913208,9.39698113 C18.7913208,4.2090566 14.5830189,0 9.39358491,0 L9.39358491,0 C4.20566038,0 0,4.2090566 0,9.39698113" id="path-87"></path>
        <path d="M0,9.39698113 C0,14.5901887 4.20566038,18.7932075 9.39962264,18.7932075 L9.39962264,18.7932075 C14.5830189,18.7932075 18.7913208,14.5883019 18.7913208,9.39698113 L18.7913208,9.39698113 C18.7913208,4.2090566 14.5830189,0 9.39358491,0 L9.39358491,0 C4.20566038,0 0,4.2090566 0,9.39698113" id="path-89"></path>
        <path d="M0,9.39698113 C0,14.5901887 4.20566038,18.7932075 9.39962264,18.7932075 L9.39962264,18.7932075 C14.5830189,18.7932075 18.7913208,14.5883019 18.7913208,9.39698113 L18.7913208,9.39698113 C18.7913208,4.2090566 14.5830189,0 9.39358491,0 L9.39358491,0 C4.20566038,0 0,4.2090566 0,9.39698113" id="path-91"></path>
        <path d="M0,9.39698113 C0,14.5901887 4.20566038,18.7932075 9.39962264,18.7932075 L9.39962264,18.7932075 C14.5830189,18.7932075 18.7913208,14.5883019 18.7913208,9.39698113 L18.7913208,9.39698113 C18.7913208,4.2090566 14.5830189,0 9.39358491,0 L9.39358491,0 C4.20566038,0 0,4.2090566 0,9.39698113" id="path-93"></path>
        <path d="M0,9.39698113 C0,14.5901887 4.20566038,18.7932075 9.39962264,18.7932075 L9.39962264,18.7932075 C14.5830189,18.7932075 18.7913208,14.5883019 18.7913208,9.39698113 L18.7913208,9.39698113 C18.7913208,4.2090566 14.5830189,0 9.39358491,0 L9.39358491,0 C4.20566038,0 0,4.2090566 0,9.39698113" id="path-95"></path>
        <path d="M0,9.39698113 C0,14.5901887 4.20566038,18.7932075 9.39962264,18.7932075 L9.39962264,18.7932075 C14.5830189,18.7932075 18.7913208,14.5883019 18.7913208,9.39698113 L18.7913208,9.39698113 C18.7913208,4.2090566 14.5830189,0 9.39358491,0 L9.39358491,0 C4.20566038,0 0,4.2090566 0,9.39698113" id="path-97"></path>
        <path d="M0,9.39698113 C0,14.5901887 4.20566038,18.7932075 9.39962264,18.7932075 L9.39962264,18.7932075 C14.5830189,18.7932075 18.7913208,14.5883019 18.7913208,9.39698113 L18.7913208,9.39698113 C18.7913208,4.2090566 14.5830189,0 9.39358491,0 L9.39358491,0 C4.20566038,0 0,4.2090566 0,9.39698113" id="path-99"></path>
        <path d="M0,9.39698113 C0,14.5901887 4.20566038,18.7932075 9.39962264,18.7932075 L9.39962264,18.7932075 C14.5830189,18.7932075 18.7913208,14.5883019 18.7913208,9.39698113 L18.7913208,9.39698113 C18.7913208,4.2090566 14.5830189,0 9.39358491,0 L9.39358491,0 C4.20566038,0 0,4.2090566 0,9.39698113" id="path-101"></path>
        <path d="M0,9.39698113 C0,14.5901887 4.20566038,18.7932075 9.39962264,18.7932075 L9.39962264,18.7932075 C14.5830189,18.7932075 18.7913208,14.5883019 18.7913208,9.39698113 L18.7913208,9.39698113 C18.7913208,4.2090566 14.5830189,0 9.39358491,0 L9.39358491,0 C4.20566038,0 0,4.2090566 0,9.39698113" id="path-103"></path>
        <path d="M0,9.39698113 C0,14.5901887 4.20566038,18.7932075 9.39962264,18.7932075 L9.39962264,18.7932075 C14.5830189,18.7932075 18.7913208,14.5883019 18.7913208,9.39698113 L18.7913208,9.39698113 C18.7913208,4.2090566 14.5830189,0 9.39358491,0 L9.39358491,0 C4.20566038,0 0,4.2090566 0,9.39698113" id="path-105"></path>
        <path d="M0,9.39698113 C0,14.5901887 4.20566038,18.7932075 9.39962264,18.7932075 L9.39962264,18.7932075 C14.5830189,18.7932075 18.7913208,14.5883019 18.7913208,9.39698113 L18.7913208,9.39698113 C18.7913208,4.2090566 14.5830189,0 9.39358491,0 L9.39358491,0 C4.20566038,0 0,4.2090566 0,9.39698113" id="path-107"></path>
        <path d="M0,9.39698113 C0,14.5901887 4.20566038,18.7932075 9.39962264,18.7932075 L9.39962264,18.7932075 C14.5830189,18.7932075 18.7913208,14.5883019 18.7913208,9.39698113 L18.7913208,9.39698113 C18.7913208,4.2090566 14.5830189,0 9.39358491,0 L9.39358491,0 C4.20566038,0 0,4.2090566 0,9.39698113" id="path-109"></path>
        <path d="M0,9.39698113 C0,14.5901887 4.20566038,18.7932075 9.39962264,18.7932075 L9.39962264,18.7932075 C14.5830189,18.7932075 18.7913208,14.5883019 18.7913208,9.39698113 L18.7913208,9.39698113 C18.7913208,4.2090566 14.5830189,0 9.39358491,0 L9.39358491,0 C4.20566038,0 0,4.2090566 0,9.39698113" id="path-111"></path>
        <path d="M0,9.39698113 C0,14.5901887 4.20566038,18.7932075 9.39962264,18.7932075 L9.39962264,18.7932075 C14.5830189,18.7932075 18.7913208,14.5883019 18.7913208,9.39698113 L18.7913208,9.39698113 C18.7913208,4.2090566 14.5830189,0 9.39358491,0 L9.39358491,0 C4.20566038,0 0,4.2090566 0,9.39698113" id="path-113"></path>
        <path d="M0,9.39698113 C0,14.5901887 4.20566038,18.7932075 9.39962264,18.7932075 L9.39962264,18.7932075 C14.5830189,18.7932075 18.7913208,14.5883019 18.7913208,9.39698113 L18.7913208,9.39698113 C18.7913208,4.2090566 14.5830189,0 9.39358491,0 L9.39358491,0 C4.20566038,0 0,4.2090566 0,9.39698113" id="path-115"></path>
        <path d="M0,9.39698113 C0,14.5901887 4.20566038,18.7932075 9.39962264,18.7932075 L9.39962264,18.7932075 C14.5830189,18.7932075 18.7913208,14.5883019 18.7913208,9.39698113 L18.7913208,9.39698113 C18.7913208,4.2090566 14.5830189,0 9.39358491,0 L9.39358491,0 C4.20566038,0 0,4.2090566 0,9.39698113" id="path-117"></path>
        <path d="M0,9.39698113 C0,14.5901887 4.20566038,18.7932075 9.39962264,18.7932075 L9.39962264,18.7932075 C14.5830189,18.7932075 18.7913208,14.5883019 18.7913208,9.39698113 L18.7913208,9.39698113 C18.7913208,4.2090566 14.5830189,0 9.39358491,0 L9.39358491,0 C4.20566038,0 0,4.2090566 0,9.39698113" id="path-119"></path>
        <path d="M0,9.39698113 C0,14.5901887 4.20566038,18.7932075 9.39962264,18.7932075 L9.39962264,18.7932075 C14.5830189,18.7932075 18.7913208,14.5883019 18.7913208,9.39698113 L18.7913208,9.39698113 C18.7913208,4.2090566 14.5830189,0 9.39358491,0 L9.39358491,0 C4.20566038,0 0,4.2090566 0,9.39698113" id="path-121"></path>
        <path d="M0,9.39698113 C0,14.5901887 4.20566038,18.7932075 9.39962264,18.7932075 L9.39962264,18.7932075 C14.5830189,18.7932075 18.7913208,14.5883019 18.7913208,9.39698113 L18.7913208,9.39698113 C18.7913208,4.2090566 14.5830189,0 9.39358491,0 L9.39358491,0 C4.20566038,0 0,4.2090566 0,9.39698113" id="path-123"></path>
        <path d="M0,9.39698113 C0,14.5901887 4.20566038,18.7932075 9.39962264,18.7932075 L9.39962264,18.7932075 C14.5830189,18.7932075 18.7913208,14.5883019 18.7913208,9.39698113 L18.7913208,9.39698113 C18.7913208,4.2090566 14.5830189,0 9.39358491,0 L9.39358491,0 C4.20566038,0 0,4.2090566 0,9.39698113" id="path-125"></path>
        <path d="M0,9.39698113 C0,14.5901887 4.20566038,18.7932075 9.39962264,18.7932075 L9.39962264,18.7932075 C14.5830189,18.7932075 18.7913208,14.5883019 18.7913208,9.39698113 L18.7913208,9.39698113 C18.7913208,4.2090566 14.5830189,0 9.39358491,0 L9.39358491,0 C4.20566038,0 0,4.2090566 0,9.39698113" id="path-127"></path>
    </defs>
    <g id="WSG" stroke="none" stroke-width="1" fill="none" fill-rule="evenodd">
        <g id="20Icon_기관로고" transform="translate(-413.000000, -366.000000)">
            <g id="#-Con" transform="translate(79.500000, 136.000000)">
                <g id="은행" transform="translate(0.500000, 144.000000)">
                    <g id="우리은행" transform="translate(333.000000, 54.000000)">
                        <g id="Group" transform="translate(0.000000, 32.000000)">
                            <circle id="Oval" fill="#007BC3" cx="20" cy="20" r="20"></circle>
                            <g id="Group-199" transform="translate(10.069321, 10.377434)">
                                <g id="Group-6" transform="translate(0.000000, 0.000000)">
                                    <g id="Group-3">
                                        <mask id="mask-2" fill="white">
                                            <use xlink:href="#path-1"></use>
                                        </mask>
                                        <g id="Clip-2"></g>
                                        <path d="M19.730566,9.86301887 C19.730566,15.3158491 15.3067925,19.7316981 9.86830189,19.7316981 C4.41207547,19.7316981 0,15.3158491 0,9.86301887 C0,4.41698113 4.41207547,0 9.86830189,0 C15.3067925,0 19.730566,4.41698113 19.730566,9.86301887" id="Fill-1" fill="#FEFEFE" mask="url(#mask-2)"></path>
                                    </g>
                                    <path d="M9.86837736,19.2592075 C15.0517736,19.2592075 19.2604528,15.0543019 19.2604528,9.86298113 C19.2604528,4.6750566 15.0517736,0.465622642 9.86196226,0.465622642 C4.67441509,0.465622642 0.469132075,4.6750566 0.469132075,9.86298113 C0.469132075,15.0558113 4.67441509,19.2592075 9.86837736,19.2592075" id="Fill-4" fill="#007BC3"></path>
                                </g>
                                <g id="Group-196" transform="translate(0.468792, 0.465962)">
                                    <g id="Group-9">
                                        <mask id="mask-4" fill="white">
                                            <use xlink:href="#path-3"></use>
                                        </mask>
                                        <g id="Clip-8"></g>
                                        <path d="M9.43128302,13.936566 C13.5595849,13.936566 17.0995849,15.0875094 18.615434,16.7188302 C19.1256226,15.5490189 19.4048679,14.2633585 19.4048679,12.9143019 C19.4048679,7.52373585 14.9350566,3.15656604 9.43128302,3.15656604 C3.92750943,3.15656604 -0.538150943,7.526 -0.538150943,12.9143019 C-0.538150943,14.2697736 -0.257773585,15.5490189 0.250150943,16.7188302 C1.76260377,15.0875094 5.30298113,13.936566 9.43128302,13.936566" id="Fill-7" fill="#007BC3" mask="url(#mask-4)"></path>
                                    </g>
                                    <g id="Group-12">
                                        <mask id="mask-6" fill="white">
                                            <use xlink:href="#path-5"></use>
                                        </mask>
                                        <g id="Clip-11"></g>
                                        <path d="M9.43018868,13.9469057 C13.5475472,13.9469057 17.0792453,15.0884151 18.590566,16.7069057 C19.0996226,15.5465283 19.3781132,14.2710566 19.3781132,12.9329434 C19.3781132,7.58577358 14.92,3.23973585 9.43018868,3.23973585 C3.94037736,3.23973585 -0.513962264,7.58766038 -0.513962264,12.9329434 C-0.513962264,14.2774717 -0.233962264,15.5469057 0.27245283,16.7069057 C1.78113208,15.0884151 5.31245283,13.9469057 9.43018868,13.9469057" id="Fill-10" fill="#007CC4" mask="url(#mask-6)"></path>
                                    </g>
                                    <g id="Group-15">
                                        <mask id="mask-8" fill="white">
                                            <use xlink:href="#path-7"></use>
                                        </mask>
                                        <g id="Clip-14"></g>
                                        <path d="M9.42871698,13.9572075 C13.5355094,13.9572075 17.0581509,15.0896604 18.5656981,16.6949434 C19.0732453,15.544 19.3513585,14.2790943 19.3513585,12.9515472 C19.3513585,7.64739623 14.904566,3.32324528 9.42871698,3.32324528 C3.95324528,3.32324528 -0.489396226,7.64928302 -0.489396226,12.9515472 C-0.489396226,14.2847547 -0.210528302,15.5443774 0.294754717,16.6949434 C1.79928302,15.0896604 5.32192453,13.9572075 9.42871698,13.9572075" id="Fill-13" fill="#007EC5" mask="url(#mask-8)"></path>
                                    </g>
                                    <g id="Group-18">
                                        <mask id="mask-10" fill="white">
                                            <use xlink:href="#path-9"></use>
                                        </mask>
                                        <g id="Clip-17"></g>
                                        <path d="M9.42762264,13.9679245 C13.5234717,13.9679245 17.0370566,15.090566 18.5408302,16.6826415 C19.0468679,15.5415094 19.3249811,14.2871698 19.3249811,12.9698113 C19.3249811,7.7090566 14.8895094,3.40641509 9.42762264,3.40641509 C3.96611321,3.40641509 -0.465207547,7.7109434 -0.465207547,12.9698113 C-0.465207547,14.2924528 -0.18709434,15.5418868 0.317056604,16.6826415 C1.81781132,15.090566 5.33101887,13.9679245 9.42762264,13.9679245" id="Fill-16" fill="#0080C6" mask="url(#mask-10)"></path>
                                    </g>
                                    <g id="Group-21">
                                        <mask id="mask-12" fill="white">
                                            <use xlink:href="#path-11"></use>
                                        </mask>
                                        <g id="Clip-20"></g>
                                        <path d="M9.42649057,13.9782264 C13.5113962,13.9782264 17.0166792,15.0918113 18.5163019,16.6706792 C19.0212075,15.5389811 19.2978113,14.2948302 19.2978113,12.9891698 C19.2978113,7.7710566 14.8744151,3.49030189 9.42649057,3.49030189 C3.9789434,3.49030189 -0.441056604,7.7729434 -0.441056604,12.9891698 C-0.441056604,14.3004906 -0.163320755,15.5393585 0.339320755,16.6706792 C1.83630189,15.0918113 5.34045283,13.9782264 9.42649057,13.9782264" id="Fill-19" fill="#0082C8" mask="url(#mask-12)"></path>
                                    </g>
                                    <g id="Group-24">
                                        <mask id="mask-14" fill="white">
                                            <use xlink:href="#path-13"></use>
                                        </mask>
                                        <g id="Clip-23"></g>
                                        <path d="M9.42520755,13.9885283 C13.4995472,13.9885283 16.9957736,15.0930566 18.4916226,16.658717 C18.9950189,15.5364528 19.2712453,14.3024906 19.2712453,13.0073962 C19.2712453,7.8330566 14.8591698,3.57343396 9.42520755,3.57343396 C3.992,3.57343396 -0.416679245,7.8349434 -0.416679245,13.0073962 C-0.416679245,14.3077736 -0.139698113,15.5372075 0.361811321,16.658717 C1.85464151,15.0930566 5.35011321,13.9885283 9.42520755,13.9885283" id="Fill-22" fill="#0084C9" mask="url(#mask-14)"></path>
                                    </g>
                                    <g id="Group-27">
                                        <mask id="mask-16" fill="white">
                                            <use xlink:href="#path-15"></use>
                                        </mask>
                                        <g id="Clip-26"></g>
                                        <path d="M9.42392453,13.9988679 C13.4873208,13.9988679 16.9748679,15.0939623 18.4669434,16.6471698 C18.9688302,15.5335849 19.2443019,14.310566 19.2443019,13.0260377 C19.2443019,7.89471698 14.8439245,3.65698113 9.42392453,3.65698113 C4.0050566,3.65698113 -0.392679245,7.89660377 -0.392679245,13.0260377 C-0.392679245,14.3154717 -0.116075472,15.5343396 0.383924528,16.6471698 C1.87298113,15.0939623 5.35939623,13.9988679 9.42392453,13.9988679" id="Fill-25" fill="#0086CA" mask="url(#mask-16)"></path>
                                    </g>
                                    <g id="Group-30">
                                        <mask id="mask-18" fill="white">
                                            <use xlink:href="#path-17"></use>
                                        </mask>
                                        <g id="Clip-29"></g>
                                        <path d="M9.42283019,14.0091698 C13.475283,14.0091698 16.9541509,15.0948302 18.4416981,16.6348302 C18.9424528,15.5310566 19.2179245,14.3178491 19.2179245,13.0446415 C19.2179245,7.95633962 14.8284906,3.74011321 9.42283019,3.74011321 C4.01792453,3.74011321 -0.368113208,7.95822642 -0.368113208,13.0446415 C-0.368113208,14.3231321 -0.0926415094,15.5318113 0.406226415,16.6348302 C1.89150943,15.0948302 5.36849057,14.0091698 9.42283019,14.0091698" id="Fill-28" fill="#0087CB" mask="url(#mask-18)"></path>
                                    </g>
                                    <g id="Group-33">
                                        <mask id="mask-20" fill="white">
                                            <use xlink:href="#path-19"></use>
                                        </mask>
                                        <g id="Clip-32"></g>
                                        <path d="M9.42135849,14.0198491 C13.4632453,14.0198491 16.9330566,15.0964528 18.4172075,16.6224906 C18.9164528,15.5285283 19.1911698,14.3262642 19.1911698,13.0636226 C19.1911698,8.01833962 14.813434,3.82362264 9.42135849,3.82362264 C4.03079245,3.82362264 -0.343924528,8.01984906 -0.343924528,13.0636226 C-0.343924528,14.3304151 -0.0688301887,15.5296604 0.428528302,16.6224906 C1.91003774,15.0964528 5.37796226,14.0198491 9.42135849,14.0198491" id="Fill-31" fill="#0089CD" mask="url(#mask-20)"></path>
                                    </g>
                                    <g id="Group-36">
                                        <mask id="mask-22" fill="white">
                                            <use xlink:href="#path-21"></use>
                                        </mask>
                                        <g id="Clip-35"></g>
                                        <path d="M9.42041509,14.030566 C13.4513585,14.030566 16.9124906,15.0969811 18.3924906,16.6109434 C18.8902264,15.5260377 19.164566,14.3343396 19.164566,13.0818868 C19.164566,8.08 14.7981509,3.90716981 9.42041509,3.90716981 C4.04381132,3.90716981 -0.319584906,8.08188679 -0.319584906,13.0818868 C-0.319584906,14.3384906 -0.045245283,15.5275472 0.450981132,16.6109434 C1.92833962,15.0969811 5.38758491,14.030566 9.42041509,14.030566" id="Fill-34" fill="#008BCE" mask="url(#mask-22)"></path>
                                    </g>
                                    <g id="Group-39">
                                        <mask id="mask-24" fill="white">
                                            <use xlink:href="#path-23"></use>
                                        </mask>
                                        <g id="Clip-38"></g>
                                        <path d="M9.41913208,14.0408679 C13.4391321,14.0408679 16.8915849,15.0982264 18.367434,16.5986038 C18.8640377,15.5235094 19.1376226,14.3416226 19.1376226,13.1008679 C19.1376226,8.142 14.783283,3.99067925 9.41913208,3.99067925 C4.05649057,3.99067925 -0.295207547,8.14350943 -0.295207547,13.1008679 C-0.295207547,14.3461509 -0.022,15.5250189 0.47309434,16.5986038 C1.94667925,15.0982264 5.39686792,14.0408679 9.41913208,14.0408679" id="Fill-37" fill="#008DCF" mask="url(#mask-24)"></path>
                                    </g>
                                    <g id="Group-42">
                                        <mask id="mask-26" fill="white">
                                            <use xlink:href="#path-25"></use>
                                        </mask>
                                        <g id="Clip-41"></g>
                                        <path d="M9.41766038,14.0512075 C13.4270943,14.0512075 16.8708679,15.0991321 18.342566,16.5866792 C18.8380377,15.5210189 19.1108679,14.3496981 19.1108679,13.1191321 C19.1108679,8.20366038 14.7678491,4.07422642 9.41766038,4.07422642 C4.06935849,4.07422642 -0.271396226,8.20516981 -0.271396226,13.1191321 C-0.271396226,14.3534717 0.00143396226,15.5221509 0.495018868,16.5866792 C1.96483019,15.0991321 5.40596226,14.0512075 9.41766038,14.0512075" id="Fill-40" fill="#008FD0" mask="url(#mask-26)"></path>
                                    </g>
                                    <g id="Group-45">
                                        <mask id="mask-28" fill="white">
                                            <use xlink:href="#path-27"></use>
                                        </mask>
                                        <g id="Clip-44"></g>
                                        <path d="M9.41656604,14.0615094 C13.4150566,14.0615094 16.8501509,15.1007547 18.3180755,16.574717 C18.8116604,15.5177358 19.0841132,14.3573585 19.0841132,13.1381132 C19.0841132,8.26566038 14.7527925,4.15773585 9.41656604,4.15773585 C4.08260377,4.15773585 -0.246830189,8.26716981 -0.246830189,13.1381132 C-0.246830189,14.3611321 0.025245283,15.52 0.517698113,16.574717 C1.98335849,15.1007547 5.41543396,14.0615094 9.41656604,14.0615094" id="Fill-43" fill="#0091D1" mask="url(#mask-28)"></path>
                                    </g>
                                    <g id="Group-48">
                                        <mask id="mask-30" fill="white">
                                            <use xlink:href="#path-29"></use>
                                        </mask>
                                        <g id="Clip-47"></g>
                                        <path d="M9.41543396,14.0721887 C13.4029811,14.0721887 16.8293962,15.1016226 18.2931698,16.5627547 C18.7856226,15.5155849 19.0576981,14.3650189 19.0576981,13.156717 C19.0576981,8.32766038 14.7376981,4.24086792 9.41543396,4.24086792 C4.09543396,4.24086792 -0.222679245,8.32879245 -0.222679245,13.156717 C-0.222679245,14.3687925 0.0490188679,15.5174717 0.539962264,16.5627547 C2.00184906,15.1016226 5.42486792,14.0721887 9.41543396,14.0721887" id="Fill-46" fill="#0093D2" mask="url(#mask-30)"></path>
                                    </g>
                                    <g id="Group-51">
                                        <mask id="mask-32" fill="white">
                                            <use xlink:href="#path-31"></use>
                                        </mask>
                                        <g id="Clip-50"></g>
                                        <path d="M9.41396226,14.0825283 C13.3909434,14.0825283 16.8083019,15.1025283 18.2683019,16.5504528 C18.7596226,15.512717 19.030566,14.3734717 19.030566,13.1753585 C19.030566,8.38932075 14.7222642,4.32441509 9.41396226,4.32441509 C4.10830189,4.32441509 -0.198490566,8.39045283 -0.198490566,13.1753585 C-0.198490566,14.3761132 0.0724528302,15.5149811 0.562264151,16.5504528 C2.02,15.1025283 5.43433962,14.0825283 9.41396226,14.0825283" id="Fill-49" fill="#0095D3" mask="url(#mask-32)"></path>
                                    </g>
                                    <g id="Group-54">
                                        <mask id="mask-34" fill="white">
                                            <use xlink:href="#path-33"></use>
                                        </mask>
                                        <g id="Clip-53"></g>
                                        <path d="M9.41286792,14.0928302 C13.3789057,14.0928302 16.7875849,15.1037736 18.243434,16.5381132 C18.7332453,15.5101887 19.0041887,14.3807547 19.0041887,13.1935849 C19.0041887,8.4509434 14.7072075,4.40754717 9.41286792,4.40754717 C4.12116981,4.40754717 -0.173924528,8.45207547 -0.173924528,13.1935849 C-0.173924528,14.3837736 0.0958867925,15.5128302 0.584188679,16.5381132 C2.0385283,15.1037736 5.44343396,14.0928302 9.41286792,14.0928302" id="Fill-52" fill="#0097D4" mask="url(#mask-34)"></path>
                                    </g>
                                    <g id="Group-57">
                                        <mask id="mask-36" fill="white">
                                            <use xlink:href="#path-35"></use>
                                        </mask>
                                        <g id="Clip-56"></g>
                                        <path d="M9.41177358,14.1031698 C13.3668679,14.1031698 16.7668679,15.1046792 18.2189434,16.526566 C18.7072453,15.5076981 18.977434,14.3888302 18.977434,13.2126038 C18.977434,8.51298113 14.6921509,4.49109434 9.41177358,4.49109434 C4.13441509,4.49109434 -0.149735849,8.51373585 -0.149735849,13.2126038 C-0.149735849,14.3918491 0.119698113,15.5103396 0.606867925,16.526566 C2.0570566,15.1046792 5.45328302,14.1031698 9.41177358,14.1031698" id="Fill-55" fill="#0099D6" mask="url(#mask-36)"></path>
                                    </g>
                                    <g id="Group-60">
                                        <mask id="mask-38" fill="white">
                                            <use xlink:href="#path-37"></use>
                                        </mask>
                                        <g id="Clip-59"></g>
                                        <path d="M9.41064151,14.1134717 C13.3551698,14.1134717 16.7457358,15.1059245 18.1940377,16.5146038 C18.6812075,15.5051698 18.9502642,14.3964906 18.9502642,13.2312075 C18.9502642,8.57460377 14.6766792,4.57460377 9.41064151,4.57460377 C4.14724528,4.57460377 -0.125584906,8.57573585 -0.125584906,13.2312075 C-0.125584906,14.3991321 0.14309434,15.507434 0.629132075,16.5146038 C2.07554717,15.1059245 5.46233962,14.1134717 9.41064151,14.1134717" id="Fill-58" fill="#009BD7" mask="url(#mask-38)"></path>
                                    </g>
                                    <g id="Group-63">
                                        <mask id="mask-40" fill="white">
                                            <use xlink:href="#path-39"></use>
                                        </mask>
                                        <g id="Clip-62"></g>
                                        <path d="M9.40916981,14.1241509 C13.3427547,14.1241509 16.7253962,15.1067925 18.1695472,16.5026415 C18.6548302,15.5022642 18.9238868,14.4041509 18.9238868,13.2501887 C18.9238868,8.63660377 14.6616226,4.65811321 9.40916981,4.65811321 C4.16011321,4.65811321 -0.101018868,8.63773585 -0.101018868,13.2501887 C-0.101018868,14.4067925 0.16690566,15.505283 0.651433962,16.5026415 C2.09369811,15.1067925 5.47181132,14.1241509 9.40916981,14.1241509" id="Fill-61" fill="#009DD8" mask="url(#mask-40)"></path>
                                    </g>
                                    <g id="Group-66">
                                        <mask id="mask-42" fill="white">
                                            <use xlink:href="#path-41"></use>
                                        </mask>
                                        <g id="Clip-65"></g>
                                        <path d="M9.40807547,14.1344906 C13.3310943,14.1344906 16.7043019,15.1080755 18.1446792,16.490717 C18.6288302,15.4997736 18.8971321,14.4118491 18.8971321,13.2684528 C18.8971321,8.69826415 14.646566,4.74166038 9.40807547,4.74166038 C4.17298113,4.74166038 -0.0768301887,8.69939623 -0.0768301887,13.2684528 C-0.0768301887,14.4144906 0.190339623,15.5027925 0.673735849,16.490717 C2.11222642,15.1080755 5.48128302,14.1344906 9.40807547,14.1344906" id="Fill-64" fill="#009FD9" mask="url(#mask-42)"></path>
                                    </g>
                                    <g id="Group-69">
                                        <mask id="mask-44" fill="white">
                                            <use xlink:href="#path-43"></use>
                                        </mask>
                                        <g id="Clip-68"></g>
                                        <path d="M9.40698113,14.1447925 C13.3186792,14.1447925 16.6835849,15.1089434 18.1198113,16.4787547 C18.6024528,15.4972453 18.8703774,14.4198868 18.8703774,13.2870566 C18.8703774,8.76026415 14.6311321,4.82516981 9.40698113,4.82516981 C4.18584906,4.82516981 -0.0526415094,8.76101887 -0.0526415094,13.2870566 C-0.0526415094,14.4221509 0.214150943,15.5006415 0.696037736,16.4787547 C2.13075472,15.1089434 5.49075472,14.1447925 9.40698113,14.1447925" id="Fill-67" fill="#00A1DA" mask="url(#mask-44)"></path>
                                    </g>
                                    <g id="Group-72">
                                        <mask id="mask-46" fill="white">
                                            <use xlink:href="#path-45"></use>
                                        </mask>
                                        <g id="Clip-71"></g>
                                        <path d="M9.40550943,14.1550943 C13.3070189,14.1550943 16.6628679,15.1101887 18.0949434,16.4664151 C18.5764528,15.494717 18.8436226,14.4279245 18.8436226,13.3056604 C18.8436226,8.82226415 14.6160755,4.90830189 9.40550943,4.90830189 C4.19871698,4.90830189 -0.0284528302,8.82301887 -0.0284528302,13.3056604 C-0.0284528302,14.4298113 0.237584906,15.4981132 0.717962264,16.4664151 C2.14890566,15.1101887 5.49984906,14.1550943 9.40550943,14.1550943" id="Fill-70" fill="#00A3DB" mask="url(#mask-46)"></path>
                                    </g>
                                    <g id="Group-75">
                                        <mask id="mask-48" fill="white">
                                            <use xlink:href="#path-47"></use>
                                        </mask>
                                        <g id="Clip-74"></g>
                                        <path d="M9.40437736,14.1658113 C13.2949434,14.1658113 16.6421132,15.1114717 18.0704151,16.4544906 C18.5504151,15.4922264 18.8168302,14.4356226 18.8168302,13.3246792 C18.8168302,8.88392453 14.6009811,4.9914717 9.40437736,4.9914717 C4.21154717,4.9914717 -0.00430188679,8.88467925 -0.00430188679,13.3246792 C-0.00430188679,14.4375094 0.261358491,15.4956226 0.740226415,16.4544906 C2.16739623,15.1114717 5.50928302,14.1658113 9.40437736,14.1658113" id="Fill-73" fill="#00A5DC" mask="url(#mask-48)"></path>
                                    </g>
                                    <g id="Group-78">
                                        <mask id="mask-50" fill="white">
                                            <use xlink:href="#path-49"></use>
                                        </mask>
                                        <g id="Clip-77"></g>
                                        <path d="M9.40328302,14.1761132 C13.2825283,14.1761132 16.6213962,15.1123396 18.0451698,16.4425283 C18.5240377,15.4893208 18.7900755,14.443283 18.7900755,13.3429057 C18.7900755,8.94592453 14.5855472,5.07535849 9.40328302,5.07535849 C4.22479245,5.07535849 0.0202641509,8.94630189 0.0202641509,13.3429057 C0.0202641509,14.4447925 0.284792453,15.4930943 0.762528302,16.4425283 C2.18554717,15.1123396 5.51875472,14.1761132 9.40328302,14.1761132" id="Fill-76" fill="#00A7DD" mask="url(#mask-50)"></path>
                                    </g>
                                    <g id="Group-81">
                                        <mask id="mask-52" fill="white">
                                            <use xlink:href="#path-51"></use>
                                        </mask>
                                        <g id="Clip-80"></g>
                                        <path d="M9.40181132,14.1864528 C13.2708679,14.1864528 16.6006792,15.1132453 18.0206792,16.4302264 C18.4980377,15.4868302 18.7636981,14.4513585 18.7636981,13.3615472 C18.7636981,9.00758491 14.5704906,5.1585283 9.40181132,5.1585283 C4.23766038,5.1585283 0.0444528302,9.00796226 0.0444528302,13.3615472 C0.0444528302,14.4528679 0.308226415,15.4906038 0.784830189,16.4302264 C2.20407547,15.1132453 5.52822642,14.1864528 9.40181132,14.1864528" id="Fill-79" fill="#00A9DE" mask="url(#mask-52)"></path>
                                    </g>
                                    <g id="Group-84">
                                        <mask id="mask-54" fill="white">
                                            <use xlink:href="#path-53"></use>
                                        </mask>
                                        <g id="Clip-83"></g>
                                        <path d="M9.40071698,14.1967547 C13.2588302,14.1967547 16.5795849,15.1144906 17.9958113,16.4186415 C18.4720377,15.4843019 18.736566,14.4590189 18.736566,13.3805283 C18.736566,9.06920755 14.555434,5.24203774 9.40071698,5.24203774 C4.25090566,5.24203774 0.0690188679,9.06996226 0.0690188679,13.3805283 C0.0690188679,14.4601509 0.332037736,15.4884528 0.807132075,16.4186415 C2.22260377,15.1144906 5.53769811,14.1967547 9.40071698,14.1967547" id="Fill-82" fill="#00ACDF" mask="url(#mask-54)"></path>
                                    </g>
                                    <g id="Group-87">
                                        <mask id="mask-56" fill="white">
                                            <use xlink:href="#path-55"></use>
                                        </mask>
                                        <g id="Clip-86"></g>
                                        <path d="M9.39958491,14.207434 C13.2463774,14.207434 16.5588302,15.1153585 17.9709057,16.4063019 C18.446,15.4817736 18.7097736,14.4666792 18.7097736,13.3987547 C18.7097736,9.13120755 14.5399623,5.32554717 9.39958491,5.32554717 C4.26373585,5.32554717 0.0927924528,9.13158491 0.0927924528,13.3987547 C0.0927924528,14.4678113 0.355811321,15.4859245 0.829396226,16.4063019 C2.24071698,15.1153585 5.54713208,14.207434 9.39958491,14.207434" id="Fill-85" fill="#11AEE0" mask="url(#mask-56)"></path>
                                    </g>
                                    <g id="Group-90">
                                        <mask id="mask-58" fill="white">
                                            <use xlink:href="#path-57"></use>
                                        </mask>
                                        <g id="Clip-89"></g>
                                        <path d="M9.39811321,14.2177736 C13.234717,14.2177736 16.5377358,15.1166415 17.9464151,16.3943774 C18.4196226,15.479283 18.6833962,14.4747547 18.6833962,13.4177736 C18.6833962,9.19324528 14.5249057,5.40909434 9.39811321,5.40909434 C4.27622642,5.40909434 0.117358491,9.19324528 0.117358491,13.4177736 C0.117358491,14.4755094 0.379245283,15.483434 0.851698113,16.3943774 C2.25924528,15.1166415 5.55622642,14.2177736 9.39811321,14.2177736" id="Fill-88" fill="#1EB0E1" mask="url(#mask-58)"></path>
                                    </g>
                                    <g id="Group-93">
                                        <mask id="mask-60" fill="white">
                                            <use xlink:href="#path-59"></use>
                                        </mask>
                                        <g id="Clip-92"></g>
                                        <path d="M9.39701887,14.2280755 C13.2226792,14.2280755 16.5170189,15.1175094 17.9215472,16.3824151 C18.3936226,15.4767547 18.6566415,14.4827925 18.6566415,13.436 C18.6566415,9.25486792 14.5098491,5.49260377 9.39701887,5.49260377 C4.28909434,5.49260377 0.14154717,9.25486792 0.14154717,13.436 C0.14154717,14.4831698 0.403056604,15.4809057 0.874,16.3824151 C2.27739623,15.1175094 5.56569811,14.2280755 9.39701887,14.2280755" id="Fill-91" fill="#27B2E2" mask="url(#mask-60)"></path>
                                    </g>
                                    <g id="Group-96">
                                        <mask id="mask-62" fill="white">
                                            <use xlink:href="#path-61"></use>
                                        </mask>
                                        <g id="Clip-95"></g>
                                        <path d="M9.39592453,14.2383774 C13.2106415,14.2383774 16.4963019,15.1187547 17.8966792,16.3700755 C18.3672453,15.4738491 18.6298868,14.4904528 18.6298868,13.4549811 C18.6298868,9.31686792 14.4944151,5.57573585 9.39592453,5.57573585 C4.30233962,5.57573585 0.166113208,9.31686792 0.166113208,13.4549811 C0.166113208,14.4908302 0.426490566,15.4783774 0.896301887,16.3700755 C2.29630189,15.1187547 5.57516981,14.2383774 9.39592453,14.2383774" id="Fill-94" fill="#2EB4E3" mask="url(#mask-62)"></path>
                                    </g>
                                    <g id="Group-99">
                                        <mask id="mask-64" fill="white">
                                            <use xlink:href="#path-63"></use>
                                        </mask>
                                        <g id="Clip-98"></g>
                                        <path d="M9.39445283,14.2490943 C13.1986038,14.2490943 16.4755849,15.1200377 17.8718113,16.3581509 C18.3412453,15.4713585 18.6031321,14.4981509 18.6031321,13.4732453 C18.6031321,9.3785283 14.4793585,5.65928302 9.39445283,5.65928302 C4.31520755,5.65928302 0.189924528,9.3785283 0.189924528,13.4732453 C0.189924528,14.4985283 0.449924528,15.4762642 0.918603774,16.3581509 C2.31445283,15.1200377 5.58464151,14.2490943 9.39445283,14.2490943" id="Fill-97" fill="#35B7E5" mask="url(#mask-64)"></path>
                                    </g>
                                    <g id="Group-102">
                                        <mask id="mask-66" fill="white">
                                            <use xlink:href="#path-65"></use>
                                        </mask>
                                        <g id="Clip-101"></g>
                                        <path d="M9.39332075,14.2593962 C13.1865283,14.2593962 16.4548302,15.1209057 17.847283,16.3461887 C18.3152075,15.4688302 18.5763396,14.5058113 18.5763396,13.4922264 C18.5763396,9.44015094 14.4642642,5.74279245 9.39332075,5.74279245 C4.32803774,5.74279245 0.21445283,9.44015094 0.21445283,13.4922264 C0.21445283,14.5058113 0.473698113,15.4737358 0.940867925,16.3461887 C2.3329434,15.1209057 5.59369811,14.2593962 9.39332075,14.2593962" id="Fill-100" fill="#3AB9E6" mask="url(#mask-66)"></path>
                                    </g>
                                    <g id="Group-105">
                                        <mask id="mask-68" fill="white">
                                            <use xlink:href="#path-67"></use>
                                        </mask>
                                        <g id="Clip-104"></g>
                                        <path d="M9.39350943,14.2833585 C13.1818113,14.2833585 16.4452075,15.1395849 17.8357736,16.356566 C18.3029434,15.4852453 18.5636981,14.5282642 18.5636981,13.5210943 C18.5636981,9.49543396 14.4569057,5.81920755 9.39350943,5.81920755 C4.33501887,5.81920755 0.226716981,9.49581132 0.226716981,13.5210943 C0.226716981,14.5282642 0.485584906,15.4893962 0.952,16.356566 C2.34218868,15.1395849 5.59916981,14.2833585 9.39350943,14.2833585" id="Fill-103" fill="#47BBE6" mask="url(#mask-68)"></path>
                                    </g>
                                    <g id="Group-108">
                                        <mask id="mask-70" fill="white">
                                            <use xlink:href="#path-69"></use>
                                        </mask>
                                        <g id="Clip-107"></g>
                                        <path d="M9.39332075,14.3069434 C13.176717,14.3069434 16.4355849,15.1575094 17.8242642,16.3669434 C18.2906792,15.5009057 18.551434,14.550717 18.551434,13.5499623 C18.551434,9.55071698 14.4499245,5.89562264 9.39332075,5.89562264 C4.34124528,5.89562264 0.239358491,9.55109434 0.239358491,13.5499623 C0.239358491,14.550717 0.497471698,15.505434 0.963509434,16.3669434 C2.35181132,15.1575094 5.60426415,14.3069434 9.39332075,14.3069434" id="Fill-106" fill="#53BDE7" mask="url(#mask-70)"></path>
                                    </g>
                                    <g id="Group-111">
                                        <mask id="mask-72" fill="white">
                                            <use xlink:href="#path-71"></use>
                                        </mask>
                                        <g id="Clip-110"></g>
                                        <path d="M9.39350943,14.3309057 C13.172,14.3309057 16.4259623,15.175434 17.8127547,16.3769434 C18.2780377,15.5169434 18.5387925,14.5731698 18.5387925,13.5788302 C18.5387925,9.606 14.4429434,5.97203774 9.39350943,5.97203774 C4.34784906,5.97203774 0.251622642,9.60637736 0.251622642,13.5788302 C0.251622642,14.5735472 0.509358491,15.5210943 0.974641509,16.3769434 C2.3610566,15.175434 5.60935849,14.3309057 9.39350943,14.3309057" id="Fill-109" fill="#5CC0E8" mask="url(#mask-72)"></path>
                                    </g>
                                    <g id="Group-114">
                                        <mask id="mask-74" fill="white">
                                            <use xlink:href="#path-73"></use>
                                        </mask>
                                        <g id="Clip-113"></g>
                                        <path d="M9.39350943,14.3548302 C13.1670943,14.3548302 16.4165283,15.1940755 17.801434,16.387283 C18.2659623,15.5329434 18.5259623,14.5955849 18.5259623,13.6080377 C18.5259623,9.66124528 14.4357736,6.04879245 9.39350943,6.04879245 C4.35464151,6.04879245 0.26445283,9.662 0.26445283,13.6080377 C0.26445283,14.5959623 0.521433962,15.5370943 0.985962264,16.387283 C2.37086792,15.1940755 5.61501887,14.3548302 9.39350943,14.3548302" id="Fill-112" fill="#66C2E9" mask="url(#mask-74)"></path>
                                    </g>
                                    <g id="Group-117">
                                        <mask id="mask-76" fill="white">
                                            <use xlink:href="#path-75"></use>
                                        </mask>
                                        <g id="Clip-116"></g>
                                        <path d="M9.39369811,14.3787925 C13.162,14.3787925 16.4069057,15.2123774 17.7899245,16.3980377 C18.2536981,15.5489811 18.5136981,14.6180377 18.5136981,13.6369057 C18.5136981,9.71690566 14.4287925,6.12520755 9.39369811,6.12520755 C4.36162264,6.12520755 0.276716981,9.71728302 0.276716981,13.6369057 C0.276716981,14.6184151 0.533320755,15.5527547 0.997471698,16.3980377 C2.38011321,15.2123774 5.62011321,14.3787925 9.39369811,14.3787925" id="Fill-115" fill="#6EC4EA" mask="url(#mask-76)"></path>
                                    </g>
                                    <g id="Group-120">
                                        <mask id="mask-78" fill="white">
                                            <use xlink:href="#path-77"></use>
                                        </mask>
                                        <g id="Clip-119"></g>
                                        <path d="M9.39369811,14.4027547 C13.1574717,14.4027547 16.3974717,15.2303019 17.7782264,16.4076604 C18.2412453,15.5650189 18.5012453,14.6401132 18.5012453,13.6657736 C18.5012453,9.77218868 14.4216226,6.20162264 9.39369811,6.20162264 C4.36803774,6.20162264 0.28954717,9.77256604 0.28954717,13.6657736 C0.28954717,14.6404906 0.545396226,15.5687925 1.00879245,16.4076604 C2.38916981,15.2303019 5.62577358,14.4027547 9.39369811,14.4027547" id="Fill-118" fill="#76C7EB" mask="url(#mask-78)"></path>
                                    </g>
                                    <g id="Group-123">
                                        <mask id="mask-80" fill="white">
                                            <use xlink:href="#path-79"></use>
                                        </mask>
                                        <g id="Clip-122"></g>
                                        <path d="M9.39369811,14.4263396 C13.1521887,14.4263396 16.3876604,15.2486038 17.7665283,16.4176604 C18.2291698,15.5810566 18.4884151,14.662566 18.4884151,13.6950189 C18.4884151,9.82709434 14.4144528,6.27803774 9.39369811,6.27803774 C4.37483019,6.27803774 0.301622642,9.82784906 0.301622642,13.6950189 C0.301622642,14.6629434 0.55709434,15.5844528 1.02011321,16.4176604 C2.39898113,15.2486038 5.63067925,14.4263396 9.39369811,14.4263396" id="Fill-121" fill="#7EC9EC" mask="url(#mask-80)"></path>
                                    </g>
                                    <g id="Group-126">
                                        <mask id="mask-82" fill="white">
                                            <use xlink:href="#path-81"></use>
                                        </mask>
                                        <g id="Clip-125"></g>
                                        <path d="M9.39369811,14.4503019 C13.1476604,14.4503019 16.3782264,15.2669057 17.7552075,16.4284151 C18.216717,15.596717 18.4759623,14.6846415 18.4759623,13.7238868 C18.4759623,9.88275472 14.407283,6.35483019 9.39369811,6.35483019 C4.38162264,6.35483019 0.314075472,9.88350943 0.314075472,13.7238868 C0.314075472,14.6853962 0.569169811,15.6004906 1.03143396,16.4284151 C2.40841509,15.2669057 5.63633962,14.4503019 9.39369811,14.4503019" id="Fill-124" fill="#85CBED" mask="url(#mask-82)"></path>
                                    </g>
                                    <g id="Group-129">
                                        <mask id="mask-84" fill="white">
                                            <use xlink:href="#path-83"></use>
                                        </mask>
                                        <g id="Clip-128"></g>
                                        <path d="M9.39407547,14.4742264 C13.1427547,14.4742264 16.3684151,15.2851698 17.7438868,16.4387547 C18.2046415,15.6130943 18.4635094,14.7070566 18.4635094,13.752717 C18.4635094,9.938 14.4004906,6.43120755 9.39407547,6.43120755 C4.38803774,6.43120755 0.32690566,9.93913208 0.32690566,13.752717 C0.32690566,14.7078113 0.581245283,15.6161132 1.04275472,16.4387547 C2.41822642,15.2851698 5.64162264,14.4742264 9.39407547,14.4742264" id="Fill-127" fill="#8BCEEE" mask="url(#mask-84)"></path>
                                    </g>
                                    <g id="Group-132">
                                        <mask id="mask-86" fill="white">
                                            <use xlink:href="#path-85"></use>
                                        </mask>
                                        <g id="Clip-131"></g>
                                        <path d="M9.39407547,14.4981887 C13.1378491,14.4981887 16.3589811,15.3034717 17.732566,16.4487547 C18.1921887,15.6287547 18.4506792,14.7295094 18.4506792,13.7819623 C18.4506792,9.99328302 14.3933208,6.50762264 9.39407547,6.50762264 C4.39483019,6.50762264 0.339358491,9.99441509 0.339358491,13.7819623 C0.339358491,14.7298868 0.592943396,15.6321509 1.05369811,16.4487547 C2.42728302,15.3034717 5.64690566,14.4981887 9.39407547,14.4981887" id="Fill-130" fill="#92D0EF" mask="url(#mask-86)"></path>
                                    </g>
                                    <g id="Group-135">
                                        <mask id="mask-88" fill="white">
                                            <use xlink:href="#path-87"></use>
                                        </mask>
                                        <g id="Clip-134"></g>
                                        <path d="M9.39388679,14.5217736 C13.1331321,14.5217736 16.3493585,15.3213962 17.7206792,16.4591321 C18.1799245,15.6447925 18.4384151,14.7515849 18.4384151,13.8104528 C18.4384151,10.048566 14.3859623,6.58403774 9.39388679,6.58403774 C4.40143396,6.58403774 0.351622642,10.0496981 0.351622642,13.8104528 C0.351622642,14.752717 0.604830189,15.6478113 1.06520755,16.4591321 C2.4365283,15.3213962 5.652,14.5217736 9.39388679,14.5217736" id="Fill-133" fill="#98D2F0" mask="url(#mask-88)"></path>
                                    </g>
                                    <g id="Group-138">
                                        <mask id="mask-90" fill="white">
                                            <use xlink:href="#path-89"></use>
                                        </mask>
                                        <g id="Clip-137"></g>
                                        <path d="M9.39407547,14.5457358 C13.1284151,14.5457358 16.3397358,15.3396981 17.7091698,16.4695094 C18.1676604,15.6608302 18.4261509,14.7740377 18.4261509,13.8396981 C18.4261509,10.1038491 14.3789811,6.66045283 9.39407547,6.66045283 C4.40803774,6.66045283 0.363886792,10.1053585 0.363886792,13.8396981 C0.363886792,14.7747925 0.616716981,15.6638491 1.07633962,16.4695094 C2.44615094,15.3396981 5.6574717,14.5457358 9.39407547,14.5457358" id="Fill-136" fill="#9ED4F1" mask="url(#mask-90)"></path>
                                    </g>
                                    <g id="Group-141">
                                        <mask id="mask-92" fill="white">
                                            <use xlink:href="#path-91"></use>
                                        </mask>
                                        <g id="Clip-140"></g>
                                        <path d="M9.39426415,14.5700755 C13.1233208,14.5700755 16.3304906,15.358 17.6980377,16.4798868 C18.1553962,15.6772453 18.4135094,14.7968679 18.4135094,13.8689434 C18.4135094,10.1595094 14.372,6.73724528 9.39426415,6.73724528 C4.41464151,6.73724528 0.37690566,10.1610189 0.37690566,13.8689434 C0.37690566,14.798 0.628981132,15.6795094 1.08784906,16.4798868 C2.45577358,15.358 5.6629434,14.5700755 9.39426415,14.5700755" id="Fill-139" fill="#A4D7F2" mask="url(#mask-92)"></path>
                                    </g>
                                    <g id="Group-144">
                                        <mask id="mask-94" fill="white">
                                            <use xlink:href="#path-93"></use>
                                        </mask>
                                        <g id="Clip-143"></g>
                                        <path d="M9.39407547,14.5936604 C13.1182264,14.5936604 16.3204906,15.3763019 17.6865283,16.4898868 C18.1431321,15.6929057 18.4008679,14.8189434 18.4008679,13.897434 C18.4008679,10.2144151 14.3650189,6.81366038 9.39407547,6.81366038 C4.42124528,6.81366038 0.389169811,10.2163019 0.389169811,13.897434 C0.389169811,14.8200755 0.640867925,15.6955472 1.09935849,16.4898868 C2.46539623,15.3763019 5.66803774,14.5936604 9.39407547,14.5936604" id="Fill-142" fill="#AAD9F2" mask="url(#mask-94)"></path>
                                    </g>
                                    <g id="Group-147">
                                        <mask id="mask-96" fill="white">
                                            <use xlink:href="#path-95"></use>
                                        </mask>
                                        <g id="Clip-146"></g>
                                        <path d="M9.39426415,14.6172453 C13.1135094,14.6172453 16.3112453,15.3946038 17.6746415,16.5002642 C18.1308679,15.7089434 18.3882264,14.8413962 18.3882264,13.9266792 C18.3882264,10.2696981 14.3580377,6.89007547 9.39426415,6.89007547 C4.42784906,6.89007547 0.401433962,10.2715849 0.401433962,13.9266792 C0.401433962,14.8425283 0.652377358,15.7108302 1.11049057,16.5002642 C2.47464151,15.3946038 5.67350943,14.6172453 9.39426415,14.6172453" id="Fill-145" fill="#B0DCF3" mask="url(#mask-96)"></path>
                                    </g>
                                    <g id="Group-150">
                                        <mask id="mask-98" fill="white">
                                            <use xlink:href="#path-97"></use>
                                        </mask>
                                        <g id="Clip-149"></g>
                                        <path d="M9.39445283,14.6415472 C13.1087925,14.6415472 16.3016226,15.4128679 17.6631321,16.5106038 C18.1186038,15.7249434 18.3755849,14.8638113 18.3755849,13.9555094 C18.3755849,10.3249434 14.3506792,6.96645283 9.39445283,6.96645283 C4.43445283,6.96645283 0.414075472,10.3268302 0.414075472,13.9555094 C0.414075472,14.8649434 0.664641509,15.7272075 1.122,16.5106038 C2.48426415,15.4128679 5.67860377,14.6415472 9.39445283,14.6415472" id="Fill-148" fill="#B6DEF4" mask="url(#mask-98)"></path>
                                    </g>
                                    <g id="Group-153">
                                        <mask id="mask-100" fill="white">
                                            <use xlink:href="#path-99"></use>
                                        </mask>
                                        <g id="Clip-152"></g>
                                        <path d="M9.39445283,14.6651321 C13.1038868,14.6651321 16.2918113,15.4307925 17.6518113,16.5206038 C18.1065283,15.7409811 18.3631321,14.8862642 18.3631321,13.9843774 C18.3631321,10.3802264 14.3435094,7.04324528 9.39445283,7.04324528 C4.44124528,7.04324528 0.426528302,10.3821132 0.426528302,13.9843774 C0.426528302,14.8873962 0.676339623,15.7428679 1.1329434,16.5206038 C2.49369811,15.4307925 5.68388679,14.6651321 9.39445283,14.6651321" id="Fill-151" fill="#BBE0F5" mask="url(#mask-100)"></path>
                                    </g>
                                    <g id="Group-156">
                                        <mask id="mask-102" fill="white">
                                            <use xlink:href="#path-101"></use>
                                        </mask>
                                        <g id="Clip-155"></g>
                                        <path d="M9.39445283,14.6890943 C13.0989811,14.6890943 16.2823774,15.4494717 17.6404906,16.5309811 C18.0940755,15.7566415 18.3503019,14.9083396 18.3503019,14.0136226 C18.3503019,10.4358868 14.336717,7.11966038 9.39445283,7.11966038 C4.44803774,7.11966038 0.438981132,10.4377736 0.438981132,14.0136226 C0.438981132,14.9098491 0.688415094,15.7589057 1.14426415,16.5309811 C2.50275472,15.4494717 5.68916981,14.6890943 9.39445283,14.6890943" id="Fill-154" fill="#C1E2F6" mask="url(#mask-102)"></path>
                                    </g>
                                    <g id="Group-159">
                                        <mask id="mask-104" fill="white">
                                            <use xlink:href="#path-103"></use>
                                        </mask>
                                        <g id="Clip-158"></g>
                                        <path d="M9.39464151,14.7130566 C13.0942642,14.7130566 16.2727547,15.4673962 17.6289811,16.5413585 C18.0818113,15.7730566 18.3380377,14.9307925 18.3380377,14.0424906 C18.3380377,10.4907925 14.3297358,7.19607547 9.39464151,7.19607547 C4.45464151,7.19607547 0.451245283,10.4930566 0.451245283,14.0424906 C0.451245283,14.9319245 0.700301887,15.774566 1.15577358,16.5413585 C2.51237736,15.4673962 5.69464151,14.7130566 9.39464151,14.7130566" id="Fill-157" fill="#C6E4F6" mask="url(#mask-104)"></path>
                                    </g>
                                    <g id="Group-162">
                                        <mask id="mask-106" fill="white">
                                            <use xlink:href="#path-105"></use>
                                        </mask>
                                        <g id="Clip-161"></g>
                                        <path d="M9.39483019,14.7366415 C13.0895472,14.7366415 16.2631321,15.4856981 17.6174717,16.5517358 C18.0695472,15.788717 18.3257736,14.9532453 18.3257736,14.0709811 C18.3257736,10.5460755 14.3227547,7.27249057 9.39483019,7.27249057 C4.46124528,7.27249057 0.463886792,10.548717 0.463886792,14.0709811 C0.463886792,14.9547547 0.712566038,15.7906038 1.16690566,16.5517358 C2.522,15.4856981 5.69973585,14.7366415 9.39483019,14.7366415" id="Fill-160" fill="#CBE7F7" mask="url(#mask-106)"></path>
                                    </g>
                                    <g id="Group-165">
                                        <mask id="mask-108" fill="white">
                                            <use xlink:href="#path-107"></use>
                                        </mask>
                                        <g id="Clip-164"></g>
                                        <path d="M9.39483019,14.760566 C13.0842642,14.760566 16.2536981,15.5039623 17.6057736,16.5613208 C18.0574717,15.8050943 18.3129434,14.975283 18.3129434,14.1001887 C18.3129434,10.6016981 14.3155849,7.34886792 9.39483019,7.34886792 C4.46803774,7.34886792 0.476339623,10.6039623 0.476339623,14.1001887 C0.476339623,14.9767925 0.724264151,15.8062264 1.17860377,16.5613208 C2.53143396,15.5039623 5.70539623,14.760566 9.39483019,14.760566" id="Fill-163" fill="#D0E9F8" mask="url(#mask-108)"></path>
                                    </g>
                                    <g id="Group-168">
                                        <mask id="mask-110" fill="white">
                                            <use xlink:href="#path-109"></use>
                                        </mask>
                                        <g id="Clip-167"></g>
                                        <path d="M9.39483019,14.7845283 C13.0797358,14.7845283 16.2438868,15.5222642 17.5944528,16.5716981 C18.0450189,15.8207547 18.3004906,14.9977358 18.3004906,14.129434 C18.3004906,10.6569811 14.3084151,7.42566038 9.39483019,7.42566038 C4.47445283,7.42566038 0.488792453,10.6592453 0.488792453,14.129434 C0.488792453,14.9992453 0.736339623,15.8222642 1.18954717,16.5716981 C2.54086792,15.5222642 5.71030189,14.7845283 9.39483019,14.7845283" id="Fill-166" fill="#D4EBF9" mask="url(#mask-110)"></path>
                                    </g>
                                    <g id="Group-171">
                                        <mask id="mask-112" fill="white">
                                            <use xlink:href="#path-111"></use>
                                        </mask>
                                        <g id="Clip-170"></g>
                                        <path d="M9.39483019,14.8084906 C13.0748302,14.8084906 16.2344528,15.5401887 17.5827547,16.5820755 C18.0329434,15.8371698 18.2880377,15.020566 18.2880377,14.1579245 C18.2880377,10.7118868 14.3012453,7.50207547 9.39483019,7.50207547 C4.48124528,7.50207547 0.501622642,10.7149057 0.501622642,14.1579245 C0.501622642,15.0216981 0.748037736,15.8383019 1.20124528,16.5820755 C2.55030189,15.5401887 5.71596226,14.8084906 9.39483019,14.8084906" id="Fill-169" fill="#D9EDF9" mask="url(#mask-112)"></path>
                                    </g>
                                    <g id="Group-174">
                                        <mask id="mask-114" fill="white">
                                            <use xlink:href="#path-113"></use>
                                        </mask>
                                        <g id="Clip-173"></g>
                                        <path d="M9.39498113,14.8324528 C13.0696981,14.8324528 16.2247925,15.5588679 17.5712075,16.5924528 C18.0202642,15.8528302 18.2753585,15.0426415 18.2753585,14.1871698 C18.2753585,10.7675472 14.2942264,7.57849057 9.39498113,7.57849057 C4.48781132,7.57849057 0.513849057,10.7701887 0.513849057,14.1871698 C0.513849057,15.0445283 0.760264151,15.8539623 1.21233962,16.5924528 C2.55988679,15.5588679 5.72101887,14.8324528 9.39498113,14.8324528" id="Fill-172" fill="#DEEFFA" mask="url(#mask-114)"></path>
                                    </g>
                                    <g id="Group-177">
                                        <mask id="mask-116" fill="white">
                                            <use xlink:href="#path-115"></use>
                                        </mask>
                                        <g id="Clip-176"></g>
                                        <path d="M9.39498113,14.8560377 C13.0651698,14.8560377 16.2153585,15.5767925 17.5598868,16.6028302 C18.0081887,15.8692453 18.2629057,15.0650943 18.2629057,14.2164151 C18.2629057,10.8228302 14.2870566,7.65490566 9.39498113,7.65490566 C4.49460377,7.65490566 0.526301887,10.8254717 0.526301887,14.2164151 C0.526301887,15.0669811 0.771962264,15.87 1.22366038,16.6028302 C2.56932075,15.5767925 5.72630189,14.8560377 9.39498113,14.8560377" id="Fill-175" fill="#E3F2FB" mask="url(#mask-116)"></path>
                                    </g>
                                    <g id="Group-180">
                                        <mask id="mask-118" fill="white">
                                            <use xlink:href="#path-117"></use>
                                        </mask>
                                        <g id="Clip-179"></g>
                                        <path d="M9.39498113,14.8799623 C13.0602642,14.8799623 16.2055472,15.5950566 17.5481887,16.6131698 C17.9957358,15.8848679 18.2504528,15.0875094 18.2504528,14.2448679 C18.2504528,10.8780755 14.2798868,7.73166038 9.39498113,7.73166038 C4.50139623,7.73166038 0.538754717,10.8810943 0.538754717,14.2448679 C0.538754717,15.0893962 0.784037736,15.8856226 1.23498113,16.6131698 C2.57875472,15.5950566 5.73158491,14.8799623 9.39498113,14.8799623" id="Fill-178" fill="#E7F4FB" mask="url(#mask-118)"></path>
                                    </g>
                                    <g id="Group-183">
                                        <mask id="mask-120" fill="white">
                                            <use xlink:href="#path-119"></use>
                                        </mask>
                                        <g id="Clip-182"></g>
                                        <path d="M9.39516981,14.9039245 C13.0551698,14.9039245 16.1959245,15.6133585 17.5370566,16.6235472 C17.9838491,15.9009057 18.2378113,15.1095849 18.2378113,14.2737358 C18.2378113,10.9333585 14.2729057,7.80807547 9.39516981,7.80807547 C4.508,7.80807547 0.551018868,10.9363774 0.551018868,14.2737358 C0.551018868,15.1118491 0.795924528,15.9016604 1.24611321,16.6235472 C2.588,15.6133585 5.7370566,14.9039245 9.39516981,14.9039245" id="Fill-181" fill="#ECF6FC" mask="url(#mask-120)"></path>
                                    </g>
                                    <g id="Group-186">
                                        <mask id="mask-122" fill="white">
                                            <use xlink:href="#path-121"></use>
                                        </mask>
                                        <g id="Clip-185"></g>
                                        <path d="M9.39516981,14.9275094 C13.0506415,14.9275094 16.1864906,15.6316604 17.5253585,16.6335472 C17.9713962,15.9169434 18.2249811,15.1320377 18.2249811,14.3033585 C18.2249811,10.9886415 14.2657358,7.88449057 9.39516981,7.88449057 C4.51441509,7.88449057 0.563849057,10.9920377 0.563849057,14.3033585 C0.563849057,15.1339245 0.807622642,15.9173208 1.25781132,16.6335472 C2.59743396,15.6316604 5.74233962,14.9275094 9.39516981,14.9275094" id="Fill-184" fill="#F1F8FC" mask="url(#mask-122)"></path>
                                    </g>
                                    <g id="Group-189">
                                        <mask id="mask-124" fill="white">
                                            <use xlink:href="#path-123"></use>
                                        </mask>
                                        <g id="Clip-188"></g>
                                        <path d="M9.39516981,14.9514717 C13.0457358,14.9514717 16.1770566,15.6499623 17.5136604,16.6435472 C17.9589434,15.9329811 18.2125283,15.1544906 18.2125283,14.3318491 C18.2125283,11.0439245 14.2589434,7.96128302 9.39516981,7.96128302 C4.52120755,7.96128302 0.575924528,11.0473208 0.575924528,14.3318491 C0.575924528,15.1567547 0.819698113,15.9333585 1.26875472,16.6435472 C2.60686792,15.6499623 5.74762264,14.9514717 9.39516981,14.9514717" id="Fill-187" fill="#F5FAFD" mask="url(#mask-124)"></path>
                                    </g>
                                    <g id="Group-192">
                                        <mask id="mask-126" fill="white">
                                            <use xlink:href="#path-125"></use>
                                        </mask>
                                        <g id="Clip-191"></g>
                                        <path d="M9.39535849,14.975434 C13.0410189,14.975434 16.167434,15.6682642 17.5025283,16.6539245 C17.9470566,15.9490189 18.2002642,15.176566 18.2002642,14.360717 C18.2002642,11.0992075 14.2515849,8.03769811 9.39535849,8.03769811 C4.52781132,8.03769811 0.588943396,11.1029811 0.588943396,14.360717 C0.588943396,15.1788302 0.831584906,15.9490189 1.28026415,16.6539245 C2.61649057,15.6682642 5.75309434,14.975434 9.39535849,14.975434" id="Fill-190" fill="#FAFCFD" mask="url(#mask-126)"></path>
                                    </g>
                                    <g id="Group-195">
                                        <mask id="mask-128" fill="white">
                                            <use xlink:href="#path-127"></use>
                                        </mask>
                                        <g id="Clip-194"></g>
                                        <path d="M9.39535849,14.9993962 C13.0357358,14.9993962 16.1576226,15.6861887 17.4908302,16.6643019 C17.9346038,15.9650566 18.187434,15.1990189 18.187434,14.3899623 C18.187434,11.1544906 14.2447925,8.11411321 9.39535849,8.11411321 C4.53460377,8.11411321 0.601018868,11.1582642 0.601018868,14.3899623 C0.601018868,15.201283 0.843660377,15.9650566 1.29158491,16.6643019 C2.62592453,15.6861887 5.75837736,14.9993962 9.39535849,14.9993962" id="Fill-193" fill="#FEFEFE" mask="url(#mask-128)"></path>
                                    </g>
                                </g>
                                <path d="M9.86211321,12.2356981 C6.67796226,12.2356981 3.72173585,12.773434 1.27758491,13.6858868 C2.74249057,16.9723019 6.03532075,19.2590943 9.8685283,19.2590943 C13.6858868,19.2590943 16.9772075,16.9723019 18.4447547,13.6858868 C16.0077736,12.773434 13.0504151,12.2356981 9.86211321,12.2356981" id="Fill-197" fill="#007BC3"></path>
                            </g>
                        </g>
                    </g>
                </g>
            </g>
        </g>
    </g>
</svg>