<svg width="40" height="40" xmlns="http://www.w3.org/2000/svg" xmlns:xlink="http://www.w3.org/1999/xlink">
    <defs>
        <path id="a" d="M0 0h7.851v9.228H0z"/>
        <path id="c" d="M0 14.418h22.36V0H0z"/>
    </defs>
    <g fill="none" fill-rule="evenodd">
        <circle fill="#004186" cx="20" cy="20" r="20"/>
        <g transform="translate(8.75 12.5)">
            <g transform="translate(0 5.19)">
                <mask id="b" fill="#fff">
                    <use xlink:href="#a"/>
                </mask>
                <path d="m6.818 6.435-.04.04c-.647.657-1.394 1.007-2.162 1.007-1.607 0-2.775-1.207-2.775-2.872 0-1.659 1.168-2.867 2.775-2.867.768 0 1.515.35 2.162 1.01l.04.043 1.033-1.252-.027-.034C6.964.495 5.933 0 4.664 0 3.392 0 2.23.428 1.392 1.2.482 2.038 0 3.217 0 4.61c0 1.398.481 2.579 1.392 3.417.838.776 2 1.2 3.272 1.2 1.269 0 2.3-.493 3.16-1.51l.027-.031-1.033-1.251z" fill="#FFF" mask="url(#b)"/>
            </g>
            <mask id="d" fill="#fff">
                <use xlink:href="#c"/>
            </mask>
            <path fill="#FFF" mask="url(#d)" d="M8.896 14.248h1.826V5.333H8.896zM17.874 12.309c-.488.297-.942.447-1.348.447-.591 0-.856-.312-.856-1.006V7.02h1.859V5.345h-1.86V2.568l-1.789.958v1.818h-1.545V7.02h1.545v5.032c0 1.37.81 2.306 2.023 2.33.824.017 1.32-.228 1.621-.409l.018-.011.44-1.718-.108.064zM19.385 14.248h1.829V5.333h-1.829z"/>
            <path d="M22.277 3.772C20.61 1.409 17.84 0 15.023 0c-2.82 0-5.59 1.41-7.254 3.772l-.086.12h2.1l.023-.024c1.43-1.475 3.296-2.255 5.217-2.255 1.918 0 3.783.78 5.215 2.255l.025.024h2.098l-.084-.12z" fill="#E40221" mask="url(#d)"/>
        </g>
    </g>
</svg>
