<?xml version="1.0" encoding="UTF-8"?>
<svg width="40px" height="40px" viewBox="0 0 40 40" version="1.1" xmlns="http://www.w3.org/2000/svg" xmlns:xlink="http://www.w3.org/1999/xlink">
    <title>9B3E3BDB-5FF6-4C10-8921-8B2CF2E6A77C</title>
    <defs>
        <polygon id="path-1" points="2.77555756e-16 -2.08166817e-16 16.8164078 -2.08166817e-16 16.8164078 12.8728484 2.77555756e-16 12.8728484"></polygon>
    </defs>
    <g id="WSG" stroke="none" stroke-width="1" fill="none" fill-rule="evenodd">
        <g id="20Icon_기관로고" transform="translate(-80.000000, -1347.000000)">
            <g id="#-Con" transform="translate(79.500000, 136.000000)">
                <g id="증권" transform="translate(0.500000, 918.000000)">
                    <g id="한화투자증권" transform="translate(0.000000, 260.000000)">
                        <g id="icon_32_stock_hanhwa" transform="translate(0.000000, 33.000000)">
                            <circle id="Oval" fill="#F05A28" cx="20" cy="20" r="20"></circle>
                            <g id="Group-8" transform="translate(7.500129, 8.750273)">
                                <g id="Group-3" transform="translate(7.499640, 5.688891)">
                                    <mask id="mask-2" fill="white">
                                        <use xlink:href="#path-1"></use>
                                    </mask>
                                    <g id="Clip-2"></g>
                                    <path d="M16.7901578,6.50480661 C16.4283931,2.95039484 12.3791284,0.0378948405 7.75045193,0.000394840504 C3.12104017,-0.0385757477 -0.337048068,2.81215955 0.0261872257,6.3680419 C0.390157814,9.92245366 4.43648134,12.8342184 9.0666284,12.8724537 C13.6967755,12.9114243 17.1541284,10.0599537 16.7901578,6.50480661 M1.47765781,5.61510072 C1.16074605,2.74965955 4.16809899,0.448924252 8.19015781,0.480541899 C12.2100108,0.512894841 15.7283931,2.86068896 16.043099,5.72392425 C16.3578049,8.59010072 13.3541284,10.890836 9.33059899,10.8614243 C5.31074605,10.8290713 1.79309899,8.48274778 1.47765781,5.61510072" id="Fill-1" fill="#FFFFFF" mask="url(#mask-2)"></path>
                                </g>
                                <path d="M8.853621,10.8136239 C6.20435629,13.5834768 6.16097394,17.841565 8.75656217,20.3283297 C11.3521504,22.8150945 15.6080328,22.5842121 18.2587681,19.8158297 C20.9095033,17.0474474 20.9506798,12.7878886 18.3550916,10.2996533 C15.7609739,7.81362387 11.5058269,8.04450622 8.853621,10.8136239 M17.3014151,18.6356827 C15.0212681,21.0143592 11.3639151,21.2136239 9.13009158,19.0768592 C6.89406217,16.9371533 6.93229747,13.2702415 9.21317982,10.8893592 C11.4933269,8.50627093 15.153621,8.31215328 17.3859739,10.4481827 C19.6212681,12.586418 19.5837681,16.2511239 17.3014151,18.6356827" id="Fill-4" fill="#FFFFFF"></path>
                                <path d="M4.69251805,3.42480034 C-0.225864298,7.31891798 -1.47880547,12.9652415 1.89325335,16.0321533 C5.26972394,19.0975945 11.9939886,18.4277415 16.9153122,14.531418 C21.8344298,10.636565 23.0859004,4.99097681 19.7116357,1.92480034 C16.3366357,-1.14358202 9.612371,-0.470787898 4.69251805,3.42480034 M9.09692982,1.89832975 C13.8381063,0.120388573 18.5278122,1.92038857 19.5689886,5.91450622 C20.6116357,9.90715328 17.6138416,14.5895062 12.8726651,16.3652415 C8.13001805,18.143918 3.44251805,16.343918 2.39766511,12.3498003 C1.35501805,8.3549474 4.35428276,3.67553563 9.09692982,1.89832975" id="Fill-6" fill="#FFFFFF"></path>
                            </g>
                        </g>
                    </g>
                </g>
            </g>
        </g>
    </g>
</svg>