<?xml version="1.0" encoding="UTF-8"?>
<svg width="40px" height="40px" viewBox="0 0 40 40" version="1.1" xmlns="http://www.w3.org/2000/svg" xmlns:xlink="http://www.w3.org/1999/xlink">
    <title>65547D4F-12B3-49DA-B5B3-ACB79DD7C39A</title>
    <defs>
        <polygon id="path-1" points="0 -3.43421038e-16 5.31682033 -3.43421038e-16 5.31682033 12.5609263 0 12.5609263"></polygon>
        <polygon id="path-3" points="1.6978606e-16 4.19803081e-16 5.62074108 4.19803081e-16 5.62074108 10.5166462 1.6978606e-16 10.5166462"></polygon>
    </defs>
    <g id="WSG" stroke="none" stroke-width="1" fill="none" fill-rule="evenodd">
        <g id="20Icon_기관로고" transform="translate(-395.000000, -1914.000000)">
            <g id="#-Con" transform="translate(79.500000, 136.000000)">
                <g id="보험" transform="translate(0.500000, 1692.000000)">
                    <g id="롯데손해보험" transform="translate(315.000000, 54.000000)">
                        <g id="icon_32_insurance_let" transform="translate(0.000000, 32.000000)">
                            <circle id="Oval" fill="#F8F8F8" cx="20" cy="20" r="20"></circle>
                            <g id="Group-13" transform="translate(8.000000, 12.830118)">
                                <path d="M10.7799723,8.16333704 C10.0581033,8.16336715 9.33623436,8.16270456 8.61439506,8.16412009 C8.51418245,8.16433092 8.41865711,8.16002409 8.40115402,8.03368056 C8.38495624,7.9164928 8.47327268,7.88652574 8.55951248,7.85264339 C9.09080544,7.64380762 9.5833246,7.36401468 10.0500044,7.03184715 C10.2967387,6.85620104 10.4231763,6.65564762 10.3523926,6.33555727 C10.273332,5.97815115 10.1961404,5.62393751 10.0043778,5.30709986 C9.58258294,4.61008715 8.72086724,4.5931008 8.27566576,5.27851821 C8.04127268,5.63938786 7.92462497,6.04868668 7.85206131,6.46943021 C7.7520267,7.04943586 7.7040267,7.63314598 7.79694141,8.21977751 C7.89934932,8.86622268 8.09941854,9.47556292 8.51913671,9.98542456 C9.14058541,10.7403234 9.95056316,11.0715874 10.9112752,11.0403253 C11.5862121,11.0183394 12.2439723,10.9065427 12.8718586,10.6432542 C12.9269488,10.620154 12.9917696,10.5979573 13.0364766,10.6543375 C13.0800267,10.7092721 13.0505681,10.766857 13.0153839,10.8196533 C12.4626719,11.6486114 11.7247832,12.2298519 10.7819303,12.5331968 C10.0741824,12.7608862 9.34910952,12.8283497 8.61679802,12.7073973 C7.02392781,12.4442895 5.81271397,11.3902923 5.4242047,9.78598551 C4.95182892,7.83535586 5.77447417,5.77515821 7.43851372,4.75019445 C8.21832089,4.26990833 9.06576712,4.08338974 9.97592781,4.18271774 C11.2785731,4.32490315 12.2398487,4.97568527 12.8404717,6.15834504 C13.1164865,6.70184809 13.226222,7.28992527 13.2250741,7.8995968 C13.224709,8.08427821 13.1457078,8.16261421 12.960353,8.16285515 C12.2335595,8.16396951 11.5067659,8.16333704 10.7799723,8.16333704" id="Fill-1" fill="#231916"></path>
                                <g id="Group-5">
                                    <mask id="mask-2" fill="white">
                                        <use xlink:href="#path-1"></use>
                                    </mask>
                                    <g id="Clip-4"></g>
                                    <path d="M3.7659026,5.41248452 C3.7659026,7.07359322 3.76664425,8.73476216 3.76542794,10.395901 C3.76507194,10.8623631 3.87916836,11.2824742 4.25032287,11.5877466 C4.52283708,11.811852 4.83267145,11.9815951 5.1315293,12.1667283 C5.17760099,12.1952798 5.22414734,12.2244638 5.26508677,12.2597617 C5.32026601,12.3073476 5.32628826,12.3749015 5.30650087,12.4393231 C5.28632781,12.5049193 5.23844648,12.549644 5.16766279,12.5578662 C5.12859234,12.5624139 5.08872089,12.5605466 5.04917577,12.5605466 C3.84300519,12.5606671 2.63683461,12.5606972 1.43066403,12.5605768 C1.17535624,12.5605466 1.12628826,12.511756 1.12670358,12.2556055 C1.13130185,9.3599744 1.13595946,6.46434334 1.14129938,3.56871228 C1.14168504,3.37261628 1.13162818,3.17730334 1.08828578,2.98629722 C1.02423634,2.70412499 0.890085538,2.46559322 0.651776514,2.29449487 C0.474579975,2.16718758 0.299994067,2.03614569 0.125259827,1.90543511 C-0.0571876391,1.76894193 -0.0404558714,1.64859181 0.176285785,1.54706522 C0.873146106,1.22052969 1.57062942,0.895379576 2.26766774,0.569235576 C2.63852559,0.395727812 3.00881978,0.220985224 3.37964796,0.0474473412 C3.62130927,-0.0656444235 3.76507194,0.0261541647 3.76510161,0.293538635 C3.7652796,1.99985393 3.76519061,3.70616922 3.76519061,5.41248452 L3.7659026,5.41248452 Z" id="Fill-3" fill="#231916" mask="url(#mask-2)"></path>
                                </g>
                                <g id="Group-8" transform="translate(13.714442, 2.251158)">
                                    <mask id="mask-4" fill="white">
                                        <use xlink:href="#path-3"></use>
                                    </mask>
                                    <g id="Clip-7"></g>
                                    <path d="M1.02942302,5.83591511 C1.02939335,4.92247699 1.02713872,4.00900876 1.03230065,3.09560076 C1.03292364,2.98214758 1.00521536,2.95254194 0.894649226,2.95687888 C0.657734516,2.96627558 0.420167149,2.95916782 0.182866778,2.96007135 C0.0952919947,2.96040264 0.0263476189,2.93471229 0.0050769143,2.83842617 C-0.0156004652,2.74497111 0.028453923,2.69151229 0.108641809,2.64856452 C1.31691869,2.00187841 2.37015973,1.15102476 3.30292611,0.142113701 C3.30966035,0.134795112 3.31651326,0.127506642 3.3228025,0.119796524 C3.39323019,0.0335697007 3.47564305,-0.0311531229 3.59157877,0.0157400536 C3.70514119,0.0616694654 3.72436492,0.163226171 3.72362327,0.276046877 C3.72136863,0.632398877 3.72282228,0.988750877 3.72282228,1.34507276 C3.72282228,1.60604217 3.72747988,1.86716217 3.72035998,2.12795088 C3.71774935,2.22357441 3.74702994,2.24375323 3.8362067,2.24306052 C4.37998915,2.23890429 4.92389026,2.2454097 5.46761338,2.2377297 C5.59553427,2.23592264 5.62778149,2.27652123 5.61953427,2.39834711 C5.60938841,2.54821252 5.61007073,2.69976452 5.61938594,2.84975041 C5.62623884,2.96088452 5.59526727,2.99437535 5.48137852,2.99302005 C4.93765541,2.98654476 4.39378396,2.99317064 3.85003118,2.98747841 C3.7453093,2.98639417 3.72027098,3.01497582 3.72050831,3.11975511 C3.72415726,4.77601488 3.7236826,6.43224452 3.72338594,8.08850429 C3.72335627,8.33601111 3.75162821,8.57857864 3.84305961,8.80952076 C3.96080497,9.10681205 4.19602871,9.23785394 4.50497308,9.17996782 C4.7484737,9.1343697 4.97903983,9.04799229 5.20215973,8.94065299 C5.2644292,8.91071605 5.32408804,8.86391323 5.38831548,8.93547276 C5.44610534,8.99989441 5.40483958,9.05925629 5.37478767,9.11428123 C5.01452067,9.77352641 4.47839212,10.205805 3.75925244,10.4021118 C3.29343291,10.5292986 2.82156146,10.5586935 2.35203365,10.4489146 C1.67985565,10.2917608 1.30546752,9.83020782 1.15013501,9.16698711 C1.05837729,8.77506617 1.02900769,8.37597723 1.02930436,7.97399699 C1.02980868,7.26129299 1.02945269,6.54858899 1.02942302,5.83591511" id="Fill-6" fill="#231916" mask="url(#mask-4)"></path>
                                </g>
                                <path d="M23.9703308,5.90648621 C24.0189538,6.61855774 23.4081849,7.45588856 22.4542665,7.45990788 C21.604536,7.46347821 20.9163382,6.76155633 20.9196194,5.90064339 C20.9229241,5.04220009 21.602133,4.34374174 22.4453666,4.3458752 C23.4225731,4.34834974 24.0221577,5.19959492 23.9703308,5.90648621" id="Fill-9" fill="#D5411C"></path>
                                <path d="M23.9703308,11.2098665 C24.0177968,11.9325395 23.400798,12.7634854 22.443735,12.7661717 C21.6063456,12.768515 20.9244074,12.0697856 20.9199654,11.2125771 C20.9155075,10.3538025 21.6037646,9.64395972 22.4483926,9.6489926 C23.4060786,9.65474184 24.0192504,10.4843023 23.9703308,11.2098665" id="Fill-11" fill="#D5411C"></path>
                            </g>
                        </g>
                    </g>
                </g>
            </g>
        </g>
    </g>
</svg>