<?xml version="1.0" encoding="UTF-8"?>
<svg width="40px" height="40px" viewBox="0 0 40 40" version="1.1" xmlns="http://www.w3.org/2000/svg" xmlns:xlink="http://www.w3.org/1999/xlink">
    <title>87C5DDF3-0B3C-4E54-A316-54A61DE7C0A8</title>
    <g id="WSG" stroke="none" stroke-width="1" fill="none" fill-rule="evenodd">
        <g id="20Icon_기관로고" transform="translate(-524.000000, -366.000000)">
            <g id="#-Con" transform="translate(79.500000, 136.000000)">
                <g id="은행" transform="translate(0.500000, 144.000000)">
                    <g id="국민은행" transform="translate(444.000000, 54.000000)">
                        <g id="icon_32_bank_kb" transform="translate(0.000000, 32.000000)">
                            <circle id="Oval" fill="#FFCC00" cx="20" cy="20" r="20"></circle>
                            <g id="si_KB국민은행" transform="translate(5.000073, 8.333321)" fill="#222222">
                                <path d="M24.8396364,7.4919033 C24.8396364,7.49153967 24.6625455,7.37881239 24.6625455,7.37881239 C24.0581818,6.77553967 23.2163636,6.51444876 22.0909091,6.58026694 C21.1541818,6.63735785 20.4109091,7.00863057 19.8436364,7.35408512 C19.8436364,7.34535785 19.8425455,7.33663057 19.8425455,7.32826694 C19.8425455,7.03481239 19.876,6.71699421 19.9087273,6.40753967 C19.9410909,6.09335785 19.9752727,5.77408512 19.9752727,5.4719033 C19.9752727,5.16317603 19.9403636,4.87044876 19.8338182,4.62026694 C19.8072727,4.5559033 19.7483636,4.51772148 19.6730909,4.51772148 C19.3705455,4.52463057 18.7796364,4.7319033 18.636,4.85735785 C18.636,4.85808512 18.5581818,5.02826694 18.5581818,5.02826694 C18.5534545,5.36317603 18.4792727,6.29917603 18.4043636,6.41299421 C18.4076364,6.40863057 18.3650909,6.52572148 18.3650909,6.52572148 C18.2374545,7.86244876 18.2349091,9.03772148 18.3527273,10.0468124 C18.3658182,10.1475397 18.5603636,10.2988124 18.7101818,10.3540851 C18.8749091,10.4148124 19.3894545,10.2769942 19.6869091,10.1653578 C19.6825455,10.1664488 19.7978182,10.1475397 19.7978182,10.1475397 C19.8916364,10.1373578 19.9465455,10.0584488 19.9429091,9.95153967 C19.9410909,9.94899421 19.9498182,9.66099421 19.9498182,9.66099421 C20.1643636,8.79008512 21.0309091,7.75081239 22.0570909,7.59481239 C22.6370909,7.50281239 23.0949091,7.6519033 23.4567273,8.04572148 C23.5054545,8.11663057 23.6112727,8.74353967 23.2287273,9.46353967 C22.9443636,9.99663057 22.3756364,10.4464488 21.6269091,10.7268124 C20.9185455,10.9962669 20.1389091,11.1046306 19.176,11.0719033 C19.1356364,11.0457215 18.2745455,10.4624488 18.2745455,10.4624488 C17.5109091,9.92644876 16.5621818,9.25917603 15.7025455,8.93299421 C15.5512727,8.87481239 15.2807273,8.65044876 15.1178182,8.51553967 L15.0287273,8.44281239 C14.5327273,8.04499421 13.5890909,7.41553967 12.8309091,6.91117603 C12.8309091,6.91117603 12.4887273,6.68135785 12.4225455,6.63735785 C12.4232727,6.60899421 12.4232727,6.55153967 12.4232727,6.55153967 C12.4454545,6.52753967 12.9221818,6.24172148 12.9221818,6.24172148 C13.5890909,5.85153967 13.8970909,5.66063057 13.9621818,5.56135785 C13.9490909,5.57735785 14.0505455,5.50899421 14.0505455,5.50899421 C14.0570909,5.50644876 15.704,4.57372148 15.704,4.57372148 C17.2909091,3.70208512 19.0887273,2.71226694 20.0327273,1.73481239 C20.0341818,1.73372148 20.0792727,1.58499421 20.0792727,1.58499421 L20.0996364,1.45226694 C20.1625455,1.24317603 20.1658182,1.08317603 20.1130909,0.897357847 C20.0996364,0.843903302 20.0509091,0.782448757 19.9854545,0.771176029 C19.2476364,0.697357847 18.2974545,1.13953967 17.4312727,1.95153967 C17.236,2.13444876 17.072,2.22463057 16.8985455,2.31844876 L16.7661818,2.39263057 C15.812,2.93517603 13.6621818,4.26972148 12.536,4.98935785 C12.6101818,3.77917603 12.8338182,2.05772148 13.1098182,0.622448757 L13.0789091,0.451176029 C13.0756364,0.445357847 12.9621818,0.23408512 12.9621818,0.23408512 L12.8749091,0.0788123929 L12.8498182,0.0722669383 C12.6250909,-0.0411876071 12.4414545,0.0046305747 12.3069091,0.0380851201 L12.0821818,0.121357847 L11.7818182,0.23008512 C11.7229091,0.24208512 11.6810909,0.278812393 11.6581818,0.335539666 C11.1207273,1.63481239 10.6723636,3.7719033 10.5661818,5.48135785 C9.49163636,4.79808512 8.49890909,4.30681239 8.012,4.06935785 L7.99854545,4.06172148 L7.94109091,4.04935785 C7.76509091,4.02681239 7.55163636,3.89808512 7.34690909,3.77335785 C7.32472727,3.76063057 6.93781818,3.50863057 6.93781818,3.50863057 L6.31381818,3.10863057 C6.31854545,3.11299421 6.14909091,3.07153967 6.14909091,3.07153967 C5.88109091,3.11735785 5.36654545,3.46353967 5.21345455,3.69953967 C5.19381818,3.73044876 5.18509091,3.76426694 5.18509091,3.79953967 C5.18509091,3.84899421 5.20109091,3.89917603 5.21345455,3.94753967 L5.24109091,4.07481239 L5.27054545,4.15081239 C5.56981818,4.45772148 6.32472727,4.96863057 7.06472727,5.36644876 L7.92290909,5.82135785 L9.23636364,6.53881239 C9.23636364,6.54463057 9.46036364,6.71699421 9.46036364,6.71699421 L9.61490909,6.80535785 C9.61490909,6.80535785 9.63309091,6.81626694 9.64290909,6.82281239 C9.29345455,7.05735785 7.25381818,8.41844876 7.25381818,8.41844876 L5.99781818,9.25117603 C5.87854545,9.3319033 5.38290909,9.55408512 5.27345455,9.59808512 C5.00145455,9.70899421 4.79490909,9.87917603 4.71018182,10.0639033 L4.676,10.1366306 L4.71018182,10.1846306 L4.80618182,10.2573578 C4.80145455,10.2573578 4.93454545,10.3413578 4.93454545,10.3413578 L5.07345455,10.4362669 C5.07636364,10.4377215 5.204,10.4573578 5.204,10.4573578 C5.42472727,10.4660851 5.752,10.3399033 6.36327273,10.0719033 C6.92509091,9.82317603 8.45090909,8.90244876 9.10327273,8.50972148 L9.38145455,8.34281239 C9.49672727,8.35226694 9.62254545,8.25517603 9.736,8.17008512 C9.86690909,8.06572148 10.1512727,7.89081239 10.3247273,7.81408512 C10.3301818,7.81263057 10.4287273,7.75735785 10.5225455,7.70535785 C10.5218182,7.73444876 10.5210909,7.7799033 10.5210909,7.7799033 C10.5501818,9.77553967 10.6643636,11.2260851 10.8829091,12.3442669 L10.8858182,12.3635397 L10.9072727,12.4086306 C11.0141818,12.5660851 11.1363636,13.0388124 11.2450909,13.4559033 L11.4934545,14.2886306 C11.4989091,14.2984488 11.5636364,14.3668124 11.5636364,14.3668124 C11.7054545,14.463176 12.1381818,14.6289942 12.4265455,14.5948124 L12.4981818,14.5860851 L12.544,14.4849942 C12.5683636,14.3606306 12.5770909,14.2377215 12.5770909,14.103176 C12.5770909,13.951176 12.5661818,13.7835397 12.5523636,13.5777215 L12.5327273,13.2777215 C12.4414545,11.8849942 12.3501818,9.87372148 12.3501818,8.53663057 L12.3501818,8.43008512 C12.5872727,8.57808512 13.6218182,9.23081239 13.6218182,9.23081239 C15.384,10.3737215 18.0450909,12.1002669 19.6534545,12.5566306 C19.7370909,12.5824488 19.8254545,12.5624488 19.8869091,12.5035397 C19.8890909,12.5002669 20.1341818,12.3446306 20.1341818,12.3446306 L20.1807273,12.3257215 C20.2730909,12.2813578 20.3345455,12.1264488 20.3454545,11.9577215 C21.7010909,11.8893578 23.5912727,11.3675397 24.6032727,10.0955397 C24.9949091,9.60208512 25.1705455,8.99881239 25.1705455,8.48208512 C25.1705455,8.05808512 25.0530909,7.69299421 24.8396364,7.4919033" id="Fill-1"></path>
                                <polygon id="Fill-3" points="13.1422182 18.953576 13.1422182 19.6870306 14.8629455 19.6870306 14.8629455 21.5957578 14.2753091 21.5957578 14.2753091 20.1946669 10.8222182 20.1946669 10.8222182 19.6870306 12.5556727 19.6870306 12.5556727 18.953576 10.4625818 18.953576 10.4625818 18.4463033 14.2476727 18.4463033 14.2476727 17.4317578 10.8865818 17.4317578 10.8865818 16.9277578 14.8364 16.9277578 14.8364 18.4426669 15.2567636 18.4426669 15.2567636 18.953576"></polygon>
                                <path d="M15.8475636,19.3457942 L18.6301091,19.3457942 L18.6301091,16.9967033 L15.8475636,16.9967033 L15.8475636,19.3457942 Z M16.4326545,18.8334306 L18.0464727,18.8334306 L18.0464727,17.5065215 L16.4326545,17.5065215 L16.4326545,18.8334306 Z" id="Fill-5"></path>
                                <polygon id="Fill-7" points="20.0694182 21.5766306 16.3777818 21.5766306 16.3777818 19.8500851 16.9654182 19.8500851 16.9654182 21.0682669 20.0694182 21.0682669"></polygon>
                                <polygon id="Fill-8" points="19.4395636 19.9683397 20.0242909 19.9683397 20.0242909 16.883976 19.4395636 16.883976"></polygon>
                                <polygon id="Fill-9" points="25.3382182 19.849176 25.3382182 19.3426306 20.5465818 19.3426306 20.5465818 19.849176 21.0644 19.849176 21.0644 21.5764488 24.8978545 21.5764488 24.8978545 21.0688124 21.6494909 21.0688124 21.6494909 19.849176"></polygon>
                                <path d="M22.9421091,16.6545578 C21.9959273,16.6545578 21.2282909,17.0545578 21.2282909,17.8680124 C21.2282909,18.6756488 21.9959273,19.0818306 22.9421091,19.0818306 C23.8890182,19.0818306 24.6559273,18.6756488 24.6559273,17.8680124 C24.6559273,17.0545578 23.8890182,16.6545578 22.9421091,16.6545578 M22.9421091,18.5461942 C22.3359273,18.5461942 21.8453818,18.336376 21.8453818,17.8672851 C21.8453818,17.4029215 22.3359273,17.1901942 22.9421091,17.1901942 C23.5472,17.1901942 24.0388364,17.4029215 24.0388364,17.8672851 C24.0388364,18.336376 23.5472,18.5461942 22.9421091,18.5461942" id="Fill-10"></path>
                                <polygon id="Fill-11" points="28.3655636 19.1963033 28.9350182 19.1963033 28.9350182 18.2690306 29.2604727 18.2690306 29.2604727 19.3461215 29.8310182 19.3461215 29.8310182 16.8839397 29.2604727 16.8839397 29.2604727 17.7803033 28.9350182 17.7803033 28.9350182 16.8839397 28.3655636 16.8839397"></polygon>
                                <path d="M26.7714545,18.7088851 C26.414,18.7088851 26.1245455,18.5543397 26.1245455,18.2067033 C26.1245455,17.8608851 26.414,17.7027033 26.7714545,17.7027033 C27.1274545,17.7027033 27.4176364,17.8608851 27.4176364,18.2067033 C27.4176364,18.5543397 27.1274545,18.7088851 26.7714545,18.7088851 L26.7714545,18.7088851 Z M28.1041818,17.0914306 L27.0670909,17.0914306 L27.0670909,16.6783397 L26.4823636,16.6783397 L26.4823636,17.0914306 L25.4383636,17.0914306 L25.4383636,17.5877942 L25.8561818,17.5877942 C25.6485455,17.7467033 25.5205455,17.9776124 25.5205455,18.2841578 C25.5205455,18.921976 26.0805455,19.2445215 26.7714545,19.2445215 C27.4616364,19.2445215 28.0223636,18.921976 28.0223636,18.2841578 C28.0223636,17.9776124 27.8943636,17.7467033 27.6863636,17.5877942 L28.1041818,17.5877942 L28.1041818,17.0914306 Z" id="Fill-12"></path>
                                <path d="M28.1578182,19.3665578 C27.2232727,19.3665578 26.4676364,19.7629215 26.4676364,20.5727397 C26.4676364,21.3741942 27.2232727,21.7781942 28.1578182,21.7781942 C29.0901818,21.7781942 29.8469091,21.3741942 29.8469091,20.5727397 C29.8469091,19.7629215 29.0901818,19.3665578 28.1578182,19.3665578 M28.1556364,21.2531033 C27.5563636,21.2531033 27.0716364,21.0432851 27.0716364,20.5716488 C27.0716364,20.1036488 27.5563636,19.8909215 28.1556364,19.8909215 C28.7541818,19.8909215 29.2392727,20.1036488 29.2392727,20.5716488 C29.2392727,21.0432851 28.7541818,21.2531033 28.1556364,21.2531033" id="Fill-13"></path>
                                <path d="M5.79687273,21.0766306 L7.2656,21.0766306 C8.17723636,21.0766306 8.41869091,20.7209942 8.41869091,20.2679033 C8.41869091,19.731176 8.04778182,19.4337215 7.22632727,19.4337215 L5.79687273,19.4337215 L5.79687273,21.0766306 Z M5.79687273,18.9028124 L7.31214545,18.9028124 C7.87505455,18.9028124 8.29032727,18.6893578 8.29032727,18.1915397 C8.29032727,17.7569942 8.0856,17.467176 7.22632727,17.467176 L5.79687273,17.467176 L5.79687273,18.9028124 Z M5.05287273,16.935176 L7.34923636,16.935176 C8.44123636,16.935176 9.01214545,17.2977215 9.01214545,18.091176 C9.01214545,18.655176 8.61869091,19.0442669 8.09432727,19.1489942 L8.09432727,19.1686306 C8.84596364,19.2580851 9.20087273,19.7508124 9.20087273,20.3068124 C9.20087273,21.0049942 8.69069091,21.607176 7.4216,21.607176 L5.05287273,21.607176 L5.05287273,16.935176 Z" id="Fill-14"></path>
                                <polygon id="Fill-15" points="1.03905532e-16 16.9352851 0.745818182 16.9352851 0.745818182 19.0261942 3.25672727 16.9352851 4.31272727 16.9352851 1.65927273 19.0454669 4.53309091 21.6072851 3.47781818 21.6072851 0.745818182 19.1036488 0.745818182 21.6072851 1.03905532e-16 21.6072851"></polygon>
                            </g>
                        </g>
                    </g>
                </g>
            </g>
        </g>
    </g>
</svg>