<?xml version="1.0" encoding="UTF-8"?>
<svg width="40px" height="40px" viewBox="0 0 40 40" version="1.1" xmlns="http://www.w3.org/2000/svg" xmlns:xlink="http://www.w3.org/1999/xlink">
    <title>1A910EED-B3E6-4260-8833-230592F28CB7</title>
    <defs>
        <linearGradient x1="0%" y1="50%" x2="100%" y2="50%" id="linearGradient-1">
            <stop stop-color="#F47920" offset="0.0870988176%"></stop>
            <stop stop-color="#C9252C" offset="100%"></stop>
        </linearGradient>
        <path d="M0.153714262,0.814666667 C-0.102285738,1.99133333 0.018380929,12.1053333 0.110380929,13.2766667 L0.110380929,13.2766667 C0.173714262,14.136 0.536380929,14.6373333 1.5450476,14.6173333 L1.5450476,14.6173333 C8.57638093,14.5046667 10.4210476,5.98133333 6.07771426,1.96933333 L6.07771426,1.96933333 C5.38171426,1.32866667 4.53438093,0.800666667 3.51371426,0.443333333 L3.51371426,0.443333333 C3.00171426,0.262666667 2.15638093,-6.9388939e-17 1.43571426,-6.9388939e-17 L1.43571426,-6.9388939e-17 C0.818380929,-6.9388939e-17 0.289047596,0.196 0.153714262,0.814666667" id="path-2"></path>
        <linearGradient x1="0%" y1="50%" x2="100%" y2="50%" id="linearGradient-4">
            <stop stop-color="#F47920" offset="0%"></stop>
            <stop stop-color="#C9252C" offset="100%"></stop>
        </linearGradient>
        <path d="M1.30695177,3.46944695e-16 C0.740285102,3.46944695e-16 0.262285102,0.183333333 0.138285102,0.742 L0.138285102,0.742 C-0.0923815646,1.80733333 0.0176184354,10.9913333 0.0969517687,12.056 L0.0969517687,12.056 C0.158285102,12.8346667 0.485618435,13.2886667 1.4002851,13.276 L1.4002851,13.276 C7.78695177,13.17 9.46495177,5.43 5.51961844,1.78866667 L5.51961844,1.78866667 C4.8882851,1.20733333 4.11361844,0.728666667 3.19361844,0.404 L3.19361844,0.404 C2.72695177,0.238 1.96161844,3.46944695e-16 1.30695177,3.46944695e-16 Z" id="path-5"></path>
        <linearGradient x1="33.4460194%" y1="49.9030542%" x2="67.2167029%" y2="50.4626135%" id="linearGradient-7">
            <stop stop-color="#18B1E7" offset="0%"></stop>
            <stop stop-color="#0060AF" offset="100%"></stop>
        </linearGradient>
        <path d="M0.175850028,0.930666667 C-0.119483305,2.272 0.0238500285,13.8086667 0.127183362,15.1473333 L0.127183362,15.1473333 C0.203183362,16.102 0.589183362,16.664 1.66518336,16.68 L1.66518336,16.68 L1.76185003,16.68 C9.7865167,16.552 11.8965167,6.824 6.94118336,2.248 L6.94118336,2.248 C6.14918336,1.51733333 5.17118336,0.914 4.0185167,0.507333333 L4.0185167,0.507333333 C3.4285167,0.298666667 2.4645167,-2.77555756e-16 1.64518336,-2.77555756e-16 L1.64518336,-2.77555756e-16 C0.935850028,-2.77555756e-16 0.331183362,0.225333333 0.175850028,0.930666667" id="path-8"></path>
        <linearGradient x1="29.6729399%" y1="49.8413469%" x2="69.2881423%" y2="50.4975616%" id="linearGradient-10">
            <stop stop-color="#8CC63F" offset="0%"></stop>
            <stop stop-color="#009559" offset="100%"></stop>
        </linearGradient>
    </defs>
    <g id="WSG" stroke="none" stroke-width="1" fill="none" fill-rule="evenodd">
        <g id="20Icon_기관로고" transform="translate(-888.000000, -1347.000000)">
            <g id="#-Con" transform="translate(79.500000, 136.000000)">
                <g id="증권" transform="translate(0.500000, 918.000000)">
                    <g id="DB금융투자" transform="translate(808.000000, 260.000000)">
                        <g id="icon_50_saving_db" transform="translate(0.000000, 33.000000)">
                            <circle id="Oval" fill="#F8F8F8" cx="20" cy="20" r="20"></circle>
                            <g id="Group-10" transform="translate(10.000286, 8.166800)">
                                <g id="Group-3" transform="translate(0.000000, 7.941333)">
                                    <mask id="mask-3" fill="white">
                                        <use xlink:href="#path-2"></use>
                                    </mask>
                                    <use id="Clip-2" fill="url(#linearGradient-1)" xlink:href="#path-2"></use>
                                    <path d="M0.153714262,0.814666667 C-0.102285738,1.99133333 0.018380929,12.1053333 0.110380929,13.2766667 L0.110380929,13.2766667 C0.173714262,14.136 0.536380929,14.6373333 1.5450476,14.6173333 L1.5450476,14.6173333 C8.57638093,14.5046667 10.4210476,5.98133333 6.07771426,1.96933333 L6.07771426,1.96933333 C5.38171426,1.32866667 4.53438093,0.800666667 3.51371426,0.443333333 L3.51371426,0.443333333 C3.00171426,0.262666667 2.15638093,-6.9388939e-17 1.43571426,-6.9388939e-17 L1.43571426,-6.9388939e-17 C0.818380929,-6.9388939e-17 0.289047596,0.196 0.153714262,0.814666667" id="Fill-1" fill="url(#linearGradient-4)" mask="url(#mask-3)"></path>
                                </g>
                                <g id="Group-6" transform="translate(8.612762, 0.000000)">
                                    <mask id="mask-6" fill="white">
                                        <use xlink:href="#path-5"></use>
                                    </mask>
                                    <g id="Clip-5"></g>
                                    <path d="M1.30695177,3.46944695e-16 C0.740285102,3.46944695e-16 0.262285102,0.183333333 0.138285102,0.742 L0.138285102,0.742 C-0.0923815646,1.80733333 0.0176184354,10.9913333 0.0969517687,12.056 L0.0969517687,12.056 C0.158285102,12.8346667 0.485618435,13.2886667 1.4002851,13.276 L1.4002851,13.276 C7.78695177,13.17 9.46495177,5.43 5.51961844,1.78866667 L5.51961844,1.78866667 C4.8882851,1.20733333 4.11361844,0.728666667 3.19361844,0.404 L3.19361844,0.404 C2.72695177,0.238 1.96161844,3.46944695e-16 1.30695177,3.46944695e-16 Z" id="Fill-4" fill="url(#linearGradient-7)" mask="url(#mask-6)"></path>
                                </g>
                                <g id="Group-9" transform="translate(10.011864, 8.077333)">
                                    <mask id="mask-9" fill="white">
                                        <use xlink:href="#path-8"></use>
                                    </mask>
                                    <g id="Clip-8"></g>
                                    <path d="M0.175850028,0.930666667 C-0.119483305,2.272 0.0238500285,13.8086667 0.127183362,15.1473333 L0.127183362,15.1473333 C0.203183362,16.102 0.589183362,16.664 1.66518336,16.68 L1.66518336,16.68 L1.76185003,16.68 C9.7865167,16.552 11.8965167,6.824 6.94118336,2.248 L6.94118336,2.248 C6.14918336,1.51733333 5.17118336,0.914 4.0185167,0.507333333 L4.0185167,0.507333333 C3.4285167,0.298666667 2.4645167,-2.77555756e-16 1.64518336,-2.77555756e-16 L1.64518336,-2.77555756e-16 C0.935850028,-2.77555756e-16 0.331183362,0.225333333 0.175850028,0.930666667" id="Fill-7" fill="url(#linearGradient-10)" mask="url(#mask-9)"></path>
                                </g>
                            </g>
                        </g>
                    </g>
                </g>
            </g>
        </g>
    </g>
</svg>