<svg width="40" height="40" xmlns="http://www.w3.org/2000/svg" xmlns:xlink="http://www.w3.org/1999/xlink">
    <defs>
        <path id="a" d="M0 21.884h25.678V0H0z"/>
    </defs>
    <g fill="none" fill-rule="evenodd">
        <circle fill="#FC0" cx="20" cy="20" r="20"/>
        <path fill="#222" d="M10.512 26.098 7.96 28.225v-2.127H7.2v4.752h.76v-2.546l2.777 2.546h1.074l-2.923-2.606 2.699-2.146z"/>
        <g transform="translate(7.2 8.976)">
            <path d="M5.897 21.345H7.39c.928 0 1.174-.363 1.174-.823 0-.546-.378-.848-1.214-.848H5.897v1.67zm0-2.211h1.541c.572 0 .996-.218.996-.725 0-.441-.209-.736-1.084-.736H5.897v1.46zm-.757-2.002h2.336c1.11 0 1.692.369 1.692 1.176 0 .574-.401.97-.934 1.075v.02c.764.09 1.126.593 1.126 1.158 0 .71-.52 1.323-1.81 1.323H5.14v-4.752zM15.302 17.141v4.73h-.572v-2.86h-.495v2.712h-.572V17.14h.572V18.5h.495V17.14h.572zm-2.735 3.223v-1.352h-1.59v-.507h1.59v-.75h-1.59v-.513h2.186v3.122h-.596z" fill="#222"/>
            <mask id="b" fill="#fff">
                <use xlink:href="#a"/>
            </mask>
            <path d="M19.67 21.848h.589v-4.713h-.59v4.713zm-2.605-2.068h.965V17.75h-.965v2.031zm2.074 0v.507h-3.075v-.507h.418V17.75h-.418v-.507h3.003v.507h-.453v2.031h.525zM24.486 17.117h.59v.888h.601v.494h-.601v.966h-.59v-2.348zm.59 3.938h-3.164v.304h3.211v.495h-3.795v-1.27h3.17v-.291h-3.17v-.495h3.748v1.257zm-3.432-2.109h2.258v.5h-2.836V17.19h2.723v.5h-2.145v.37h2.026v.494h-2.026v.393zM22.858 7.581l-.18-.114c-.612-.61-1.463-.875-2.602-.808-.948.057-1.7.434-2.274.783l-.002-.026c0-.297.033-.618.068-.932.033-.317.067-.64.067-.947 0-.312-.035-.608-.143-.861a.168.168 0 0 0-.163-.104c-.305.006-.904.216-1.049.344l-.078.173c-.006.339-.08 1.286-.156 1.4.003-.004-.04.115-.04.115-.13 1.353-.132 2.542-.013 3.563.013.102.21.255.362.31.167.062.688-.077.988-.19l.113-.018c.095-.01.15-.09.147-.198-.002-.002.007-.294.007-.294.216-.882 1.094-1.933 2.132-2.09.587-.095 1.05.056 1.416.456.05.071.156.706-.23 1.434-.288.54-.863.995-1.622 1.278-.716.273-1.505.383-2.48.35l-.912-.618c-.773-.541-1.734-1.218-2.603-1.547-.153-.058-.426-.286-.591-.422l-.09-.074c-.503-.403-1.458-1.04-2.225-1.55l-.413-.278.001-.086c.022-.025.504-.313.504-.313.675-.395.986-.589 1.053-.689-.013.016.09-.052.09-.052l1.673-.947c1.606-.882 3.425-1.884 4.38-2.874l.047-.151.022-.134a.93.93 0 0 0 .013-.562c-.013-.054-.064-.116-.13-.128-.746-.074-1.708.373-2.584 1.195-.198.185-.365.276-.54.371l-.133.076c-.967.548-3.141 1.899-4.281 2.627.074-1.225.302-2.967.58-4.42l-.031-.173-.119-.22L10.75.08l-.026-.006c-.228-.115-.413-.068-.55-.035l-.227.085-.303.11a.163.163 0 0 0-.126.107c-.543 1.314-.997 3.477-1.106 5.207a25.88 25.88 0 0 0-2.584-1.43l-.012-.007-.06-.012c-.177-.023-.393-.154-.6-.28-.022-.012-.415-.267-.415-.267l-.63-.405a3.49 3.49 0 0 1-.168-.038c-.271.047-.792.397-.947.636a.182.182 0 0 0-.028.101c0 .05.015.1.028.15l.028.128.03.078c.304.31 1.067.827 1.815 1.23l.87.46 1.328.726c0 .006.227.18.227.18l.157.09s.019.01.028.018L5.062 8.519l-1.272.843c-.12.082-.622.306-.733.35-.275.114-.483.286-.571.473l-.034.073.034.049.099.073c-.005 0 .13.085.13.085l.14.097.131.021c.224.008.555-.12 1.174-.39.568-.252 2.113-1.184 2.772-1.581l.282-.169c.117.01.245-.089.36-.175.132-.106.42-.283.595-.36l.2-.11-.001.075c.029 2.02.145 3.488.365 4.618l.003.02.022.046c.11.16.232.638.342 1.06l.252.843c.005.01.07.079.07.079.144.098.583.265.873.23l.074-.008.045-.102c.026-.126.035-.25.035-.386 0-.155-.012-.324-.025-.532l-.02-.304c-.093-1.41-.186-3.445-.186-4.798V8.53c.241.15 1.288.81 1.288.81 1.783 1.157 4.476 2.904 6.103 3.366a.239.239 0 0 0 .237-.053c.002-.004.25-.161.25-.161l.047-.02c.093-.044.157-.202.168-.372 1.37-.069 3.284-.597 4.308-1.884.396-.5.573-1.11.573-1.633 0-.43-.118-.8-.334-1.003" fill="#222" mask="url(#b)"/>
        </g>
    </g>
</svg>
