<?xml version="1.0" encoding="UTF-8"?>
<svg width="40px" height="40px" viewBox="0 0 40 40" version="1.1" xmlns="http://www.w3.org/2000/svg" xmlns:xlink="http://www.w3.org/1999/xlink">
    <title>C7F5BFCB-62B6-4E4C-B4EA-826FCC092F6B</title>
    <g id="WSG" stroke="none" stroke-width="1" fill="none" fill-rule="evenodd">
        <g id="20Icon_기관로고" transform="translate(-524.000000, -469.000000)">
            <g id="#-Con" transform="translate(79.500000, 136.000000)">
                <g id="은행" transform="translate(0.500000, 144.000000)">
                    <g id="부산은행" transform="translate(444.000000, 156.000000)">
                        <g id="icon_32_bank_busanbank" transform="translate(0.000000, 33.000000)">
                            <circle id="Oval" fill="#D71921" cx="20" cy="20" r="20"></circle>
                            <g id="Group-11" transform="translate(7.500000, 16.250000)" fill="#FFFFFF">
                                <path d="M23.2250338,1.27168919 L23.8618581,1.27168919 C23.9034122,1.27168919 23.9365203,1.24060811 23.9365203,1.20175676 L23.9365203,0.0713513514 C23.9365203,0.0321621622 23.9034122,6.75675676e-05 23.8618581,6.75675676e-05 L22.9672635,6.75675676e-05 C21.9331419,6.75675676e-05 21.3841554,0.311554054 21.0713176,0.973716216 L19.1260473,5.45851351 C19.0078041,5.72608108 18.8375338,5.85310811 18.5023986,5.85310811 L18.5023986,0.0713513514 C18.5023986,0.0321621622 18.4686149,6.75675676e-05 18.426723,6.75675676e-05 L16.9976689,6.75675676e-05 C16.9561149,6.75675676e-05 16.9216554,0.0321621622 16.9216554,0.0713513514 L16.9216554,7.00006757 C16.9216554,7.06898649 16.9817905,7.12506757 17.0554392,7.12506757 L18.6581419,7.12506757 C19.6922635,7.12506757 20.1652365,6.81324324 20.4784122,6.15310811 L22.3983446,1.72405405 C22.5523986,1.40986486 22.7736824,1.27168919 23.2250338,1.27168919" id="Fill-1"></path>
                                <path d="M4.08918919,5.88378378 L1.67162162,5.88378378 L1.67162162,4.21317568 L4.08918919,4.21317568 C4.74054054,4.21317568 5.18040541,4.5875 5.18040541,5.04831081 C5.18040541,5.51013514 4.74054054,5.88378378 4.08918919,5.88378378 M5.75472973,3.56317568 C6.3277027,3.33918919 6.80371622,2.83378378 6.80371622,1.99966216 C6.80371622,0.755067568 5.66858108,0 4.30101351,0 L0.075,0 C0.0337837838,0 0,0.0320945946 0,0.0712837838 L0,1.20202703 C0,1.24054054 0.0337837838,1.27162162 0.075,1.27162162 L4.00810811,1.27162162 C4.64358108,1.27162162 5.0722973,1.63716216 5.0722973,2.08648649 C5.0722973,2.53682432 4.64358108,2.90168919 4.00810811,2.90168919 L1.67162162,2.90168919 L1.67162162,2.06182432 C1.67162162,2.02297297 1.63783784,1.99121622 1.59662162,1.99121622 L0.075,1.99121622 C0.0337837838,1.99121622 0,2.02297297 0,2.06182432 L0,7.05405405 C0,7.09324324 0.0337837838,7.125 0.075,7.125 L4.2402027,7.125 C5.79695946,7.125 6.91148649,6.44155405 6.91148649,5.04831081 C6.91148649,4.36418919 6.48243243,3.79763514 5.75472973,3.56317568" id="Fill-3"></path>
                                <path d="M24.7040541,7.04412162 L22.2540541,4.09344595 C22.2466216,4.08432432 22.2364865,4.08668919 22.2320946,4.09581081 L21.5719595,5.61439189 C21.5689189,5.62418919 21.5689189,5.63466216 21.5756757,5.64243243 L22.6472973,6.99513514 C22.7222973,7.08837838 22.8084459,7.1252027 22.9371622,7.1252027 L24.6635135,7.1252027 C24.7135135,7.1252027 24.7344595,7.07959459 24.7040541,7.04412162" id="Fill-5"></path>
                                <path d="M9.59587838,1.9910473 L8.16445946,1.9910473 C8.12290541,1.9910473 8.08945946,2.02314189 8.08945946,2.06199324 L8.08945946,7.05388514 C8.08945946,7.09341216 8.12290541,7.12516892 8.16445946,7.12516892 L9.59587838,7.12516892 C9.63743243,7.12516892 9.67121622,7.09341216 9.67121622,7.05388514 L9.67121622,2.06199324 C9.67121622,2.02314189 9.63743243,1.9910473 9.59587838,1.9910473" id="Fill-7"></path>
                                <path d="M15.4822973,0 L14.0518919,0 C14.0106757,0 13.9772297,0.0320945946 13.9772297,0.0712837838 L13.9772297,5.85304054 C13.6417568,5.85304054 13.4725,5.72601351 13.3545946,5.45844595 L11.4083108,0.973648649 C11.095473,0.311486486 10.5468243,0 9.51236486,0 L8.16439189,0 C8.12283784,0 8.08939189,0.0320945946 8.08939189,0.0712837838 L8.08939189,1.20202703 C8.08939189,1.24054054 8.12283784,1.27162162 8.16439189,1.27162162 L9.25459459,1.27162162 C9.70594595,1.27162162 9.92689189,1.4097973 10.0816216,1.72432432 L12.0015541,6.15304054 C12.3147297,6.81317568 12.787027,7.125 13.8214865,7.125 L15.4248649,7.125 C15.4981757,7.125 15.5569595,7.06891892 15.5569595,7 L15.5569595,0.0712837838 C15.5569595,0.0320945946 15.5235135,0 15.4822973,0" id="Fill-9"></path>
                            </g>
                        </g>
                    </g>
                </g>
            </g>
        </g>
    </g>
</svg>