<?xml version="1.0" encoding="UTF-8"?>
<svg width="40px" height="40px" viewBox="0 0 40 40" version="1.1" xmlns="http://www.w3.org/2000/svg" xmlns:xlink="http://www.w3.org/1999/xlink">
    <title>934B7DB4-8736-46EF-91A8-A396BB4610DE</title>
    <g id="WSG" stroke="none" stroke-width="1" fill="none" fill-rule="evenodd">
        <g id="20Icon_기관로고" transform="translate(-313.000000, -1347.000000)">
            <g id="#-Con" transform="translate(79.500000, 136.000000)">
                <g id="증권" transform="translate(0.500000, 918.000000)">
                    <g id="KB증권" transform="translate(233.000000, 260.000000)">
                        <g id="icon_32_stock_kb" transform="translate(0.000000, 33.000000)">
                            <circle id="Oval" fill="#FFCC00" cx="20" cy="20" r="20"></circle>
                            <g id="si_KB증권" transform="translate(9.999963, 8.333420)" fill="#222222">
                                <path d="M20.3643805,7.56631819 C20.3643805,7.56595094 20.1855265,7.45210138 20.1855265,7.45210138 C19.5747788,6.84282262 18.7245796,6.57913235 17.5882876,6.6456058 C16.6418673,6.7032651 15.8911947,7.07860138 15.3186416,7.42712793 C15.3186416,7.41831377 15.3175398,7.40949961 15.3175398,7.40105271 C15.3175398,7.1046766 15.3513274,6.7836943 15.3843805,6.4711589 C15.4170664,6.15421642 15.4512212,5.83139784 15.4512212,5.52620757 C15.4512212,5.21440669 15.4163319,4.91913235 15.3087257,4.66645979 C15.2815487,4.60145536 15.2220531,4.56289341 15.1463982,4.56289341 C14.8408407,4.56950403 14.2440487,4.77884032 14.0989823,4.90554386 C14.0989823,4.90664563 14.0203894,5.07815448 14.0203894,5.07815448 C14.015615,5.4167651 13.9406947,6.36171642 13.8654071,6.47703501 C13.8683451,6.47226067 13.8253761,6.59051731 13.8253761,6.59051731 C13.696469,7.94055271 13.6938982,9.12752616 13.8125221,10.1466633 C13.8261106,10.2483934 14.0225929,10.4011722 14.1739027,10.4569952 C14.3402699,10.518327 14.8599381,10.3791368 15.1599867,10.266389 C15.1559469,10.2674908 15.2723673,10.2483934 15.2723673,10.2483934 C15.3671195,10.2381102 15.4225752,10.1587828 15.4185354,10.0504421 C15.4170664,10.0478713 15.4258805,9.75700403 15.4258805,9.75700403 C15.6425619,8.87779164 16.5177345,7.82780492 17.5541327,7.67025182 C18.1395398,7.57770315 18.6022832,7.72791111 18.9673363,8.12601731 C19.0169159,8.19763235 19.1234204,8.8307828 18.7374336,9.55758368 C18.4502389,10.0959819 17.8758496,10.5502784 17.1193009,10.8334332 C16.403885,11.1055704 15.616854,11.2150129 14.6443584,11.1819598 C14.6035929,11.1558846 13.7335619,10.5664377 13.7335619,10.5664377 C12.9626903,10.0251014 12.0041504,9.35118545 11.1359558,9.0221235 C10.983177,8.96336244 10.7103053,8.73639784 10.5457743,8.60014563 L10.4557965,8.5266943 C9.95485841,8.12491554 9.00182743,7.4891943 8.23609735,6.97980934 C8.23609735,6.97980934 7.89050885,6.74770315 7.82366814,6.7032651 C7.8240354,6.67461908 7.8240354,6.61659253 7.8240354,6.61659253 C7.84680531,6.59235359 8.32827876,6.30368987 8.32827876,6.30368987 C9.00182743,5.9096235 9.31252655,5.71681377 9.37863274,5.61691996 C9.3654115,5.632712 9.46787611,5.56403501 9.46787611,5.56403501 C9.47448673,5.56109695 11.137792,4.61945094 11.137792,4.61945094 C12.7405,3.73913678 14.5562168,2.73946421 15.5092478,1.75191111 C15.5110841,1.75080934 15.5562566,1.60096864 15.5562566,1.60096864 L15.5771903,1.46691996 C15.6407257,1.25538014 15.6436637,1.09378722 15.5907788,0.906119078 C15.5771903,0.852499609 15.5276106,0.790433238 15.4615044,0.778681025 C14.716708,0.704127928 13.7570664,1.150712 12.8822611,1.97116333 C12.6850442,2.15552616 12.5194115,2.2466058 12.3442301,2.34135802 L12.2105487,2.41627837 C11.2468673,2.96422527 9.07564602,4.31205713 7.93825221,5.03922527 C8.01280531,3.81662793 8.2390354,2.07803501 8.51741593,0.628473061 L8.48656637,0.455495184 C8.48326106,0.449619078 8.36867699,0.236242972 8.36867699,0.236242972 L8.2805354,0.079424388 L8.25482743,0.0728137685 C8.02823009,-0.0417703023 7.84239823,0.00487129063 7.70651327,0.0386589013 L7.47991593,0.122393415 L7.17656195,0.232203149 C7.11706637,0.244322618 7.0744646,0.281415538 7.05169469,0.33907483 C6.50852212,1.65091554 6.05606195,3.80965005 5.94845575,5.53575625 C4.86357965,4.84568103 3.86060177,4.34951731 3.36921239,4.10969872 L3.35562389,4.10235359 L3.29723009,4.08949961 C3.11984513,4.06709695 2.90426549,3.93672085 2.6975,3.81111908 C2.67509735,3.79789784 2.28433628,3.54338899 2.28433628,3.54338899 L1.65412389,3.13977395 C1.65853097,3.14381377 1.48775664,3.10194651 1.48775664,3.10194651 C1.21672124,3.1485881 0.697053097,3.49784917 0.54280531,3.73619872 C0.522973451,3.7677828 0.514159292,3.80157041 0.514159292,3.8371943 C0.514159292,3.88750846 0.529951327,3.93818987 0.54280531,3.98703501 L0.570716814,4.11520757 L0.600464602,4.19233147 C0.902716814,4.50192881 1.66514159,5.01792439 2.41250885,5.41970315 L3.27923451,5.8791412 L4.60576549,6.60373855 C4.60576549,6.60998191 4.83199558,6.7836943 4.83199558,6.7836943 L4.98807965,6.87330492 C4.98807965,6.87330492 5.00644248,6.88395536 5.01635841,6.89056598 C4.66305752,7.12744651 2.6034823,8.50245536 2.6034823,8.50245536 L1.33497788,9.3431058 C1.2145177,9.42500403 0.713946903,9.64903058 0.603035398,9.69346864 C0.32869469,9.80548191 0.12009292,9.97735802 0.0345221239,10.1642916 L-7.70301927e-16,10.2373757 L0.0345221239,10.2858536 L0.131477876,10.3593049 C0.12670354,10.3593049 0.261119469,10.4441412 0.261119469,10.4441412 L0.401411504,10.5403624 C0.404349558,10.5414642 0.533256637,10.5612961 0.533256637,10.5612961 C0.756181416,10.5701102 1.08671239,10.4426722 1.70370354,10.172004 C2.2714823,9.92116775 3.81249115,8.99090669 4.47134956,8.59426952 L4.75230088,8.42606598 C4.86872124,8.43561465 4.99579204,8.33718987 5.11037611,8.25125182 C5.2425885,8.14584917 5.52978319,7.96919872 5.7049646,7.89207483 C5.71084071,7.89023855 5.81,7.83441554 5.90475221,7.78189784 C5.9040177,7.81127837 5.90328319,7.85718545 5.90328319,7.85718545 C5.93266372,9.87268987 6.0479823,11.3376766 6.26833628,12.4669908 L6.27164159,12.4864554 L6.29330973,12.5319952 C6.40128319,12.6910173 6.52468142,13.1684509 6.63449115,13.5896943 L6.88532743,14.430712 C6.89046903,14.4409952 6.95584071,14.5096722 6.95584071,14.5096722 C7.09943805,14.6069952 7.53610619,14.7744642 7.82734071,14.7399421 L7.90005752,14.7314952 L7.94633186,14.6290306 C7.97093805,14.5034288 7.97938496,14.3796633 7.97938496,14.2434111 C7.97938496,14.0898978 7.96836726,13.9205925 7.95477876,13.7130925 L7.9349469,13.4097385 C7.84239823,12.0031456 7.75021681,9.97184917 7.75021681,8.62144651 L7.75021681,8.51384032 C7.9900354,8.66368103 9.03488053,9.32253943 9.03488053,9.32253943 C10.8146062,10.476827 13.5021903,12.2205616 15.1265664,12.6814686 C15.2110354,12.7075439 15.3002788,12.6873447 15.3623451,12.6278492 C15.3645487,12.6245439 15.6120796,12.467358 15.6120796,12.467358 L15.6587212,12.4482607 C15.7520044,12.4038226 15.8140708,12.247004 15.8254558,12.076597 C17.1942212,12.00792 19.1035885,11.4805394 20.1256637,10.1958757 C20.5211991,9.69787572 20.6985841,9.0882297 20.6985841,8.56635802 C20.6985841,8.13813678 20.5799602,7.76941111 20.3643805,7.56631819" id="Fill-1"></path>
                                <polygon id="Fill-4" points="16.5512283 21.822266 16.5512283 20.1299474 17.1443478 20.1299474 17.1443478 21.309943 20.4915248 21.309943 20.4915248 21.822266"></polygon>
                                <polygon id="Fill-6" points="19.8285531 17.065154 19.8285531 19.6062027 18.8747876 19.6062027 18.8747876 20.0983266 19.8285531 20.0983266 19.8285531 20.5544593 20.4187345 20.5544593 20.4187345 17.065154"></polygon>
                                <polygon id="Fill-8" points="17.4976854 20.4113394 17.4976854 19.3187509 16.007358 19.3187509 16.007358 18.8064279 18.4554907 18.8064279 18.4554907 17.6649943 16.3041013 17.6649943 16.3041013 17.1556093 19.0504465 17.1556093 19.0504465 18.8031226 19.5223712 18.8031226 19.5223712 19.3187509 18.0897031 19.3187509 18.0897031 20.4113394"></polygon>
                                <polygon id="Fill-10" points="10.7742447 19.6606301 15.6132181 19.6606301 15.6132181 19.1494089 10.7742447 19.1494089"></polygon>
                                <path d="M13.2394549,19.8787439 C12.1542115,19.8787439 11.2731628,20.2382881 11.2731628,20.9687616 C11.2731628,21.6944607 12.1542115,22.059881 13.2394549,22.059881 C14.3254327,22.059881 15.2057469,21.6944607 15.2057469,20.9687616 C15.2057469,20.2382881 14.3254327,19.8787439 13.2394549,19.8787439 M13.2372513,21.5508633 C12.4928221,21.5508633 11.8905212,21.3716421 11.8905212,20.9702306 C11.8905212,20.5717571 12.4928221,20.3903324 13.2372513,20.3903324 C13.9798442,20.3903324 14.5832469,20.5717571 14.5832469,20.9702306 C14.5832469,21.3716421 13.9798442,21.5508633 13.2372513,21.5508633" id="Fill-12"></path>
                                <path d="M15.2672624,18.415116 C15.1530456,18.4063018 13.9234704,18.3244036 13.6186473,17.6545275 L15.1449659,17.6545275 L15.1449659,17.1462443 L11.2858332,17.1462443 L11.2858332,17.6545275 L12.8121518,17.6545275 C12.5065942,18.3244036 11.277019,18.4063018 11.1631695,18.415116 L11.1631695,18.9046691 C11.7742845,18.8686779 12.6986695,18.6909257 13.2150323,18.2145939 C13.7321296,18.6909257 14.6561473,18.8686779 15.2672624,18.9046691 L15.2672624,18.415116 Z" id="Fill-13"></path>
                                <path d="M6.06215841,21.2862549 L7.54514071,21.2862549 C8.46622035,21.2862549 8.71007876,20.9270779 8.71007876,20.4694762 C8.71007876,19.9274054 8.33510973,19.6273567 7.50584425,19.6273567 L6.06215841,19.6273567 L6.06215841,21.2862549 Z M6.06215841,19.0907947 L7.59251681,19.0907947 C8.16103009,19.0907947 8.58043717,18.8755824 8.58043717,18.3724408 C8.58043717,17.9335691 8.37367168,17.6408655 7.50584425,17.6408655 L6.06215841,17.6408655 L6.06215841,19.0907947 Z M5.31075133,17.1039363 L7.62997699,17.1039363 C8.73284867,17.1039363 9.30944159,17.4697239 9.30944159,18.2714452 C9.30944159,18.8410602 8.91206991,19.2336576 8.38248584,19.3394275 L8.38248584,19.3592593 C9.14160531,19.4496045 9.50004779,19.9472372 9.50004779,20.5087726 C9.50004779,21.2139054 8.98441947,21.8220824 7.70306106,21.8220824 L5.31075133,21.8220824 L5.31075133,17.1039363 Z" id="Fill-14"></path>
                                <polygon id="Fill-15" points="0.207573451 17.1038629 0.960816814 17.1038629 0.960816814 19.2155885 3.49672389 17.1038629 4.56323717 17.1038629 1.88336549 19.2350531 4.78579469 21.8223762 3.71964867 21.8223762 0.960816814 19.2938142 0.960816814 21.8223762 0.207573451 21.8223762"></polygon>
                            </g>
                        </g>
                    </g>
                </g>
            </g>
        </g>
    </g>
</svg>