<?xml version="1.0" encoding="UTF-8"?>
<svg width="40px" height="40px" viewBox="0 0 40 40" version="1.1" xmlns="http://www.w3.org/2000/svg" xmlns:xlink="http://www.w3.org/1999/xlink">
    <title>077E2924-C779-41F1-B7EB-C1C58C73740F</title>
    <defs>
        <polygon id="path-1" points="0 8.32667268e-16 17.4999028 8.32667268e-16 17.4999028 20.9640278 0 20.9640278"></polygon>
    </defs>
    <g id="WSG" stroke="none" stroke-width="1" fill="none" fill-rule="evenodd">
        <g id="20Icon_기관로고" transform="translate(-302.000000, -366.000000)">
            <g id="#-Con" transform="translate(79.500000, 136.000000)">
                <g id="은행" transform="translate(0.500000, 144.000000)">
                    <g id="농협은행" transform="translate(222.000000, 54.000000)">
                        <g id="icon_50_saving_nh" transform="translate(0.000000, 32.000000)">
                            <circle id="Oval" fill="#006DBA" cx="20" cy="20" r="20"></circle>
                            <g id="Group-5" transform="translate(11.250000, 8.750097)">
                                <polygon id="Fill-1" fill="#FABC1C" points="8.74873611 2.14277778 4.48845833 1.23327997e-16 8.74873611 8.10347222 13.013875 1.23327997e-16"></polygon>
                                <g id="Group-4" transform="translate(0.000000, 0.653722)">
                                    <mask id="mask-2" fill="white">
                                        <use xlink:href="#path-1"></use>
                                    </mask>
                                    <g id="Clip-3"></g>
                                    <path d="M14.5054583,5.60972222 L14.438375,5.55333333 L17.4794861,4.27486111 L17.4794861,8.32667268e-16 L12.1944861,2.25166667 C12.1944861,2.25166667 9.33420833,7.67375 9.267125,7.79722222 C11.5100417,8.06555556 13.1910139,9.94486111 13.1910139,12.2101389 C13.1910139,14.6630556 11.1989306,16.6580556 8.74795833,16.6580556 C6.29893056,16.6580556 4.30295833,14.6630556 4.30295833,12.2101389 C4.30295833,9.94486111 5.98684722,8.06652778 8.22684722,7.79722222 C8.16365278,7.67375 5.30531944,2.25166667 5.30531944,2.25166667 L0.0232361111,8.32667268e-16 L0.0232361111,4.27486111 L3.06434722,5.55333333 L2.99726389,5.60972222 C1.09268056,7.27611111 -9.72222222e-05,9.68236111 -9.72222222e-05,12.2101389 C-9.72222222e-05,17.0372222 3.92379167,20.9640278 8.74795833,20.9640278 C13.5730972,20.9640278 17.4999028,17.0372222 17.4999028,12.2101389 C17.4999028,9.68333333 16.407125,7.27708333 14.5054583,5.60972222" id="Fill-2" fill="#FABC1C" mask="url(#mask-2)"></path>
                                </g>
                            </g>
                        </g>
                    </g>
                </g>
            </g>
        </g>
    </g>
</svg>