<?xml version="1.0" encoding="UTF-8"?>
<svg width="40px" height="40px" viewBox="0 0 40 40" version="1.1" xmlns="http://www.w3.org/2000/svg" xmlns:xlink="http://www.w3.org/1999/xlink">
    <title>9FD7FAE0-8912-4AB0-88B9-01AB3635E263</title>
    <defs>
        <filter id="filter-1">
            <feColorMatrix in="SourceGraphic" type="matrix" values="0 0 0 0 1.000000 0 0 0 0 1.000000 0 0 0 0 1.000000 0 0 0 1.000000 0"></feColorMatrix>
        </filter>
        <path d="M6.31125,-1.38777878e-16 L0.32125,0.03625 C0.1425,0.03625 0,0.185 0.00625,0.3625 L0.00625,0.3625 L0.00625,0.36625 C0.00625,0.36625 0,0.3725 0,0.3775 L0,0.3775 C0.105,3.27625 1.2775,5.89875 3.13375,7.86625 L3.13375,7.86625 C3.13375,7.87125 3.14375,7.87625 3.14375,7.87875 L3.14375,7.87875 C3.20125,7.93125 3.28125,7.97 3.36875,7.97 L3.36875,7.97 C3.50375,7.97 3.61625,7.88375 3.6625,7.77125 L3.6625,7.77125 L6.61,0.4425 C6.6275,0.4025 6.6375,0.35875 6.63125,0.32 L6.63125,0.32 C6.63125,0.14 6.4925,-1.38777878e-16 6.3175,-1.38777878e-16 L6.3175,-1.38777878e-16 C6.315,-1.38777878e-16 6.31375,-1.38777878e-16 6.31125,-1.38777878e-16" id="path-2"></path>
        <linearGradient x1="49.1589698%" y1="-142.222174%" x2="50.7897081%" y2="141.75%" id="linearGradient-4">
            <stop stop-color="#231F20" offset="0%"></stop>
            <stop stop-color="#231F20" offset="100%"></stop>
        </linearGradient>
        <path d="M5.20625,-2.77555756e-16 C4.47,0.00375 3.83625,0.4675 3.58875,1.11375 L3.58875,1.11375 C3.585,1.11875 3.585,1.1225 3.58,1.12625 L3.58,1.12625 L0.0275,9.96125 C0.0275,9.965 0.02,9.97 0.02,9.97 L0.02,9.97 C0.005,10.01375 -2.60208521e-17,10.04625 -2.60208521e-17,10.09 L-2.60208521e-17,10.09 C-2.60208521e-17,10.21125 0.07375,10.32125 0.175,10.3725 L0.175,10.3725 L0.1775,10.3725 C1.6775,11.105 3.3525,11.51875 5.12875,11.53 L5.12875,11.53 L5.28375,11.53 C7.1125,11.5125 8.84875,11.075 10.37625,10.3025 L10.37625,10.3025 C10.38125,10.29875 10.385,10.29875 10.39,10.29375 L10.39,10.29375 C10.485,10.23875 10.5475,10.1325 10.5475,10.0175 L10.5475,10.0175 C10.5475,9.9725 10.5375,9.93 10.52375,9.895 L10.52375,9.895 L10.52375,9.89125 L6.78625,0.975 C6.49875,0.39625 5.90625,-2.77555756e-16 5.21875,-2.77555756e-16 L5.21875,-2.77555756e-16 C5.215,-2.77555756e-16 5.21,-2.77555756e-16 5.20625,-2.77555756e-16" id="path-5"></path>
        <linearGradient x1="48.8289867%" y1="-98.4818539%" x2="50.06789%" y2="97.7945143%" id="linearGradient-7">
            <stop stop-color="#231F20" offset="0%"></stop>
            <stop stop-color="#231F20" offset="100%"></stop>
        </linearGradient>
        <path d="M0.32,0.0425 C0.1425,0.0425 3.46944695e-17,0.19 3.46944695e-17,0.36875 L3.46944695e-17,0.36875 C0.00375,0.4075 0.00875,0.44625 0.02625,0.48375 L0.02625,0.48375 L0.02625,0.495 L3.0775,7.77625 C3.125,7.89375 3.24125,7.97375 3.37375,7.97375 L3.37375,7.97375 C3.46375,7.97375 3.545,7.93125 3.60625,7.875 L3.60625,7.875 C3.60625,7.875 3.60625,7.87125 3.61125,7.87125 L3.61125,7.87125 C5.44,5.8725 6.575,3.2275 6.635,0.325 L6.635,0.325 C6.635,0.325 6.635,0.32125 6.63,0.3175 L6.63,0.3175 C6.63,0.14375 6.4875,1.66533454e-16 6.31125,1.66533454e-16 L6.31125,1.66533454e-16 L0.32,0.0425 Z" id="path-8"></path>
        <linearGradient x1="49.1572452%" y1="-142.089384%" x2="50.7867981%" y2="141.729295%" id="linearGradient-10">
            <stop stop-color="#231F20" offset="0%"></stop>
            <stop stop-color="#231F20" offset="100%"></stop>
        </linearGradient>
        <path d="M0.3175,0 C0.14,0 -6.9388939e-17,0.14375 -6.9388939e-17,0.32125 L-6.9388939e-17,0.32125 L0.00625,0.85875 C-6.9388939e-17,2.605 0.36875,4.50875 1.1425,6.50125 L1.1425,6.50125 L1.705,7.85 C1.74875,7.9575 1.85125,8.0375 1.9725,8.045 L1.9725,8.045 L2,8.045 L9.01625,7.9975 C9.195,7.9975 9.33625,7.85375 9.33625,7.6775 L9.33625,7.6775 C9.33625,7.64125 9.3325,7.60625 9.32125,7.5775 L9.32125,7.5775 L9.31625,7.5725 C7.955,3.6575 4.545,0.71125 0.3725,0.00375 L0.3725,0.00375 C0.3725,0.00375 0.365,0.00375 0.36,0 L0.36,0 L0.3175,0 Z" id="path-11"></path>
        <linearGradient x1="49.705002%" y1="12.6043519%" x2="51.3758495%" y2="221.265405%" id="linearGradient-13">
            <stop stop-color="#231F20" offset="0%"></stop>
            <stop stop-color="#231F20" offset="100%"></stop>
        </linearGradient>
        <path d="M8.86875,0.00625 L8.86,0.00625 C4.6975,0.76875 1.325,3.77375 0.0175,7.7 L0.0175,7.7 L0.0175,7.705 C0.00875,7.735 -6.9388939e-17,7.77 -6.9388939e-17,7.80375 L-6.9388939e-17,7.80375 C0.00375,7.98125 0.14875,8.12375 0.33,8.12375 L0.33,8.12375 L7.35125,8.07375 C7.35125,8.07375 7.36375,8.07375 7.37875,8.0675 L7.37875,8.0675 L7.38625,8.0675 L7.4075,8.0675 C7.51125,8.04625 7.5975,7.96875 7.64125,7.8725 L7.64125,7.8725 L8.1825,6.51625 C8.92625,4.51375 9.2675,2.6075 9.23625,0.86 L9.23625,0.86 L9.24125,0.86 L9.23625,0.31875 C9.23625,0.14 9.0875,0 8.91125,0 L8.91125,0 C8.9025,0 8.88625,0 8.86875,0.00625" id="path-14"></path>
        <linearGradient x1="49.6782172%" y1="11.6506395%" x2="51.3679021%" y2="226.920186%" id="linearGradient-16">
            <stop stop-color="#231F20" offset="0%"></stop>
            <stop stop-color="#231F20" offset="100%"></stop>
        </linearGradient>
    </defs>
    <g id="WSG" stroke="none" stroke-width="1" fill="none" fill-rule="evenodd">
        <g id="20Icon_기관로고" transform="translate(-80.000000, -964.000000)">
            <g id="#-Con" transform="translate(79.500000, 136.000000)">
                <g id="저축은행" transform="translate(0.500000, 531.000000)">
                    <g id="유안타" transform="translate(0.000000, 264.000000)">
                        <g id="icon_32_saving_yuanta" transform="translate(0.000000, 33.000000)">
                            <circle id="Oval" fill="#0066B3" cx="20" cy="20" r="20"></circle>
                            <g filter="url(#filter-1)" id="Group-16">
                                <g transform="translate(8.750000, 8.749375)">
                                    <g id="Group-3" transform="translate(0.000000, 11.405000)">
                                        <mask id="mask-3" fill="white">
                                            <use xlink:href="#path-2"></use>
                                        </mask>
                                        <g id="Clip-2"></g>
                                        <path d="M6.31125,-1.38777878e-16 L0.32125,0.03625 C0.1425,0.03625 0,0.185 0.00625,0.3625 L0.00625,0.3625 L0.00625,0.36625 C0.00625,0.36625 0,0.3725 0,0.3775 L0,0.3775 C0.105,3.27625 1.2775,5.89875 3.13375,7.86625 L3.13375,7.86625 C3.13375,7.87125 3.14375,7.87625 3.14375,7.87875 L3.14375,7.87875 C3.20125,7.93125 3.28125,7.97 3.36875,7.97 L3.36875,7.97 C3.50375,7.97 3.61625,7.88375 3.6625,7.77125 L3.6625,7.77125 L6.61,0.4425 C6.6275,0.4025 6.6375,0.35875 6.63125,0.32 L6.63125,0.32 C6.63125,0.14 6.4925,-1.38777878e-16 6.3175,-1.38777878e-16 L6.3175,-1.38777878e-16 C6.315,-1.38777878e-16 6.31375,-1.38777878e-16 6.31125,-1.38777878e-16" id="Fill-1" fill="url(#linearGradient-4)" mask="url(#mask-3)"></path>
                                    </g>
                                    <g id="Group-6" transform="translate(6.320000, 11.370000)">
                                        <mask id="mask-6" fill="white">
                                            <use xlink:href="#path-5"></use>
                                        </mask>
                                        <g id="Clip-5"></g>
                                        <path d="M5.20625,-2.77555756e-16 C4.47,0.00375 3.83625,0.4675 3.58875,1.11375 L3.58875,1.11375 C3.585,1.11875 3.585,1.1225 3.58,1.12625 L3.58,1.12625 L0.0275,9.96125 C0.0275,9.965 0.02,9.97 0.02,9.97 L0.02,9.97 C0.005,10.01375 -2.60208521e-17,10.04625 -2.60208521e-17,10.09 L-2.60208521e-17,10.09 C-2.60208521e-17,10.21125 0.07375,10.32125 0.175,10.3725 L0.175,10.3725 L0.1775,10.3725 C1.6775,11.105 3.3525,11.51875 5.12875,11.53 L5.12875,11.53 L5.28375,11.53 C7.1125,11.5125 8.84875,11.075 10.37625,10.3025 L10.37625,10.3025 C10.38125,10.29875 10.385,10.29875 10.39,10.29375 L10.39,10.29375 C10.485,10.23875 10.5475,10.1325 10.5475,10.0175 L10.5475,10.0175 C10.5475,9.9725 10.5375,9.93 10.52375,9.895 L10.52375,9.895 L10.52375,9.89125 L6.78625,0.975 C6.49875,0.39625 5.90625,-2.77555756e-16 5.21875,-2.77555756e-16 L5.21875,-2.77555756e-16 C5.215,-2.77555756e-16 5.21,-2.77555756e-16 5.20625,-2.77555756e-16" id="Fill-4" fill="url(#linearGradient-7)" mask="url(#mask-6)"></path>
                                    </g>
                                    <g id="Group-9" transform="translate(16.415000, 11.287500)">
                                        <mask id="mask-9" fill="white">
                                            <use xlink:href="#path-8"></use>
                                        </mask>
                                        <g id="Clip-8"></g>
                                        <path d="M0.32,0.0425 C0.1425,0.0425 3.46944695e-17,0.19 3.46944695e-17,0.36875 L3.46944695e-17,0.36875 C0.00375,0.4075 0.00875,0.44625 0.02625,0.48375 L0.02625,0.48375 L0.02625,0.495 L3.0775,7.77625 C3.125,7.89375 3.24125,7.97375 3.37375,7.97375 L3.37375,7.97375 C3.46375,7.97375 3.545,7.93125 3.60625,7.875 L3.60625,7.875 C3.60625,7.875 3.60625,7.87125 3.61125,7.87125 L3.61125,7.87125 C5.44,5.8725 6.575,3.2275 6.635,0.325 L6.635,0.325 C6.635,0.325 6.635,0.32125 6.63,0.3175 L6.63,0.3175 C6.63,0.14375 6.4875,1.66533454e-16 6.31125,1.66533454e-16 L6.31125,1.66533454e-16 L0.32,0.0425 Z" id="Fill-7" fill="url(#linearGradient-10)" mask="url(#mask-9)"></path>
                                    </g>
                                    <g id="Group-12" transform="translate(13.093750, 0.000000)">
                                        <mask id="mask-12" fill="white">
                                            <use xlink:href="#path-11"></use>
                                        </mask>
                                        <g id="Clip-11"></g>
                                        <path d="M0.3175,0 C0.14,0 -6.9388939e-17,0.14375 -6.9388939e-17,0.32125 L-6.9388939e-17,0.32125 L0.00625,0.85875 C-6.9388939e-17,2.605 0.36875,4.50875 1.1425,6.50125 L1.1425,6.50125 L1.705,7.85 C1.74875,7.9575 1.85125,8.0375 1.9725,8.045 L1.9725,8.045 L2,8.045 L9.01625,7.9975 C9.195,7.9975 9.33625,7.85375 9.33625,7.6775 L9.33625,7.6775 C9.33625,7.64125 9.3325,7.60625 9.32125,7.5775 L9.32125,7.5775 L9.31625,7.5725 C7.955,3.6575 4.545,0.71125 0.3725,0.00375 L0.3725,0.00375 C0.3725,0.00375 0.365,0.00375 0.36,0 L0.36,0 L0.3175,0 Z" id="Fill-10" fill="url(#linearGradient-13)" mask="url(#mask-12)"></path>
                                    </g>
                                    <g id="Group-15" transform="translate(0.563750, 0.025000)">
                                        <mask id="mask-15" fill="white">
                                            <use xlink:href="#path-14"></use>
                                        </mask>
                                        <g id="Clip-14"></g>
                                        <path d="M8.86875,0.00625 L8.86,0.00625 C4.6975,0.76875 1.325,3.77375 0.0175,7.7 L0.0175,7.7 L0.0175,7.705 C0.00875,7.735 -6.9388939e-17,7.77 -6.9388939e-17,7.80375 L-6.9388939e-17,7.80375 C0.00375,7.98125 0.14875,8.12375 0.33,8.12375 L0.33,8.12375 L7.35125,8.07375 C7.35125,8.07375 7.36375,8.07375 7.37875,8.0675 L7.37875,8.0675 L7.38625,8.0675 L7.4075,8.0675 C7.51125,8.04625 7.5975,7.96875 7.64125,7.8725 L7.64125,7.8725 L8.1825,6.51625 C8.92625,4.51375 9.2675,2.6075 9.23625,0.86 L9.23625,0.86 L9.24125,0.86 L9.23625,0.31875 C9.23625,0.14 9.0875,0 8.91125,0 L8.91125,0 C8.9025,0 8.88625,0 8.86875,0.00625" id="Fill-13" fill="url(#linearGradient-16)" mask="url(#mask-15)"></path>
                                    </g>
                                </g>
                            </g>
                        </g>
                    </g>
                </g>
            </g>
        </g>
    </g>
</svg>