<?xml version="1.0" encoding="UTF-8"?>
<svg width="40px" height="40px" viewBox="0 0 40 40" version="1.1" xmlns="http://www.w3.org/2000/svg" xmlns:xlink="http://www.w3.org/1999/xlink">
    <title>501FD838-AC36-46A4-93C3-573F615E9BF8</title>
    <g id="WSG" stroke="none" stroke-width="1" fill="none" fill-rule="evenodd">
        <g id="20Icon_기관로고" transform="translate(-191.000000, -366.000000)">
            <g id="#-Con" transform="translate(79.500000, 136.000000)">
                <g id="은행" transform="translate(0.500000, 144.000000)">
                    <g id="SC제일은행" transform="translate(111.000000, 54.000000)">
                        <g id="SC제일은행" transform="translate(0.000000, 32.000000)">
                            <circle id="Oval" fill="#0C5881" cx="20" cy="20" r="20"></circle>
                            <g id="Group-15" transform="translate(12.500000, 8.750066)" fill="#FEFEFE">
                                <path d="M4.32794118,21.2517132 C3.75220588,21.5951691 3.23139706,21.7943603 2.67088235,21.7943603 C1.25602941,21.7943603 0.0747794118,20.6316397 0,19.2253897 L2.77345588,17.5795809 L7.07360294,19.5059779 L4.32794118,21.2517132 Z" id="Fill-1"></path>
                                <path d="M5.97911029,14.1597132 L3.92300735,13.2544191 C3.00381618,12.8494191 2.13888971,12.5013309 2.13888971,11.4961103 C2.13888971,10.9706691 2.28646324,10.6933897 2.54190441,10.425375 L6.88374265,12.3339044 L5.81631618,12.9665515 C5.51322794,13.1425809 5.31072794,13.3047132 5.31072794,13.5330221 C5.31072794,13.7825074 5.59131618,13.9922868 5.97911029,14.1597132" id="Fill-3"></path>
                                <path d="M7.99219853,4.67205882 L5.88249265,5.95919118 C5.69786029,6.07036765 5.44241912,6.24772059 5.44241912,6.53227941 C5.44241912,6.85455882 5.93874265,7.09345588 6.36293382,7.29992647 L3.72977206,6.14051471 C2.95749265,5.79507353 2.17661029,5.41125 2.17661029,4.47088235 C2.17661029,4.0725 2.28646324,3.76147059 2.47109559,3.48419118 L8.17484559,1.3061248e-16 C8.86043382,0.389117647 9.51558088,1.17198529 9.51558088,2.22286765 C9.51558088,3.3525 8.95043382,4.09301471 7.99219853,4.67205882" id="Fill-5"></path>
                                <path d="M12.4752574,8.79319853 L11.9524632,9.09496324 L7.59077206,7.171875 L12.6572426,4.11783088 C13.3408456,4.51952206 14.0092279,5.28783088 14.0092279,6.34533088 C14.0092279,7.47099265 13.4500368,8.24658088 12.4752574,8.79319853" id="Fill-7"></path>
                                <path d="M8.79035294,12.4936544 L11.3738824,13.6219632 C12.3374118,14.0574044 12.6371912,14.5656397 12.6371912,15.2055662 C12.6371912,15.5682132 12.4320441,15.9414485 12.1375588,16.1836544 L7.80564706,14.2579191 L8.53226471,13.8575515 C9.15564706,13.5068162 9.36542647,13.3049779 9.36542647,13.0773309 C9.36542647,12.8417426 9.21586765,12.6868897 8.79035294,12.4936544" id="Fill-9"></path>
                                <path d="M13.3968309,21.9975221 C12.2969779,21.1590662 11.1269779,20.5866397 9.70021324,19.9460515 L3.142125,17.0296544 C1.48638971,16.2937721 0.390507353,15.3203162 0.390507353,13.6672279 C0.390507353,12.0736985 1.16808088,11.2881838 2.17661029,10.6509044 L2.54190441,10.4259044 C2.28646324,10.6932574 2.13888971,10.9705368 2.13888971,11.4959779 C2.13888971,12.5011985 3.00381618,12.8492868 3.92300735,13.2542868 L11.5524926,16.6193603 C12.8899191,17.1944338 14.1009485,18.1758309 14.1009485,19.8414926 C14.1009485,20.7712721 13.7561691,21.5951691 13.3968309,21.9975221" id="Fill-11"></path>
                                <path d="M12.6123088,15.8839412 L12.1371618,16.1837206 C12.4323088,15.9415147 12.6374559,15.5682794 12.6374559,15.2056324 C12.6374559,14.5657059 12.3376765,14.0574706 11.3741471,13.6220294 L3.20929412,10.0365882 C1.55620588,9.29739706 0.529808824,8.35835294 0.529808824,6.71519118 C0.529808824,5.21166176 1.28620588,4.21239706 2.47142647,3.48379412 C2.28613235,3.76107353 2.17627941,4.07276471 2.17627941,4.47048529 C2.17627941,5.41151471 2.95716176,5.79533824 3.72944118,6.14011765 L11.6646618,9.64151471 C13.1132647,10.2854118 14.2826029,11.2562206 14.2826029,13.0092353 C14.2826029,14.3784265 13.6426765,15.2506324 12.6123088,15.8839412" id="Fill-13"></path>
                            </g>
                        </g>
                    </g>
                </g>
            </g>
        </g>
    </g>
</svg>