<?xml version="1.0" encoding="UTF-8"?>
<svg width="41px" height="40px" viewBox="0 0 41 40" version="1.1" xmlns="http://www.w3.org/2000/svg" xmlns:xlink="http://www.w3.org/1999/xlink">
    <title>DE63DB9F-A11F-45FC-9FFA-3D62D74BC5CF</title>
    <defs>
        <polygon id="path-1" points="3.28123623e-16 8.26162055e-16 23.9941299 8.26162055e-16 23.9941299 23.9911338 3.28123623e-16 23.9911338"></polygon>
        <polygon id="path-3" points="0.0611464968 0.0586394904 0.0611464968 0.0652433121 0.0611464968 0.0570496815"></polygon>
        <linearGradient x1="-4351.49288%" y1="3580.34379%" x2="-9621.28582%" y2="7807.15425%" id="linearGradient-5">
            <stop stop-color="#F7F7F7" offset="0%"></stop>
            <stop stop-color="#DBDCDC" offset="100%"></stop>
        </linearGradient>
    </defs>
    <g id="WSG" stroke="none" stroke-width="1" fill="none" fill-rule="evenodd">
        <g id="20Icon_기관로고" transform="translate(-746.000000, -1633.000000)">
            <g id="#-Con" transform="translate(79.500000, 136.000000)">
                <g id="카드" transform="translate(1.000000, 1410.000000)">
                    <g id="비씨" transform="translate(666.000000, 54.000000)">
                        <g id="Group" transform="translate(0.000000, 33.000000)">
                            <circle id="Oval" fill="#F8F8F8" cx="20" cy="20" r="20"></circle>
                            <g id="Group-12" transform="translate(8.000061, 7.352866)">
                                <g id="Group-3">
                                    <mask id="mask-2" fill="white">
                                        <use xlink:href="#path-1"></use>
                                    </mask>
                                    <g id="Clip-2"></g>
                                    <path d="M23.9941911,11.9970955 C23.9941911,18.6195669 18.6184968,23.9911338 11.9970955,23.9911338 C5.37141401,23.9911338 3.28123623e-16,18.6195669 3.28123623e-16,11.9970955 C3.28123623e-16,5.37034395 5.37141401,8.26162055e-16 11.9970955,8.26162055e-16 C18.6184968,8.26162055e-16 23.9941911,5.37034395 23.9941911,11.9970955" id="Fill-1" fill="#E73E44" mask="url(#mask-2)"></path>
                                </g>
                                <g id="Group-6" transform="translate(17.608754, 9.746522)">
                                    <mask id="mask-4" fill="white">
                                        <use xlink:href="#path-3"></use>
                                    </mask>
                                    <g id="Clip-5"></g>
                                    <polygon id="Fill-4" fill="url(#linearGradient-5)" mask="url(#mask-4)" points="0.0611464968 0.0586394904 0.0611464968 0.0652433121 0.0611464968 0.0570496815"></polygon>
                                </g>
                                <g id="Group-11" transform="translate(0.809968, 1.220918)" fill="#FEFEFE">
                                    <path d="M1.18947623,9.13315439 C1.18947623,9.1412563 1.21194757,9.39761299 1.21194757,9.39761299 C1.20797305,9.45692509 1.24053356,9.513027 1.29357814,9.53351108 C1.34066094,9.55491235 1.39370553,9.54467031 1.44063547,9.50492509 C1.88792209,9.129027 2.56603674,8.793027 3.11146349,8.98089961 C3.53826604,9.129027 3.8282533,9.56928178 3.97928515,10.291269 C4.28990935,11.8046448 3.25240617,12.5338168 2.60486477,12.8309888 L2.58239343,12.841078 L1.75324693,13.2477022 C1.75324693,13.2477022 1.70616413,13.2680334 1.6551068,13.2434219 C1.60404948,13.216976 1.58983292,13.1842627 1.55513228,13.0943773 C0.99136158,11.0141735 0.79936158,8.8287977 1.00970553,6.78849197 C1.03217687,6.63532 1.10157814,6.44943465 1.22020234,6.29824993 L1.91650808,5.55593146 L1.99416413,5.4710907 C2.37204948,5.10344738 2.72746349,4.91970216 2.91946349,4.99934547 C3.07875012,5.06675949 3.11757814,5.32204611 3.1195654,5.52214802 C3.15227878,6.60673401 2.54570553,7.71470853 1.27523419,8.90844102 C1.27523419,8.90844102 1.17724693,8.98808433 1.18947623,9.13315439 M5.00669916,7.62895057 C4.62896668,7.40316713 4.20216413,7.33881044 3.77108133,7.40117987 C4.55742527,6.56377859 4.98438069,5.65284866 4.98438069,4.73381681 C4.98438069,4.65004611 4.98224056,4.56627541 4.97199852,4.48051745 C4.93118324,3.90864484 4.66764184,3.47970216 4.2593361,3.33478496 C3.85072464,3.18161299 3.10106859,3.25911617 1.91039343,4.47654293 L1.19559088,5.27710344 C0.99747623,5.51802063 0.245985784,6.65565121 0.106877504,7.84021172 C-0.125784916,9.85407159 0.0232596697,11.8638041 0.535973045,13.6459187 C0.595132281,13.8541225 0.787132281,14.3565939 1.24863547,14.5424792 C1.7388775,14.7425811 2.20450808,14.5016639 2.61709406,14.2891799 L2.72746349,14.234148 L3.15227878,14.0441353 L3.56486477,13.8623773 L4.0673361,13.6417913 C4.4287119,13.494734 4.76776922,13.3579187 5.09872464,13.0801608 C5.53775648,12.7053327 5.86045712,12.2152436 6.0258584,11.6575875 C6.11176922,11.3695875 6.17077559,11.0551417 6.20165457,10.6975875 C6.22810043,10.4198296 6.25668642,9.88067031 6.15258451,9.40693783 C5.92588387,8.36316713 5.40705585,7.86482318 5.00669916,7.62895057" id="Fill-7"></path>
                                    <path d="M14.4223425,1.30660152 C14.1895272,0.508028276 13.8095017,0.340639741 13.6992851,0.303798977 C12.7025972,-0.0149271377 11.6670813,-0.080201023 10.6621387,0.0954422891 C9.15289024,0.373353117 7.84771827,1.16565885 6.98173101,2.32576076 C6.0729412,3.54609197 5.72165457,5.06863974 5.99115776,6.60876713 C6.2649412,8.1548563 7.04501763,9.40683082 8.25831699,10.2258881 C9.67982018,11.183748 11.5710813,11.4757225 13.5930431,11.0509073 C14.7878457,10.7916461 15.7744444,10.3269327 16.538317,9.6682321 C16.8792087,9.37213019 16.9446355,8.9953149 16.9446355,8.73070344 C16.9446355,8.73070344 16.9629794,8.51730216 16.7975781,7.84438496 C16.7526355,7.68097095 16.6810941,7.63190089 16.5667501,7.63190089 C16.4829794,7.63190089 16.3952342,7.72790089 16.3788775,7.74838496 C15.8089922,8.40815566 14.9411705,8.86767159 13.8565845,9.08107286 C11.0727374,9.61610471 8.93230426,8.31613019 8.40124693,5.76723847 C8.17454629,4.66323847 8.36241891,3.60433401 8.93841891,2.78527668 C9.51640617,1.9520028 10.464024,1.40061426 11.605782,1.22894547 C12.4758966,1.10237223 13.3602278,1.20953146 14.1546737,1.54155694 C14.1546737,1.54155694 14.4957183,1.64061426 14.4223425,1.30660152" id="Fill-9"></path>
                                </g>
                            </g>
                        </g>
                    </g>
                </g>
            </g>
        </g>
    </g>
</svg>