<?xml version="1.0" encoding="UTF-8"?>
<svg width="41px" height="40px" viewBox="0 0 41 40" version="1.1" xmlns="http://www.w3.org/2000/svg" xmlns:xlink="http://www.w3.org/1999/xlink">
    <title>A554E6F7-EC68-4CB7-BB84-9A45F87347D3</title>
    <defs>
        <polygon id="path-1" points="0 2.01227923e-16 3.16760106 2.01227923e-16 3.16760106 6.00137691 0 6.00137691"></polygon>
        <polygon id="path-3" points="0 6.00145646 35.9707441 6.00145646 35.9707441 -3.46944695e-17 0 -3.46944695e-17"></polygon>
    </defs>
    <g id="WSG" stroke="none" stroke-width="1" fill="none" fill-rule="evenodd">
        <g id="20Icon_기관로고" transform="translate(-302.000000, -1738.000000)">
            <g id="#-Con" transform="translate(79.500000, 136.000000)">
                <g id="카드" transform="translate(1.000000, 1410.000000)">
                    <g id="신한" transform="translate(222.000000, 159.000000)">
                        <g id="Group" transform="translate(0.000000, 33.000000)">
                            <circle id="Oval" fill="#0C2D87" cx="20" cy="20" r="20"></circle>
                            <g id="Group-16" transform="translate(2.400000, 16.894939)">
                                <g id="Group-3" transform="translate(0.000000, 0.000042)">
                                    <mask id="mask-2" fill="white">
                                        <use xlink:href="#path-1"></use>
                                    </mask>
                                    <g id="Clip-2"></g>
                                    <path d="M0.705448021,0.683635482 C0.685785752,0.672142078 0.673627441,0.652954743 0.667833245,0.625598543 C0.661659103,0.599477171 0.662703958,0.576015429 0.670397889,0.55635316 L0.907105013,0.0591922103 C0.922492876,0.0365853501 0.94291504,0.019392738 0.968371504,0.007044453 C0.993353034,-0.00406900346 1.01557995,-0.0019792937 1.03438734,0.0129336351 L2.31822902,0.608500917 C2.34150079,0.619994321 2.3558438,0.639181656 2.3637277,0.666537857 C2.37199156,0.693039176 2.37199156,0.71821068 2.3637277,0.741767408 L2.12189129,1.19798904 C2.09861953,1.24063812 2.05530554,1.25175158 1.99460897,1.23294419 L0.705448021,0.683635482 Z M0.959157784,2.63741912 L0.959157784,3.06001543 C0.959157784,3.14018429 0.988888654,3.20733997 1.04892032,3.25853786 C1.10895198,3.31068561 1.17705752,3.34488086 1.25390185,3.35988878 L2.43886227,3.5678149 C2.64707335,3.60286503 2.81026069,3.68531358 2.92756939,3.81639538 C3.04525805,3.9479521 3.10376992,4.14618957 3.10376992,4.41196266 L3.10376992,5.12265395 C3.10376992,5.14231622 3.10120528,5.18249564 3.09503113,5.24404709 C3.08990185,5.30597849 3.06188074,5.36192572 3.01144274,5.41226873 L2.53774354,5.90401543 C2.4875905,5.95777796 2.4328781,5.98731886 2.37284644,5.99244815 C2.31347968,5.99833733 2.27140053,6.00137691 2.24841372,6.00137691 L0.942155145,6.00137691 C0.926957256,6.00137691 0.884023219,5.99966714 0.814777836,5.99624762 C0.745817414,5.99159327 0.677901847,5.96851147 0.61236095,5.92614736 L-1.89973616e-05,5.51020013 L0.375653826,4.92109195 L0.907105013,5.19237427 C0.93873562,5.21203654 0.983759367,5.22438482 1.04312612,5.23036899 C1.10277784,5.23549828 1.14865646,5.2389178 1.17876728,5.2389178 L1.99460897,5.2389178 C2.08684116,5.2389178 2.15333193,5.21118166 2.19370132,5.15428456 C2.23388074,5.09871728 2.25439789,5.05179379 2.25439789,5.01332414 L2.25439789,4.56223179 C2.25439789,4.48500751 2.24005488,4.41747189 2.21060897,4.3598149 C2.18173298,4.30263284 2.10564855,4.26159854 1.98264063,4.23851675 L0.826366227,4.03600488 C0.745817414,4.02489142 0.662703958,3.9983901 0.578165699,3.95830567 C0.493437467,3.91812625 0.415833245,3.8608492 0.346872823,3.7874244 C0.277247493,3.71475949 0.22082533,3.62632677 0.175801583,3.5217463 C0.132012665,3.41745079 0.110165699,3.29662757 0.110165699,3.15775685 L0.110165699,2.53882282 C0.110165699,2.52001543 0.112730343,2.47983601 0.118524538,2.4179996 C0.124698681,2.35597321 0.152244855,2.30040593 0.202492876,2.25044287 L0.687495515,1.7476777 C0.737933509,1.69391517 0.792550923,1.66313944 0.852392612,1.65801015 C0.912424274,1.65155105 0.953458575,1.64898641 0.97711029,1.64898641 L2.2255219,1.64898641 C2.24090976,1.64898641 2.28317889,1.65079115 2.35280422,1.65506556 C2.42242955,1.65886503 2.48930026,1.68147189 2.55531609,1.72421596 L3.16760106,2.14025817 L2.786419,2.7297463 L2.2600971,2.45855896 C2.22894142,2.43842176 2.18344274,2.42654841 2.12445594,2.42046926 C2.06451926,2.41533997 2.01940053,2.41192044 1.98890976,2.41192044 L1.21999156,2.41192044 C1.12661953,2.41192044 1.06107863,2.44060646 1.02051926,2.49607875 C0.979674934,2.55202598 0.959157784,2.59904445 0.959157784,2.63741912 L0.959157784,2.63741912 Z" id="Fill-1" fill="#FFFFFF" mask="url(#mask-2)"></path>
                                </g>
                                <path d="M5.10948285,2.6546533 L5.79718734,2.6546533 C5.82026913,2.6546533 5.86234828,2.65712296 5.92171504,2.66320211 C5.9817467,2.66909129 6.0364591,2.69948707 6.08642216,2.7532496 L6.68787863,3.37142375 C6.73803166,3.42176675 6.76595778,3.47733404 6.77137203,3.53926544 C6.7773562,3.60119683 6.78011082,3.64137625 6.78011082,3.66018364 L6.78011082,5.97282744 L5.93054881,5.97282744 L5.93054881,3.82251609 C5.93054881,3.72591451 5.89483377,3.63444222 5.82387863,3.5481942 C5.75263852,3.46109129 5.65546702,3.41749235 5.53169921,3.41749235 L4.84978892,3.41749235 C4.81473879,3.41749235 4.78329815,3.43335515 4.75385224,3.46403588 C4.72507124,3.49443166 4.71072823,3.53119156 4.71072823,3.57431557 L4.71072823,5.97282744 L3.86107124,5.97282744 L3.86107124,1.32531293 L4.71072823,1.32531293 L4.71072823,2.83360844 C4.7959314,2.76825752 4.87904485,2.72209393 4.95911873,2.69483272 C5.04052243,2.6683314 5.09067546,2.6546533 5.10948285,2.6546533" id="Fill-4" fill="#FFFFFF"></path>
                                <mask id="mask-4" fill="white">
                                    <use xlink:href="#path-3"></use>
                                </mask>
                                <g id="Clip-7"></g>
                                <path d="M7.60978651,5.97286544 L8.78705201,5.97286544 L8.78705201,2.65469129 L7.60978651,2.65469129 L7.60978651,5.97286544 Z M7.75538799,2.17491293 C7.68026875,2.17491293 7.62912938,2.15439578 7.60289727,2.11127177 C7.58580665,2.09588391 7.57785752,2.07451187 7.57785752,2.04763061 L7.57785752,1.40646966 C7.57785752,1.36040106 7.59918767,1.32535092 7.64251041,1.3017942 C7.66397305,1.2902058 7.68835037,1.28469657 7.71511242,1.28469657 L8.69908169,1.28469657 C8.72054432,1.28469657 8.74200696,1.2902058 8.76320463,1.3017942 C8.77830797,1.30986807 8.79447119,1.32145646 8.80732228,1.33684433 C8.82070331,1.35270712 8.82785752,1.37531398 8.82785752,1.40646966 L8.82785752,2.02502375 C8.82785752,2.05570449 8.82308804,2.08059103 8.81142933,2.10015831 C8.78996669,2.14974142 8.74200696,2.17491293 8.66702021,2.17491293 L7.75538799,2.17491293 Z" id="Fill-6" fill="#FFFFFF" mask="url(#mask-4)"></path>
                                <path d="M11.225142,2.6546533 C11.2484137,2.6546533 11.289923,2.65712296 11.3494797,2.66320211 C11.4092264,2.66909129 11.4639388,2.69948707 11.5143768,2.7532496 L12.1153583,3.37142375 C12.1655113,3.42176675 12.1937224,3.47733404 12.1997066,3.53926544 C12.2050259,3.60119683 12.2075905,3.64137625 12.2075905,3.66018364 L12.2075905,5.97282744 L11.3582185,5.97282744 L11.3582185,3.82251609 C11.3582185,3.72591451 11.3223135,3.63444222 11.2514533,3.5481942 C11.1796433,3.46109129 11.0826617,3.41749235 10.9592739,3.41749235 L10.4274427,3.41749235 C10.3202026,3.42604116 10.245448,3.45681689 10.2050786,3.51067441 C10.1645193,3.56443694 10.1440021,3.62988285 10.1440021,3.70672718 L10.1440021,5.97282744 L9.29434512,5.97282744 L9.29434512,3.54477467 C9.29434512,3.52558734 9.29757467,3.48502797 9.30355884,3.4235715 C9.3088781,3.36154512 9.33689921,3.30597784 9.38724222,3.25601478 L9.87281478,2.7532496 C9.92296781,2.69948707 9.97768021,2.66909129 10.0372369,2.66320211 C10.0970786,2.65712296 10.1383029,2.6546533 10.1609098,2.6546533 L11.225142,2.6546533 Z" id="Fill-8" fill="#FFFFFF" mask="url(#mask-4)"></path>
                                <path d="M14.1559124,2.6546533 L14.8436169,2.6546533 C14.8666987,2.6546533 14.9087778,2.65712296 14.9677646,2.66320211 C15.0277963,2.66909129 15.0824137,2.69948707 15.1325668,2.7532496 L15.7340232,3.37142375 C15.7844612,3.42176675 15.8121024,3.47733404 15.8178016,3.53926544 C15.8237858,3.60119683 15.8261604,3.64137625 15.8261604,3.66018364 L15.8261604,5.97282744 L14.9765034,5.97282744 L14.9765034,3.82251609 C14.9765034,3.72591451 14.9410734,3.63444222 14.8699282,3.5481942 C14.7985931,3.46109129 14.7009467,3.41749235 14.5781288,3.41749235 L13.8953636,3.41749235 C13.8611683,3.41749235 13.8291578,3.43335515 13.8002818,3.46403588 C13.7715008,3.49443166 13.7571578,3.53119156 13.7571578,3.57431557 L13.7571578,5.97282744 L12.9071208,5.97282744 L12.9071208,1.32531293 L13.7571578,1.32531293 L13.7571578,2.83360844 C13.841981,2.76825752 13.9246195,2.72209393 14.0055483,2.69483272 C14.086477,2.6683314 14.1367251,2.6546533 14.1559124,2.6546533" id="Fill-9" fill="#FFFFFF" mask="url(#mask-4)"></path>
                                <path d="M17.3403356,5.03601055 C17.3403356,5.12881266 17.3657921,5.19112401 17.4162301,5.22436939 C17.4659082,5.25685488 17.5351536,5.27309763 17.6237763,5.27309763 L18.3295282,5.27309763 C18.3595441,5.27309763 18.3896549,5.26540369 18.4191008,5.25001583 C18.4475018,5.23472296 18.4659293,5.20394723 18.4739082,5.15778364 L18.4739082,4.62044327 C18.4584253,4.57000528 18.4137815,4.54521372 18.3402617,4.54521372 L17.5145414,4.54521372 C17.4717024,4.54521372 17.4392169,4.55338259 17.4162301,4.56829551 C17.3924834,4.58368338 17.3753858,4.600781 17.3640823,4.62044327 C17.3523989,4.63915567 17.3453699,4.65805805 17.3436602,4.67506069 C17.3416654,4.69215831 17.3403356,4.70460158 17.3403356,4.71277045 L17.3403356,5.03601055 Z M18.4568106,2.65469129 C18.5796285,2.6589657 18.6762301,2.6913562 18.7454755,2.75290765 L19.230953,3.14026385 C19.2807261,3.19022691 19.3087472,3.24617414 19.3144464,3.30820053 C19.3202406,3.36965699 19.3233752,3.41031135 19.3233752,3.42949868 L19.3233752,5.256 C19.3233752,5.30216359 19.3179609,5.35345646 19.3057077,5.40902375 C19.2947842,5.46449604 19.2564095,5.5216781 19.1902037,5.57943008 L18.7623831,5.93259103 C18.7432908,5.94759894 18.7085256,5.95833245 18.6584675,5.96393668 C18.6084095,5.96935092 18.5456232,5.97277045 18.467734,5.97277045 L17.3580032,5.97277045 C17.3035757,5.97277045 17.2521879,5.96688127 17.2017499,5.95576781 C17.1520718,5.94379947 17.1112274,5.92841161 17.0806417,5.90912929 L16.6763778,5.60289182 C16.5873752,5.5375409 16.5360823,5.4756095 16.5225942,5.41757256 C16.5090111,5.35982058 16.502267,5.30985752 16.502267,5.26758839 L16.502267,4.59137731 C16.502267,4.50636412 16.5189847,4.44272296 16.5518501,4.40083377 C16.5841456,4.35808971 16.6165361,4.32531926 16.6471219,4.30214248 L17.0924201,3.92077045 C17.1229108,3.88999472 17.1659398,3.86947757 17.2197024,3.86045383 C17.2735599,3.85029024 17.3119346,3.8455409 17.3347314,3.8455409 L18.0110375,3.8455409 C18.1070691,3.8455409 18.1952169,3.86472823 18.2748158,3.90319789 C18.352895,3.94166755 18.4200507,3.98821108 18.4739082,4.0420686 L18.4739082,3.78151979 C18.4659293,3.65841689 18.4340137,3.56362005 18.3779715,3.49522955 C18.3224992,3.4286438 18.2440401,3.39112401 18.144019,3.38343008 L16.9709319,3.38343008 L16.9709319,2.65469129 L18.4568106,2.65469129 Z" id="Fill-10" fill="#FFFFFF" mask="url(#mask-4)"></path>
                                <path d="M21.9592591,2.6546533 C21.9826259,2.6546533 22.0236602,2.65712296 22.0832169,2.66320211 C22.1431536,2.66909129 22.197866,2.69948707 22.248114,2.7532496 L22.8495704,3.37142375 C22.8994385,3.42176675 22.9274596,3.47733404 22.9334438,3.53926544 C22.939143,3.60119683 22.9418026,3.64137625 22.9418026,3.66018364 L22.9418026,5.97282744 L22.0922406,5.97282744 L22.0922406,3.82251609 C22.0922406,3.72591451 22.0564306,3.63444222 21.9855704,3.5481942 C21.9137604,3.46109129 21.8167789,3.41749235 21.693391,3.41749235 L21.1615599,3.41749235 C21.0539398,3.42604116 20.9795652,3.45681689 20.9392908,3.51067441 C20.8982565,3.56443694 20.8782142,3.62988285 20.8782142,3.70672718 L20.8782142,5.97282744 L20.0287472,5.97282744 L20.0287472,3.54477467 C20.0287472,3.52558734 20.0316918,3.48502797 20.0369161,3.4235715 C20.0429953,3.36154512 20.0710164,3.30597784 20.1208844,3.25601478 L20.6070269,2.7532496 C20.656705,2.69948707 20.7112274,2.66909129 20.7709741,2.66320211 C20.8309108,2.65712296 20.872515,2.6546533 20.8953119,2.6546533 L21.9592591,2.6546533 Z" id="Fill-11" fill="#FFFFFF" mask="url(#mask-4)"></path>
                                <path d="M23.6931388,5.10567388 L23.6931388,2.53922533 C23.6931388,2.51956306 23.6962734,2.47947863 23.7024475,2.41802216 C23.7075768,2.35647071 23.7355979,2.30004855 23.7859409,2.25046544 L24.2710385,1.74694037 C24.3216665,1.69308285 24.3763789,1.66278206 24.4359356,1.65765277 C24.4956823,1.65214354 24.5378565,1.64900897 24.5600834,1.64900897 L25.8087799,1.64900897 C25.8242628,1.64900897 25.8667219,1.65128865 25.9360623,1.65461319 C26.0053077,1.65850765 26.0726533,1.68149446 26.1384792,1.72423852 L26.7512391,2.14028074 L26.369677,2.72976887 L25.8435451,2.4581066 C25.8132443,2.43891926 25.7674607,2.42657098 25.7082839,2.42049182 C25.6479673,2.41545752 25.6025636,2.41203799 25.5716929,2.41203799 L24.8029646,2.41203799 C24.7107325,2.41203799 24.6443367,2.43977414 24.6038723,2.49572137 C24.5632179,2.55119367 24.5426058,2.59906702 24.5426058,2.63715673 L24.5426058,5.02455515 C24.5503947,5.06729921 24.5737615,5.11251293 24.612991,5.16038628 C24.6506058,5.20863958 24.7144369,5.2329562 24.8029646,5.2329562 L25.606458,5.2329562 C25.6372338,5.2329562 25.6826375,5.22963166 25.7423842,5.22440739 C25.8019409,5.21842322 25.8476296,5.20607493 25.8785953,5.18679261 L26.4043472,4.9147504 L26.7854343,5.50461847 L26.1727694,5.92066069 C26.1080834,5.96254987 26.0399778,5.98648654 25.9708274,5.99028602 C25.9013921,5.99380053 25.858933,5.99589024 25.8435451,5.99589024 L24.5600834,5.99589024 C24.5378565,5.99589024 24.4956823,5.99294565 24.4359356,5.98734142 C24.3763789,5.98135726 24.3216665,5.95181636 24.2710385,5.89805383 L23.7859409,5.39443377 C23.7355979,5.34494565 23.7075768,5.28852348 23.7024475,5.2264971 C23.6962734,5.16551557 23.6931388,5.12448127 23.6931388,5.10567388" id="Fill-12" fill="#FFFFFF" mask="url(#mask-4)"></path>
                                <path d="M28.0513995,5.03601055 C28.0513995,5.12881266 28.0768559,5.19112401 28.126914,5.22436939 C28.176972,5.25685488 28.2462174,5.27309763 28.3348401,5.27309763 L29.0400222,5.27309763 C29.0706079,5.27309763 29.1003388,5.26540369 29.1298797,5.25001583 C29.1585657,5.23472296 29.1766132,5.20394723 29.1845921,5.15778364 L29.1845921,4.62044327 C29.1692042,4.57000528 29.1244654,4.54521372 29.0509456,4.54521372 L28.2246554,4.54521372 C28.1827662,4.54521372 28.1499008,4.55338259 28.126914,4.56829551 C28.1035472,4.58368338 28.0864496,4.600781 28.0747662,4.62044327 C28.0634628,4.63915567 28.0564338,4.65805805 28.054724,4.67506069 C28.0523493,4.69215831 28.0513995,4.70460158 28.0513995,4.71277045 L28.0513995,5.03601055 Z M29.1674945,2.65469129 C29.2906923,2.6589657 29.387009,2.6913562 29.4563493,2.75290765 L29.9420169,3.14026385 C29.99179,3.19022691 30.0198111,3.24617414 30.0255103,3.30820053 C30.0309245,3.36965699 30.0344391,3.41031135 30.0344391,3.42949868 L30.0344391,5.256 C30.0344391,5.30216359 30.0281699,5.35345646 30.0163916,5.40902375 C30.0054681,5.46449604 29.9670934,5.5216781 29.9012675,5.57943008 L29.473447,5.93259103 C29.4543546,5.94759894 29.4195894,5.95833245 29.3695314,5.96393668 C29.3190934,5.96935092 29.2564021,5.97277045 29.178228,5.97277045 L28.069067,5.97277045 C28.0146396,5.97277045 27.9632517,5.96688127 27.9128137,5.95576781 C27.8627557,5.94379947 27.8222913,5.92841161 27.7917055,5.90912929 L27.3866818,5.60289182 C27.2979641,5.5375409 27.2465763,5.4756095 27.233658,5.41757256 C27.2200749,5.35982058 27.2134259,5.30985752 27.2134259,5.26758839 L27.2134259,4.59137731 C27.2134259,4.50636412 27.2295736,4.44272296 27.262914,4.40083377 C27.2952095,4.35808971 27.3271251,4.32531926 27.3580908,4.30214248 L27.803009,3.92077045 C27.8339747,3.88999472 27.8766237,3.86947757 27.9304813,3.86045383 C27.9842438,3.85029024 28.0226185,3.8455409 28.0455103,3.8455409 L28.7221013,3.8455409 C28.818133,3.8455409 28.9057108,3.86472823 28.9854997,3.90319789 C29.0639588,3.94166755 29.1307346,3.98821108 29.1845921,4.0420686 L29.1845921,3.78151979 C29.1766132,3.65841689 29.1450776,3.56362005 29.0886554,3.49522955 C29.0331831,3.4286438 28.955104,3.39112401 28.8548929,3.38343008 L27.6814259,3.38343008 L27.6814259,2.65469129 L29.1674945,2.65469129 Z" id="Fill-13" fill="#FFFFFF" mask="url(#mask-4)"></path>
                                <path d="M32.6643768,2.6546533 L32.6643768,3.41749235 L31.9185404,3.41749235 C31.8112053,3.42604116 31.7283768,3.46109129 31.6729045,3.52473245 C31.6176222,3.58837361 31.5893161,3.68753984 31.5893161,3.82251609 L31.5893161,5.97282744 L30.7393741,5.97282744 L30.7393741,3.54477467 C30.7393741,3.52558734 30.7427937,3.48502797 30.7481129,3.4235715 C30.7539071,3.36154512 30.7819282,3.30597784 30.8319863,3.25601478 L31.3176538,2.7532496 C31.3676169,2.69948707 31.4227092,2.66909129 31.4826459,2.66320211 C31.5424876,2.65712296 31.583142,2.6546533 31.6066987,2.6546533 L32.6643768,2.6546533 Z" id="Fill-14" fill="#FFFFFF" mask="url(#mask-4)"></path>
                                <path d="M34.9817224,3.41752084 L34.2420602,3.41752084 C34.1188623,3.41752084 34.0353689,3.44525699 33.9906301,3.49863958 C33.9468412,3.55344697 33.9240443,3.62164749 33.9240443,3.70675567 L33.9240443,4.92116201 C33.9240443,5.00570026 33.9468412,5.07485066 33.9906301,5.12880317 C34.0353689,5.1825657 34.1188623,5.21030185 34.2420602,5.21030185 L34.8034322,5.21030185 C34.9262501,5.21030185 35.0097435,5.1825657 35.0542923,5.12880317 C35.0985562,5.07485066 35.1210681,5.00570026 35.1210681,4.92116201 L35.1210681,3.57386913 C35.1210681,3.53112507 35.1063451,3.49446016 35.0780391,3.46406438 C35.0488781,3.43338364 35.0167726,3.41752084 34.9817224,3.41752084 L34.9817224,3.41752084 Z M33.9420918,5.97276095 C33.9185351,5.97276095 33.8773108,5.97019631 33.8175641,5.96392718 C33.7574375,5.9587029 33.7027251,5.92840211 33.652667,5.87406966 L33.1672844,5.37130449 C33.1176063,5.32143641 33.0895852,5.26586913 33.0835061,5.20393773 C33.077142,5.14238628 33.0751472,5.10182691 33.0751472,5.08301953 L33.0751472,3.54480317 C33.0751472,3.52609077 33.077142,3.48505646 33.0835061,3.42350501 C33.0895852,3.36195356 33.1176063,3.30600633 33.1672844,3.25604327 L33.652667,2.7532781 C33.7027251,2.69913562 33.7574375,2.66911979 33.8175641,2.66323061 C33.8773108,2.65715145 33.9185351,2.65468179 33.9420918,2.65468179 L34.7220285,2.65468179 C34.7416908,2.65468179 34.7909889,2.66826491 34.8724876,2.69524116 C34.9533214,2.72212243 35.0364348,2.76866596 35.1210681,2.83401689 L35.1210681,1.32534142 L35.9707251,1.32534142 L35.9707251,5.08301953 C35.9707251,5.10182691 35.9677805,5.14238628 35.9625562,5.20393773 C35.9559071,5.26586913 35.928266,5.32143641 35.8784929,5.37130449 L35.3924454,5.87406966 C35.3421974,5.92840211 35.2876749,5.9587029 35.2279282,5.96392718 C35.1685615,5.97019631 35.1269573,5.97276095 35.1034005,5.97276095 L33.9420918,5.97276095 Z" id="Fill-15" fill="#FFFFFF" mask="url(#mask-4)"></path>
                            </g>
                        </g>
                    </g>
                </g>
            </g>
        </g>
    </g>
</svg>