<svg width="40" height="40" xmlns="http://www.w3.org/2000/svg" xmlns:xlink="http://www.w3.org/1999/xlink">
    <defs>
        <path id="a" d="M0 0h26.667v13.689H0z"/>
    </defs>
    <g fill="none" fill-rule="evenodd">
        <circle fill="#B30000" cx="20" cy="20" r="20"/>
        <g transform="translate(6.667 13.333)">
            <mask id="b" fill="#fff">
                <use xlink:href="#a"/>
            </mask>
            <path d="M13.39 12.176C6.52 12.176.953 9.804.953 6.878.953 3.953 6.52 1.58 13.39 1.58c6.868 0 12.437 2.372 12.437 5.297 0 2.926-5.569 5.298-12.437 5.298M13.333 0C5.969 0 0 3.064 0 6.844c0 3.781 5.97 6.845 13.333 6.845 7.364 0 13.334-3.064 13.334-6.845 0-3.78-5.97-6.844-13.334-6.844" fill="#FFF" mask="url(#b)"/>
        </g>
        <path d="M24.409 17.458a.182.182 0 0 0 .016-.062.139.139 0 0 0-.138-.139v-.001l-.184.001a.027.027 0 0 1-.028-.027v-.326c0-.015.012-.028.028-.028h2.498c.075 0 .147.014.171.091l2.168 6.327c.002.01.004.024.004.036a.12.12 0 0 1-.12.121h.003l-1.564.002c-.074 0-.155-.063-.18-.14l-1.34-4.082c-.009-.036-.03-.065-.068-.065-.038 0-.06.027-.069.065l-1.338 4.082c-.025.077-.106.14-.182.14l-1.56-.001a.122.122 0 0 1-.116-.157l1.999-5.837zM19.202 17.452v-.06a.139.139 0 0 0-.14-.136h-.207a.028.028 0 0 1-.028-.028v-.326c0-.014.013-.027.028-.027h2.069c.076 0 .137.062.137.138v6.301a.138.138 0 0 1-.137.138h-1.586a.137.137 0 0 1-.136-.138v-5.862zM17.859 23.452h-1.826c-.076 0-.182-.063-.237-.14l-1.823-2.505c-.031-.028-.033-.038-.054-.055a.098.098 0 0 0-.052-.015c-.046 0-.075.035-.075.084v.033-.003l.002 2.464a.138.138 0 0 1-.137.137h-1.538a.137.137 0 0 1-.137-.137l.001-5.923a.136.136 0 0 0-.135-.138h.004-.215a.028.028 0 0 1-.028-.027v-.324c0-.016.012-.028.028-.028h2.02c.075 0 .137.062.137.138v2.061-.003.033c0 .049.028.085.075.085a.097.097 0 0 0 .052-.016c.02-.017.022-.027.053-.055l.252-.347 1.26-1.757c.055-.076.161-.138.237-.138h1.749c.066 0 .117.054.117.122a.126.126 0 0 1-.019.067l-1.933 2.812a.13.13 0 0 0-.032.085c0 .033.008.052.03.08l2.314 3.207c.02.022.03.048.03.08a.12.12 0 0 1-.12.123" fill="#FFF"/>
    </g>
</svg>
