<?xml version="1.0" encoding="UTF-8"?>
<svg width="40px" height="40px" viewBox="0 0 40 40" version="1.1" xmlns="http://www.w3.org/2000/svg" xmlns:xlink="http://www.w3.org/1999/xlink">
    <title>07F02955-EAE2-4C87-850C-A046C92F3CC3</title>
    <defs>
        <path d="M0.285642857,5.69378571 C0.0992142857,5.98907143 0.0015,6.37928571 0,6.77121429 L0,6.77121429 L0,6.78964286 C0.0015,7.17021429 0.0938571429,7.55121429 0.283928571,7.84735714 L0.283928571,7.84735714 L4.41728571,14.3423571 C4.791,14.9183571 5.64792857,15.4172143 6.52135714,15.4172143 L6.52135714,15.4172143 L12.06,15.4172143 L4.47921429,3.51814286 C3.92764286,2.65671429 3.48192857,0.867214286 3.9195,1.04083409e-16 L3.9195,1.04083409e-16 L0.285642857,5.69378571 Z" id="path-1"></path>
        <path d="M6.51621429,-1.79078571 C5.55107143,-1.79078571 4.78564286,-1.36521429 4.37464286,-0.713785714 L4.37464286,-0.713785714 L3.9195,8.37108161e-14 C3.48192857,0.867214286 3.92764286,2.65671429 4.47921429,3.51814286 L4.47921429,3.51814286 L7.04035714,7.53664286 C6.73435714,6.9285 6.91757143,6.17785714 7.11792857,5.86307143 L7.11792857,5.86307143 L11.9635714,-1.79078571 L6.51621429,-1.79078571 Z" id="path-3"></path>
        <path d="M10.2332143,-4.506 L17.8135714,7.392 C18.3653571,8.25192857 18.8104286,10.0418571 18.3728571,10.9088571 L18.3728571,10.9088571 L22.0077857,5.2155 C22.1937857,4.92064286 22.2915,4.53128571 22.2934286,4.14 L22.2934286,4.14 L22.2934286,4.11857143 C22.2917143,3.73885714 22.1995714,3.35914286 22.0099286,3.06428571 L22.0099286,3.06428571 L17.8757143,-3.4335 C17.5009286,-4.00821429 16.6448571,-4.506 15.7720714,-4.506 L15.7720714,-4.506 L10.2332143,-4.506 Z" id="path-5"></path>
        <path d="M15.1748571,5.04642857 L10.3294286,12.7013571 L15.7765714,12.7013571 C16.7423571,12.7013571 17.5071429,12.2753571 17.9179286,11.6230714 L17.9179286,11.6230714 L18.3728571,10.9088571 C18.8104286,10.0418571 18.3653571,8.25192857 17.8135714,7.392 L17.8135714,7.392 L15.2532857,3.37264286 C15.5584286,3.9825 15.3754286,4.73207143 15.1748571,5.04642857" id="path-7"></path>
    </defs>
    <g id="WSG" stroke="none" stroke-width="1" fill="none" fill-rule="evenodd">
        <g id="20Icon_기관로고" transform="translate(-80.000000, -366.000000)">
            <g id="#-Con" transform="translate(79.500000, 136.000000)">
                <g id="은행" transform="translate(0.500000, 144.000000)">
                    <g id="산업은행" transform="translate(0.000000, 54.000000)">
                        <g id="Group" transform="translate(0.000000, 32.000000)">
                            <circle id="Oval" fill="#033878" cx="20" cy="20" r="20"></circle>
                            <g id="Group-13" transform="translate(8.750000, 14.720200)">
                                <mask id="mask-2" fill="white">
                                    <use xlink:href="#path-1"></use>
                                </mask>
                                <g id="Clip-2"></g>
                                <path d="M0.285642857,5.69378571 C0.0992142857,5.98907143 0.0015,6.37928571 0,6.77121429 L0,6.77121429 L0,6.78964286 C0.0015,7.17021429 0.0938571429,7.55121429 0.283928571,7.84735714 L0.283928571,7.84735714 L4.41728571,14.3423571 C4.791,14.9183571 5.64792857,15.4172143 6.52135714,15.4172143 L6.52135714,15.4172143 L12.06,15.4172143 L4.47921429,3.51814286 C3.92764286,2.65671429 3.48192857,0.867214286 3.9195,1.04083409e-16 L3.9195,1.04083409e-16 L0.285642857,5.69378571 Z" id="Fill-1" fill="#FFFFFF" mask="url(#mask-2)"></path>
                                <mask id="mask-4" fill="white">
                                    <use xlink:href="#path-3"></use>
                                </mask>
                                <g id="Clip-5"></g>
                                <path d="M6.51621429,-1.79078571 C5.55107143,-1.79078571 4.78564286,-1.36521429 4.37464286,-0.713785714 L4.37464286,-0.713785714 L3.9195,8.37108161e-14 C3.48192857,0.867214286 3.92764286,2.65671429 4.47921429,3.51814286 L4.47921429,3.51814286 L7.04035714,7.53664286 C6.73435714,6.9285 6.91757143,6.17785714 7.11792857,5.86307143 L7.11792857,5.86307143 L11.9635714,-1.79078571 L6.51621429,-1.79078571 Z" id="Fill-4" fill="#FFFFFF" mask="url(#mask-4)"></path>
                                <mask id="mask-6" fill="white">
                                    <use xlink:href="#path-5"></use>
                                </mask>
                                <g id="Clip-8"></g>
                                <path d="M10.2332143,-4.506 L17.8135714,7.392 C18.3653571,8.25192857 18.8104286,10.0418571 18.3728571,10.9088571 L18.3728571,10.9088571 L22.0077857,5.2155 C22.1937857,4.92064286 22.2915,4.53128571 22.2934286,4.14 L22.2934286,4.14 L22.2934286,4.11857143 C22.2917143,3.73885714 22.1995714,3.35914286 22.0099286,3.06428571 L22.0099286,3.06428571 L17.8757143,-3.4335 C17.5009286,-4.00821429 16.6448571,-4.506 15.7720714,-4.506 L15.7720714,-4.506 L10.2332143,-4.506 Z" id="Fill-7" fill="#FFFFFF" mask="url(#mask-6)"></path>
                                <mask id="mask-8" fill="white">
                                    <use xlink:href="#path-7"></use>
                                </mask>
                                <g id="Clip-11"></g>
                                <path d="M15.1748571,5.04642857 L10.3294286,12.7013571 L15.7765714,12.7013571 C16.7423571,12.7013571 17.5071429,12.2753571 17.9179286,11.6230714 L17.9179286,11.6230714 L18.3728571,10.9088571 C18.8104286,10.0418571 18.3653571,8.25192857 17.8135714,7.392 L17.8135714,7.392 L15.2532857,3.37264286 C15.5584286,3.9825 15.3754286,4.73207143 15.1748571,5.04642857" id="Fill-10" fill="#FFFFFF" mask="url(#mask-8)"></path>
                            </g>
                        </g>
                    </g>
                </g>
            </g>
        </g>
    </g>
</svg>