<?xml version="1.0" encoding="UTF-8"?>
<svg width="40px" height="40px" viewBox="0 0 40 40" version="1.1" xmlns="http://www.w3.org/2000/svg" xmlns:xlink="http://www.w3.org/1999/xlink">
    <title>61E1512A-B155-4F9B-BC77-8AC40BEE8D7A</title>
    <defs>
        <polygon id="path-1" points="0 -4.37150316e-16 20.0403646 -4.37150316e-16 20.0403646 15.2559583 0 15.2559583"></polygon>
    </defs>
    <g id="WSG" stroke="none" stroke-width="1" fill="none" fill-rule="evenodd">
        <g id="20Icon_기관로고" transform="translate(-572.000000, -1450.000000)">
            <g id="#-Con" transform="translate(79.500000, 136.000000)">
                <g id="증권" transform="translate(0.500000, 918.000000)">
                    <g id="하이투자증권" transform="translate(492.000000, 363.000000)">
                        <g id="icon_32_stock_hi" transform="translate(0.000000, 33.000000)">
                            <circle id="Oval" fill="#044DA1" cx="20" cy="20" r="20"></circle>
                            <g id="Group-8" transform="translate(7.500000, 10.520833)">
                                <path d="M22.1261458,9.79151042 C21.3297917,9.46026042 20.4141667,9.83734375 20.0834375,10.6347396 L17.0297917,17.9706771 C16.6990625,18.7675521 17.0761458,19.6821354 17.8719792,20.0123438 C18.6683333,20.3446354 19.5839583,19.9691146 19.9146875,19.1696354 L22.9683333,11.8342188 C23.3001042,11.0368229 22.9214583,10.1222396 22.1261458,9.79151042" id="Fill-1" fill="#FFFFFF"></path>
                                <g id="Group-5">
                                    <mask id="mask-2" fill="white">
                                        <use xlink:href="#path-1"></use>
                                    </mask>
                                    <g id="Clip-4"></g>
                                    <path d="M3.97682292,12.1146875 C3.56276042,12.0292708 3.12265625,11.6297917 3.12265625,11.0542708 C3.12265625,10.6152083 3.25390625,10.2870833 3.54713542,9.99802083 C4.12526042,9.42197917 5.16796875,9.11520833 6.07369792,8.96364583 L5.12734375,11.2407292 C5.12526042,11.2422917 5.12526042,11.2422917 5.12526042,11.2459375 C4.92005208,11.7110417 4.55755208,12.2355208 3.97682292,12.1146875 L3.97682292,12.1146875 Z M18.4783854,8.82614583 C19.3414063,8.82614583 20.0403646,8.12770833 20.0403646,7.26364583 C20.0403646,6.40114583 19.3414063,5.70322917 18.4783854,5.70322917 L17.5122396,5.70322917 L18.9856771,2.1615625 C19.3174479,1.36625 18.9408854,0.4521875 18.1429688,0.120416667 C17.3486979,-0.211354167 16.4330729,0.165729167 16.1028646,0.962083333 L14.1283854,5.70322917 L10.8132813,5.70322917 L12.2877604,2.1615625 C12.6190104,1.36625 12.2419271,0.4521875 11.4445313,0.120416667 C10.6486979,-0.211354167 9.73463542,0.165729167 9.40442708,0.962083333 L7.43046875,5.70322917 C6.64765625,5.71364583 3.28203125,5.86208333 1.35182292,7.77614583 C0.46796875,8.65166667 -0.000260416666,9.7865625 -0.000260416666,11.0542708 C-0.000260416666,13.0438542 1.40807292,14.7761458 3.34869792,15.1725 C5.29817708,15.5735417 7.12526042,14.506875 8.00390625,12.4542708 C8.00390625,12.45375 8.00390625,12.4527083 8.00494792,12.4516667 C8.00494792,12.4485417 8.00755208,12.444375 8.01015625,12.4417708 L9.51432292,8.82614583 L12.8304688,8.82614583 L11.6049479,11.8209375 C11.2736979,12.61625 11.6497396,13.5313542 12.4466146,13.8615625 C13.2434896,14.1933333 14.1570313,13.8178125 14.4893229,13.0209375 L16.2122396,8.82614583 L18.4783854,8.82614583 Z" id="Fill-3" fill="#FFFFFF" mask="url(#mask-2)"></path>
                                </g>
                                <path d="M24.9602083,7.35776042 C24.9346875,8.37390625 24.0878125,9.17703125 23.070625,9.15098958 C22.0523958,9.12546875 21.2477083,8.27963542 21.2758333,7.26192708 C21.3013542,6.24578125 22.1461458,5.44109375 23.1648958,5.46817708 C24.1815625,5.49369792 24.98625,6.33848958 24.9602083,7.35776042" id="Fill-6" fill="#EC145A"></path>
                            </g>
                        </g>
                    </g>
                </g>
            </g>
        </g>
    </g>
</svg>