<svg width="40" height="40" xmlns="http://www.w3.org/2000/svg" xmlns:xlink="http://www.w3.org/1999/xlink">
    <defs>
        <path id="a" d="M0 0h17.928v23.261H0z"/>
    </defs>
    <g fill="none" fill-rule="evenodd">
        <circle fill="#632D00" cx="20" cy="20" r="20"/>
        <path d="M17.725 23.477c.236 0 .65.197 1.215.809 2.925 3.181 6.216 5.696 8.981 7.216.399.22.619.382.619.59 0 .159-.022.317-.367.317-.622 0-4.11-.687-5.033-1.12-.925-.435-2.92-2.053-5.297-6.15-.27-.463-.553-.863-.553-1.233 0-.37.336-.429.435-.429" fill="#659AD1"/>
        <g transform="translate(10 9.167)">
            <mask id="b" fill="#fff">
                <use xlink:href="#a"/>
            </mask>
            <path d="M15.625 2.601s.578 1.142-5.055 1.935l1.018-2.885C11.948.61 11.141 0 10.56 0 9.976 0 9.553.446 9.31 1.008L7.636 4.841c-2.196.147-3.826.07-4.56-.003-1.023-.103-1.285.463-1.285 1.042 0 1.006 1.775 2.028 2.909 1.916.716-.068 1.13-.098 1.711-.158L.185 21.875c-.237.533-.429 1.386.64 1.386 1.07 0 3.476-.976 3.876-2.108.172-.477 1.412-3.992 2.794-7.91.681-.135 3.198-.522 3.9-.522.663 0 1.003.299 1.003.652 0 .82-1.965 3.17-5.777 6.072-.418.318-.071.57.144.57.586 0 3.213-1.8 4.516-2.784 1.43-1.078 3.925-3.89 3.925-5.863 0-.778-.345-1.492-1.908-1.492-1.515 0-4.188.337-4.758.409.37-1.052.735-2.084 1.076-3.047 2.947-.408 4.707-.673 5.742-.892 1.425-.301 2.57-1.12 2.57-1.965 0-1.8-2.303-1.78-2.303-1.78" fill="#FFF" mask="url(#b)"/>
        </g>
    </g>
</svg>
