<svg width="40" height="40" xmlns="http://www.w3.org/2000/svg" xmlns:xlink="http://www.w3.org/1999/xlink">
    <defs>
        <path id="a" d="M0 0h5.758v4.166H0z"/>
        <path id="c" d="M0 0h5.677v4.005H0z"/>
    </defs>
    <g fill="none" fill-rule="evenodd">
        <circle fill="#0060A8" cx="20" cy="20" r="20"/>
        <path fill="#FFF" d="M31.802 16.255H28.45v.887h3.055l-.094 2.148h1.034l.127-3.035z"/>
        <path fill="#FFF" d="M33.29 16v4.97H31.85v.828h1.441v1.363h1.096v-7.16z"/>
        <path fill="#FFF" d="M28.856 20.977v3.566H34.386v-.915h-4.465v-2.651z"/>
        <path fill="#FFF" d="M30.407 22.523h.994v-2.008h1.628v-.879h-4.812v.88h2.19zM21.044 20.489h6.406v-.85h-6.406zM11.054 16v4.492h1.108v-1.8h.935v-.916h-.935V16zM6.967 24.542h5.195v-3.677H6.967v3.677zm1.061-.897h3.073v-1.884H8.028v1.884zM18.538 16v1.777H17.15v.916h1.404v1.8h1.088V16z"/>
        <g transform="translate(14.042 20.609)">
            <mask id="b" fill="#fff">
                <use xlink:href="#a"/>
            </mask>
            <path d="M2.88 3.25c-.988 0-1.791-.524-1.791-1.17 0-.64.803-1.16 1.791-1.16.99 0 1.793.52 1.793 1.16 0 .646-.803 1.17-1.793 1.17m0-3.25C1.287 0 0 .932 0 2.08c0 1.156 1.287 2.086 2.88 2.086 1.59 0 2.878-.93 2.878-2.085C5.758.932 4.47 0 2.88 0" fill="#FFF" mask="url(#b)"/>
        </g>
        <path d="M7.939 18.389c.329 1.043 1.77 1.994 1.77 1.994l.567-.781c-1.97-1.006-1.824-3.438-1.824-3.438H7.428s.147 2.432-1.828 3.438l.57.78s1.44-.95 1.769-1.993M15.283 18.389c.325 1.043 1.645 1.917 1.645 1.917l.57-.785c-1.852-.925-1.707-3.357-1.707-3.357h-1.023s.148 2.432-1.702 3.357l.566.785s1.325-.874 1.65-1.917" fill="#FFF"/>
        <g transform="translate(21.417 20.77)">
            <mask id="d" fill="#fff">
                <use xlink:href="#c"/>
            </mask>
            <path d="M2.84 3.125c-.978 0-1.766-.505-1.766-1.123 0-.619.788-1.119 1.767-1.119.97 0 1.767.5 1.767 1.12 0 .617-.797 1.122-1.767 1.122M2.84 0C1.268 0 0 .897 0 2.002 0 3.11 1.268 4.006 2.84 4.006c1.567 0 2.837-.897 2.837-2.004C5.677.897 4.407 0 2.84 0" fill="#FFF" mask="url(#d)"/>
        </g>
        <path d="m21.36 18.44.196.867s2.272-.398 2.696-1.444c.422 1.046 2.686 1.444 2.686 1.444l.203-.867c-1.971-.31-2.223-1.256-2.223-1.256h2.19v-.904h-5.714v.904h2.192s-.255.946-2.226 1.256" fill="#FFF"/>
    </g>
</svg>
