<?xml version="1.0" encoding="UTF-8"?>
<svg width="40px" height="40px" viewBox="0 0 40 40" version="1.1" xmlns="http://www.w3.org/2000/svg" xmlns:xlink="http://www.w3.org/1999/xlink">
    <title>ADF4FDF0-D983-41BF-8D77-B4852EFCBF88</title>
    <defs>
        <polygon id="path-1" points="0 -3.81639165e-16 11.8540283 -3.81639165e-16 11.8540283 11.3089758 0 11.3089758"></polygon>
    </defs>
    <g id="WSG" stroke="none" stroke-width="1" fill="none" fill-rule="evenodd">
        <g id="20Icon_기관로고" transform="translate(-691.000000, -754.000000)">
            <g id="#-Con" transform="translate(79.500000, 136.000000)">
                <g id="저축은행" transform="translate(0.500000, 531.000000)">
                    <g id="OSB" transform="translate(611.000000, 54.000000)">
                        <g id="icon_32_saving_osb" transform="translate(0.000000, 33.000000)">
                            <circle id="Oval" fill="#F8F8F8" cx="20" cy="20" r="20"></circle>
                            <g id="Group-18" transform="translate(8.000000, 6.400027)">
                                <path d="M23.8387628,11.7179443 C23.5230156,12.5287537 23.4573502,12.6976386 22.4365026,13.3698527 L22.4125026,13.3328221 L22.4344506,13.371111 L17.1239375,16.4499578 L12.1139152,19.3547965 L17.3071941,22.3849281 C18.3693502,22.9260969 18.5426141,22.899762 19.3739599,22.7733904 C19.5191197,22.7512799 19.6838186,22.7263831 19.875997,22.7006773 L19.8765323,22.7037333 L22.3781532,21.2485726 C23.2112833,20.7640284 23.8889041,19.5813845 23.8889041,18.6122061 L23.8889041,11.589056 C23.8715063,11.6335467 23.8546439,11.676869 23.8387628,11.7179443" id="Fill-1" fill="#0D345D"></path>
                                <path d="M6.71357621,22.5586936 L6.7573829,22.5564466 L6.71348699,22.5562668 L6.72990335,10.4948813 L1.52145725,13.5146767 C0.525144981,14.1708922 0.461174721,14.3350134 0.154081784,15.1237123 C0.10929368,15.2390286 0.0587063197,15.3684561 0,15.5134329 L0,18.6122331 C0,19.5814114 0.677799257,20.7640553 1.51084015,21.2485996 L7.55616357,24.7648034 C7.51280297,24.7095271 7.47131599,24.6570371 7.43250558,24.6080523 C6.89326394,23.9271198 6.78102602,23.7853787 6.71357621,22.5586936" id="Fill-3" fill="#0D345D"></path>
                                <path d="M17.1405234,4.2838708 C17.0746796,3.08666634 16.9653859,2.94870021 16.4409546,2.28646278 C16.3781442,2.20718843 16.30891,2.11955523 16.2336981,2.02266435 L13.4554082,0.406707972 C13.0541888,0.173468815 12.517713,0.0449401074 11.944568,0.0449401074 C11.371423,0.0449401074 10.834858,0.173468815 10.4337279,0.406707972 L4.3272,4.0103653 C4.47922974,3.98933333 4.52499926,3.96893052 4.64526691,3.95068484 C5.50016654,3.82062817 5.67815911,3.79357423 6.76636729,4.34813515 L6.74647138,4.3874128 L6.76859777,4.34921371 L11.9432297,7.36855977 L11.9532223,7.36280743 L11.9632149,7.38015432 L17.1321368,10.3960849 L17.1405234,4.2838708 Z" id="Fill-5" fill="#0D345D"></path>
                                <path d="M11.9958602,7.34734804 L17.0876074,10.3181588 L17.0959048,4.2838708 C17.0308639,3.10329418 16.9232654,2.96748517 16.4061502,2.31459529 C16.3446781,2.23702867 16.2770498,2.1514627 16.20389,2.05726824 L13.4330944,0.445715985 C13.0386558,0.216251797 12.509942,0.0898802148 11.9445591,0.0898802148 C11.3791762,0.0898802148 10.8505517,0.216251797 10.4560238,0.445715985 L4.57272268,3.9176988 C4.59261859,3.91365419 4.61412045,3.9099691 4.63856654,3.90628401 C4.93887881,3.86062487 5.155771,3.82763883 5.35999405,3.82763883 C5.7290052,3.82763883 6.0446632,3.93189988 6.75110186,4.28998265 L6.75235093,4.28791541 L6.82640297,4.32827162 L6.82533234,4.33042875 L11.94331,7.316609 L11.9696297,7.30132937 L11.9958602,7.34734804 Z M17.1766483,10.4740111 L6.73084907,4.38040215 C6.02521338,4.02160033 5.7160684,3.91751904 5.35999405,3.91751904 C5.16246245,3.91751904 4.94833606,3.9499658 4.65194944,3.99508567 C4.59904238,4.00317489 4.56094572,4.01162363 4.52151078,4.02034201 C4.47101264,4.03139727 4.41873011,4.04299182 4.33325799,4.05494589 L4.11136952,4.08568492 L10.4111465,0.367969599 C10.8192357,0.130595952 11.3637413,0 11.9445591,0 C12.5254662,0 13.0698825,0.130595952 13.4777041,0.367969599 L16.2634885,1.98806047 L16.2688416,1.99507113 C16.3438751,2.09178224 16.4130201,2.17923569 16.4759197,2.25859992 C17.0077561,2.930095 17.1183881,3.06976886 17.1850349,4.28144403 L17.1766483,10.4740111 Z" id="Fill-7" fill="#1E2087"></path>
                                <path d="M17.2660729,22.4647777 L17.2859688,22.4255001 L17.2640208,22.4636992 L11.9120208,19.3681347 L6.81117323,16.3646974 L6.80278662,22.5546579 C6.86863048,23.7518624 6.97783494,23.8898285 7.50226617,24.552066 C7.57970855,24.6498556 7.6666974,24.759869 7.76314349,24.8850722 L10.4337457,26.4384719 C10.8348758,26.6716212 11.3714409,26.80006 11.9444967,26.80006 C12.5176416,26.80006 13.0542959,26.6716212 13.455426,26.4382921 L19.6783851,22.8188159 C19.5731063,22.8340955 19.4761249,22.8486561 19.3873517,22.862228 C18.5322736,22.9922847 18.3543703,23.0193387 17.2660729,22.4647777" id="Fill-9" fill="#E20010"></path>
                                <g id="Group-13" transform="translate(0.000000, 3.963605)">
                                    <mask id="mask-2" fill="white">
                                        <use xlink:href="#path-1"></use>
                                    </mask>
                                    <g id="Clip-12"></g>
                                    <path d="M6.72534424,0.464388614 C5.6631881,-0.0767801593 5.49001338,-0.0505351366 4.65848922,0.0759263256 C4.51350781,0.0980368585 4.34889814,0.122933678 4.15654126,0.148549539 L1.51083123,1.63283141 C0.677790335,2.1175554 -8.92193308e-06,3.30001951 -8.92193308e-06,4.26919787 L-8.92193308e-06,11.3089758 C0.02506171,11.2452507 0.0488832714,11.1842221 0.0710988848,11.1273279 C0.386846097,10.3162488 0.452511524,10.1475437 1.47326989,9.47541943 L1.49726989,9.51245008 L1.47541115,9.47398134 L6.73007286,6.42740158 L6.73007286,6.41382967 L6.75335911,6.41382967 L11.8540283,3.4567706 L6.72534424,0.464388614 Z" id="Fill-11" fill="#E20010" mask="url(#mask-2)"></path>
                                </g>
                                <path d="M22.3781442,5.59643651 L16.4424714,2.14413746 C16.4658468,2.17379793 16.488687,2.2025596 16.5107242,2.23051235 C17.0499658,2.91144486 17.1622037,3.05309608 17.2296535,4.27987113 L17.1859361,4.28211813 L17.229832,4.28229789 L17.2212669,10.4480806 L17.229832,10.4531139 L17.2212669,10.4678543 L17.2134156,16.2944291 L22.3884045,13.2940477 C23.3846275,12.6380121 23.4485978,12.473711 23.7556015,11.685102 C23.7953933,11.5832677 23.8389323,11.471277 23.8889844,11.346703 L23.8889844,8.23280297 C23.8889844,7.26362462 23.2112743,6.08116051 22.3781442,5.59643651" id="Fill-14" fill="#E20010"></path>
                                <path d="M17.2658944,10.4799881 L17.2581323,16.2166827 L22.3662067,13.2550397 C23.3483331,12.6081718 23.4113219,12.4462976 23.7140431,11.6686539 L23.728229,11.6324322 C23.7632922,11.542552 23.8014781,11.4449421 23.8443033,11.3378948 L23.8443033,8.23280297 C23.8443033,7.27800545 23.1765859,6.11270847 22.3558572,5.63544453 L16.6241398,2.30178736 C17.0979836,2.90281636 17.2069204,3.09363205 17.2719613,4.23735779 L17.2745487,4.23735779 L17.2744595,4.28175861 L17.27669,4.32229459 L17.2743703,4.32229459 L17.2658944,10.4221951 L17.2906974,10.4368456 L17.2658944,10.4799881 Z M17.1687346,16.3722653 L17.1852401,4.30234118 L17.1842587,4.26755754 C17.1175227,3.06873523 17.0056416,2.92744354 16.4759465,2.25855498 L16.2604818,1.98648757 L22.4004669,5.55760826 C23.2457309,6.04934292 23.9335227,7.24942354 23.9335227,8.23280297 L23.9335227,11.3554214 L23.9303108,11.3635106 C23.8861472,11.4734341 23.8471584,11.5734708 23.811203,11.6654183 L23.7971063,11.7014602 C23.4858201,12.5012144 23.4209576,12.6676725 22.4127792,13.3317974 L17.1687346,16.3722653 Z" id="Fill-16" fill="#E50113"></path>
                            </g>
                        </g>
                    </g>
                </g>
            </g>
        </g>
    </g>
</svg>