<?xml version="1.0" encoding="UTF-8"?>
<svg width="40px" height="40px" viewBox="0 0 40 40" version="1.1" xmlns="http://www.w3.org/2000/svg" xmlns:xlink="http://www.w3.org/1999/xlink">
    <title>9130E9AA-1691-4E66-9235-51A9BC473941</title>
    <defs>
        <polygon id="path-1" points="0 -4.85722573e-16 32.1488584 -4.85722573e-16 32.1488584 31.40314 0 31.40314"></polygon>
    </defs>
    <g id="WSG" stroke="none" stroke-width="1" fill="none" fill-rule="evenodd">
        <g id="20Icon_기관로고" transform="translate(-523.000000, -577.000000)">
            <g id="#-Con" transform="translate(79.500000, 136.000000)">
                <g id="은행" transform="translate(0.500000, 144.000000)">
                    <g id="BIDV" transform="translate(443.000000, 264.000000)">
                        <g id="bidv" transform="translate(0.000000, 33.000000)">
                            <circle id="Oval" fill="#21409A" cx="20" cy="20" r="20"></circle>
                            <g id="Group-11" transform="translate(4.000000, 5.096548)">
                                <polygon id="Fill-1" fill="#FFFFFF" points="1.0228968 15.7016248 16.0654968 30.3946008 16.0709768 30.3924088 31.1267288 15.7060088 16.0731688 1.0097448 16.0731688 1.0042648"></polygon>
                                <polyline id="Fill-2" fill="#ED1D24" points="13.5596024 5.8369672 13.5563144 18.1132632 16.1845224 18.1143592 18.5924344 18.1154552 18.5946264 5.8380632 16.1845224 5.8380632"></polyline>
                                <g id="Group-10">
                                    <path d="M10.7993264,8.2799512 L13.3157424,8.2799512 L13.3157424,15.7130232 L10.7993264,15.7130232 L10.7993264,8.2788552 L10.7993264,8.2799512 Z M20.1986224,15.7108312 L18.8406784,15.7141192 L18.8417744,8.2821432 L20.2019104,8.2821432 C21.5828704,8.2821432 22.6350304,9.9480632 22.6427024,11.9953912 C22.6580464,13.9966872 21.5850624,15.7108312 20.1986224,15.7108312 L20.1986224,15.7108312 Z" id="Fill-3" fill="#21409A"></path>
                                    <g id="Group-7">
                                        <mask id="mask-2" fill="white">
                                            <use xlink:href="#path-1"></use>
                                        </mask>
                                        <g id="Clip-6"></g>
                                        <path d="M16.0716344,30.39208 L16.0650584,30.395368 L1.0235544,15.701296 L16.0738264,1.003936 L16.0760184,1.00832 L31.1273864,15.706776 L16.0716344,30.39208 Z M0.0009864,15.701296 L0.1325064,15.83172 L15.4710264,30.815136 L16.0738264,31.403688 L16.6766264,30.815136 L32.1488584,15.70568 L16.0782104,-4.85722573e-16 L-0.0001096,15.7002 L0.0009864,15.701296 Z" id="Fill-5" fill="#ED1D24" mask="url(#mask-2)"></path>
                                    </g>
                                    <polyline id="Fill-8" fill="#ED1D24" points="16.0716344 22.787484 8.8183064 15.700748 1.6986904 15.700748 14.2336424 27.947452 14.3673544 28.078972 16.0705384 29.7427 30.4522504 15.70294 23.3293464 15.70294"></polyline>
                                </g>
                            </g>
                        </g>
                    </g>
                </g>
            </g>
        </g>
    </g>
</svg>