<?xml version="1.0" encoding="UTF-8"?>
<svg width="40px" height="40px" viewBox="0 0 40 40" version="1.1" xmlns="http://www.w3.org/2000/svg" xmlns:xlink="http://www.w3.org/1999/xlink">
    <title>A2E7BBB3-5EF5-4C31-BCC2-C23FC21F01DB</title>
    <g id="WSG" stroke="none" stroke-width="1" fill="none" fill-rule="evenodd">
        <g id="20Icon_기관로고" transform="translate(-764.000000, -964.000000)">
            <g id="#-Con" transform="translate(79.500000, 136.000000)">
                <g id="저축은행" transform="translate(0.500000, 531.000000)">
                    <g id="국민" transform="translate(684.000000, 264.000000)">
                        <g id="icon_32_saving_kb" transform="translate(0.000000, 33.000000)">
                            <circle id="Oval" fill="#FFCC00" cx="20" cy="20" r="20"></circle>
                            <g id="Group-16" transform="translate(5.000000, 8.434171)" fill="#222222">
                                <path d="M24.924048,7.46644155 L24.7468594,7.35439583 C24.1445051,6.75204155 23.3045966,6.49233869 22.1837051,6.55791583 C21.2504251,6.61437298 20.5104023,6.98481869 19.9449623,7.32920726 C19.9449623,7.32052155 19.9432251,7.31227012 19.9432251,7.30315012 C19.9432251,7.01000726 19.9762309,6.69384726 20.0096709,6.38593869 C20.0426766,6.07281869 20.0761166,5.75405298 20.0761166,5.45265869 C20.0761166,5.14561869 20.0409394,4.85334441 19.9349737,4.60449869 C19.9076137,4.54022441 19.8498537,4.50287583 19.7747223,4.50287583 C19.4741966,4.50852155 18.8840023,4.71567583 18.7424251,4.84075012 C18.7424251,4.84205298 18.6642537,5.01099012 18.6642537,5.01099012 C18.6590423,5.34495583 18.5852137,6.27823583 18.5113851,6.39071583 C18.5139909,6.38680726 18.4709966,6.50319583 18.4709966,6.50319583 C18.3446194,7.83558441 18.3420137,9.00685298 18.4597051,10.0117901 C18.4727337,10.1125444 18.6655566,10.2636758 18.8158194,10.3188301 C18.9795451,10.3791958 19.491568,10.2415273 19.7881851,10.1307844 C19.7838423,10.131653 19.8993623,10.1125444 19.8993623,10.1125444 C19.9927337,10.1021215 20.0474537,10.0243844 20.0444137,9.91798441 C20.0426766,9.91537869 20.0513623,9.62831583 20.0513623,9.62831583 C20.2641623,8.76017869 21.1283909,7.72440726 22.1511337,7.56893298 C22.7287337,7.47729869 23.1842994,7.62582441 23.5447566,8.01841869 C23.5942651,8.08920726 23.698928,8.71414441 23.3193623,9.43071583 C23.0349051,9.96271583 22.4685966,10.4104644 21.7220594,10.6897101 C21.0159109,10.958533 20.239408,11.0671044 19.2800709,11.034533 C19.2405509,11.0076073 18.3810994,10.426533 18.3810994,10.426533 C17.6193623,9.89236155 16.6743566,9.22660155 15.8175109,8.90262441 C15.6676823,8.84573298 15.3975566,8.62077298 15.2346994,8.48657869 L15.1469737,8.41405298 C14.651888,8.01798441 13.7120937,7.38957298 12.9560023,6.88797298 C12.9560023,6.88797298 12.6142194,6.65823583 12.5490766,6.61437298 C12.5490766,6.58614441 12.5495109,6.52925298 12.5495109,6.52925298 C12.572528,6.50493298 13.0463337,6.22047583 13.0463337,6.22047583 C13.7120937,5.83092155 14.0178309,5.64113869 14.0829737,5.54255583 C14.071248,5.55775583 14.1711337,5.49044155 14.1711337,5.49044155 C14.1772137,5.48740155 15.8183794,4.55846441 15.8183794,4.55846441 C17.4004823,3.68989298 19.1923451,2.70363012 20.1334423,1.72909298 C20.1343109,1.72735583 20.1794766,1.57969869 20.1794766,1.57969869 L20.1994537,1.44767583 C20.2628594,1.23878441 20.2654651,1.07940155 20.2129166,0.894395835 C20.1994537,0.840978692 20.151248,0.780178692 20.0852366,0.768018692 C19.3512937,0.695492978 18.4028137,1.13542441 17.5403223,1.94449869 C17.3461966,2.12776726 17.1820366,2.21679583 17.0100594,2.31060155 L16.8784709,2.38399583 C15.9269509,2.92511583 13.7846194,4.25489869 12.6624251,4.97233869 C12.7353851,3.76632726 12.9590423,2.05046441 13.2339451,0.620361549 L13.2035451,0.450121549 C13.1992023,0.443172978 13.086288,0.233847263 13.086288,0.233847263 L12.9998651,0.0783729777 L12.9742423,0.071858692 C12.7505851,-0.0410555937 12.5681851,0.00454440626 12.4335566,0.038418692 L12.2094651,0.120932978 L11.9115451,0.229070121 C11.8516137,0.241230121 11.809488,0.277710121 11.7869051,0.335035835 C11.2518651,1.63007583 10.8045509,3.75894441 10.6985851,5.46221298 C9.62807086,4.78081869 8.63920229,4.29181298 8.15323657,4.05556155 L8.14064229,4.04817869 L8.08288229,4.03558441 C7.90786514,4.01343583 7.69419657,3.88445298 7.489648,3.76068155 C7.46967086,3.74765298 7.08272229,3.49663583 7.08272229,3.49663583 L6.46082514,3.09839583 C6.46603657,3.10187012 6.29709943,3.06061298 6.29709943,3.06061298 C6.03001371,3.10664726 5.51755657,3.45147012 5.36512229,3.68685298 C5.34471086,3.71725298 5.33689371,3.75112726 5.33689371,3.78673869 C5.33689371,3.83581298 5.352528,3.88575583 5.36512229,3.93396155 L5.392048,4.05990441 L5.42201371,4.13720726 C5.71993371,4.44251012 6.47298514,4.95236155 7.20909943,5.34799583 L8.06594514,5.80139012 L9.37271086,6.51665869 C9.37271086,6.52230441 9.59680229,6.69384726 9.59680229,6.69384726 L9.75097371,6.78200726 C9.75097371,6.78200726 9.76921371,6.79286441 9.77920229,6.79981298 C9.42960229,7.03345869 7.398448,8.39016726 7.398448,8.39016726 L6.14640229,9.21878441 C6.02827657,9.30043012 5.53319086,9.52148155 5.42461943,9.56491012 C5.15405943,9.67608726 4.94864229,9.84545869 4.86221943,10.0295958 L4.82921371,10.1021215 L4.86221943,10.1503273 L4.95819657,10.2224187 C4.95472229,10.2224187 5.08674514,10.3062358 5.08674514,10.3062358 L5.22441371,10.4000415 C5.227888,10.402213 5.35469943,10.4217558 5.35469943,10.4217558 C5.574448,10.4300073 5.90059657,10.3044987 6.51120229,10.037413 C7.070128,9.78987012 8.59056229,8.87179012 9.24155657,8.48093298 L9.51863086,8.31460155 C9.63328229,8.32415583 9.75922514,8.22731012 9.87170514,8.14219012 C10.0015566,8.03796155 10.2860137,7.86337869 10.4584251,7.78781298 C10.4636366,7.78607583 10.563088,7.73092155 10.6555909,7.67924155 C10.6547223,7.70833869 10.6547223,7.75393869 10.6547223,7.75393869 C10.6829509,9.74209869 10.7967337,11.1878358 11.0143109,12.302213 L11.0177851,12.3208873 L11.0381966,12.366053 C11.1463337,12.5228301 11.2674994,12.9944644 11.3756366,13.4100758 L11.6231794,14.2399958 C11.6288251,14.2495501 11.6926651,14.3172987 11.6926651,14.3172987 C11.833808,14.4141444 12.265488,14.5796073 12.5529851,14.5452987 L12.6250766,14.5361787 L12.669808,14.4354244 C12.6936937,14.311653 12.703248,14.1891844 12.703248,14.0549901 C12.703248,13.9029901 12.6919566,13.7366587 12.6793623,13.5321101 L12.6589509,13.232453 C12.5681851,11.8440415 12.4765509,9.83981298 12.4765509,8.50699012 L12.4765509,8.40102441 C12.7132366,8.54955012 13.7446651,9.19837298 13.7446651,9.19837298 C15.5004823,10.338373 18.1526651,12.0585787 19.7551794,12.5132758 C19.838128,12.5397673 19.926288,12.5197901 19.9875223,12.4607273 C19.990128,12.4581215 20.2341966,12.3026473 20.2341966,12.3026473 L20.2810994,12.2835387 C20.3718651,12.2401101 20.433968,12.0850701 20.4452594,11.9165673 C21.795888,11.8496873 23.680688,11.3289787 24.6890994,10.0621673 C25.0777851,9.56925298 25.2532366,8.96776726 25.2532366,8.45270441 C25.2532366,8.03101298 25.1359794,7.66664726 24.924048,7.46644155" id="Fill-15"></path>
                                <g id="Group-26" transform="translate(0.000000, 16.661468)">
                                    <polygon id="Fill-1" points="20.3620614 3.13447088 24.8992227 3.13447088 24.8992227 2.65431472 20.3620614 2.65431472"></polygon>
                                    <polygon id="Fill-2" points="20.852076 2.96938483 20.852076 4.77089523 24.4820084 4.77089523 24.4820084 4.28944435 21.4054763 4.28944435 21.4054763 2.96938483"></polygon>
                                    <polygon id="Fill-3" points="28.5695505 0.327046272 28.5695505 1.17481043 28.261777 1.17481043 28.261777 0.327046272 27.7213239 0.327046272 27.7213239 2.56043827 28.261777 2.56043827 28.261777 1.63841267 28.5695505 1.63841267 28.5695505 2.56043827 29.1093562 2.56043827 29.1093562 0.327046272"></polygon>
                                    <polygon id="Fill-4" points="25.9389199 0.131451072 25.9389199 0.544744192 24.9491064 0.544744192 24.9491064 1.01417267 27.4744578 1.01417267 27.4744578 0.544744192 26.4936149 0.544744192 26.4936149 0.131451072"></polygon>
                                    <g id="Group-25">
                                        <path d="M27.5800792,4.45872899 C27.0441576,4.45872899 26.6100565,4.25776995 26.6100565,3.80776227 C26.6100565,3.36080643 27.0441576,3.15577827 27.5800792,3.15577827 C28.1159083,3.15577827 28.5503794,3.36080643 28.5503794,3.80776227 C28.5503794,4.25776995 28.1159083,4.45872899 27.5800792,4.45872899 M27.5797093,2.65499907 C26.7268587,2.65499907 26.0347384,3.03453699 26.0347384,3.80803971 C26.0347384,4.57506883 26.7268587,4.96135779 27.5797093,4.96135779 C28.4330222,4.96135779 29.1251426,4.57506883 29.1251426,3.80803971 C29.1251426,3.03453699 28.4330222,2.65499907 27.5797093,2.65499907" id="Fill-5"></path>
                                        <path d="M22.6300502,1.94492838 C22.0563968,1.94492838 21.5916848,1.7395303 21.5916848,1.27934982 C21.5916848,0.822313664 22.0563968,0.614418624 22.6300502,0.614418624 C23.2035187,0.614418624 23.6680457,0.822313664 23.6680457,1.27934982 C23.6680457,1.7395303 23.2035187,1.94492838 22.6300502,1.94492838 M22.6300502,0.108183104 C21.7338265,0.108183104 21.0071187,0.493917184 21.0071187,1.28008966 C21.0071187,2.0599735 21.7338265,2.45264358 22.6300502,2.45264358 C23.5259964,2.45264358 24.2529817,2.0599735 24.2529817,1.28008966 C24.2529817,0.493917184 23.5259964,0.108183104 22.6300502,0.108183104" id="Fill-8"></path>
                                        <path d="M26.2119393,2.05429523 C25.87337,2.05429523 25.5990744,1.91076627 25.5990744,1.58736371 C25.5990744,1.26692051 25.87337,1.12052467 26.2119393,1.12052467 C26.5505086,1.12052467 26.8247118,1.26692051 26.8247118,1.58736371 C26.8247118,1.91076627 26.5505086,2.05429523 26.2119393,2.05429523 M26.2125867,0.668667392 C25.5583832,0.668667392 25.027548,0.980787392 25.027548,1.61538515 C25.027548,2.24443411 25.5583832,2.56182547 26.2125867,2.56182547 C26.8663278,2.56182547 27.3966081,2.24443411 27.3966081,1.61538515 C27.3966081,0.980787392 26.8663278,0.668667392 26.2125867,0.668667392" id="Fill-10"></path>
                                        <polygon id="Fill-12" points="0 0.136417248 0.65910496 0.136417248 0.65910496 2.18004029 3.11278432 0.136417248 4.07337408 0.136417248 1.48051232 2.19890621 4.2892224 4.70243229 3.32733792 4.70243229 0.65910496 2.25541149 0.65910496 4.70243229 0 4.70243229"></polygon>
                                        <path d="M5.45420221,4.18327731 L7.02913661,4.18327731 C7.92036637,4.18327731 8.15535805,3.83647731 8.15535805,3.39359059 C8.15535805,2.86876659 7.79403869,2.57782451 6.99103485,2.57782451 L5.45420221,2.57782451 L5.45420221,4.18327731 Z M5.45420221,2.05910419 L7.07500669,2.05910419 C7.62461533,2.05910419 8.03060253,1.85009939 8.03060253,1.36328467 C8.03060253,0.940003712 7.83056829,0.655535232 6.99103485,0.655535232 L5.45420221,0.655535232 L5.45420221,2.05910419 Z M4.79574461,0.136444992 L7.03977181,0.136444992 C8.10708349,0.136444992 8.66584765,0.490088512 8.66584765,1.26692051 C8.66584765,1.81800883 8.28177821,2.19745427 7.76888413,2.29992211 L7.76888413,2.31869555 C8.50271293,2.40729139 8.84969789,2.88763251 8.84969789,3.43141491 C8.84969789,4.11410227 8.35067581,4.70236755 7.11135133,4.70236755 L4.79574461,4.70236755 L4.79574461,0.136444992 Z" id="Fill-14"></path>
                                        <path d="M10.5449765,0.294151136 L10.5449765,0.795485216 L11.6143228,0.795485216 C11.6143228,0.795485216 11.6010981,2.42637002 10.3978408,2.89413386 L10.3978408,3.3484881 C10.3978408,3.3484881 11.4271432,3.17499562 11.9485455,2.0921473 C11.9485455,2.0921473 12.8309896,3.40203402 13.4725234,3.40203402 L13.4725234,2.89413386 C13.4725234,2.89413386 12.2560415,2.26591722 12.2693586,0.808802336 L13.2853439,0.808802336 L13.2853439,0.294151136 L10.5449765,0.294151136 Z" id="Fill-16"></path>
                                        <polygon id="Fill-18" points="13.880129 0.260738112 14.501872 0.260738112 14.501872 4.85921363 13.880129 4.85921363 13.880129 1.91825715 13.0446647 1.91825715 13.0446647 1.35690355 13.880129 1.35690355"></polygon>
                                        <path d="M17.0817958,-6.9388939e-17 L17.0817958,0.33413024 L15.4909549,0.33413024 L15.4909549,0.86228352 L16.907841,0.86228352 C16.907841,0.86228352 16.4935306,1.47727552 15.384048,1.53063648 L15.384048,1.9984928 C15.384048,1.9984928 16.6405738,1.99867776 17.3759747,1.37018368 C17.3759747,1.37018368 18.1779613,2.01199488 19.3273952,2.01199488 L19.3273952,1.49059264 C19.3273952,1.49059264 17.9773722,1.34354944 17.8169194,0.86228352 L19.2605322,0.86228352 L19.2605322,0.33413024 L17.656559,0.33413024 L17.656559,-6.9388939e-17 L17.0817958,-6.9388939e-17 Z" id="Fill-20"></path>
                                        <polygon id="Fill-23" points="14.983027 2.23907952 14.983027 2.77379888 17.0817681 2.77379888 17.0817681 3.20170384 15.5044292 3.20170384 15.5044292 3.7364232 18.6858337 3.7364232 18.6858337 4.85922288 19.2740065 4.85922288 19.2740065 3.20170384 17.6967601 3.20170384 17.6967601 2.77379888 19.7150436 2.77379888 19.7150436 2.23907952"></polygon>
                                    </g>
                                </g>
                            </g>
                        </g>
                    </g>
                </g>
            </g>
        </g>
    </g>
</svg>