<?xml version="1.0" encoding="UTF-8"?>
<svg width="40px" height="40px" viewBox="0 0 40 40" version="1.1" xmlns="http://www.w3.org/2000/svg" xmlns:xlink="http://www.w3.org/1999/xlink">
    <title>8D4B655E-FB64-4922-BCF5-15940EFC88BD</title>
    <defs>
        <polygon id="path-1" points="-2.94902991e-16 -1.38777878e-16 20.9610337 -1.38777878e-16 20.9610337 14.9316206 -2.94902991e-16 14.9316206"></polygon>
        <polygon id="path-3" points="0 22.1773134 30.7802723 22.1773134 30.7802723 1.44363688e-13 0 1.44363688e-13"></polygon>
    </defs>
    <g id="WSG" stroke="none" stroke-width="1" fill="none" fill-rule="evenodd">
        <g id="20Icon_기관로고" transform="translate(-803.000000, -2018.000000)">
            <g id="#-Con" transform="translate(79.500000, 136.000000)">
                <g id="보험" transform="translate(0.500000, 1692.000000)">
                    <g id="케이비손해보험" transform="translate(723.000000, 158.000000)">
                        <g id="icon_32_insurance_kb" transform="translate(0.000000, 32.000000)">
                            <circle id="Oval" fill="#FFCC00" cx="20" cy="20" r="20"></circle>
                            <g id="Group-13" transform="translate(4.800000, 9.018677)">
                                <g id="Group-3" transform="translate(5.091930, 0.000000)">
                                    <mask id="mask-2" fill="white">
                                        <use xlink:href="#path-1"></use>
                                    </mask>
                                    <g id="Clip-2"></g>
                                    <path d="M20.6233969,7.6620151 L20.4412393,7.5467725 C19.8228216,6.9298856 18.9623289,6.66244403 17.8109963,6.73001513 C16.8527551,6.78774577 16.0928536,7.16868053 15.5129231,7.52096865 C15.5129231,7.51244026 15.5113924,7.50391187 15.5113924,7.4951648 C15.5113924,7.19470305 15.5448499,6.8699682 15.5798382,6.55332437 C15.6132957,6.23230702 15.6476279,5.9053854 15.6476279,5.59617658 C15.6476279,5.28018879 15.6126397,4.98125778 15.5030827,4.72540607 C15.4757481,4.65980307 15.4160493,4.62044127 15.3379818,4.62044127 C15.030085,4.62678289 14.4243506,4.83911794 14.2784933,4.9679185 C14.2784933,4.96879321 14.199551,5.14285984 14.199551,5.14285984 C14.1934281,5.48552618 14.1177659,6.44311133 14.0414478,6.55857261 C14.0447279,6.55441776 14.0009926,6.6740339 14.0009926,6.6740339 C13.870224,8.04120045 13.8675998,9.24348479 13.9883094,10.2752013 C14.0016486,10.3784167 14.2010818,10.5332398 14.3543741,10.589221 C14.5225365,10.6515439 15.0486725,10.5107161 15.3521958,10.3963482 C15.3486969,10.3978789 15.4665637,10.3784167 15.4665637,10.3784167 C15.562344,10.3681389 15.6183253,10.2870099 15.6146078,10.1781089 C15.6132957,10.1757034 15.6222614,9.88070862 15.6222614,9.88070862 C15.8405008,8.99025721 16.7283281,7.92705123 17.7768827,7.76785461 C18.3701525,7.67316761 18.8383393,7.82558525 19.2081215,8.22926239 C19.2586358,8.30164437 19.3660061,8.94302305 18.9758869,9.67952608 C18.6843909,10.2244683 18.103367,10.6843454 17.3366866,10.9705931 C16.6126481,11.2467818 15.8151343,11.3574322 14.8306519,11.3239747 C14.7901967,11.2975148 13.9084924,10.7000901 13.9084924,10.7000901 C13.1265046,10.1527424 12.1560175,9.46915912 11.2773747,9.13677058 C11.1232076,9.0775092 10.8465816,8.84702399 10.67995,8.70991371 L10.5891992,8.63490761 C10.0807759,8.22795033 9.11597443,7.58438488 8.34054695,7.06874529 C8.34054695,7.06874529 7.99066427,6.83301184 7.92309318,6.78774577 C7.92374921,6.75953648 7.92440524,6.70049377 7.92440524,6.70049377 C7.94671026,6.67556463 8.43348453,6.38384995 8.43348453,6.38384995 C9.11597443,5.98476503 9.42999413,5.78926808 9.49734654,5.68802078 C9.48488197,5.70442153 9.58809736,5.63488235 9.58809736,5.63488235 C9.59378295,5.63203956 11.2795614,4.67795324 11.2795614,4.67795324 C12.9027984,3.78662712 14.7414318,2.77437281 15.706452,1.77436438 C15.7075453,1.77283365 15.7539048,1.62107204 15.7539048,1.62107204 L15.7755538,1.4854925 C15.8387514,1.27118936 15.8429062,1.10783789 15.7888931,0.917370507 C15.7755538,0.863138692 15.7250395,0.799941134 15.6572497,0.788569947 C14.9034712,0.713563848 13.9314534,1.16534985 13.0462503,1.99610253 C12.8465984,2.18350844 12.6775614,2.27513396 12.5010893,2.37113302 L12.3659471,2.44745118 C11.3888998,3.00157787 9.1911992,4.36699501 8.03921049,5.10284201 C8.11443527,3.86491337 8.34448313,2.10456616 8.62635736,0.636370983 L8.59399321,0.461210969 C8.59071306,0.455306699 8.47437707,0.23903547 8.47437707,0.23903547 L8.38581302,0.0802762063 L8.35935314,0.0737159061 C8.12952396,-0.04218273 7.9425554,0.00461407778 7.80457042,0.0389463153 L7.57430389,0.124230217 L7.26815655,0.23575532 C7.20692708,0.247345184 7.16384777,0.284738895 7.1411054,0.343125566 C6.59222695,1.67180503 6.1334433,3.85769704 6.02323025,5.60623571 C4.92591071,4.90712639 3.91125096,4.40504475 3.41157476,4.16187629 L3.39911019,4.15422261 L3.33919278,4.14132068 C3.15987791,4.11879698 2.94163859,3.98627892 2.73214634,3.85922778 C2.70984132,3.84610717 2.31338051,3.58894341 2.31338051,3.58894341 L1.67571934,3.17979936 C1.6807489,3.18373554 1.50646359,3.14131226 1.50646359,3.14131226 C1.2326804,3.1887651 0.706325651,3.5421466 0.54997183,3.78356565 C0.529197546,3.81592979 0.520669156,3.84982468 0.520669156,3.88590633 C0.520669156,3.93663932 0.53685123,3.98780966 0.54997183,4.03723059 L0.578181121,4.16712453 L0.608795855,4.24562945 C0.915161872,4.55899313 1.68665317,5.08141169 2.44261843,5.48836898 L3.32191732,5.95415029 L4.66393606,6.68781053 C4.66393606,6.6937148 4.89267186,6.8699682 4.89267186,6.8699682 L5.05252451,6.96050034 C5.05252451,6.96050034 5.07111202,6.97121549 5.07985909,6.97821315 C4.72232273,7.2176641 2.63724066,8.60997847 2.63724066,8.60997847 L1.35185919,9.46128676 C1.23114966,9.54482125 0.722945078,9.77137028 0.611419975,9.81641767 C0.333481925,9.93012954 0.122677613,10.1039775 0.0341135608,10.2933515 L-2.94902991e-16,10.3672642 L0.0341135608,10.4166851 L0.133830123,10.4903792 C0.129237913,10.4903792 0.26547348,10.5767565 0.26547348,10.5767565 L0.406957287,10.6740676 C0.410237437,10.6753796 0.53947535,10.6957166 0.53947535,10.6957166 C0.766024382,10.7035889 1.10038101,10.575007 1.72623365,10.3010052 C2.29982256,10.0466842 3.861174,9.10528114 4.52791917,8.70357209 L4.8126362,8.53278561 C4.93094028,8.54262606 5.05974084,8.44334685 5.1754208,8.35587618 C5.3094696,8.24894329 5.60030957,8.06984709 5.77743767,7.99177952 C5.78312327,7.99024879 5.88437057,7.93404888 5.97905757,7.88069177 C5.97905757,7.91065048 5.97862021,7.95722861 5.97862021,7.95722861 C6.00792289,9.99879402 6.12535226,11.4814219 6.34796511,12.6244448 L6.35102658,12.6447817 L6.37289425,12.6904852 C6.48420068,12.8514312 6.60709697,13.3358 6.71884075,13.7622195 L6.97272436,14.6139652 C6.97840996,14.624243 7.04401296,14.6935635 7.04401296,14.6935635 C7.18921427,14.7924053 7.63269056,14.9620984 7.92637333,14.9268915 L8.00050472,14.9181444 L8.0466455,14.8147104 C8.07223067,14.6876592 8.08141509,14.5619201 8.08141509,14.4245912 C8.08141509,14.2682374 8.06938787,14.0970135 8.05670463,13.8868652 L8.03571167,13.5800619 C7.9425554,12.1551647 7.84874311,10.0985106 7.84874311,8.730688 L7.84874311,8.62178701 C8.09191157,8.7737673 9.15008799,9.4402938 9.15008799,9.4402938 C10.9515464,10.6099953 13.6736336,12.3758094 15.3178635,12.8422468 C15.4048968,12.8687067 15.4941169,12.8483697 15.5573145,12.7884523 C15.5597199,12.7847348 15.8105421,12.6255382 15.8105421,12.6255382 L15.8573389,12.6065133 C15.9520259,12.5610286 16.0160981,12.4020506 16.027032,12.2292961 C17.4123487,12.1604129 19.3465438,11.6261858 20.3815405,10.325497 C20.7817188,9.82057253 20.9610337,9.20346696 20.9610337,8.67514412 C20.9610337,8.24150828 20.8414176,7.86778985 20.6233969,7.6620151" id="Fill-1" fill="#222222" mask="url(#mask-2)"></path>
                                </g>
                                <path d="M12.8144748,17.3259495 L13.4851562,17.3259495 L13.4851562,17.4479711 C13.510304,17.6364704 13.5704401,17.7954483 13.6561614,17.9292785 C13.735541,18.0692315 13.8321961,18.1853489 13.954655,18.276537 C14.0644307,18.3738481 14.1921379,18.4475422 14.3264054,18.508553 C14.4543312,18.5695638 14.5818197,18.61811 14.7104016,18.6482874 C14.8317671,18.685025 14.9483218,18.7156398 15.0578788,18.727667 C15.1613129,18.7460358 15.2465968,18.7580631 15.3076076,18.764186 L15.3076076,19.288354 C15.1547526,19.282231 14.9844035,19.2575206 14.7952481,19.2150973 C14.6006259,19.1785783 14.3992247,19.1241278 14.2041651,19.0449669 C14.0036386,18.9712728 13.8144833,18.8800846 13.6316696,18.7580631 C13.4420769,18.6482874 13.2839737,18.5022114 13.1497062,18.3318622 C13.0158761,18.5022114 12.8571168,18.6426018 12.6747405,18.7580631 C12.4919268,18.8800846 12.3027714,18.9712728 12.1074932,19.0449669 C11.9065293,19.1241278 11.7116884,19.1785783 11.5225331,19.2150973 C11.3276922,19.251835 11.157343,19.2758894 11.010611,19.288354 L11.010611,18.764186 C11.0718404,18.7580631 11.157343,18.7460358 11.2669,18.7215441 C11.3703341,18.7092982 11.4864514,18.6789021 11.6139399,18.6426018 C11.7359615,18.6058641 11.864106,18.5573179 11.9985922,18.4960884 C12.126518,18.4414192 12.2478836,18.3620396 12.3637822,18.2645098 C12.4731206,18.173103 12.5645274,18.0572043 12.6502487,17.9233742 C12.7294096,17.7891067 12.7842975,17.6307848 12.8144748,17.4479711 L12.8144748,17.3259495 Z M10.6692567,20.4344384 L10.6692567,19.9166121 L12.8455269,19.9166121 L12.8455269,19.1484009 L13.4484185,19.1484009 L13.4484185,19.9166121 L15.5942927,19.9166121 L15.5942927,20.4344384 L11.8094369,20.4344384 L11.8094369,21.641315 L15.149723,21.641315 L15.149723,22.1652643 L11.2058892,22.1652643 L11.2058892,20.4344384 L10.6692567,20.4344384 Z" id="Fill-4" fill="#222222"></path>
                                <path d="M19.9310666,17.3381298 L20.5160267,17.3381298 L20.5160267,22.1772259 L19.9310666,22.1772259 L19.9310666,19.3980641 L19.4252675,19.3980641 L19.4252675,22.0250269 L18.8403074,22.0250269 L18.8403074,17.3381298 L19.4252675,17.3381298 L19.4252675,18.8738961 L19.9310666,18.8738961 L19.9310666,17.3381298 Z M17.2616805,20.3488702 C17.4077565,20.3488702 17.5299967,20.269928 17.6332121,20.0989228 C17.7305232,19.9403822 17.7854111,19.6786262 17.7854111,19.3250261 C17.7854111,18.9714259 17.7305232,18.7155742 17.6332121,18.5450064 C17.5299967,18.3862471 17.4077565,18.3014006 17.2616805,18.3014006 C17.1151671,18.3014006 16.9935829,18.3862471 16.8958344,18.5450064 C16.7921816,18.7155742 16.7429794,18.9714259 16.7429794,19.3250261 C16.7429794,19.6845305 16.7921816,19.9465052 16.8958344,20.1046084 C16.9935829,20.269928 17.1151671,20.3488702 17.2616805,20.3488702 L17.2616805,20.3488702 Z M18.4926114,18.1303954 L18.0233313,18.1303954 C18.1451342,18.2644442 18.242664,18.4295451 18.315702,18.6241673 C18.3893961,18.8255685 18.4254777,19.0628327 18.4254777,19.3433949 C18.4254777,19.5994653 18.395519,19.8247023 18.3342895,20.0138576 C18.2734974,20.2091358 18.1882135,20.3676764 18.0845608,20.4892607 C17.9747851,20.6230908 17.8521075,20.7208393 17.7128104,20.7816314 C17.5660784,20.8487651 17.419565,20.8798172 17.2616805,20.8798172 C17.1031399,20.8798172 16.9505036,20.8487651 16.8107692,20.7816314 C16.6649118,20.7208393 16.5424529,20.6230908 16.4447044,20.4892607 C16.3355848,20.3676764 16.2557678,20.2091358 16.1951943,20.0138576 C16.1337462,19.8247023 16.1033501,19.5994653 16.1033501,19.3433949 C16.1033501,19.0628327 16.1400878,18.8255685 16.2133445,18.6241673 C16.2802596,18.4295451 16.377352,18.2644442 16.4998109,18.1303954 L16.0298748,18.1303954 L16.0298748,17.6123504 L16.9568452,17.6123504 L16.9568452,17.173685 L17.5603928,17.173685 L17.5603928,17.6123504 L18.4926114,17.6123504 L18.4926114,18.1303954 Z" id="Fill-6" fill="#222222"></path>
                                <mask id="mask-4" fill="white">
                                    <use xlink:href="#path-3"></use>
                                </mask>
                                <g id="Clip-9"></g>
                                <path d="M22.2260783,19.5811839 L24.8832185,19.5811839 L24.8832185,18.7401534 L22.2260783,18.7401534 L22.2260783,19.5811839 Z M25.4810805,17.4600202 L25.4810805,20.0926687 L21.6286536,20.0926687 L21.6286536,17.4600202 L22.2260783,17.4600202 L22.2260783,18.2221084 L24.8832185,18.2221084 L24.8832185,17.4600202 L25.4810805,17.4600202 Z M21.1047043,21.3789248 L23.2376766,21.3789248 L23.2376766,20.3795724 L23.8416615,20.3795724 L23.8416615,21.3789248 L25.9378961,21.3789248 L25.9378961,21.9030928 L21.1047043,21.9030928 L21.1047043,21.3789248 Z" id="Fill-8" fill="#222222" mask="url(#mask-4)"></path>
                                <path d="M27.5567595,21.6347765 L30.182629,21.6347765 L30.182629,20.7209267 L27.5567595,20.7209267 L27.5567595,21.6347765 Z M27.9954249,19.3611952 C28.1054193,19.3611952 28.2145389,19.3493866 28.3181917,19.3251135 C28.4163775,19.3069634 28.507347,19.2702257 28.5867266,19.2212421 C28.660202,19.1786002 28.7150898,19.117808 28.7627613,19.0449887 C28.8054033,18.9776363 28.8298951,18.8921337 28.8298951,18.7943853 C28.8298951,18.6975115 28.8054033,18.6122276 28.7627613,18.5387522 C28.7150898,18.4716185 28.660202,18.411045 28.5867266,18.3620615 C28.507347,18.3194195 28.4163775,18.2826818 28.3181917,18.2586274 C28.2145389,18.2400399 28.1054193,18.2280127 27.9954249,18.2280127 C27.8731846,18.2280127 27.7631903,18.2400399 27.6663165,18.2586274 C27.5622264,18.2826818 27.4773799,18.3194195 27.4043419,18.3620615 C27.3253996,18.411045 27.2637328,18.4716185 27.2215282,18.5387522 C27.1729819,18.6122276 27.1541757,18.6975115 27.1541757,18.7943853 C27.1541757,18.8921337 27.1729819,18.9776363 27.2215282,19.0449887 C27.2637328,19.117808 27.3253996,19.1786002 27.4043419,19.2212421 C27.4773799,19.2702257 27.5622264,19.3069634 27.6663165,19.3251135 C27.7631903,19.3493866 27.8731846,19.3611952 27.9954249,19.3611952 L27.9954249,19.3611952 Z M26.9532119,22.1652862 L30.7802723,22.1652862 L30.7802723,20.1963214 L26.9532119,20.1963214 L26.9532119,22.1652862 Z M30.1710391,17.3382173 L30.7802723,17.3382173 L30.7802723,19.8311314 L30.1710391,19.8311314 L30.1710391,19.0871933 L29.4338801,19.0871933 C29.3975797,19.2212421 29.3365689,19.3312365 29.2517224,19.4287663 C29.1594408,19.532419 29.0501025,19.6177029 28.9274249,19.678495 C28.7940321,19.7451914 28.6538604,19.7946123 28.4948824,19.8247897 C28.3308749,19.8615274 28.1600884,19.873336 27.9895206,19.873336 C27.7817778,19.873336 27.5928411,19.8549671 27.4163691,19.8070769 C27.2335554,19.7696832 27.0811377,19.7027681 26.9473076,19.6117987 C26.8130401,19.5260774 26.7034831,19.4226433 26.6297891,19.2883759 C26.5506281,19.1663543 26.5141091,19.0145927 26.5141091,18.8435875 C26.5141091,18.6732384 26.5506281,18.5269437 26.6297891,18.3990178 C26.7034831,18.2765589 26.8005756,18.1667832 26.9352804,18.0812806 L26.416798,18.0812806 L26.416798,17.5634543 L27.6844667,17.5634543 L27.6844667,17.1250075 L28.288233,17.1250075 L28.288233,17.5634543 L29.5493413,17.5634543 L29.5493413,18.0812806 L29.0435422,18.0812806 C29.1353864,18.1425101 29.214766,18.2159855 29.2808064,18.2888048 C29.3424732,18.37387 29.3844591,18.4654955 29.4214155,18.5630253 L30.1710391,18.5630253 L30.1710391,17.3382173 Z" id="Fill-10" fill="#222222" mask="url(#mask-4)"></path>
                                <polygon id="Fill-11" fill="#222222" mask="url(#mask-4)" points="0 17.3693131 0.761432172 17.3693131 0.761432172 19.5025041 3.32191732 17.3693131 4.39999332 17.3693131 1.69343215 19.5217476 4.62457426 22.1349338 3.548029 22.1349338 0.761432172 19.581665 0.761432172 22.1349338 0 22.1349338"></polygon>
                                <path d="M5.91419806,21.6045773 L7.41257062,21.6045773 C8.34260251,21.6045773 8.58970715,21.2411367 8.58970715,20.7788542 C8.58970715,20.2312878 8.21095915,19.9284206 7.37211544,19.9284206 L5.91419806,19.9284206 L5.91419806,21.6045773 Z M5.91419806,19.3867585 L7.45980478,19.3867585 C8.03383105,19.3867585 8.45850114,19.1687378 8.45850114,18.6603146 C8.45850114,18.217713 8.24900889,17.9220621 7.37211544,17.9220621 L5.91419806,17.9220621 L5.91419806,19.3867585 Z M5.15495266,17.3793066 L7.49763585,17.3793066 C8.61179349,17.3793066 9.19456682,17.7495262 9.19456682,18.5588486 C9.19456682,19.134843 8.7926391,19.5306477 8.25819331,19.637362 L8.25819331,19.6570429 C9.02487372,19.7486684 9.38765832,20.2518434 9.38765832,20.819528 C9.38765832,21.5297899 8.86633314,22.1453647 7.57242327,22.1453647 L5.15495266,22.1453647 L5.15495266,17.3793066 Z" id="Fill-12" fill="#222222" mask="url(#mask-4)"></path>
                            </g>
                        </g>
                    </g>
                </g>
            </g>
        </g>
    </g>
</svg>