<?xml version="1.0" encoding="UTF-8"?>
<svg width="40px" height="40px" viewBox="0 0 40 40" version="1.1" xmlns="http://www.w3.org/2000/svg" xmlns:xlink="http://www.w3.org/1999/xlink">
    <title>5B76796E-53AD-4BE8-B9D9-C357522C14D4</title>
    <defs>
        <polygon id="path-1" points="-2.25514052e-16 4.72712147e-16 10.0836499 4.72712147e-16 10.0836499 17.0933341 -2.25514052e-16 17.0933341"></polygon>
        <polygon id="path-3" points="0 -6.9388939e-17 4.58558327 -6.9388939e-17 4.58558327 8.71379273 0 8.71379273"></polygon>
    </defs>
    <g id="WSG" stroke="none" stroke-width="1" fill="none" fill-rule="evenodd">
        <g id="20Icon_기관로고" transform="translate(-812.000000, -859.000000)">
            <g id="#-Con" transform="translate(79.500000, 136.000000)">
                <g id="저축은행" transform="translate(0.500000, 531.000000)">
                    <g id="키움" transform="translate(732.000000, 159.000000)">
                        <g id="icon_32_saving_kiumyes" transform="translate(0.000000, 33.000000)">
                            <circle id="Oval-Copy-4" fill="#003D79" cx="20" cy="20" r="20"></circle>
                            <g id="Group-13" transform="translate(8.800000, 11.200096)">
                                <g id="Group-3" transform="translate(1.472035, 1.452674)">
                                    <mask id="mask-2" fill="white">
                                        <use xlink:href="#path-1"></use>
                                    </mask>
                                    <g id="Clip-2"></g>
                                    <path d="M0.00532038576,16.7601427 C0.324708765,13.8769133 1.14347329,11.3404729 2.29823782,8.91277874 C3.78831733,5.78054633 5.8700788,3.03586131 8.03164454,0.349745102 C8.4193632,-0.131991901 8.65980357,-0.114524011 9.03878828,0.392558558 C9.29429898,0.734552442 9.52121029,1.09880932 9.7477791,1.46135366 C10.2230085,2.22240565 10.1985192,2.62348211 9.64502681,3.36415489 C8.76169959,4.54666253 7.86193201,5.71701116 6.99658644,6.91236284 C5.8366843,8.5146136 5.03658644,10.2961671 4.4637424,12.183213 C4.12945494,13.2845463 3.77050693,14.3805708 3.62220112,15.5286564 C3.57288002,15.9102099 3.38843965,16.1169133 3.00123476,16.2297696 C2.20165066,16.4626748 1.41765066,16.7493537 0.630396838,17.0233598 C0.184451884,17.178687 -0.0380068314,17.068742 0.00532038576,16.7601427" id="Fill-1" fill="#FFFFFF" mask="url(#mask-2)"></path>
                                </g>
                                <path d="M10.6670239,10.8161246 C10.8613969,11.0291643 11.0732379,10.9693967 11.1890055,10.9056903 C12.0334581,10.4422775 12.9325407,10.0490787 13.5523083,9.2631949 C13.6292012,9.16540897 13.6800636,9.04244873 13.7237333,8.92394108 C13.8114153,8.68624078 13.7812746,8.44871172 13.607452,8.26821019 C13.4182165,8.07195331 13.1962716,8.20090744 13.0193664,8.30126218 C11.9783144,8.89311539 11.1107425,9.65211234 10.6670239,10.8161246 M10.7928954,12.5341429 C10.7637823,13.501727 11.1496171,13.8522836 12.0360269,13.6947301 C13.0640636,13.511831 13.9104,12.9746077 14.6322349,12.2527729 C15.0077945,11.8773845 15.3026936,11.9167729 15.6791095,12.2205772 C16.072137,12.5379105 16.3776538,12.840516 16.093715,13.3993172 C15.0764673,15.4016169 11.523293,16.6981796 9.45865688,15.809201 C8.35715229,15.3349992 7.71409419,14.1576292 7.85948869,12.9466934 C8.12732966,10.7167974 9.08292599,8.87050989 10.8694459,7.4845527 C11.8409688,6.73069337 12.9286018,6.31146402 14.1828648,6.38630194 C14.9903266,6.43425301 15.6157456,7.083305 15.6354398,7.97536616 C15.656504,8.94329276 15.2542287,9.76308481 14.6493602,10.4880022 C13.6555743,11.6789013 12.3374336,12.2813723 10.7928954,12.5341429" id="Fill-4" fill="#FFFFFF"></path>
                                <path d="M19.1168245,7.75045851 C19.0637358,8.16592029 19.8706838,8.21524139 20.2936807,8.24640958 C20.8471731,8.28733925 21.4058031,8.24760836 21.9539865,8.36645851 C23.3257297,8.66358389 23.9710141,9.81697839 23.4867083,11.134434 C23.0597725,12.2957062 22.2105248,13.0348377 21.0742557,13.4595472 C19.7764942,13.944538 18.4420844,13.9642322 17.0920905,13.7323545 C16.6898153,13.6629967 16.5473321,13.5146909 16.7405064,13.0779937 C17.1249713,12.2095655 17.4815217,11.4846481 18.7075278,11.749749 C19.3930569,11.8980548 20.1573627,11.6785074 20.7543535,11.1856389 C20.933485,11.0375044 21.1398459,10.8717307 21.0680905,10.6016634 C21.0057541,10.3682444 20.7774728,10.2899814 20.5683719,10.2514493 C20.1491425,10.1737001 19.7232343,10.1334555 19.3029774,10.0608438 C18.9671486,10.00296 18.6254972,9.95089888 18.3043963,9.84283772 C16.8730569,9.36092946 16.4046777,8.05854414 17.1850813,6.77242793 C18.2153443,5.07393252 20.7892893,4.08357166 22.6915768,4.63689276 C23.1019009,4.75642793 23.3012404,4.92956555 23.0597725,5.35804261 C23.0181578,5.43219552 22.9960661,5.51765117 22.9571914,5.59231784 C22.5687878,6.33795698 22.3812648,6.67532701 21.5114667,6.60271539 C20.5627205,6.52342487 19.4768,6.96525974 19.1168245,7.75045851" id="Fill-6" fill="#FFFFFF"></path>
                                <g id="Group-10" transform="translate(0.000000, 1.307440)">
                                    <mask id="mask-4" fill="white">
                                        <use xlink:href="#path-3"></use>
                                    </mask>
                                    <g id="Clip-9"></g>
                                    <path d="M2.77112661,8.71379273 C1.48209908,6.72365206 0.67515107,4.67066123 0.227493578,2.47244716 C0.129536391,1.99173768 0.0882642202,1.49989671 0.0132550459,1.01422086 C-0.0413749235,0.659382944 0.0651449541,0.446171934 0.45115107,0.378869182 C1.01937125,0.279884473 1.58399511,0.15658172 2.14519388,0.0226612311 C2.51013578,-0.0645069646 2.65809908,0.106061843 2.72660061,0.426648999 C3.12973211,2.31146857 3.59331621,4.17676521 4.52031315,5.88947469 C4.61022141,6.05576215 4.60782385,6.21263065 4.50952416,6.374123 C4.0231633,7.17524839 3.49296147,7.94246551 2.77112661,8.71379273" id="Fill-8" fill="#D5357B" mask="url(#mask-4)"></path>
                                </g>
                                <path d="M12.3827474,2.7367631 C11.5754569,2.74583955 11.0505639,2.11134414 11.0611817,1.34241448 C11.0716281,0.6043105 11.669304,0.00971722815 12.411518,0.000127014087 C13.1794202,-0.0101482153 13.7983315,0.6043105 13.7928514,1.37152763 C13.7872,2.15518512 13.2864538,2.72648787 12.3827474,2.7367631" id="Fill-11" fill="#FFFFFF"></path>
                            </g>
                        </g>
                    </g>
                </g>
            </g>
        </g>
    </g>
</svg>