<?xml version="1.0" encoding="UTF-8"?>
<svg width="40px" height="40px" viewBox="0 0 40 40" version="1.1" xmlns="http://www.w3.org/2000/svg" xmlns:xlink="http://www.w3.org/1999/xlink">
    <title>B3903EDD-51E8-4E59-84FE-872BB6947A2C</title>
    <defs>
        <polygon id="path-1" points="0 -7.63278329e-16 3.04071884 -7.63278329e-16 3.04071884 22.1821357 0 22.1821357"></polygon>
    </defs>
    <g id="WSG" stroke="none" stroke-width="1" fill="none" fill-rule="evenodd">
        <g id="20Icon_기관로고" transform="translate(-488.000000, -964.000000)">
            <g id="#-Con" transform="translate(79.500000, 136.000000)">
                <g id="저축은행" transform="translate(0.500000, 531.000000)">
                    <g id="조은" transform="translate(408.000000, 264.000000)">
                        <g id="icon_32_saving_choeun" transform="translate(0.000000, 33.000000)">
                            <circle id="Oval-Copy-3" fill="#EC1D24" cx="20" cy="20" r="20"></circle>
                            <g id="Group-18" transform="translate(8.800000, 8.162319)">
                                <path d="M9.16260638,10.7852916 L9.16260638,11.6861612 L6.96107594,11.6861612 L6.96107594,13.0381148 L8.94639768,13.0381148 L8.94639768,13.938822 L6.96107594,13.938822 L6.96107594,15.4909148 L9.24392812,15.4909148 L9.24392812,16.3924336 L6.63708754,16.3924336 C6.34020638,16.3924336 6.0853658,16.3003988 5.87402667,16.1168162 C5.6623629,15.9330713 5.55685565,15.6913786 5.55685565,15.3910887 L5.55685565,10.7852916 L9.16260638,10.7852916 Z" id="Fill-1" fill="#FFFFFF"></path>
                                <path d="M11.6479513,10.7852916 L11.6479513,14.4910307 C11.6479513,14.8619293 11.7174238,15.134138 11.857018,15.3071699 C11.9970991,15.4797148 12.1792209,15.566393 12.4041948,15.566393 C12.6473484,15.566393 12.8340151,15.4797148 12.9648441,15.3071699 C13.0950238,15.134138 13.1602759,14.8619293 13.1602759,14.4910307 L13.1602759,10.7852916 L14.5648209,10.7852916 L14.5648209,14.6025438 C14.5648209,15.1114133 14.3781542,15.5496742 14.0043339,15.9166771 C13.6313252,16.2840046 13.0976209,16.4675872 12.4041948,16.4675872 C11.737389,16.4675872 11.2114759,16.2978017 10.8238586,15.9605032 C10.4365658,15.62288 10.2434064,15.1742307 10.2434064,14.61488 L10.2434064,10.7852916 L11.6479513,10.7852916 Z" id="Fill-3" fill="#FFFFFF"></path>
                                <polygon id="Fill-5" fill="#FFFFFF" points="16.8917751 10.7852916 18.5123664 14.0516336 18.5123664 10.7852916 19.9169113 10.7852916 19.9169113 16.3924336 18.4177345 16.3924336 16.7979548 13.3132452 16.7979548 16.3924336 15.3927606 16.3924336 15.3927606 10.7852916"></polygon>
                                <path d="M8.91453449,4.33589333 C9.29289971,4.60858899 9.49758377,4.99393391 9.53069681,5.49111652 L8.2383142,5.49111652 C8.20568812,5.29097739 8.11803594,5.1307687 7.97584464,5.00967884 C7.83381565,4.88842667 7.63270261,4.82804406 7.37283014,4.82804406 C7.05598377,4.82804406 6.78539826,4.99052522 6.56220986,5.31613681 C6.33837217,5.64158609 6.22685913,6.09948754 6.22685913,6.6901658 C6.22685913,7.32369623 6.33674899,7.82720928 6.55620406,8.19940638 C6.77582145,8.5717658 7.0597171,8.75794551 7.40918957,8.75794551 C7.68545623,8.75794551 7.91107942,8.67467594 8.08605913,8.50797449 C8.26055188,8.34094841 8.36037797,8.09049043 8.38440116,7.75643826 L9.67629681,7.75643826 C9.64383304,8.29062957 9.43476638,8.7415513 9.04860986,9.10871652 C8.66277797,9.47523246 8.12420406,9.65946435 7.43353739,9.65946435 C6.69401275,9.65946435 6.09667942,9.40024116 5.64202435,8.88325565 C5.18623304,8.36610783 4.95947362,7.6439513 4.95947362,6.71792232 C4.95947362,5.80861217 5.20084174,5.11534841 5.6847142,4.64024116 C6.16809971,4.16480928 6.76738087,3.92684986 7.48239536,3.92684986 C8.0591142,3.92684986 8.53698087,4.06336 8.91453449,4.33589333" id="Fill-7" fill="#FFFFFF"></path>
                                <polygon id="Fill-9" fill="#FFFFFF" points="11.6479513 3.97669797 11.6479513 6.24250667 13.2282875 6.24250667 13.2282875 3.97669797 14.6325078 3.97669797 14.6325078 9.58432696 13.2282875 9.58432696 13.2282875 7.14370087 11.6479513 7.14370087 11.6479513 9.58432696 10.2434064 9.58432696 10.2434064 3.97669797"></polygon>
                                <path d="M17.0471142,5.32921971 C16.8450272,5.68064 16.7434157,6.1596429 16.7434157,6.76704 C16.7434157,7.41826319 16.8516823,7.91268638 17.068378,8.25112116 C17.284749,8.58890667 17.5637751,8.7580429 17.9046446,8.7580429 C18.2549287,8.7580429 18.5362272,8.59150377 18.7485403,8.25712696 C18.9600417,7.9232371 19.0660359,7.42670377 19.0660359,6.76704 C19.0660359,6.10851246 18.9600417,5.61636174 18.7485403,5.29091246 C18.5362272,4.96578783 18.2549287,4.80281971 17.9046446,4.80281971 C17.5363432,4.80281971 17.2500128,4.97861101 17.0471142,5.32921971 M19.8696765,4.75282551 C20.2707664,5.32012986 20.4712301,5.99180522 20.4712301,6.76801391 C20.4712301,7.56889507 20.2506388,8.25112116 19.8092939,8.81436754 C19.3685983,9.37761391 18.7334446,9.65939942 17.9046446,9.65939942 C16.9604359,9.65939942 16.2968765,9.36706319 15.9138041,8.78352696 C15.5297577,8.19917913 15.3388707,7.52734145 15.3388707,6.76801391 C15.3388707,6.08384 15.5234272,5.43472696 15.8938388,4.82181101 C16.2631142,4.20857043 16.9338157,3.90146319 17.9046446,3.90146319 C18.8136301,3.90146319 19.4684243,4.18552116 19.8696765,4.75282551" id="Fill-11" fill="#FFFFFF"></path>
                                <polygon id="Fill-13" fill="#FFFFFF" points="3.04078377 19.2435478 6.49275362e-05 22.1821681 3.04078377 22.1821681 20.7874272 22.1821681 23.713062 19.2435478"></polygon>
                                <g id="Group-17">
                                    <mask id="mask-2" fill="white">
                                        <use xlink:href="#path-1"></use>
                                    </mask>
                                    <g id="Clip-16"></g>
                                    <polygon id="Fill-15" fill="#FFFFFF" mask="url(#mask-2)" points="0 3.02640232 0 19.2435154 0 22.1821357 3.04071884 19.2435154 3.04071884 -3.24637681e-05"></polygon>
                                </g>
                            </g>
                        </g>
                    </g>
                </g>
            </g>
        </g>
    </g>
</svg>