<?xml version="1.0" encoding="UTF-8"?>
<svg width="40px" height="40px" viewBox="0 0 40 40" version="1.1" xmlns="http://www.w3.org/2000/svg" xmlns:xlink="http://www.w3.org/1999/xlink">
    <title>4D76F208-2FDE-480B-8429-53A3B4B95ED3</title>
    <defs>
        <circle id="path-1" cx="20" cy="20" r="20"></circle>
        <polygon id="path-3" points="3.5067164e-16 3.50603878e-16 26.1824605 3.50603878e-16 26.1824605 23.0154737 3.5067164e-16 23.0154737"></polygon>
    </defs>
    <g id="WSG" stroke="none" stroke-width="1" fill="none" fill-rule="evenodd">
        <g id="20Icon_기관로고" transform="translate(-191.000000, -577.000000)">
            <g id="#-Con" transform="translate(79.500000, 136.000000)">
                <g id="은행" transform="translate(0.500000, 144.000000)">
                    <g id="신협" transform="translate(111.000000, 264.000000)">
                        <g id="icon_32_bank_shinhyup" transform="translate(0.000000, 33.000000)">
                            <mask id="mask-2" fill="white">
                                <use xlink:href="#path-1"></use>
                            </mask>
                            <use id="Oval" fill="#0157A0" xlink:href="#path-1"></use>
                            <g id="Group-3" mask="url(#mask-2)">
                                <g transform="translate(7.500434, 8.750434)">
                                    <mask id="mask-4" fill="white">
                                        <use xlink:href="#path-3"></use>
                                    </mask>
                                    <g id="Clip-2" stroke="none" fill="none"></g>
                                    <path d="M17.4118421,14.5367895 L17.3742105,14.5150789 C15.8327632,15.7308684 14.3636842,16.1332368 13.0914474,16.1332368 C11.8192105,16.1332368 10.3501316,15.7308684 8.80868421,14.5150789 L8.77105263,14.5367895 L8.77105263,14.5295526 L13.1030263,12.0082368 L17.4118421,14.5295526 L17.4118421,14.5367895 Z M10.9146053,3.17928947 L10.9392105,3.17928947 L10.9146053,8.34928947 L6.59131579,10.7678421 L6.58842105,10.7606053 C5.70697368,4.59336842 10.9146053,3.17928947 10.9146053,3.17928947 L10.9146053,3.17928947 Z M19.5959211,10.7606053 L19.5872368,10.7678421 L15.2682895,8.34928947 L15.2436842,3.17928947 L15.2682895,3.17928947 C15.2682895,3.17928947 20.4773684,4.59336842 19.5959211,10.7606053 L19.5959211,10.7606053 Z M23.6876316,13.5424474 C22.5311842,16.4212632 20.5902632,17.2317895 20.5902632,17.2317895 C26.2972368,11.451 22.8119737,4.78586842 22.8119737,4.78586842 C21.9696053,3.29363158 23.0435526,2.64086842 23.0435526,2.64086842 C20.5902632,3.256 21.3573684,5.28376316 21.3573684,5.28376316 C22.5876316,8.21613158 22.3401316,10.5999474 21.9218421,12.0748158 L21.1142105,11.6217895 L21.1286842,11.6029737 C21.1286842,11.6029737 23.0421053,4.06218421 15.2364474,1.41928947 L15.2306579,-0.000578947368 L13.5821053,-0.000578947368 L13.5821053,9.34363158 L21.2415789,13.7103421 C21.1040789,13.9940263 20.955,14.2588947 20.8001316,14.5121842 L13.1073684,10.0557368 L5.38131579,14.5121842 C5.22934211,14.2588947 5.08026316,13.9940263 4.93986842,13.7103421 L12.5993421,9.34363158 L12.5993421,-0.000578947368 L10.9522368,-0.000578947368 L10.9464474,1.41928947 C3.14223684,4.06218421 5.05565789,11.6029737 5.05565789,11.6029737 L5.06868421,11.6217895 L4.25960526,12.0748158 C3.84131579,10.5999474 3.59381579,8.21613158 4.82552632,5.28376316 C4.82552632,5.28376316 5.59263158,3.256 3.14078947,2.64086842 C3.14078947,2.64086842 4.21184211,3.29363158 3.36947368,4.78586842 C3.36947368,4.78586842 -0.114342105,11.451 5.59263158,17.2317895 C5.59263158,17.2317895 3.65171053,16.4212632 2.49381579,13.5424474 C2.49381579,13.5424474 1.83815789,12.1399474 3.5067164e-16,12.4453421 L1.10144737,14.0316579 C1.10144737,14.0316579 2.75723684,19.3015263 9.15315789,20.1048158 L9.15315789,23.0154737 L12.2925,23.0154737 L12.2925,18.7283684 C12.2925,18.7283684 8.96065789,18.6994211 6.41907895,15.9002105 L7.20789474,15.4413947 C7.35407895,15.5803421 9.77407895,17.8179737 13.0726316,17.8773158 L13.0726316,17.8802105 L13.0914474,17.8802105 L13.1102632,17.8802105 L13.1102632,17.8773158 C16.4088158,17.8179737 18.8288158,15.5803421 18.9764474,15.4413947 L19.7623684,15.9002105 C17.2207895,18.6994211 13.8889474,18.7283684 13.8889474,18.7283684 L13.8889474,23.0154737 L17.0297368,23.0154737 L17.0297368,20.1048158 C23.4256579,19.3015263 25.08,14.0316579 25.08,14.0316579 C25.4867105,12.7594211 26.1828947,12.4453421 26.1828947,12.4453421 C24.3432895,12.1399474 23.6876316,13.5424474 23.6876316,13.5424474 L23.6876316,13.5424474 Z" id="Fill-1" stroke="none" fill="#FFFFFF" fill-rule="evenodd" mask="url(#mask-4)"></path>
                                </g>
                            </g>
                        </g>
                    </g>
                </g>
            </g>
        </g>
    </g>
</svg>