<?xml version="1.0" encoding="UTF-8"?>
<svg width="40px" height="40px" viewBox="0 0 40 40" version="1.1" xmlns="http://www.w3.org/2000/svg" xmlns:xlink="http://www.w3.org/1999/xlink">
    <title>3612017E-9EB7-4903-8AA3-EBB73346DFDC</title>
    <defs>
        <path d="M0.995726027,8.23993651e-17 C0.0957369863,0.0266958904 0.00122739726,0.996339726 0,1.02518356 L0,1.02518356 L0,3.77240548 L3.77117808,3.77240548 L3.77117808,8.23993651e-17 L0.995726027,8.23993651e-17 Z" id="path-1"></path>
        <polygon id="path-3" points="-4.37150316e-16 -4.16333634e-16 14.547726 -4.16333634e-16 14.547726 15.3772932 -4.37150316e-16 15.3772932"></polygon>
    </defs>
    <g id="WSG" stroke="none" stroke-width="1" fill="none" fill-rule="evenodd">
        <g id="20Icon_기관로고" transform="translate(-216.000000, -964.000000)">
            <g id="#-Con" transform="translate(79.500000, 136.000000)">
                <g id="저축은행" transform="translate(0.500000, 531.000000)">
                    <g id="더케이" transform="translate(136.000000, 264.000000)">
                        <g id="icon_32_saving_thek" transform="translate(0.000000, 33.000000)">
                            <circle id="Oval" fill="#0066B3" cx="20" cy="20" r="20"></circle>
                            <g id="Group-9" transform="translate(10.400000, 9.106972)">
                                <path d="M16.5896548,16.8180121 C16.4300932,16.7130696 16.216526,16.7462093 16.0971616,16.8971792 C14.3907726,19.0408285 11.8463781,20.2700668 9.11265753,20.2700668 C6.38200548,20.2700668 3.83669041,19.0408285 2.13183562,16.8971792 C2.01124384,16.7462093 1.79921096,16.7130696 1.63719452,16.8180121 C1.47671233,16.9195792 1.41963836,17.1313052 1.50954521,17.3003792 C2.99009315,20.1549984 5.90516164,21.9282805 9.11265753,21.9282805 C12.3238356,21.9282805 15.237063,20.1549984 16.7173041,17.3003792 C16.8069041,17.1313052 16.7513644,16.9195792 16.5896548,16.8180121" id="Fill-1" fill="#E50121"></path>
                                <g id="Group-5" transform="translate(0.000000, 6.293173)">
                                    <mask id="mask-2" fill="white">
                                        <use xlink:href="#path-1"></use>
                                    </mask>
                                    <g id="Clip-4"></g>
                                    <path d="M0.995726027,8.23993651e-17 C0.0957369863,0.0266958904 0.00122739726,0.996339726 0,1.02518356 L0,1.02518356 L0,3.77240548 L3.77117808,3.77240548 L3.77117808,8.23993651e-17 L0.995726027,8.23993651e-17 Z" id="Fill-3" fill="#FFFFFF" mask="url(#mask-2)"></path>
                                </g>
                                <g id="Group-8" transform="translate(7.167356, 0.000000)">
                                    <mask id="mask-4" fill="white">
                                        <use xlink:href="#path-3"></use>
                                    </mask>
                                    <g id="Clip-7"></g>
                                    <path d="M10.3632219,7.07793973 L14.547726,2.9014137 L11.6842082,0.038509589 L6.89551781,4.83057534 L5.20753973,6.52008767 L5.20753973,6.51763288 C4.2105863,7.24394521 4.06636712,6.20648767 4.04580822,5.93155068 L4.04580822,-0.000153424658 L1.9264,-0.000153424658 C0.298871233,0.0311452055 0.0328328767,1.67861918 -4.37150316e-16,1.9382137 L-4.37150316e-16,15.3772932 L4.04580822,15.3772932 L4.04580822,7.70237808 L6.89551781,10.5496329 L11.6842082,15.342926 L14.547726,12.4800219 L10.3451178,8.27894795 C9.83789589,7.72907397 10.3095233,7.14268493 10.3632219,7.07793973" id="Fill-6" fill="#FFFFFF" mask="url(#mask-4)"></path>
                                </g>
                            </g>
                        </g>
                    </g>
                </g>
            </g>
        </g>
    </g>
</svg>