<svg width="40" height="40" xmlns="http://www.w3.org/2000/svg" xmlns:xlink="http://www.w3.org/1999/xlink">
    <defs>
        <path id="a" d="M0 0h23.256v22.433H0z"/>
    </defs>
    <g fill="none" fill-rule="evenodd">
        <circle fill="#F8F8F8" cx="20" cy="20" r="20"/>
        <g transform="translate(8 9.151)">
            <mask id="b" fill="#fff">
                <use xlink:href="#a"/>
            </mask>
            <path d="M17.873 10.841c-2.011-1.34-4.586-.793-5.938 1.223a4.23 4.23 0 0 1-3.493 1.895 4.191 4.191 0 0 1-4.059-3.02h-.002l-.01-.044a.521.521 0 0 1-.014-.053c-.172-.64-.214-.946-.214-1.627 0-3.674 3.84-7.764 9.374-7.764 5.665 0 8.906 4.231 9.74 6.584a4.63 4.63 0 0 0-.042-.126C21.61 3.31 17.162 0 11.93 0 5.34 0-.001 5.241-.001 11.708c0 5.778 4.248 10.725 10.14 10.725 4.699 0 7.857-2.586 9.305-6.15.796-1.948.232-4.237-1.571-5.442" fill="#003668" mask="url(#b)"/>
        </g>
        <path d="M31.332 17.413c-.697-2.293-3.962-6.81-9.815-6.81-5.533 0-9.374 4.09-9.374 7.763 0 .681.042.987.213 1.628a3.342 3.342 0 0 1-.11-.835c0-3.826 3.905-6.478 7.918-6.478 5.432 0 9.835 4.322 9.835 9.652 0 4.18-2.45 7.796-6.01 9.533v.003c4.59-1.631 7.868-5.945 7.868-11.01 0-1.2-.165-2.256-.525-3.446" fill="#E5002D"/>
    </g>
</svg>
