<svg width="41" height="40" xmlns="http://www.w3.org/2000/svg" xmlns:xlink="http://www.w3.org/1999/xlink">
    <defs>
        <path id="a" d="M0 0h30.321v23.213H0z"/>
    </defs>
    <g transform="translate(.5)" fill="none" fill-rule="evenodd">
        <circle fill="#005BAB" cx="20" cy="20" r="20"/>
        <g transform="translate(4.8 6.4)">
            <mask id="b" fill="#fff">
                <use xlink:href="#a"/>
            </mask>
            <path d="m14.942 15.067-.001.005-.003.007c-.019.057-.505 1.444-1.802 2.088-1.527.76-3.146.606-3.214.6l-.239-.024.066-.232.099-.348.027-.092.09-.037c1.858-.231 2.49-2.454 2.494-2.47l2.079-7.31h2.64l-2.236 7.813zm15.088-4.036-4.4-3.337-1.743 6.114s-.34 1.044-1.45 1.408c-1.219.402-3.225.176-3.748.132-.512-.042-1.005-.386-1.25-.734-.294-.42-.382-1.083-.232-1.764L18.8 7.253h2.637l-1.503 5.257s-.131.365.019.561c.109.144.302.24.556.24.19 0 .476.008.678-.048.514-.098.587-.51.587-.51l1.87-6.564L15.78.23c-.392-.311-.858-.302-1.238 0L.296 11.031c-.198.162-.287.331-.296.542-.008.234.098.432.296.608l1.967 1.492 7.16-5.581s.652-.514 1.192-.671c.45-.131.961-.168 1.692-.168h.578l-2.26 7.924H7.975l1.464-4.363-5.386 4.217 10.489 7.95a.943.943 0 0 0 1.238 0l14.25-10.8a.714.714 0 0 0 0-1.15z" fill="#FFF" mask="url(#b)"/>
        </g>
    </g>
</svg>
