<svg width="41" height="40" xmlns="http://www.w3.org/2000/svg" xmlns:xlink="http://www.w3.org/1999/xlink">
    <defs>
        <circle id="a" cx="20" cy="20" r="20"/>
    </defs>
    <g transform="translate(.5)" fill="none" fill-rule="evenodd">
        <mask id="b" fill="#fff">
            <use xlink:href="#a"/>
        </mask>
        <use fill="#EE3D42" xlink:href="#a"/>
        <path d="m5.46 22.11-.042-.597h-1.06v.746c.067 1.054.728 1.46.748 1.48.323.308 1.123.287 1.123.287h3.68v-.937H6.52c-1.034.016-1.06-.98-1.06-.98zm30.684-.806v-3.47c-.024-.376-.26-.842-.45-1.063-.569-.664-1.305-.582-1.305-.582h-3.96v.933h3.696c.763.045.826.751.826.751v.498h-4.498v.921h4.498v1.992H29.75v.902H37v-.882h-.856zm-7.308-2.942h-.96L27.86 16h-1.08v6.155h1.123v-2.82h.461c.26 0 .374-.206.374-.206l.298-.561c.087-.265-.201-.206-.201-.206zm-10.936 0h-.96s-.288-.06-.202.206l.298.56s.115.208.374.208h.462v2.819h1.123V16h-1.08l-.015 2.362zm-5.17 1.617v-.724h3.49v-.85h-3.49V17.16h3.49v-.922h-4.523v3.992c.021.326.225.729.39.92.493.574 1.13.503 1.13.503h3.024v-.907h-2.795c-.66-.039-.716-.767-.716-.767zm-8.632-1.783c0-.692.526-1.17 1.174-1.17.657 0 1.173.478 1.173 1.17a1.15 1.15 0 0 1-1.173 1.179 1.156 1.156 0 0 1-1.174-1.18zm3.455 0c0-1.169-1.042-2.13-2.28-2.13-1.23 0-2.273.961-2.273 2.13 0 1.177 1.042 2.13 2.272 2.13 1.24 0 2.281-.953 2.281-2.13zm1.296 3.839h1.098V16H8.85v6.035zm13.78-1.191h1.136v-3.733H22.63v3.733zm2.244-3.733h.779v-.838h-4.91v.838h.79v3.733h-.883v.852h5.2v-.852h-.976v-3.733z" fill="#FFF" mask="url(#b)"/>
    </g>
</svg>
