<svg width="90" height="48" xmlns="http://www.w3.org/2000/svg" xmlns:xlink="http://www.w3.org/1999/xlink">
    <defs>
        <path id="a" d="M0 0h15.179v15.273H0z"/>
        <path id="c" d="M0 0h57.143v13.476H0z"/>
    </defs>
    <g fill="none" fill-rule="evenodd">
        <path d="M0 0h90v48H0z"/>
        <g transform="translate(33.393 24.57)">
            <mask id="b" fill="#fff">
                <use xlink:href="#a"/>
            </mask>
            <path d="M12.61 0v5.561h2.569v1.966H12.61v7.746h-2.362V0h2.362zM8.642 12.11C7.28 11.29 6.053 10.29 5.18 8.88c-.866 1.462-2.207 2.721-3.79 3.682L0 10.895C2.217 9.643 3.997 7.76 3.997 5.304v-1.26H.688V2.137h3.31V0h2.357v2.136h2.96v1.909h-2.96v1.32c0 2.334 1.43 4.03 3.335 4.977L8.64 12.111z" fill="#685C4C" mask="url(#b)"/>
        </g>
        <path d="M62.073 21.875v5.569h2.57v1.955h-2.57v7.75h-2.357V21.874h2.357zm-3.961 12.103c-1.354-.814-2.59-1.825-3.457-3.232-.87 1.457-2.212 2.737-3.79 3.694l-1.4-1.663c2.225-1.263 4.005-3.142 4.005-5.612v-1.252h-3.305v-1.911h3.305v-2.127h2.353v2.127h2.969v1.911h-2.969v1.316c0 2.353 1.43 4.037 3.336 4.974l-1.047 1.775zM77.256 22.773v5.563h2.565V30.3h-2.565v7.748h-2.368V22.773h2.368zm-3.971 12.103c-1.348-.818-2.585-1.822-3.458-3.221-.872 1.452-2.202 2.721-3.782 3.667l-1.402-1.652c2.226-1.259 4.006-3.138 4.006-5.595v-1.267h-3.312V24.9h3.312v-2.127h2.353V24.9h2.959v1.908H71v1.324c0 2.331 1.43 4.036 3.337 4.975l-1.053 1.769zM40.536 20.518c0 .743-.602 1.357-1.341 1.357a1.346 1.346 0 0 1-1.338-1.357c0-.74.59-1.338 1.338-1.338a1.34 1.34 0 0 1 1.34 1.338M56.607 17.823c0 .75-.591 1.357-1.339 1.357a1.35 1.35 0 0 1-1.34-1.357c0-.747.603-1.339 1.34-1.339.748 0 1.34.592 1.34 1.339M71.786 18.734a1.34 1.34 0 1 1-2.679 0c0-.74.599-1.351 1.338-1.351.747 0 1.34.612 1.34 1.351" fill="#685C4C"/>
        <path fill="#FABA0F" d="M10.165 39.844H7.5V25.469h2.665v6.05l5.461-6.05h3.242l-5.9 6.547 6.14 7.828h-3.1l-4.702-5.969-1.141 1.258zM25.554 37.732c1.58 0 2.432-.793 2.432-2.243 0-1.27-.977-2.172-2.392-2.172h-2.915v4.415h2.875zm-2.875-10.17v3.669h2.862c1.22 0 1.801-.714 1.801-1.961 0-1.12-.788-1.707-1.873-1.707h-2.79zm7.38 1.536c0 1.116-.465 2.222-1.481 2.964 1.267.84 2.191 2.283 2.134 3.591-.083 2.375-1.576 4.19-5.203 4.19H20V25.47h5.368c2.465 0 4.692 1.08 4.692 3.63z"/>
        <g transform="translate(25.357 7.5)">
            <mask id="d" fill="#fff">
                <use xlink:href="#c"/>
            </mask>
            <path d="M56.672 8.058c-.014-.437-1.054-2.33-4.217-2.686-4.738-.483-5.236-2.51-9.62-3.88C37.253-.253 28.547-.8 22.196 1.695c-4.472 1.755-4.437 2.584-8.965 3.392-7.573 1.338-9.837 1.687-12.178 5.179C.28 11.433.185 12.029 0 13.476c.175-1.182.85-2.694 2.55-4.316 1.862-1.766 4.798-2.595 10.874-3.555 3.383-.54 4.279-1.207 8.156-3.064 5.878-2.428 13.585-2.68 20.825-.564 3.912 1.157 4.398 3.035 10.025 4.002.76.137 2.782.356 3.668 2.117.356.725.856 2.962.916 3.355h.126c.042-.99-.353-3.012-.468-3.393" fill="#FABA0F" mask="url(#d)"/>
        </g>
    </g>
</svg>
