<?xml version="1.0" encoding="UTF-8"?>
<svg width="140px" height="96px" viewBox="0 0 140 96" version="1.1" xmlns="http://www.w3.org/2000/svg" xmlns:xlink="http://www.w3.org/1999/xlink">
    <title>img_140_car_finance</title>
    <defs>
        <path d="M1.40620888,5.9064472 C0.548968876,5.50812634 0,4.64430001 0,3.69371655 L0,0 L2.52283249,1.31554257 L96,1.31554257 C96,4.31251244 93.5869837,6.74203655 90.6103772,6.74203655 L3.91748579,6.74203655 C3.01211814,6.74203655 2.13108788,6.44888708 1.40620888,5.9064472 L1.40620888,5.9064472 L1.40620888,5.9064472 Z" id="path-1"></path>
    </defs>
    <g id="01메인" stroke="none" stroke-width="1" fill="none" fill-rule="evenodd">
        <g id="01내자산_01메인_05차량-등록-유도_CMYMCP003" transform="translate(-118.000000, -457.000000)">
            <g id="+-Bottom-sheet" transform="translate(0.000000, 369.000000)">
                <g id="txt" transform="translate(16.000000, 88.000000)">
                    <g id="Group" transform="translate(102.000000, 0.000000)">
                        <g id="Group-2">
                            <path d="M8.25017877,0 L56,0 L56,3.48736709 C55.9999959,5.97264617 53.9852791,7.98736295 51.5,7.98736295 C51.4962023,7.98736295 51.4924046,7.98735814 51.4886069,7.98734852 C35.1899486,7.94608343 18.0270796,7.95030059 0,8 C5.49022994,7.65031981 8.24028953,5.38436485 8.25017877,1.20213511 L8.25017877,0 Z" id="Rectangle" fill="#DADEE5" transform="translate(28.000000, 4.000000) scale(-1, -1) translate(-28.000000, -4.000000) "></path>
                            <path d="M8.21597009,0.126169085 C31.239743,-0.055416778 50.5010863,-0.0409952812 66,0.169433575 C63.6895347,0.169433575 62.534302,1.01711738 62.534302,2.712485 L62.534302,77.0996 C62.5343081,79.2468864 60.7935885,80.987606 58.646302,80.987606 C58.6425157,80.987606 58.6387294,80.9876005 58.6349431,80.9875894 C41.5034844,80.9375392 22.9827882,80.941676 3.0728544,81 C2.9757152,78.472675 2.9757152,75.8588701 3.0728544,73.1585855 L3.0728544,5.31000405 C3.07285821,2.46291549 5.36897007,0.148623048 8.21597009,0.126169085 Z" id="Rectangle" fill="#F3F8FF" transform="translate(34.500000, 40.500000) scale(-1, 1) translate(-34.500000, -40.500000) "></path>
                            <g id="Group-37" opacity="0.8" transform="translate(17.000000, 48.000000)" fill="#DADEE5">
                                <g id="Group-33-Copy" transform="translate(17.727273, 8.500000) rotate(-360.000000) translate(-17.727273, -8.500000) translate(5.454545, 0.000000)">
                                    <rect id="Rectangle" x="-8.58613879e-13" y="3.52628648e-13" width="24.5454545" height="3.87719298" rx="1.93859649"></rect>
                                    <rect id="Rectangle-Copy" x="-8.58464814e-13" y="6.56140351" width="16.993007" height="3.87719298" rx="1.93859649"></rect>
                                    <rect id="Rectangle-Copy-7" x="2.20003409e-11" y="13.122807" width="23.034965" height="3.87719298" rx="1.93859649"></rect>
                                </g>
                                <g id="Group-33-Copy-2" transform="translate(1.909091, 8.500000) rotate(-360.000000) translate(-1.909091, -8.500000) translate(-0.000000, 0.000000)">
                                    <rect id="Rectangle" x="0" y="0" width="3.81818182" height="3.87719298" rx="1.90909091"></rect>
                                    <rect id="Rectangle-Copy" x="0" y="6.56140351" width="3.81818182" height="3.87719298" rx="1.90909091"></rect>
                                    <rect id="Rectangle-Copy-7" x="0" y="13.122807" width="3.81818182" height="3.87719298" rx="1.90909091"></rect>
                                </g>
                            </g>
                            <g id="그래프" opacity="0.8" transform="translate(15.000000, 5.000000)">
                                <rect id="area" x="0" y="0" width="42" height="42"></rect>
                                <g transform="translate(3.281302, 2.754624)" stroke-width="10.368">
                                    <ellipse id="Oval" stroke="#D9DEE4" opacity="0.39" cx="18.2641505" cy="18.2453751" rx="14.0463233" ry="13.9993442"></ellipse>
                                    <path d="M18.2476801,32.2849582 C25.9828834,32.2759465 32.2608101,25.9828831 32.2698314,18.2290077 C32.2788333,10.4751323 26.0155174,4.19667977 18.2803141,4.2056818 C16.2422103,4.20806593 14.3052763,4.64670388 12.5575273,5.43337811 C7.67205453,7.63236395 4.26480967,12.5507902 4.25817246,18.261642" id="Oval" stroke="#D9DEE4" opacity="0.1" transform="translate(18.264002, 18.245320) rotate(-292.000000) translate(-18.264002, -18.245320) "></path>
                                    <path d="M9.06306305,7.66742294 C6.09490247,10.2342181 4.2178272,14.0213226 4.2178272,18.2453751 C4.2178272,25.9769995 10.5065803,32.2447194 18.2641505,32.2447194 C26.0217206,32.2447194 32.3104738,25.9769995 32.3104738,18.2453751 C32.3104738,10.5137508 26.0217206,4.24603093 18.2641505,4.24603093" id="Path" stroke="#DBDFE4" opacity="0.5"></path>
                                    <path d="M4.41277271,15.9205297 C4.28517279,16.6782696 4.21834836,17.4566146 4.21834836,18.2503651 C4.21565193,25.9822026 10.5019798,32.2479089 18.2592556,32.2452126 C26.0165313,32.2425147 32.3072324,25.9724355 32.3099305,18.240598 C32.312627,10.5087605 26.0262991,4.24305417 18.2690233,4.24575042" id="Path" stroke="#DADEE5" opacity="0.7" transform="translate(18.264139, 18.245482) rotate(6.000000) translate(-18.264139, -18.245482) "></path>
                                    <path d="M9.41266604,29.1159196 C11.8284056,31.0722278 14.9088935,32.2447194 18.2641505,32.2447194 C26.0217206,32.2447194 32.3104738,25.9769995 32.3104738,18.2453751 C32.3104738,10.5137508 26.0217206,4.24603093 18.2641505,4.24603093" id="Path" stroke="#DADEE5"></path>
                                </g>
                            </g>
                            <path d="M16.9736484,69 L71,69 C71,75.6113547 65.6404381,80.9709166 59.0290834,80.9709166 C59.0219099,80.9709166 59.0147365,80.9709102 59.0075631,80.9709185 C42.9545823,80.9420598 26.2853946,80.9517537 9,81 C14.5925509,81.000129 17.2504337,78.4809053 16.9736484,73.4423289 L16.9736484,69 Z" id="Rectangle" fill="#DADEE5"></path>
                        </g>
                        <g id="Group-2-Copy-2" transform="translate(44.000000, 52.061538)">
                            <g id="car" transform="translate(0.000000, -0.061538)">
                                <path d="M23.3443891,42.1075269 C27.4967186,42.1075269 30.8628467,38.7183706 30.8628467,34.5376344 C30.8628467,30.3568982 27.4967186,26.9677419 23.3443891,26.9677419 C19.1920596,26.9677419 15.8259314,30.3568982 15.8259314,34.5376344 C15.8259314,38.7183706 19.1920596,42.1075269 23.3443891,42.1075269 Z" id="Oval-Copy-7" fill="#091522"></path>
                                <path d="M71.0750662,42.1075269 C75.2273957,42.1075269 78.5935239,38.7183706 78.5935239,34.5376344 C78.5935239,30.3568982 75.2273957,26.9677419 71.0750662,26.9677419 C66.9227367,26.9677419 63.5566085,30.3568982 63.5566085,34.5376344 C63.5566085,38.7183706 66.9227367,42.1075269 71.0750662,42.1075269 Z" id="Oval-Copy-8" fill="#091522"></path>
                                <path d="M84.0138055,0 C84.8572181,0 85.6398147,0.442037569 86.0794348,1.16673873 L95.3649678,16.4736721 C95.7742122,17.1482997 95.9908712,17.922128 95.9914326,18.71118 L96,30.7526882 L96,30.7526882 L2.52283249,30.7526882 C2.52283249,23.7072811 8.13537271,17.9442467 15.178314,17.7578636 L24.7191597,17.5053763 L24.7191597,17.5053763 L24.6343439,17.5053763 L41.6706296,0 L84.0138055,0 Z" id="Path" fill="#FFCC00"></path>
                                <path d="M44.1950546,2.55423663 L59.0807624,2.55423663 C59.3193495,2.55423663 59.5127624,2.74764962 59.5127624,2.98623663 L59.5127624,17.0885078 C59.5129833,17.3270948 59.3195703,17.5205078 59.0809833,17.5205078 C59.0809097,17.5205078 59.080836,17.5205078 59.0807625,17.5202869 L30.922842,17.5058876 C30.684255,17.5057656 30.490941,17.3122537 30.491063,17.0736668 C30.4911193,16.9636246 30.5331674,16.8577517 30.6086257,16.777656 L43.8806173,2.69000494 C43.9622468,2.60335872 44.0760128,2.55423663 44.1950546,2.55423663 Z" id="Rectangle" fill="#FFFFFF"></path>
                                <path d="M63.6765109,2.55423663 L83.2062416,2.55423663 C83.3577333,2.55423663 83.4981558,2.63358968 83.5763116,2.76336409 L92.0690841,16.8652392 C92.1921732,17.0696233 92.1262706,17.3350927 91.9218866,17.4581818 C91.8545414,17.49874 91.7774055,17.5201524 91.6987903,17.5201117 L63.6765108,17.5056001 C63.4380113,17.5052528 63.2447347,17.311876 63.2445109,17.0733763 L63.2445109,2.98623663 C63.2445109,2.74764962 63.4379239,2.55423663 63.6765109,2.55423663 Z" id="Rectangle-Copy-21" fill="#FFFFFF"></path>
                                <path d="M36.7510005,0 L41.6706296,0 L41.6706296,0 L24.6343439,17.5205078 L18.645353,17.5053763 L35.5249618,0.510291837 C35.8493567,0.18367765 36.2906648,3.41523136e-15 36.7510005,0 Z" id="Rectangle-Copy-18" fill="#F2F2F2"></path>
                                <path d="M36.7452043,0 L41.6706296,0 L41.6706296,0 L39.2033991,2.55423663 L33.4656919,2.55423663 L35.5261568,0.503293087 C35.8499865,0.180959728 36.2882968,5.28021766e-16 36.7452043,0 Z" id="Rectangle-Copy-18" fill="#FFCC00"></path>
                                <path d="M2.52283249,30.9748811 L9.00188682e-13,29.4858897 C8.99411098e-13,23.1364354 5.04115842,17.9339603 11.3874642,17.7340275 L18.645353,17.5053763 L18.645353,17.5053763 L24.6343439,17.5053763 L15.4003945,17.7506793 C8.23365627,17.941066 2.52283249,23.8056145 2.52283249,30.9748811 L2.52283249,30.9748811 L2.52283249,30.9748811 Z" id="Path" fill="#FFBD43"></path>
                                <g id="Rectangle-Copy-20" transform="translate(0.000000, 29.437146)">
                                    <mask id="mask-2" fill="white">
                                        <use xlink:href="#path-1"></use>
                                    </mask>
                                    <use id="Mask" fill="#FFBD43" xlink:href="#path-1"></use>
                                    <path d="M1.57533019e-12,0 L2.52283249,1.31554257 L2.52283249,6.74203655 L0.424845582,5.50379169 C0.161562382,5.34840031 1.5747015e-12,5.06544188 1.57533019e-12,4.7597222 L1.57533019e-12,0 L1.57533019e-12,0 Z" fill="#F8A918" mask="url(#mask-2)"></path>
                                </g>
                                <rect id="Rectangle" fill="#FCFCFF" x="51.4776231" y="20.344086" width="7.98836126" height="1.41935484" rx="0.251605026"></rect>
                                <rect id="Rectangle" fill="#FCFCFF" x="62.2854059" y="20.344086" width="7.98836126" height="1.41935484" rx="0.251605026"></rect>
                                <path d="M89.5019113,22.2365591 L96,22.2365591 L96,22.2365591 L96,26.4946237 L89.5019113,26.4946237 C89.2633243,26.4946237 89.0699113,26.3012107 89.0699113,26.0626237 L89.0699113,22.6685591 C89.0699113,22.4299721 89.2633243,22.2365591 89.5019113,22.2365591 Z" id="Rectangle-Copy-23" fill="#FCFCFF"></path>
                                <path d="M29.9230395,44 C34.8539308,44 38.851208,39.9753769 38.851208,35.0107527 C38.851208,30.0461285 34.8539308,26.0215054 29.9230395,26.0215054 C24.9921482,26.0215054 20.9948711,30.0461285 20.9948711,35.0107527 C20.9948711,39.9753769 24.9921482,44 29.9230395,44 Z" id="Oval" fill="#5E6063"></path>
                                <path d="M77.3833035,44 C82.3141947,44 86.3114719,39.9753769 86.3114719,35.0107527 C86.3114719,30.0461285 82.3141947,26.0215054 77.3833035,26.0215054 C72.4524122,26.0215054 68.455135,30.0461285 68.455135,35.0107527 C68.455135,39.9753769 72.4524122,44 77.3833035,44 Z" id="Oval-Copy-5" fill="#5E6063"></path>
                                <path d="M29.9230395,38.9935913 C32.1077546,38.9935913 33.8788161,37.2104137 33.8788161,35.0107527 C33.8788161,32.8110917 32.1077546,31.0279141 29.9230395,31.0279141 C27.7383244,31.0279141 25.9672629,32.8110917 25.9672629,35.0107527 C25.9672629,37.2104137 27.7383244,38.9935913 29.9230395,38.9935913 Z" id="Oval-Copy-4" fill="#FCFCFF"></path>
                                <path d="M77.3833035,38.9935913 C79.5680185,38.9935913 81.33908,37.2104137 81.33908,35.0107527 C81.33908,32.8110917 79.5680185,31.0279141 77.3833035,31.0279141 C75.1985884,31.0279141 73.4275269,32.8110917 73.4275269,35.0107527 C73.4275269,37.2104137 75.1985884,38.9935913 77.3833035,38.9935913 Z" id="Oval-Copy-6" fill="#FCFCFF"></path>
                            </g>
                        </g>
                        <g id="icon_96_loan" transform="translate(82.757277, 12.000000)">
                            <g id="Group-31" transform="translate(2.242723, 5.000000)">
                                <path d="M19.8705422,7.3319303 C22.7183106,8.02625397 27.6250953,12.8363727 27.6250953,19.0965529 C27.6250953,19.7407479 27.6293687,20.4039328 27.6370032,21.076885 L27.6457244,21.7527514 C27.6473534,21.8658246 27.6490673,21.9790837 27.6508619,22.092486 L27.6625641,22.7742771 C27.666765,23.0018859 27.671255,23.2297262 27.6760002,23.4574561 L27.6909676,24.1399737 C27.8189023,29.7055877 28.0797454,35 27.9766278,35 L1.64556443,35 C0.737961507,35 0,34.2600676 0,33.3504693 L0,32.6079662 C0,31.6979394 0.737961507,30.9575786 1.64556443,30.9575786 L2.22200338,30.9574152 L2.22208884,19.0965529 C2.22208884,14.1141133 5.13675905,9.53870062 9.64742591,7.44058323 L9.69357521,7.42173145 L10.1683148,7.25292233 C10.4456379,7.15395049 17.0227739,6.63760663 19.8705422,7.3319303 Z M15.4364284,1.02241032e-13 C16.1431964,1.02241032e-13 16.7324546,0.508998052 16.8606471,1.18037848 C17.0149054,0.852186133 17.2819731,0.597258657 17.6186921,0.458012557 C17.9763492,0.309769017 18.3699002,0.310625916 18.7275573,0.460154805 L19.4791926,0.774208317 C20.2162995,1.08097819 20.5662651,1.93316432 20.259885,2.67309667 C20.2496296,2.69880365 20.2372376,2.72365372 20.2222818,2.74721844 L18.2284611,6.01800223 C18.1280437,6.18338375 17.9524199,6.27421505 17.7725231,6.27421505 L17.6960029,6.27412253 C17.6737968,6.27408257 17.647071,6.27402577 17.6161353,6.2739453 L17.382481,6.27312357 C16.0794749,6.26745192 11.9617512,6.23248666 11.8312279,6.01800223 L9.8374072,2.74721844 C9.82287871,2.72365372 9.81048677,2.6992321 9.80023137,2.67395357 C9.65110076,2.31576976 9.65024614,1.92073928 9.79766752,1.56169857 C9.9450889,1.20265786 10.2232666,0.922880307 10.5804964,0.773779868 L11.3312772,0.460154805 C11.6889342,0.310625916 12.0824852,0.309769017 12.4405696,0.458012557 C12.7781432,0.597258657 13.0452109,0.852614583 13.1990419,1.18123538 C13.3268071,0.509426502 13.9169199,1.02241032e-13 14.6232606,1.02241032e-13 L15.4364284,1.02241032e-13 Z" id="Combined-Shape" fill="#DFE4ED"></path>
                                <g id="Group-81" transform="translate(14.534767, 19.015796) rotate(-312.000000) translate(-14.534767, -19.015796) translate(10.012051, 14.461536)" stroke="#FFFFFF" stroke-linecap="round" stroke-linejoin="round" stroke-width="2.0475">
                                    <path d="M1.82817142e-12,6.06074639 L6.32114299,9.10851983 L2.68622384,3.02525547 C2.68622384,3.02525547 9.18345171,6.23065472 9.04319216,6.10407642 C8.90327058,5.97749812 5.30113499,9.2046117e-13 5.30113499,9.2046117e-13" id="Stroke-56"></path>
                                    <line x1="1.85325885" y1="8.99643908" x2="2.91774519" y2="7.82005212" id="Stroke-58"></line>
                                    <line x1="7.66681583" y1="2.57175107" x2="8.73130217" y2="1.39536411" id="Stroke-58-Copy"></line>
                                </g>
                                <path d="M11.8198498,7.77777778 C11.0470183,7.77777778 10.4186822,7.19615569 10.4186822,6.481684 C10.4186822,5.76680727 11.0470183,5.18518519 11.8198498,5.18518519 L18.1334236,5.18518519 C18.9062551,5.18518519 19.5350291,5.76680727 19.5350291,6.481684 C19.5350291,7.19615569 18.9062551,7.77777778 18.1334236,7.77777778 L11.8198498,7.77777778 Z" id="Fill-10" fill="#FFFFFF"></path>
                            </g>
                            <g id="Group-56" transform="translate(20.242723, 24.000000)">
                                <g id="Group-79-Copy" transform="translate(1.941176, 5.333333)">
                                    <rect id="Rectangle" fill="#7FC7A2" x="0" y="0" width="20.0588235" height="5.33333333"></rect>
                                    <rect id="Rectangle" fill="#9CDCC2" x="0" y="0" width="7.32306256" height="5.33333333"></rect>
                                    <rect id="Rectangle-Copy-10" fill="#FFF2DE" x="10.8253968" y="0" width="3.18394024" height="5.33333333"></rect>
                                </g>
                                <g id="Group-79-Copy-2" transform="translate(0.000000, 10.666667)">
                                    <rect id="Rectangle" fill="#7FC7A2" x="0" y="0" width="20.0588235" height="5.33333333"></rect>
                                    <rect id="Rectangle" fill="#9CDCC2" x="0" y="0" width="7.32306256" height="5.33333333"></rect>
                                    <rect id="Rectangle-Copy-10" fill="#FFF2DE" x="10.8253968" y="0" width="3.18394024" height="5.33333333"></rect>
                                </g>
                                <g id="Group-79-Copy-3">
                                    <rect id="Rectangle" fill="#7FC7A2" x="0" y="0" width="20.0588235" height="5.33333333"></rect>
                                    <rect id="Rectangle" fill="#9CDCC2" x="0" y="0" width="7.32306256" height="5.33333333"></rect>
                                    <rect id="Rectangle-Copy-10" fill="#FFF2DE" x="10.8253968" y="0" width="3.18394024" height="5.33333333"></rect>
                                </g>
                            </g>
                        </g>
                    </g>
                </g>
            </g>
        </g>
    </g>
</svg>