<svg width="48" height="48" xmlns="http://www.w3.org/2000/svg">
    <g fill="none" fill-rule="evenodd">
        <path d="M0 0h48v48H0z"/>
        <path fill="#FC0" d="M7 2v44.829L40.622 2zM42 42.725l-4.375 1.592-3.728-10.24 4.374-1.593z"/>
        <path d="M34.367 29.34c5.816-2.118 8.812-8.547 6.697-14.36-2.117-5.817-8.544-8.815-14.36-6.698-5.814 2.116-8.814 8.546-6.697 14.361 2.117 5.814 8.545 8.812 14.36 6.696" fill="#FC0"/>
        <path d="M37.905 16.128a7.843 7.843 0 0 0-14.74 5.364 7.844 7.844 0 1 0 14.74-5.364" fill="#FEFEFE"/>
        <path stroke="#070100" stroke-width="1.5" d="m33.897 34.888 3.609 9.699 4.236-1.507-3.61-9.7z"/>
        <path d="m36.065 34.5-1.709-4.78c-5.81 2.155-12.236-.895-14.35-6.813-2.114-5.917.881-12.459 6.691-14.613 5.813-2.154 12.237.898 14.352 6.814.926 2.589.911 5.313.034 7.706-.395 1.075-1.167 2.378-2.61 4.005M11.755 15.756H19.6M11.755 22.146H19.6" stroke="#070100" stroke-width="1.5"/>
        <path d="M29.414 22.218c0-.365.111-.652.334-.863.221-.211.486-.316.795-.316.307 0 .57.105.787.316.217.211.326.498.326.863 0 .364-.109.654-.326.87-.218.216-.48.322-.787.322-.31 0-.574-.106-.795-.323-.223-.215-.334-.505-.334-.87zm2.187-8.894-.244 6.667h-1.602l-.245-6.667h2.09z" fill="#070100"/>
        <path stroke="#070100" stroke-width="1.5" d="M7 46.895V2.066h33.622"/>
    </g>
</svg>
