<svg width="56" height="56" xmlns="http://www.w3.org/2000/svg">
    <g fill="none" fill-rule="evenodd">
        <path d="M0 0h56v56H0z"/>
        <g stroke="#222" stroke-width="1.5">
            <path stroke-linecap="round" d="M14 10.5h25M17 5.5h19"/>
            <path d="M48 45.5H10.308C7.93 45.5 6 43.435 6 40.885V15.5h36.615c2.378 0 4.308 2.068 4.308 4.615V39.54" fill="#FFF"/>
            <g stroke-linecap="round" stroke-linejoin="round">
                <path d="m21.045 25 2.518 8.182 2.947-8.138 2.927 8.138L31.955 25M21.727 28.409H19M34 28.409h-2.727"/>
            </g>
        </g>
        <g transform="translate(34 34)">
            <circle fill="#FFF" cx="10" cy="10" r="10"/>
            <path d="M9.5 0C14.746 0 19 4.254 19 9.5A9.5 9.5 0 0 1 9.5 19 9.5 9.5 0 0 1 0 9.5 9.5 9.5 0 0 1 9.5 0z" stroke="#222" stroke-width="1.5" fill="#FC0"/>
            <g stroke="#222" stroke-linecap="round" stroke-width="1.3">
                <path d="M9.4 5.4v8M13.4 9.4h-8"/>
            </g>
        </g>
    </g>
</svg>
