<?xml version="1.0" encoding="UTF-8"?>
<svg width="40px" height="40px" viewBox="0 0 40 40" version="1.1" xmlns="http://www.w3.org/2000/svg" xmlns:xlink="http://www.w3.org/1999/xlink">
    <title>04_Icon/40/Invest/Spend/icon_40_chauffeur</title>
    <g id="04_Icon/40/Invest/Spend/icon_40_chauffeur" stroke="none" stroke-width="1" fill="none" fill-rule="evenodd">
        <g id="04_Icon/40/spend/icon_40_chauffeur" transform="translate(0.000000, -0.000000)">
            <path d="M40,20 C40,31.04625 31.045,40 20,40 C8.95375,40 0,31.04625 0,20 C0,8.955 8.95375,0 20,0 C31.045,0 40,8.955 40,20" id="Fill-1" fill="#E976AE"></path>
            <g id="대리운전" transform="translate(8.125000, 8.125000)">
                <path d="M13.5030707,12.3615949 C13.5030707,13.2600183 12.7737911,13.9892979 11.8753677,13.9892979 C10.9757186,13.9892979 10.2464391,13.2600183 10.2464391,12.3615949 C10.2464391,11.4619459 10.9757186,10.7326663 11.8753677,10.7326663 C12.7737911,10.7326663 13.5030707,11.4619459 13.5030707,12.3615949" id="Fill-4" fill="#FFFFFF"></path>
                <path d="M13.7190355,20.8390102 C13.770514,17.7674563 15.1052795,14.0793854 18.327592,13.6957475 C19.2076302,13.5903391 20.0533493,13.5940161 20.8426872,13.6932962 C20.119536,17.2796357 17.3004722,20.1060536 13.7190355,20.8390102 Z M2.90241007,13.6638799 C3.76283738,13.6124013 4.75686381,13.6160783 5.42240801,13.6957475 C8.64349487,14.0793854 9.97948599,17.7674563 10.0309645,20.8390102 C6.43849667,20.1036022 3.61575579,17.2637018 2.90241007,13.6638799 Z M11.8756128,2.7234608 C16.1078856,2.7234608 19.6599061,5.60135728 20.7041854,9.50514786 C18.6622026,8.56259999 15.4313103,7.95343706 11.7934923,7.95343706 C8.26230841,7.95343706 5.11598803,8.52705527 3.06665118,9.4230273 C4.13912112,5.56213552 7.67153068,2.7234608 11.8756128,2.7234608 Z M11.8756128,0 C5.31699954,0 0,5.31577386 0,11.8743872 C0,18.4330005 5.31699954,23.7487743 11.8756128,23.7487743 C18.4330005,23.7487743 23.75,18.4330005 23.75,11.8743872 C23.75,5.31577386 18.4330005,0 11.8756128,0 Z" id="Stroke-6" stroke="#FFFFFF" stroke-width="1.5" stroke-linecap="round" stroke-linejoin="round"></path>
            </g>
        </g>
    </g>
</svg>