<svg width="24" height="24" viewBox="0 0 24 24" xmlns="http://www.w3.org/2000/svg">
    <g fill="none" fill-rule="evenodd">
        <path d="M0 0h24v24H0z"/>
        <g stroke="#222">
            <path d="M15.141 12.474H3.4V3h12.167C16.91 3 18 4.06 18 5.368v5.882" stroke-width="1.5"/>
            <path stroke-width="1.3" stroke-linecap="square" stroke-linejoin="bevel" d="m8.266 6.316 1.124 3.79 1.315-3.77 1.305 3.77 1.123-3.79"/>
            <path stroke-width="1.3" stroke-linejoin="round" d="M8.753 7.547H6.806M14.593 7.547h-1.946"/>
            <path d="M15.242 21H4.433C3.09 21 2 19.94 2 18.632c0-.194.024-.387.072-.575l1.435-5.583H15.14" stroke-width="1.5" stroke-linecap="round"/>
        </g>
        <g transform="translate(12 11.6)">
            <circle fill="#FFF" cx="5" cy="5" r="5"/>
            <path d="M4.75 0a4.75 4.75 0 1 1 0 9.5 4.75 4.75 0 0 1 0-9.5z" stroke="#222" stroke-width="1.5"/>
            <g stroke="#222" stroke-linecap="round" stroke-width="1.3">
                <path d="M4.7 2.7v4M6.7 4.7h-4"/>
            </g>
        </g>
    </g>
</svg>
