<svg width="56" height="56" xmlns="http://www.w3.org/2000/svg">
    <g fill="none" fill-rule="evenodd">
        <path d="M0 0h56v56H0z"/>
        <g stroke-width="1.5">
            <path d="M36 4.75c1.45 0 2.762.588 3.712 1.538A5.234 5.234 0 0 1 41.25 10v36.25H12a5.234 5.234 0 0 1-3.712-1.538A5.234 5.234 0 0 1 6.75 41V4.75z" stroke="#222" fill="#FFF"/>
            <path stroke="#1D1D1B" stroke-linecap="round" stroke-linejoin="round" d="M15 29h8M15 24h16"/>
            <path stroke="#1D1D1B" stroke-linecap="round" d="m15 15.268 2.867 2.866L23 13"/>
        </g>
        <g transform="translate(34 34)">
            <circle fill="#FFF" cx="10" cy="10" r="10"/>
            <path d="M9.5 0C14.746 0 19 4.254 19 9.5A9.5 9.5 0 0 1 9.5 19 9.5 9.5 0 0 1 0 9.5 9.5 9.5 0 0 1 9.5 0z" stroke="#222" stroke-width="1.5" fill="#FC0"/>
            <g stroke="#222" stroke-linecap="round" stroke-width="1.3">
                <path d="M9.4 5.4v8M13.4 9.4h-8"/>
            </g>
        </g>
    </g>
</svg>
