<svg width="40" height="40" xmlns="http://www.w3.org/2000/svg" xmlns:xlink="http://www.w3.org/1999/xlink">
    <defs>
        <path id="a" d="M0 0h15.714v15H0z"/>
        <path id="c" d="M0 0h3.571v4.286H0z"/>
    </defs>
    <g fill="none" fill-rule="evenodd">
        <circle fill="#000" cx="20" cy="20" r="20"/>
        <g transform="translate(12 14)">
            <mask id="b" fill="#fff">
                <use xlink:href="#a"/>
            </mask>
            <path d="M13.128 5.733c-.026-1.61.67-2.864 2.085-3.762C14.415.81 13.237.157 11.68.011c-.554-.052-1.262.08-2.123.396-.927.344-1.448.515-1.564.515-.245 0-.714-.145-1.41-.436C5.888.196 5.296.051 4.807.051a4.398 4.398 0 0 0-2.298.683A4.89 4.89 0 0 0 .811 2.545C.27 3.495 0 4.631 0 5.951c0 1.187.199 2.375.598 3.564.373 1.135.85 2.131 1.428 2.988.515.78.967 1.347 1.352 1.704.554.554 1.12.818 1.7.791.372-.013.861-.152 1.466-.417a4.183 4.183 0 0 1 1.7-.374c.527 0 1.073.124 1.64.374.63.265 1.146.397 1.545.397.592-.026 1.145-.284 1.66-.771.18-.16.376-.377.588-.654.213-.278.448-.608.705-.99.18-.277.357-.574.532-.89.173-.318.331-.654.472-1.01a5.73 5.73 0 0 0 .174-.446c.051-.152.103-.306.154-.465a4.294 4.294 0 0 1-1.293-.892c-.848-.843-1.28-1.886-1.293-3.127" fill="#FEFEFE" mask="url(#b)"/>
        </g>
        <g transform="translate(19.857 9)">
            <mask id="d" fill="#fff">
                <use xlink:href="#c"/>
            </mask>
            <path d="M2.634 2.972c.625-.805.937-1.672.937-2.6V.185c0-.063-.006-.124-.017-.186-.436.025-.899.167-1.388.427-.49.26-.893.589-1.211.984C.319 2.192 0 3.027 0 3.92v.176c0 .056.006.115.018.177.978.099 1.85-.335 2.616-1.3" fill="#FEFEFE" mask="url(#d)"/>
        </g>
    </g>
</svg>
