<svg width="48" height="48" xmlns="http://www.w3.org/2000/svg">
    <g fill="none" fill-rule="evenodd">
        <path d="M0 0h48v48H0z"/>
        <g transform="translate(3 10)">
            <path d="M39.354 24.05V4.203C39.354 1.881 37.642 0 35.532 0H0v19.846c0 2.32 1.711 4.203 3.823 4.203h35.53z" fill="#FC0"/>
            <path d="M32.812 24.05H3.822C1.71 24.05 0 22.166 0 19.845V0h35.532c2.11 0 3.821 1.881 3.821 4.204v10.007" stroke="#070100" stroke-width="1.5"/>
            <rect stroke="#222" stroke-width="1.5" fill="#FFF" x="4.961" y="4.75" width="7.921" height="4.5" rx="1.2"/>
            <path d="M28.542 18.137c-.115-.444-.229-.89-.34-1.337L28 15.986l3.73-.832.192.777c.276 1.113.567 2.22.873 3.324l.875-2.937c.238-.799.992-1.34 1.837-1.34.86 0 1.616.535 1.858 1.337l.886 2.952c.096-.343.188-.677.275-1.003.095-.357.192-.727.314-1.201l.15-.579.149-.572.2-.774 3.72.869-.21.813-.149.572-.15.578a6.185 6.185 0 0 1-.043.167H44v3.713h-2.519l-.134.459a32.84 32.84 0 0 1-.616 1.931c-.05.142-.154.433-.286.81l-.139.397-.042.122-.011.032-.004.008.011-.034-.012.026v.015a46.5 46.5 0 0 1-.224.616l-.02.05c-.006.021-.006.021-.02.053-.635 1.678-3.114 1.6-3.63-.122l-.83-2.758-.82 2.755c-.514 1.72-2.991 1.805-3.632.13a58.721 58.721 0 0 1-1.508-4.49h-2.508v-3.713h1.486z" stroke="#FFF" stroke-width="1.9" fill="#222"/>
        </g>
    </g>
</svg>
