<svg width="48" height="48" xmlns="http://www.w3.org/2000/svg">
    <g fill="none" fill-rule="evenodd">
        <path d="M0 0h48v48H0z"/>
        <path stroke="#222" stroke-width="1.5" d="m39.897 16.682 5.603-1.803M8.104 16.682 2.5 14.879"/>
        <path d="M45.334 34.257H2.948V20.65c0-2.24 1.846-4.053 4.124-4.053H41.21c2.276 0 4.123 1.814 4.123 4.053v13.607z" fill="#FC0"/>
        <path d="M33.56 34.257H15.9l1.177-3.532c.413-1.243 1.838-2.355 3.532-2.355h8.242c1.695 0 3.119 1.112 3.532 2.355l1.177 3.532z" fill="#FEFEFE"/>
        <path d="M45.334 34.257H2.948V20.13c0-1.718 1.845-3.532 3.532-3.532h34.145c2.838 0 4.684 1.814 4.71 3.532V34.257zM40.036 16.597H8.246l3.533-8.242C12.135 6.997 13.609 6 15.31 6h17.66c1.704 0 3.178.997 3.533 2.355l3.532 8.242z" stroke="#222" stroke-width="1.5"/>
        <path d="M14.722 24.838a2.354 2.354 0 1 0-4.708-.001 2.354 2.354 0 0 0 4.708.001M39.447 24.838a2.354 2.354 0 1 0-4.708-.001 2.354 2.354 0 0 0 4.708.001" fill="#222"/>
        <path d="M8.835 34.257v5.887c0 .712-.453 1.178-1.177 1.178H4.126c-.725 0-1.178-.466-1.178-1.178v-5.887M39.447 34.257v5.887c0 .712.455 1.178 1.178 1.178h3.532c.723 0 1.177-.466 1.177-1.178v-5.887M25.319 16.597a4.709 4.709 0 1 1 9.419 0" stroke="#222" stroke-width="1.5"/>
    </g>
</svg>
