<svg width="56" height="56" xmlns="http://www.w3.org/2000/svg">
    <g fill="none" fill-rule="evenodd">
        <path d="M0 0h56v56H0z"/>
        <g transform="translate(2 2)">
            <rect stroke="#222" stroke-width="1.5" fill="#FFF" x="5.75" y="5.75" width="40.5" height="40.5" rx="20"/>
            <path d="M26 .75c3.106 0 5.919 1.26 7.955 3.295A11.215 11.215 0 0 1 37.25 12c0 3.106-1.26 5.919-3.295 7.955A11.215 11.215 0 0 1 26 23.25c-3.106 0-5.919-1.26-7.955-3.295A11.215 11.215 0 0 1 14.75 12c0-3.106 1.26-5.919 3.295-7.955A11.215 11.215 0 0 1 26 .75z" stroke="#1D1D1B" stroke-width="1.5" fill="#FFF"/>
            <path d="m33.741 11.85-.139-.089c-.47-.47-1.127-.674-2.007-.623-.732.044-1.31.335-1.754.604l-.002-.02c0-.229.028-.478.053-.72.026-.244.052-.494.052-.73 0-.24-.028-.47-.111-.664a.128.128 0 0 0-.125-.08c-.235.005-.698.167-.81.265l-.06.133c-.003.261-.062.993-.12 1.081a6.39 6.39 0 0 1-.03.088c-.1 1.044-.102 1.962-.012 2.75.011.078.164.196.28.24.129.047.53-.06.762-.15-.003.002.089-.012.089-.012.072-.008.114-.069.11-.154l.007-.226c.169-.679.845-1.49 1.645-1.613.453-.072.811.044 1.093.352.037.055.12.545-.179 1.107-.22.416-.666.768-1.25.985-.553.211-1.161.296-1.912.27-.033-.02-.706-.476-.706-.476-.595-.417-1.335-.939-2.007-1.194-.118-.044-.33-.22-.457-.326l-.07-.055c-.386-.311-1.122-.804-1.715-1.196l-.319-.215v-.067c.018-.018.39-.242.39-.242.522-.304.76-.453.813-.53-.01.011.069-.041.069-.041l1.29-.731c1.239-.68 2.643-1.453 3.38-2.216l.037-.116.014-.105a.704.704 0 0 0 .012-.433c-.012-.041-.05-.09-.1-.098-.576-.058-1.319.288-1.994.92-.152.143-.28.215-.416.287l-.105.059c-.744.424-2.421 1.464-3.301 2.027.058-.944.232-2.289.448-3.41l-.023-.132-.092-.17-.068-.121-.02-.007a.558.558 0 0 0-.424-.026l-.175.065-.234.085a.131.131 0 0 0-.098.082c-.419 1.015-.769 2.684-.852 4.019a19.748 19.748 0 0 0-1.993-1.103l-.012-.007-.044-.01c-.137-.016-.304-.117-.465-.214l-.319-.206-.487-.312c.003.003-.128-.03-.128-.03-.21.036-.612.306-.731.49a.15.15 0 0 0-.021.078c0 .04.011.078.02.116l.022.098.023.06c.236.24.823.639 1.402.95l.67.355 1.025.56c0 .004.174.138.174.138l.12.07.024.014c-.274.181-1.867 1.245-1.867 1.245l-.979.65a5.892 5.892 0 0 1-.566.271c-.212.087-.373.22-.44.365l-.026.056.026.037.074.057c-.003 0 .101.066.101.066l.108.074.103.016c.172.006.427-.092.905-.301.439-.195 1.63-.913 2.139-1.22l.217-.13c.09.008.188-.069.277-.134a2.58 2.58 0 0 1 .46-.278c.004-.002.081-.046.155-.085-.002.023-.002.057-.002.057.023 1.56.112 2.691.283 3.563l.002.017.016.034c.084.123.179.493.265.818l.193.65c.005.008.054.06.054.06.11.077.449.207.675.179l.055-.007.036-.078c.02-.099.025-.193.025-.298 0-.12-.007-.25-.018-.41l-.015-.235a65.127 65.127 0 0 1-.144-3.7v-.084l.993.625c1.376.891 3.454 2.24 4.709 2.596.065.02.134.004.183-.042l.193-.125.036-.013c.072-.034.121-.157.128-.288 1.059-.054 2.534-.461 3.326-1.454.305-.385.442-.856.442-1.258 0-.332-.092-.617-.259-.774" fill="#F8B000"/>
            <g>
                <path d="M8 24.75c2.002 0 3.815.811 5.127 2.123a7.228 7.228 0 0 1 2.123 5.128 7.228 7.228 0 0 1-2.123 5.127 7.228 7.228 0 0 1-5.128 2.123 7.226 7.226 0 0 1-5.126-2.123A7.228 7.228 0 0 1 .75 32c0-2.003.811-3.815 2.123-5.127A7.226 7.226 0 0 1 8 24.75z" stroke="#1D1D1B" stroke-width="1.5" fill="#FFF"/>
                <path d="M9.282 33.006a1.542 1.542 0 0 0-.11-.37c-.162-.352-.39-.648-.73-.846a1.646 1.646 0 0 0-1.694.01 1.494 1.494 0 0 0-.663.86c-.139.44-.134 1.029.115 1.43.08.13.2.242.343.297a.492.492 0 0 0 .442-.034c.167-.108.197-.312.166-.496-.038-.232-.07-.462.016-.69a.538.538 0 0 1 .123-.198.497.497 0 0 1 .41-.128c.173.028.315.164.392.322.077.157.099.336.107.512.036.764-.146 1.555-.34 2.29-.022.076-.042.152-.064.226-.017.059-.045.133-.01.19.018.024.043.04.069.053.112.045.206-.025.282-.102.449-.451.736-1.033.932-1.632.074-.223.137-.45.18-.68.058-.318.09-.68.034-1.014M12.491 29.471c0-.114-.101-.19-.211-.187-.111.005-.213.062-.314.1-1.973.75-4.198.892-6.276.592-.356-.051-.715-.123-1.073-.179-.224-.034-.446-.085-.67-.102-.192-.015-.433-.022-.587.113-.206.177-.193.512-.076.734.14.266.385.466.64.617.246.148.541.305.836.286a36.13 36.13 0 0 0 2.377-.23c1.347-.175 2.756-.34 4.022-.863.413-.17.821-.383 1.176-.659.063-.047.156-.129.156-.222" fill="#008077"/>
                <path d="M6.835 28.795a.776.776 0 1 0 1.552 0 .45.45 0 0 0-.042-.185c-.066-.14-.142-.21-.135-.38.01-.226-.282-.23-.438-.23-.172 0-.354.024-.51.101a.778.778 0 0 0-.427.676v.018" fill="#D01F37"/>
            </g>
        </g>
        <g transform="translate(33 33)">
            <circle fill="#FFF" cx="10.5" cy="10.5" r="10.5"/>
            <path d="M9.975 0c5.508 0 9.975 4.467 9.975 9.975 0 5.51-4.467 9.975-9.975 9.975S0 15.486 0 9.975C0 4.465 4.467 0 9.975 0z" stroke="#222" stroke-width="1.5" fill="#FC0"/>
            <g stroke="#222" stroke-linecap="round" stroke-width="1.3">
                <path d="M9.87 5.67v8.4M14.07 9.87h-8.4"/>
            </g>
        </g>
    </g>
</svg>
