<svg width="48" height="48" xmlns="http://www.w3.org/2000/svg">
    <g fill="none" fill-rule="evenodd">
        <path d="M0 0h48v48H0z"/>
        <g transform="translate(1.5 4)" stroke-width="1.5">
            <g stroke="#070100">
                <path d="M14.3 18.7c0 1.821 6.649 3.3 14.851 3.3C37.351 22 44 20.52 44 18.7M14.3 11c0 1.821 6.649 3.3 14.851 3.3C37.351 14.3 44 12.82 44 11M14.3 3.3c0 1.821 6.649 3.3 14.851 3.3C37.351 6.6 44 5.12 44 3.3"/>
                <path d="M14.3 26.9c0 2.154 6.649 3.9 14.851 3.9 8.2 0 14.849-1.746 14.849-3.9V3.898C44 1.746 37.352 0 29.151 0c-8.202 0-14.85 1.746-14.85 3.898V26.9z"/>
            </g>
            <circle stroke="#222" fill="#FC0" cx="14.3" cy="26.4" r="13.55"/>
            <path d="M8.8 22.55c.397 1.496.825 2.995 1.288 4.495.463 1.5.976 2.936 1.534 4.305l2.657-8.358h.021l2.68 8.358c.247-.614.46-1.221.739-1.95.28-.727.51-1.484.755-2.267.246-.782.486-1.582.707-2.355.222-.782.424-1.523.62-2.228" stroke="#070100" stroke-linecap="round" stroke-linejoin="round"/>
            <path stroke="#070100" stroke-linecap="round" d="M6.6 25.85h2.2M22 25.85h-2.2"/>
        </g>
    </g>
</svg>
