<?xml version="1.0" encoding="UTF-8"?>
<svg width="40px" height="40px" viewBox="0 0 40 40" version="1.1" xmlns="http://www.w3.org/2000/svg" xmlns:xlink="http://www.w3.org/1999/xlink">
    <title>04_Icon/40/Invest/Spend/icon_40_tollgate</title>
    <g id="04_Icon/40/Invest/Spend/icon_40_tollgate" stroke="none" stroke-width="1" fill="none" fill-rule="evenodd">
        <g id="Group-2">
            <path d="M40,20 C40,31.04625 31.04625,40 20,40 C8.955,40 0,31.04625 0,20 C0,8.95375 8.955,0 20,0 C31.04625,0 40,8.95375 40,20" id="Fill-1" fill="#F26767"></path>
            <g id="Group-3" transform="translate(9.125000, 10.000000)">
                <g id="Group-7" stroke="#FFFFFF" stroke-linecap="round" stroke-linejoin="round">
                    <line x1="6.33309887" y1="1.04849679e-13" x2="8.9452639e-13" y2="18.199011" id="Stroke-4" stroke-width="1.5"></line>
                    <line x1="15.5206422" y1="1.04849679e-13" x2="21.8537411" y2="18.199011" id="Stroke-6" stroke-width="1.5"></line>
                    <line x1="10.9271165" y1="18.1994929" x2="10.9271165" y2="0.000481837729" id="Stroke-8" stroke-width="1.3" stroke-dasharray="4,2"></line>
                </g>
                <g id="Group" transform="translate(14.125000, 8.867793)">
                    <path d="M11.4040702,5.625 C11.4040702,8.72993608 8.88648704,11.25 5.77907016,11.25 C2.67165328,11.25 0.154070163,8.72993608 0.154070163,5.625 C0.154070163,2.52006392 2.67165328,0 5.77907016,0 C8.88648704,0 11.4040702,2.52006392 11.4040702,5.625" id="Fill-13" fill="#F26767"></path>
                    <path d="M5.625,0.382207331 C8.73125,0.382207331 11.25,2.90095733 11.25,6.00720733 C11.25,9.11345733 8.73125,11.6322073 5.625,11.6322073 C2.51875,11.6322073 0,9.11345733 0,6.00720733 C0,2.90095733 2.51875,0.382207331 5.625,0.382207331 Z" id="Stroke-228" stroke="#FFFFFF" stroke-width="1.5" stroke-linecap="square"></path>
                    <polyline id="Stroke-229" stroke="#FFFFFF" stroke-width="1.2" stroke-linecap="round" stroke-linejoin="round" points="3.36935186 4.4651586 4.38029009 7.97820496 5.5641981 4.48389485 6.74109382 7.97820496 7.75203205 4.4651586"></polyline>
                    <line x1="2.125" y1="5.60666446" x2="3.375" y2="5.60666446" id="Stroke-230" stroke="#FFFFFF" stroke-width="1.2" stroke-linecap="round" stroke-linejoin="round"></line>
                    <line x1="9.06683611" y1="5.60666446" x2="7.75" y2="5.60666446" id="Stroke-231" stroke="#FFFFFF" stroke-width="1.2" stroke-linecap="round" stroke-linejoin="round"></line>
                </g>
            </g>
        </g>
    </g>
</svg>