<svg width="24" height="24" xmlns="http://www.w3.org/2000/svg">
    <g fill="none" fill-rule="evenodd">
        <path d="M0 0h24v24H0z"/>
        <g stroke="#222">
            <path d="m8 3.8 1.318-1.625c.192-.237.484-.375.793-.375h3.892c.308 0 .6.138.792.375L16.114 3.8v1c0 .552-.455 1-1.015 1H9.014C8.454 5.8 8 5.352 8 4.8v-1z" stroke-width="1.5" fill="#FC0"/>
            <path d="M15.92 4h1.904c1.05 0 1.903.846 1.903 1.889V21H6.404A1.897 1.897 0 0 1 4.5 19.111V4h3.807" stroke-width="1.5"/>
            <path stroke-width="1.3" stroke-linecap="round" d="M10 11h4M10 15h4"/>
        </g>
    </g>
</svg>
