<?xml version="1.0" encoding="UTF-8"?>
<svg width="40px" height="40px" viewBox="0 0 40 40" version="1.1" xmlns="http://www.w3.org/2000/svg" xmlns:xlink="http://www.w3.org/1999/xlink">
    <title>04_Icon/40/Invest/Spend/icon_40_other</title>
    <g id="04_Icon/40/Invest/Spend/icon_40_other" stroke="none" stroke-width="1" fill="none" fill-rule="evenodd">
        <g id="icon_32_spend_other">
            <circle id="Oval" fill="#999999" cx="20" cy="20" r="20"></circle>
            <g id="Group-2" transform="translate(7.500000, 7.500000)">
                <path d="M12.5,0.75 C15.7446246,0.75 18.6821887,2.06513507 20.8085651,4.1915115 C22.9348391,6.31778543 24.25,9.25522331 24.25,12.5 C24.25,15.7447767 22.9348391,18.6822146 20.8085651,20.8084885 C18.6821887,22.9348649 15.7446246,24.25 12.5,24.25 C9.25514474,24.25 6.31763824,22.9349386 4.19134982,20.8086502 C2.0650614,18.6823618 0.75,15.7448553 0.75,12.5 C0.75,9.25514474 2.0650614,6.31763824 4.19134982,4.19134982 C6.31763824,2.0650614 9.25514474,0.75 12.5,0.75 Z" id="Stroke-1" stroke="#FFFFFF" stroke-width="1.5"></path>
                <g id="Group" transform="translate(6.875000, 11.375000)" fill="#FFFFFF">
                    <path d="M1.25,0 C1.94,0 2.5,0.56 2.5,1.25 C2.5,1.94 1.94,2.5 1.25,2.5 C0.56,2.5 0,1.94 0,1.25 C0,0.56 0.56,0 1.25,0" id="Fill-190"></path>
                    <path d="M5.75,0 C6.44,0 7,0.56 7,1.25 C7,1.94 6.44,2.5 5.75,2.5 C5.06,2.5 4.5,1.94 4.5,1.25 C4.5,0.56 5.06,0 5.75,0" id="Fill-190-Copy"></path>
                    <path d="M10.295,0 C10.985,0 11.545,0.56 11.545,1.25 C11.545,1.94 10.985,2.5 10.295,2.5 C9.605,2.5 9.045,1.94 9.045,1.25 C9.045,0.56 9.605,0 10.295,0" id="Fill-190-Copy-2"></path>
                </g>
            </g>
        </g>
    </g>
</svg>