<svg width="16" height="16" xmlns="http://www.w3.org/2000/svg">
    <g transform="translate(1 1)" fill="none" fill-rule="evenodd">
        <circle stroke="#AAA" cx="7" cy="7" r="6.5"/>
        <path d="M6.928 11.5a.951.951 0 0 1-.64-.234c-.181-.158-.273-.377-.273-.658 0-.25.088-.46.265-.63a.897.897 0 0 1 .648-.255c.252 0 .464.085.636.255.172.17.258.38.258.63 0 .278-.09.495-.27.655a.915.915 0 0 1-.624.237M4 4.985c0-.377.122-.758.366-1.145.243-.386.6-.706 1.068-.96.468-.253 1.014-.38 1.638-.38.58 0 1.092.106 1.536.318.444.212.787.5 1.03.865.241.364.362.76.362 1.189 0 .337-.069.632-.207.886a2.694 2.694 0 0 1-.492.656c-.19.185-.53.495-1.023.93a4.207 4.207 0 0 0-.327.325 1.272 1.272 0 0 0-.183.256c-.04.077-.071.154-.094.231-.021.077-.054.213-.098.407-.076.413-.314.619-.714.619a.737.737 0 0 1-.525-.202c-.142-.135-.213-.335-.213-.6 0-.334.052-.622.156-.866.104-.244.242-.458.413-.642.172-.184.405-.403.697-.657.256-.222.441-.39.555-.502.113-.113.21-.238.287-.377a.898.898 0 0 0 .118-.452c0-.317-.12-.585-.357-.802-.238-.218-.545-.328-.92-.328-.441 0-.765.11-.974.33-.208.22-.384.545-.527.972-.136.448-.394.672-.774.672a.767.767 0 0 1-.568-.235C4.077 5.337 4 5.167 4 4.985" fill="#AAA"/>
    </g>
</svg>
