<svg width="48" height="48" xmlns="http://www.w3.org/2000/svg">
    <g fill="none" fill-rule="evenodd">
        <path d="M0 0h48v48H0z"/>
        <path d="M47 24C47 11.298 36.702 1 24 1S1 11.298 1 24c0 12.701 10.298 23 23 23s23-10.299 23-23" fill="#FC0"/>
        <path d="M23.627 1.753c6.309 0 11.95 2.473 16.021 6.478A22.025 22.025 0 0 1 46.25 24a22.18 22.18 0 0 1-6.517 15.733A22.18 22.18 0 0 1 24 46.25a22.18 22.18 0 0 1-15.733-6.517A22.18 22.18 0 0 1 1.75 24 22.178 22.178 0 0 1 8.136 8.399a22.181 22.181 0 0 1 15.49-6.646z" stroke="#222" stroke-width="1.5"/>
        <path d="M33 30c0-2.209-4.03-4-9-4s-9 1.791-9 4" stroke="#070100" stroke-width="1.5"/>
        <path d="M20.5 19.5a2.5 2.5 0 1 1-5.002-.002 2.5 2.5 0 0 1 5.002.002M32.5 19.5a2.5 2.5 0 1 1-5.002-.002 2.5 2.5 0 0 1 5.002.002" fill="#070100"/>
    </g>
</svg>
