<svg width="40" height="40" xmlns="http://www.w3.org/2000/svg">
    <g fill="none" fill-rule="evenodd">
        <path d="M0 0h40v40H0z"/>
        <path fill="#FC0" d="M29.293 21.822 35 33.527l-6.922-2.384-2.384 6.922-5.718-11.705M10.68 21.845 5 33.568l6.915-2.402 2.402 6.916 5.659-11.722"/>
        <g stroke="#222">
            <path d="M20.143 2.25c3.383 0 6.445 1.371 8.662 3.588a12.212 12.212 0 0 1 3.588 8.662c0 3.383-1.371 6.445-3.588 8.662a12.212 12.212 0 0 1-8.662 3.588 12.212 12.212 0 0 1-8.662-3.588A12.212 12.212 0 0 1 7.893 14.5c0-3.383 1.371-6.445 3.588-8.662a12.212 12.212 0 0 1 8.662-3.588z" stroke-width="1.5" fill="#FFF"/>
            <path stroke-width="1.5" stroke-linejoin="round" d="M10.68 21.845 5 33.568l6.915-2.402 2.402 6.916 5.659-11.722M29.293 21.822 35 33.527l-6.922-2.384-2.384 6.922-5.718-11.705"/>
            <path d="m20 8.454 1.515 4.295 4.58.092-3.65 2.728 1.331 4.342L20 17.32l-3.776 2.59 1.332-4.34-3.651-2.73 4.58-.091L20 8.454z" stroke-width="1.3" fill="#FC0"/>
        </g>
    </g>
</svg>
