<svg width="343" height="120" xmlns="http://www.w3.org/2000/svg" xmlns:xlink="http://www.w3.org/1999/xlink">
    <defs>
        <path id="a" d="M0 0h96v88H0z"/>
        <path d="m1.79 28.943.896-3.832.516-2.224.498-2.174.323-1.424.315-1.406.308-1.389.3-1.373.292-1.36.284-1.348c.094-.448.186-.893.277-1.337l.268-1.329.26-1.321.128-.658.248-1.314.121-.655.237-1.308c.116-.654.229-1.308.339-1.962 27.445 3.12 49.114 12.866 67.66 24.842l1.132.736-.948 2.228-.91 2.12-.664 1.53-.435.997-.646 1.466-.642 1.437-.64 1.417-.429.938-.648 1.401-.437.935-.443.937-.45.943-.457.951-.467.96-.477.974-.489.989-.502 1.006-.516 1.025-.53 1.048-.548 1.072-.855 1.66-.594 1.144-.614 1.177C47.66 44.994 26.986 35.026 1.79 28.943z" id="c"/>
        <path d="M.959 4.203C.374 3.919 0 3.305 0 2.628V0l1.72.936h63.73c0 2.132-1.645 3.861-3.674 3.861H2.686c-.626 0-1.234-.21-1.727-.594z" id="f"/>
        <filter x="-4.9%" y="-9.9%" width="109.7%" height="119.8%" filterUnits="objectBoundingBox" id="d">
            <feGaussianBlur stdDeviation=".88" in="SourceGraphic"/>
        </filter>
    </defs>
    <g fill="none" fill-rule="evenodd">
        <rect fill="#ECE6FF" width="343" height="120" rx="12"/>
        <g fill="#222" font-family="AppleSDGothicNeo-Bold, Apple SD Gothic Neo" font-weight="bold">
            <text font-size="16" letter-spacing="-.4" transform="translate(24 24)">
                            <tspan x="0" y="38">다이렉트 우대금리로 저렴하게</tspan>
                            <tspan x="0" y="62">중고차 금융상담 신청하기</tspan>
                        </text>
            <text opacity=".7" font-size="14" letter-spacing="-.2" transform="translate(24 24)">
                            <tspan x="0" y="13">우대금리 금융상담</tspan>
                        </text>
        </g>
        <g transform="translate(231 16)">
            <mask id="b" fill="#fff">
                <use xlink:href="#a"/>
            </mask>
            <g mask="url(#b)">
                <path d="M10.218 65.755c1.53-8.568 2.628-16.69 3.351-24.288 25.505 1.148 46.244 8.829 64.018 18.825-3.4 9.961-5.544 14.174-10.096 24.643-14.462-9.455-34.12-15.228-57.273-19.18z" fill="#9CDCC2"/>
                <path d="M10.177 65.701c1.55-8.553 2.664-16.66 3.403-24.242 7.296.312 14.173 1.163 21.019 2.59-1.417 8.395-3.192 16.624-5.515 25.855A182.677 182.677 0 0 0 10.177 65.7z" fill="#C4E8DA"/>
                <path d="M14.686 64.96c-.053-.01-.086-.026-.101-.048-.017-.022-.02-.056-.012-.104.202-1.133.396-2.26.584-3.378l-.5.266c-.086.045-.148.04-.183-.014l-.363-.467c-.025-.033-.029-.058-.013-.078a.285.285 0 0 1 .097-.064l1.256-.652a.322.322 0 0 1 .184-.023l.478.084c.106.019.167.04.183.062.017.024.017.084 0 .182A352.489 352.489 0 0 1 15.549 65c-.008.044-.024.073-.046.09-.023.016-.06.02-.112.009l-.705-.14M19.135 61.904a.67.67 0 0 0-.664.22c-.1.109-.19.26-.27.456-.081.195-.148.443-.202.745a3.947 3.947 0 0 0-.071.782c.007.216.038.394.092.534.055.14.127.248.22.322a.75.75 0 0 0 .656.143.683.683 0 0 0 .318-.205c.099-.108.19-.261.273-.458.083-.197.153-.45.21-.758a3.77 3.77 0 0 0 .073-.779 1.683 1.683 0 0 0-.092-.535.732.732 0 0 0-.225-.322.754.754 0 0 0-.318-.145m-.728 3.992a1.893 1.893 0 0 1-.776-.35 1.631 1.631 0 0 1-.474-.604 2.274 2.274 0 0 1-.191-.819 4.287 4.287 0 0 1 .066-.995c.028-.158.066-.324.116-.499.05-.173.115-.342.194-.507.08-.163.178-.316.293-.46a1.506 1.506 0 0 1 .947-.554c.205-.035.434-.027.689.024.255.051.47.132.646.244a1.59 1.59 0 0 1 .68.89c.055.181.09.364.106.553.016.188.016.375.002.56a5.34 5.34 0 0 1-.067.512 4.237 4.237 0 0 1-.29.96c-.125.28-.28.51-.467.687-.186.179-.4.302-.644.366-.243.064-.52.062-.83-.008M23.358 62.485a.685.685 0 0 0-.339.005.654.654 0 0 0-.316.207 1.6 1.6 0 0 0-.272.458 3.84 3.84 0 0 0-.21.752c-.06.31-.087.573-.084.791.004.218.03.398.081.541a.762.762 0 0 0 .211.33.723.723 0 0 0 .639.155.655.655 0 0 0 .315-.204c.1-.107.19-.26.276-.459.084-.198.158-.453.219-.764.06-.308.088-.57.084-.788a1.726 1.726 0 0 0-.08-.542.74.74 0 0 0-.215-.33.73.73 0 0 0-.309-.152m-.782 4.031a1.815 1.815 0 0 1-.753-.365c-.2-.168-.351-.376-.455-.62a2.358 2.358 0 0 1-.173-.832 4.873 4.873 0 0 1 .204-1.51c.052-.175.118-.346.199-.511.08-.164.177-.318.293-.461.115-.143.25-.26.405-.356a1.45 1.45 0 0 1 .532-.19c.202-.033.427-.022.676.034.249.055.458.141.628.257a1.577 1.577 0 0 1 .65.912c.051.183.084.37.096.561.012.191.01.38-.008.567-.018.187-.043.36-.075.517a4.43 4.43 0 0 1-.3.97c-.127.28-.284.509-.469.688a1.416 1.416 0 0 1-.637.359c-.24.062-.51.055-.813-.02M27.268 63.547a.667.667 0 0 0-.332 0 .644.644 0 0 0-.313.204c-.1.11-.19.263-.274.46-.085.198-.157.45-.219.759a4.222 4.222 0 0 0-.095.799c0 .22.023.403.07.55a.766.766 0 0 0 .202.337.695.695 0 0 0 .623.166.654.654 0 0 0 .312-.202c.099-.107.192-.26.278-.46.086-.199.161-.456.226-.77.064-.31.097-.576.097-.796 0-.22-.024-.405-.071-.552a.749.749 0 0 0-.204-.336.713.713 0 0 0-.3-.159m-.834 4.07a1.758 1.758 0 0 1-.73-.382 1.642 1.642 0 0 1-.436-.634 2.466 2.466 0 0 1-.156-.845 5.061 5.061 0 0 1 .225-1.527c.053-.177.12-.348.203-.514.082-.166.18-.32.295-.462.116-.142.249-.262.402-.355a1.4 1.4 0 0 1 .525-.184c.198-.03.418-.016.661.044.243.061.447.15.612.271.163.12.297.26.4.418.101.159.176.33.222.517.046.185.074.375.084.569.01.194.003.385-.017.574a5.857 5.857 0 0 1-.082.522 4.642 4.642 0 0 1-.31.976 2.28 2.28 0 0 1-.471.69 1.382 1.382 0 0 1-.63.354c-.236.06-.502.047-.797-.032M30.91 64.515a.625.625 0 0 0-.325-.005.627.627 0 0 0-.31.202c-.099.108-.19.263-.276.46a4.12 4.12 0 0 0-.226.765 4.418 4.418 0 0 0-.106.807c-.003.225.017.41.06.558a.792.792 0 0 0 .191.344.68.68 0 0 0 .287.17.62.62 0 0 0 .322.008.626.626 0 0 0 .308-.199c.1-.106.193-.26.279-.461.088-.2.166-.46.235-.777.068-.312.103-.58.108-.803a1.873 1.873 0 0 0-.062-.56.761.761 0 0 0-.194-.344.689.689 0 0 0-.292-.165m-.88 4.106a1.707 1.707 0 0 1-.711-.398 1.678 1.678 0 0 1-.415-.648 2.585 2.585 0 0 1-.14-.858c-.002-.32.035-.662.111-1.03.034-.162.079-.333.134-.511.055-.18.124-.353.207-.518.083-.167.181-.322.296-.464.115-.143.249-.26.4-.352a1.35 1.35 0 0 1 .517-.179c.194-.027.41-.008.647.057a1.568 1.568 0 0 1 .979.713c.097.161.167.336.21.525.042.189.066.382.072.577.006.197-.003.39-.026.581-.023.19-.052.367-.088.528a4.76 4.76 0 0 1-.32.982c-.13.284-.29.513-.472.69-.183.178-.39.294-.624.349-.231.056-.49.041-.777-.044M66.081 81.92c.028-.04.05-.723.077-.763.093-.713-1.867-3.751-2.853-5.044-.687-.97-1.796-3.577-1.808-3.57-4.861 2.219-8.038-1.742-8.202-1.803.002-.002-2.24.538-2.782.717-.42.137-5.033 1.543-6.655 2.406 7.279 2.504 15.822 6.383 21.513 9.734" fill="#60B187"/>
                <path d="M58.33 56.163s1.163-1.9 1.89-1.601c.727.297.821 1.72.82 1.721-.898-.043-1.802-.084-2.71-.12M61.659 55.918s.967-1.49 1.768-1.119c.808.366 1.12 3.057.877 3.155-.22.079-2.63-2.048-2.645-2.036" fill="#50B579"/>
                <path d="M54.438 69.438 53.1 70.675c.002-.001.25 2.38 2.165 3.377 2.371 1.24 4.517.66 5.844-1.681a71.892 71.892 0 0 0-.606-1.617c-.008.005-1.308 2.083-4.024 1.13-1.7-.59-2.04-2.447-2.04-2.446" fill="#FFF"/>
                <path d="M55.4 62.073c-.37 1.538-.756 3.088-1.158 4.65 0-.002-.709 4.178 2.067 5.601.014-.008 2.733 1.39 4.425-1.128.194-.286.279-.97.44-1.355a311.122 311.122 0 0 0 1.579-5.436s-1.209-1.95-4.171-2.649c-1.31-.313-2.786-.616-3.183.317" fill="#C4E8DA"/>
                <path d="M60.423 62.627c.669.538 1.302 1.413 1.452 1.858.154.445-.32 1.962-.32 1.964-.001 0 .79-.711 1.382-.334 0 0 .415-.998.429-1.445.033-.456-2.927-2.053-2.943-2.043" fill="#50B579"/>
                <path d="M62.117 66.158s.814-.977 1.324-.369c.508.609-.168 1.585-.354 1.985-.186.4-.36 1.404-.625 1.77-.264.366-.777 1.035-1.133.446-.353-.592.792-3.835.788-3.832" fill="#C4E8DA"/>
                <path d="M55.316 74.305c-.408-1.237-.886-2.036-.738-3.601.05-.54.346-1.22.346-1.22s.067.592.608.92c.23.139.715.09.715.09.001 0 .417.518.87.648.663.188 1.048-.14 1.048-.14s.15.54-.551 1.723c-.394.666-2.298 1.58-2.298 1.58M58.083 61.863c3.298.883 4.562 2.565 5.374 3.504.004-.002 1.095-3.45 1.145-5.374.06-1.88-1.217-3.712-3.696-4.277-2.898-.65-3.484 2.083-3.59 2.373-.001 0-.916.34-1.448 1.594-.532 1.254-.61 2.251-.611 2.252-.005.003.496-.686 2.826-.072z" fill="#60B187"/>
                <g fill="#60B187">
                    <path d="M72.26 60.528c.011-.037.025-.059.042-.066.016-.008.041-.004.076.012.801.363 1.594.73 2.38 1.102l-.15-.42c-.025-.074-.017-.118.026-.132.122-.056.245-.11.367-.165.026-.011.045-.009.057.006a.289.289 0 0 1 .039.084c.12.351.24.703.357 1.055a.25.25 0 0 1 0 .14l-.103.331c-.023.074-.043.115-.061.122-.019.006-.06-.007-.129-.039-.982-.474-1.977-.94-2.985-1.401-.031-.015-.051-.031-.061-.051-.011-.02-.01-.047 0-.084.05-.165.097-.33.146-.494M74.111 64.462a.562.562 0 0 0-.073-.53 1.213 1.213 0 0 0-.286-.277 2.646 2.646 0 0 0-.497-.27 2.578 2.578 0 0 0-.538-.175 1.074 1.074 0 0 0-.381-.013.481.481 0 0 0-.384.329.578.578 0 0 0-.03.257c.009.088.046.179.11.269.063.09.16.181.286.273.127.092.294.182.5.272.203.09.38.148.528.177.148.028.275.034.378.016a.49.49 0 0 0 .25-.115.542.542 0 0 0 .137-.213m-2.689-1.159c.079-.222.185-.4.32-.53.136-.13.292-.217.471-.263.178-.046.377-.05.595-.017.218.035.449.104.692.207.108.046.22.102.337.167.117.066.228.14.334.228.106.086.2.184.287.293a1.256 1.256 0 0 1 .271.796c0 .157-.035.327-.101.508-.067.182-.15.328-.248.44a1.075 1.075 0 0 1-.324.258c-.116.058-.24.094-.369.107-.13.01-.258.01-.39-.008a2.215 2.215 0 0 1-.383-.086 3.43 3.43 0 0 1-.342-.128 3.055 3.055 0 0 1-.627-.362 1.694 1.694 0 0 1-.422-.45 1.245 1.245 0 0 1-.188-.538c-.02-.191.008-.4.087-.622M73.007 67.174a.606.606 0 0 0 .038-.262.579.579 0 0 0-.102-.275 1.188 1.188 0 0 0-.28-.28 2.51 2.51 0 0 0-.49-.275 2.508 2.508 0 0 0-.533-.18 1.035 1.035 0 0 0-.379-.014.492.492 0 0 0-.247.116.545.545 0 0 0-.138.214.61.61 0 0 0-.035.26.57.57 0 0 0 .106.273c.062.092.155.184.28.278.125.093.29.185.493.277.2.09.375.15.522.18.147.03.273.036.376.019a.476.476 0 0 0 .39-.33m-2.656-1.184a1.38 1.38 0 0 1 .326-.534c.136-.131.293-.22.471-.265.178-.045.376-.05.592-.014.216.035.445.106.685.212.107.047.217.104.333.17.115.068.224.145.327.232.104.089.198.187.282.298.083.11.148.232.194.367.045.133.066.28.064.44a1.537 1.537 0 0 1-.109.513c-.068.183-.153.33-.253.444-.1.113-.208.2-.325.258a1 1 0 0 1-.369.106 1.701 1.701 0 0 1-.387-.009 2.237 2.237 0 0 1-.38-.088 3.206 3.206 0 0 1-.955-.5 1.702 1.702 0 0 1-.413-.458c-.101-.167-.162-.35-.179-.544a1.458 1.458 0 0 1 .096-.628M72.204 70.287a.578.578 0 0 0-.057-.544 1.157 1.157 0 0 0-.273-.283 2.504 2.504 0 0 0-.483-.282 2.447 2.447 0 0 0-.525-.184 1.024 1.024 0 0 0-.377-.016.475.475 0 0 0-.248.117.559.559 0 0 0-.14.216.579.579 0 0 0 .063.538c.06.093.151.187.274.282.123.095.285.19.486.283.198.093.37.154.515.185.147.032.27.037.374.02a.468.468 0 0 0 .248-.115.584.584 0 0 0 .143-.217m-2.62-1.21c.084-.226.194-.406.331-.538.138-.132.295-.22.473-.265.178-.044.374-.049.588-.011.214.036.44.11.677.218.105.047.216.106.329.173.113.07.22.148.322.237.102.089.193.19.275.302a1.286 1.286 0 0 1 .243.816 1.574 1.574 0 0 1-.115.518 1.468 1.468 0 0 1-.257.449 1.019 1.019 0 0 1-.695.365 1.64 1.64 0 0 1-.385-.012 2.119 2.119 0 0 1-.375-.09 3.283 3.283 0 0 1-.334-.135 2.958 2.958 0 0 1-.608-.375 1.69 1.69 0 0 1-.404-.465 1.29 1.29 0 0 1-.17-.55c-.014-.198.02-.41.104-.637M71.135 73.306a.59.59 0 0 0-.048-.55 1.18 1.18 0 0 0-.267-.289 2.48 2.48 0 0 0-.476-.285 2.401 2.401 0 0 0-.519-.19 1.01 1.01 0 0 0-.374-.018.467.467 0 0 0-.248.117.576.576 0 0 0-.143.216.586.586 0 0 0 .055.545c.059.096.147.19.269.287.12.096.28.193.478.288.195.095.365.159.51.19.144.032.267.04.37.023a.474.474 0 0 0 .248-.116.605.605 0 0 0 .145-.218M68.55 72.07c.087-.228.2-.41.337-.542a1.03 1.03 0 0 1 .474-.265c.177-.044.373-.048.584-.01.212.039.435.114.67.225.104.049.212.108.323.177.112.07.218.15.317.24.1.092.19.194.268.307a1.31 1.31 0 0 1 .23.827 1.636 1.636 0 0 1-.121.524 1.513 1.513 0 0 1-.263.45 1.011 1.011 0 0 1-.696.366 1.565 1.565 0 0 1-.381-.012 2.083 2.083 0 0 1-.372-.094 3.26 3.26 0 0 1-.33-.138 2.89 2.89 0 0 1-.597-.382c-.17-.142-.3-.3-.395-.472a1.308 1.308 0 0 1-.16-.559c-.012-.2.025-.413.112-.642"/>
                </g>
            </g>
            <g mask="url(#b)">
                <g transform="rotate(-27 150.086 -110.812)">
                    <path d="M12.44 2.015c5.665 0 10.446 2.066 11.95 4.89l.491.001v1.939c-.044 3.728-5.597 6.742-12.44 6.742C5.57 15.587 0 12.549 0 8.8l.001.043L0 8.845V6.906h.492c1.503-2.825 6.284-4.89 11.949-4.89z" fill="#FC0"/>
                    <ellipse fill="#FFE78E" cx="13.467" cy="6.786" rx="12.441" ry="6.786"/>
                    <ellipse fill="#FC0" cx="12.964" cy="6.529" rx="10.744" ry="5.655"/>
                    <path d="m12.067 10.179.872-2.947a.64.64 0 0 1 .04-.144l.052-.153h.846c.018.125.044.224.08.297l.752 2.947h1.824l1.03-3.244h1.56V5.923H17.88l.833-2.53h-1.625l-.7 2.53h-1.335l-.648-2.53h-1.677L12 5.923h-1.4l-.635-2.53h-1.69l.752 2.53H7.813v1.012h1.506l.951 3.244h1.797zm1.992-3.393h-.375c.086-.265.155-.547.207-.848l.168.848zm-2.643 1.696a22.69 22.69 0 0 0-.372-1.696h.808c-.026.084-.171.65-.436 1.696zm4.052 0a28.528 28.528 0 0 1-.11-.521 36.04 36.04 0 0 0-.136-.64 14.216 14.216 0 0 0-.13-.535h.79a17.358 17.358 0 0 0-.414 1.696z" fill="#FFE78E" fill-rule="nonzero"/>
                </g>
            </g>
            <g mask="url(#b)">
                <g transform="translate(72.903 17.366)">
                    <path d="M6.195 3.054c2.625-.803 5.243-.164 6.49 1.424l.227-.07.378 1.235c.705 2.381-1.28 5.088-4.452 6.058-3.183.973-6.356-.174-7.086-2.561l.01.027H1.76l-.378-1.235.228-.069C1.757 5.85 3.57 3.857 6.195 3.054z" fill="#FC0"/>
                    <ellipse fill="#FFE78E" transform="rotate(-17 7.086 6.086)" cx="7.086" cy="6.086" rx="6.028" ry="4.521"/>
                    <ellipse fill="#FC0" transform="rotate(-17 7.086 5.87)" cx="7.086" cy="5.87" rx="5.167" ry="3.875"/>
                    <path d="m7.268 8.132-.134-1.914a.5.5 0 0 1-.008-.093l-.003-.101.4-.123c.032.074.062.13.093.17l.903 1.678.863-.263-.115-2.118.738-.226-.187-.614-.588.18-.076-1.655-.769.235.138 1.636-.631.193-.776-1.441-.794.243.125 1.64-.663.202-.77-1.443-.8.245.826 1.426-.575.176.188.614.713-.218 1.052 1.83.85-.26zm.313-2.347-.177.054a4.735 4.735 0 0 0-.06-.545l.237.49zm-.936 1.412a17.96 17.96 0 0 0-.49-.976l.382-.117c.003.055.04.42.108 1.093zm1.918-.587a22.626 22.626 0 0 1-.149-.3 28.578 28.578 0 0 0-.183-.369 11.19 11.19 0 0 0-.16-.306l.373-.114c.02.311.059.674.119 1.09z" fill="#FFE78E" fill-rule="nonzero"/>
                </g>
            </g>
            <g mask="url(#b)">
                <g transform="rotate(30 -.332 12.485)">
                    <path d="M6.69 1.484c2.96 0 5.457 1.065 6.243 2.522h.257v1c-.022 1.923-2.924 3.478-6.5 3.478-3.59 0-6.5-1.567-6.5-3.5l.001.022H.19v-1h.257C1.233 2.55 3.73 1.484 6.69 1.484z" fill="#FC0"/>
                    <ellipse fill="#FFE78E" cx="6.19" cy="4.118" rx="6.5" ry="3.5"/>
                    <ellipse fill="#FC0" cx="6.806" cy="3.185" rx="5.5" ry="3"/>
                    <path d="m5.63 5.435.463-1.737c0-.012.007-.04.02-.085l.029-.09h.448c.01.074.024.132.042.175l.4 1.737h.967l.547-1.912h.827v-.597h-.659l.442-1.491h-.862l-.372 1.491h-.708l-.343-1.491h-.89l-.386 1.491h-.743l-.336-1.491h-.898l.4 1.491h-.645v.597h.8l.504 1.912h.953zm1.057-2h-.2a3.88 3.88 0 0 0 .11-.5l.09.5zm-1.402 1c-.055-.337-.12-.67-.198-1h.429c-.014.05-.09.383-.231 1zm2.15 0c-.015-.068-.034-.17-.06-.308-.024-.137-.048-.263-.071-.377a9.165 9.165 0 0 0-.069-.315h.419c-.078.281-.151.615-.22 1z" fill="#FFE78E" fill-rule="nonzero"/>
                </g>
            </g>
            <g mask="url(#b)">
                <g transform="rotate(4 -515.542 240.622)">
                    <mask id="e" fill="#fff">
                        <use xlink:href="#c"/>
                    </mask>
                    <path d="m48.597-7.228 5.376 8.406c.373.582.582 1.253.607 1.943l.06 1.694.09 2.473h-.001l.088 2.474c.06 1.74-1.256 3.2-2.942 3.258l-2.477.087c-.232 2.574-2.285 4.627-4.854 4.717a4.939 4.939 0 0 1-3.173-1.014l-.051.008a4.179 4.179 0 0 1-.387.031c-2.035.071-3.787-1.343-4.278-3.298l-14.134.492c-.232 2.574-2.285 4.628-4.854 4.717a4.94 4.94 0 0 1-3.193-1.03 4.148 4.148 0 0 1-.571.06c-2.035.071-3.787-1.343-4.278-3.298l-6.836.238a2.352 2.352 0 0 1-.783-.106l.004.087-1.081-.606a.774.774 0 0 1-.396-.646l-.007-.196a1.463 1.463 0 0 1-.026-.226L.425 10.89l-.003-.134C.38 7.139 3.18 4.1 6.819 3.856l3.922-.264 8.105-8.977h-.016l.961-1.052c.281-.308.676-.49 1.093-.505l26.52-.923c.477-.017.93.224 1.193.637z" fill="#3F9167" opacity=".3" style="mix-blend-mode:multiply" filter="url(#d)" mask="url(#e)" transform="rotate(-1 27.62 5.448)"/>
                </g>
            </g>
            <g mask="url(#b)">
                <g transform="rotate(-18 92.334 19.237)">
                    <path d="M15.916 29.96c2.83 0 5.125-2.411 5.125-5.386 0-2.974-2.294-5.386-5.125-5.386S10.79 21.6 10.79 24.574c0 2.975 2.295 5.386 5.126 5.386zM48.457 29.96c2.831 0 5.126-2.411 5.126-5.386 0-2.974-2.295-5.386-5.126-5.386-2.83 0-5.126 2.412-5.126 5.386 0 2.975 2.295 5.386 5.126 5.386z" fill="#091522"/>
                    <path d="M57.278 0c.575 0 1.109.315 1.409.83l5.76 9.911a7.366 7.366 0 0 1 .998 3.697l.005 7.443H1.72a9.26 9.26 0 0 1 9.004-9.256l6.129-.17h-.058L28.41 0h28.868z" fill="#2589FF"/>
                    <path d="M30.331 1.817h9.507c.406 0 .736.33.736.737v9.176c0 .406-.33.736-.736.736l-17.781-.01a.737.737 0 0 1-.547-1.23l8.275-9.166a.737.737 0 0 1 .546-.243zM43.855 1.817h12.614c.263 0 .506.14.638.369L62.4 11.36a.737.737 0 0 1-.638 1.105l-17.908-.01a.738.738 0 0 1-.737-.737V2.554c0-.407.33-.737.737-.737z" fill="#F9F9F9"/>
                    <path d="M25.829 0h2.581L16.795 12.466l-4.083-.01L23.695.915A2.946 2.946 0 0 1 25.829 0z" fill="#FFF"/>
                    <path d="M25.819 0h2.591l-1.682 1.817h-3.912l.88-.914A2.946 2.946 0 0 1 25.82 0zM1.72 22.04 0 20.98a8.377 8.377 0 0 1 8.102-8.373l4.61-.152h4.083l-5.913.164a9.424 9.424 0 0 0-9.162 9.42z" fill="#1270DF"/>
                    <g transform="translate(0 20.945)">
                        <mask id="g" fill="#fff">
                            <use xlink:href="#f"/>
                        </mask>
                        <use fill="#1270DF" xlink:href="#f"/>
                        <path d="m0 0 1.72.936v3.861L.7 4.17A1.473 1.473 0 0 1 0 2.915V0z" fill="#0E5BB6" mask="url(#g)"/>
                    </g>
                    <rect fill="#FCFCFF" x="35.096" y="14.475" width="5.446" height="1.01" rx=".429"/>
                    <rect fill="#FCFCFF" x="42.465" y="14.475" width="5.446" height="1.01" rx=".429"/>
                    <path d="M61.462 15.822h3.988v3.03h-3.988a.737.737 0 0 1-.736-.737v-1.557c0-.406.33-.736.736-.736z" fill="#FCFCFF"/>
                    <path d="M20.4 31.307c3.363 0 6.088-2.864 6.088-6.396s-2.725-6.396-6.087-6.396c-3.362 0-6.087 2.864-6.087 6.396s2.725 6.396 6.087 6.396zM52.758 31.307c3.362 0 6.087-2.864 6.087-6.396s-2.725-6.396-6.087-6.396c-3.362 0-6.087 2.864-6.087 6.396s2.725 6.396 6.087 6.396z" fill="#5E6063"/>
                    <path d="M20.4 27.745c1.49 0 2.698-1.269 2.698-2.834 0-1.565-1.208-2.834-2.697-2.834-1.49 0-2.697 1.269-2.697 2.834 0 1.565 1.207 2.834 2.697 2.834zM52.758 27.745c1.49 0 2.697-1.269 2.697-2.834 0-1.565-1.208-2.834-2.697-2.834-1.49 0-2.697 1.269-2.697 2.834 0 1.565 1.207 2.834 2.697 2.834z" fill="#FCFCFF"/>
                </g>
            </g>
        </g>
    </g>
</svg>
