<svg xmlns="http://www.w3.org/2000/svg" xmlns:xlink="http://www.w3.org/1999/xlink">
    <defs>        
        <path d="M36.559 0c4.748 0 8.99 2.964 10.623 7.423l1.937 5.286-.72 10.8h-.038c-.24 1.515-1.584 2.674-3.207 2.674H3.158A3.16 3.16 0 0 1 .037 23.51H0v-3.183a8.626 8.626 0 0 1 8.336-8.621l1.832-.062 3.663-6.131A11.314 11.314 0 0 1 23.543 0H36.56z" id="b"/>
        <path d="M0 0h37.025A5.176 5.176 0 0 1 42.2 5.176v4.51a5.176 5.176 0 0 1-5.176 5.175H0V0z" id="c"/>
        <path id="e" d="M0 0h5.04v11.14H0z"/>
        <path id="g" d="M0 0h17.916v34.809H0z"/>
    </defs>
    <g fill="none" fill-rule="evenodd">
        <path d="M0 0h343v220H0z"/>
        <path d="M135.404 180.744h73.156V61.45h-73.156v119.294zm.672-127.967c-3.894 0-7.051 3.165-7.051 7.07v128.025c0 3.905 3.157 7.07 7.05 7.07h71.814c3.894 0 7.05-3.165 7.05-7.07V59.847c0-3.905-3.156-7.07-7.05-7.07h-71.813z" fill="#DADEE5"/>
        <path d="M175.425 187.723a3.867 3.867 0 0 1-3.861 3.872 3.867 3.867 0 0 1-3.862-3.872 3.867 3.867 0 0 1 3.862-3.872 3.867 3.867 0 0 1 3.86 3.872M164.575 57.266h16.004v-1.347h-16.004z" fill="#FFF"/>
        <path d="M115.063 154.07c0 1.157-.816 1.893-1.823 1.644l-69.418-9.36c-1.006-.248-1.822-1.386-1.822-2.543V76.857c0-1.156.816-1.892 1.822-1.644l69.418 9.36c1.007.249 1.823 1.387 1.823 2.544v66.953zM228.937 154.07c0 1.157.816 1.893 1.823 1.644l69.418-9.36c1.006-.248 1.822-1.386 1.822-2.543V76.857c0-1.156-.816-1.892-1.822-1.644l-69.418 9.36c-1.007.249-1.823 1.387-1.823 2.544v66.953z" fill="#EAF0F7"/>
        <g transform="translate(240.5 101.682)">
            <path d="M36.135 21.19c-1.535.286-2.78 1.937-2.78 3.683 0 1.745 1.245 2.923 2.78 2.628 1.535-.293 2.779-1.943 2.779-3.684 0-1.564-1.003-2.673-2.32-2.673-.15 0-.303.016-.46.045z" id="a"/>
            <path d="m32.218.144-6.065 1.09-4.75.851c-3.795.679-7.312 3.56-9.274 7.595l-3.05 6.289-1.095.243C3.533 17.202 0 22.01 0 27.08v2.504l.031-.007c.206 1.487 1.364 2.433 2.762 2.167L40.316 24.6c1.449-.275 2.65-1.65 2.863-3.189l.033-.008.644-10.789-1.539-4.37C40.944 2.348 37.69 0 33.872 0c-.54 0-1.094.047-1.654.144z" fill="#DADEE5"/>
            <path d="m43.224 9.361-1.777.325L10.5 15.384v14.893l32.724-6.23c2.736-.521 4.956-3.419 4.956-6.47v-3.603c0-2.742-1.792-4.69-4.14-4.69-.265 0-.539.026-.816.077z" fill="#DADEE5"/>
            <path d="M46.402 14.432c-.97.183-1.76 1.212-1.76 2.298s.79 1.82 1.76 1.634l1.76-.33c.013-.154.018-.305.018-.456v-3.476l-1.778.33z" fill="#767676"/>
            <path d="m24.422 3.657-3.761.68c-2.554.46-4.917 2.41-6.217 5.132l-1.904 3.99c-.082.173-.123.36-.123.544-.002.565.402.949.9.854l11.105-2.036c.499-.092.903-.621.903-1.182V4.512c0-.507-.33-.867-.76-.867a.89.89 0 0 0-.143.012zM32.955 2.12l-4.875.878c-.497.09-.901.617-.901 1.18v7.11c0 .562.404.943.901.853l10.675-1.96c.248-.045.494-.153.716-.316.823-.592 1.169-1.76.775-2.609l-.82-1.75c-1.028-2.207-3.031-3.49-5.329-3.49-.373 0-.755.034-1.142.104z" fill="#FFF"/>
            <path d="M12.047 22.896c-2.901.545-5.252 3.687-5.252 7.02 0 3.335 2.35 5.585 5.252 5.029 2.897-.561 5.248-3.702 5.248-7.023 0-2.986-1.902-5.106-4.395-5.106-.277 0-.563.025-.853.08zM36.135 18.382c-2.9.545-5.25 3.66-5.25 6.96s2.35 5.523 5.25 4.966c2.9-.56 5.25-3.676 5.25-6.961 0-2.953-1.898-5.046-4.386-5.046-.28 0-.57.026-.864.081z" fill="#767676"/>
            <path d="M12.047 25.731c-1.537.29-2.781 1.953-2.781 3.718 0 1.764 1.244 2.952 2.78 2.66 1.534-.294 2.778-1.958 2.778-3.717 0-1.583-1.005-2.704-2.325-2.704-.148 0-.3.013-.452.043z" fill="#FFF"/>
            <use fill="#FFF" xlink:href="#a"/>
        </g>
        <path d="M224.842 153.678c0 1.151-1.182 2.085-2.638 2.085H121.662c-1.456 0-2.638-.934-2.638-2.085V87.024c0-1.15 1.182-2.084 2.638-2.084h100.542c1.456 0 2.638.933 2.638 2.084v66.654z" fill="#F3F8FF"/>
        <g>
            <use fill="#FC0" xlink:href="#b" transform="translate(144.141 105.948)"/>
            <g transform="translate(155.902 117.27)">
                <mask id="d" fill="#fff">
                    <use xlink:href="#c"/>
                </mask>
                <use fill="#FC0" xlink:href="#c"/>
                <path d="M40.124 5.733H42.2v3.984h-2.077a1.886 1.886 0 0 1-1.886-1.885v-.213c0-1.042.844-1.886 1.886-1.886z" fill="#FFA75D" mask="url(#d)"/>
            </g>
            <path d="M166.99 108.07h4.572c.521 0 .943.423.943.944v7.314c0 .52-.421.942-.942.942l-12.634-.008a.943.943 0 0 1-.813-1.42l2.366-4.04a7.542 7.542 0 0 1 6.508-3.731zM175.524 108.07h5.487a8.075 8.075 0 0 1 7.288 4.6l1.016 2.131a1.725 1.725 0 0 1-1.558 2.468l-12.233-.007a.944.944 0 0 1-.943-.944v-7.304c0-.521.422-.943.943-.943z" fill="#FFF"/>
            <path d="M157.631 137.085c3.248 0 5.88-2.693 5.88-6.015 0-3.322-2.632-6.015-5.88-6.015-3.247 0-5.88 2.693-5.88 6.015 0 3.322 2.633 6.015 5.88 6.015zM184.612 137.085c3.248 0 5.88-2.693 5.88-6.015 0-3.322-2.632-6.015-5.88-6.015-3.248 0-5.88 2.693-5.88 6.015 0 3.322 2.632 6.015 5.88 6.015z" fill="#767676"/>
            <path d="M157.631 134.254c1.72 0 3.114-1.426 3.114-3.184 0-1.759-1.394-3.185-3.114-3.185-1.719 0-3.113 1.426-3.113 3.185 0 1.758 1.394 3.184 3.113 3.184zM184.612 134.254c1.72 0 3.113-1.426 3.113-3.184 0-1.759-1.394-3.185-3.113-3.185-1.72 0-3.113 1.426-3.113 3.185 0 1.758 1.394 3.184 3.113 3.184z" fill="#FFF"/>
        </g>
        <g>
            <path d="m64.25 104.426-3.172 5.017-1.139-.156c-4.63-.63-8.303 2.723-8.303 7.58v2.4l.032.004c.215 1.5 1.42 2.837 2.872 3.098l39.025 7.025c1.506.27 2.756-.654 2.977-2.117l.034.007.67-10.59-1.6-4.941c-1.637-5.039-5.854-8.89-10.567-9.664l-11.183-1.837a10.717 10.717 0 0 0-1.729-.142c-3.266 0-6.179 1.556-7.917 4.316z" fill="#DADEE5"/>
            <path d="m62.556 123.81 34.033 6.129c2.845.512 5.154-1.567 5.154-4.645v-3.634c0-3.078-2.309-5.968-5.154-6.455l-1.849-.317-32.184-5.504v14.427z" fill="#DADEE5"/>
            <path d="M58.703 122.09c0 3.217 2.444 6.273 5.461 6.825 3.014.553 5.459-1.625 5.459-4.865s-2.445-6.297-5.459-6.829a5.25 5.25 0 0 0-.893-.078c-2.593 0-4.568 2.054-4.568 4.947zM83.756 126.586c0 3.265 2.445 6.363 5.46 6.914 3.015.553 5.46-1.668 5.46-4.956 0-3.291-2.445-6.387-5.46-6.917a5.111 5.111 0 0 0-.882-.078c-2.595 0-4.578 2.092-4.578 5.037z" fill="#767676"/>
            <path d="M61.273 122.55c0 1.706 1.293 3.324 2.891 3.615 1.595.288 2.889-.866 2.889-2.578 0-1.71-1.294-3.33-2.889-3.612a2.757 2.757 0 0 0-.48-.043c-1.37 0-2.411 1.086-2.411 2.618zM86.326 127.045c0 1.734 1.294 3.373 2.89 3.66 1.596.293 2.89-.885 2.89-2.623 0-1.738-1.294-3.378-2.89-3.662a2.793 2.793 0 0 0-.47-.041c-1.373 0-2.42 1.107-2.42 2.666zM66.657 105.033l-1.979 3.207a.913.913 0 0 0-.129.485c-.002.545.419 1.062.936 1.152l11.55 1.983c.519.09.94-.286.94-.84v-7.016c0-.551-.421-1.07-.94-1.156l-3.912-.648a7.182 7.182 0 0 0-1.16-.098c-2.197 0-4.153 1.06-5.306 2.931zM79.902 104.325v7.013c0 .555.42 1.075.937 1.164l11.103 1.905c.257.045.513.028.744-.054.855-.298 1.215-1.341.805-2.332l-.851-2.041c-1.244-2.99-3.86-5.188-6.73-5.665l-5.07-.839a.91.91 0 0 0-.146-.011c-.447 0-.792.358-.792.86z" fill="#FFF"/>
            <path d="M98.064 123.124c0 1.09.821 2.12 1.83 2.3l1.831.325c.012-.15.018-.302.018-.455v-3.505l-1.849-.323a1.71 1.71 0 0 0-.295-.026c-.87 0-1.535.701-1.535 1.684z" fill="#767676"/>
        </g>
        <g>
            <path d="M180.617 8c5.514 0 9.984 4.47 9.984 9.984v11.1c0 5.514-4.47 9.984-9.984 9.984h-5.473l-2.534 3.202c-.04.05-.084.098-.131.141l-.073.063a1.248 1.248 0 0 1-1.753-.204l-2.536-3.202h-5.472c-5.514 0-9.984-4.47-9.984-9.984v-11.1c0-5.514 4.47-9.984 9.984-9.984h17.972z" fill="#2589FF"/>
            <path d="M163.2 24.114h3.613m9.636 0h3.613m-2.108-6.128-3.101 11.189-3.103-11.189h-.238l-3.102 11.189-3.102-11.189" stroke="#FFF" stroke-width="1.872" stroke-linecap="round" stroke-linejoin="round"/>
        </g>
        <g>
            <path d="M241.145 112.653c.577.154 1.26.178 1.992-.118a.097.097 0 0 0 .053-.13.103.103 0 0 0-.133-.053c-1.927.78-3.503-.818-3.518-.834a.103.103 0 0 0-.143-.005.097.097 0 0 0-.003.14c.01.011.707.72 1.752 1" fill="#030241"/>
            <path d="M247.29 100.955a2.573 2.573 0 0 1-1-.487c-4.762-3.77-7.137-.53-7.962 3.936-.23 1.245 1.374 2.454 4.3 3.98 2.11 1.102 1.308 3.682 2.34 3.472.51-.103 2.148-.786 2.434-1.201 1.74-1.058 4.48-8.604-.112-9.7z" fill="#621717"/>
            <path d="M244.205 119.019c.452.126 1.445-.932 1.562-2.266-.318-.176-.693-.612-1.184-.84-.42-.194.409-2.362.373-2.574-.292-1.741.458-3.173.45-3.183l.83-1.635c-.342.211-.596.098-.478-.423.27-1.185.313-1.617-.854-2.254-1.84-1.004-.671-3.192-2.768-3.213-1.1.076-2.237.682-2.79 1.993 0 0-.476.959-.774 2.236a8.961 8.961 0 0 0-.229 1.56c-.068 1.371.255 2.814 1.545 3.76.376 1.54.492 5.9.194 6.082-.262.158 1.839.12 4.123.757z" fill="#FFD4C0"/>
            <path d="M241.707 112.92a2.895 2.895 0 0 0 1.818-.525.095.095 0 0 0 .025-.133.095.095 0 0 0-.133-.022c-1.633 1.133-3.39-.04-3.407-.052a.096.096 0 0 0-.133.025.094.094 0 0 0 .023.132c.012.008.79.529 1.807.575M243.914 105.668c.538.143.871.544.877.55a.087.087 0 0 1-.135.11c-.026-.032-.653-.781-1.574-.456a.087.087 0 0 1-.058-.164c.333-.118.634-.108.89-.04M240.866 104.873c.37.22.571.51.575.515a.087.087 0 0 1-.143.098c-.024-.035-.592-.845-1.585-.654a.086.086 0 0 1-.102-.07.086.086 0 0 1 .07-.1c.49-.095.89.036 1.185.21" fill="#030241"/>
            <path d="M246.724 107.742c-.46.238-.662.422-.95.43l-.323 1.891c0 .082.02.16.054.23.238.49 1.238.582 2.222-1.077.622-1.047-.386-1.793-1.003-1.474" fill="#FFD4C0"/>
            <path d="M247.164 109.383c.014-.016.345-.392.355-.734a.593.593 0 0 0-.593-.58.082.082 0 0 0-.086.078.084.084 0 0 0 .081.085.432.432 0 0 1 .431.41c-.008.285-.311.63-.314.633a.08.08 0 0 0 .009.115.085.085 0 0 0 .117-.007zM240.995 108.553a.867.867 0 0 1-.472-.405.606.606 0 0 1 .012-.612c.215-.342.408-.665.567-.94.086-.134.251-.018.166.115-.16.275-.352.598-.566.939a.388.388 0 0 0-.002.394c.091.176.333.378.713.364a.1.1 0 0 1 .1.102.106.106 0 0 1-.099.11 1.086 1.086 0 0 1-.419-.067" fill="#030241"/>
            <path d="M243.235 107.21c-.053.263.057.508.246.547.19.039.386-.142.44-.405.052-.263-.058-.508-.247-.548-.189-.039-.385.143-.44.406M239.77 105.966c-.054.262.056.508.245.547.189.039.386-.142.438-.405.054-.262-.056-.508-.245-.547-.189-.04-.385.14-.439.405" fill="#17170F"/>
            <path d="M239.726 108.619s1.199.533 2.48.504c0 0-.417 2.01-1.827 1.75-1.41-.26-.653-2.254-.653-2.254" fill="#FFF"/>
            <g>
                <g transform="translate(208 100.95)">
                    <mask id="f" fill="#fff">
                        <use xlink:href="#e"/>
                    </mask>
                    <path d="M.001 6.578c.057-1.234.96-1.636 1.577-2.202.72-.66-1.143-5.173.17-4.253.553.389 1.25 4.09 1.25 4.09l.395.364.636.042s.773.18.972 1.276c.134.74-.115 1.474-.115 1.474L4.608 8.57c.429.851.275 1.316.275 1.316L2.161 11.14l-.4-1.898-.405-.453S-.048 7.671.001 6.578" fill="#FFD4C0" mask="url(#f)"/>
                </g>
                <path d="M240.734 113.386s.217.086-4.727-.797c-5.373-.96-10.057 4.23-13.868 6.834-.698.477-3.65 2.799-4.11 1.748-1.927-4.416-3.974-9.451-4.333-10.787-.171-.638-4.746.094-4.746.54-.002 4.614.9 8.441 2.858 16.167 1.197 4.723 6.98 4.167 9.02 3.421 4.63-1.692 8.174-2.316 11.134-3.9 3.202-1.714 1.738-4.361 1.738-4.361l7.034-8.865z" fill="#173D6D"/>
                <path d="M230.58 116.254c1.929-1.037 3.12 5.997 3.12 5.997s1.464 2.647-1.738 4.36c-2.96 1.585-6.504 2.209-11.134 3.901-1.087.397-3.473.78-5.521.316 2.326-.621 4.572-1.63 6.593-2.776 4.993-2.769 8.606-6.123 8.68-11.798" fill="#173D6D"/>
                <path d="m240.733 113.388.001-.002s.004.001-.001.002" fill="#DEEDFB"/>
                <path d="m256.373 202.5-6.174-.973s-.306 3.323-.306 3.405c0 0-.595 2.473-.595 4.268 0 .245.089.43.22.563l.022.023c.008.006.015.015.022.022a.763.763 0 0 0 .558.222h12.5c.403 0 .87-.378.822-.83-.303-2.886-2.553-2.45-4.376-2.824-2.693-.552-2.693-3.876-2.693-3.876z" fill="#505050"/>
                <path d="m249.519 209.763.021.023.022.022a.762.762 0 0 0 .558.222h12.5c.403 0 .87-.378.822-.83l-.011-.082h-14.132v.082c0 .245.088.43.22.563z" fill="#B0A9A9"/>
                <path d="m232.078 202.5 6.174-.973s.306 3.323.306 3.405c0 0 .595 2.473.595 4.268 0 .245-.09.43-.22.563l-.022.023c-.008.006-.015.015-.022.022a.762.762 0 0 1-.559.222h-12.499c-.403 0-.87-.378-.822-.83.303-2.886 2.553-2.45 4.376-2.824 2.693-.552 2.693-3.876 2.693-3.876z" fill="#505050"/>
                <path d="m238.933 209.763-.022.023-.022.022a.76.76 0 0 1-.559.222h-12.499c-.403 0-.87-.378-.822-.83l.011-.082h14.132v.082c0 .245-.088.43-.22.563z" fill="#B0A9A9"/>
                <path d="M230.485 141.111s-1.957 5.583-2.558 9.156c-1.049 6.245-.028 23.76.693 31.909.768 8.677.162 15.438 1.042 18.763.548 2.08 2.27 2.821 5.538 2.654 2.28-.117 5.32.46 5.256-2.32-.164-7.221.368-13.724.132-16.991-.234-3.267-.201-23.76-.434-25.09-.247-1.408 1.158-1.448 1.278-.11.492 5.454 3.012 19.389 3.494 24.717.549 6.042 2.387 13.826 3.356 18.178.37 1.672 4.304 1.706 5.642 1.726 3.177.048 5.18-.494 5.18-1.52.013-7.544-1.824-15.494-2.52-19.841-.748-4.667-1.65-23.507-1.9-26.658-.481-6.08-2.532-13.26-2.532-13.26l-21.667-1.313z" fill="#69AFEB"/>
                <path d="M251.306 142.713c-4.212.456-19.005 2.534-21.327-.161-.921-1.07-.622-9.267-.552-14.829.099-7.954 1.56-13.253 1.56-13.253l14.477-.898 5.582 1.615 4.229 11.044s-1.095 4.95-1.83 9.52c-.61 3.8.164 6.713-2.139 6.962" fill="#173D6D"/>
                <path d="m253.069 120.47 2.206 5.76s-1.095 4.95-1.83 9.52c-.61 3.8.164 6.714-2.139 6.963-4.212.456-19.005 2.534-21.327-.161a.87.87 0 0 1-.11-.18c5.087-.196 10.194-2.01 14.537-4.597 5.964-3.553 8.018-10.422 8.663-17.305" fill="#173D6D"/>
                <path d="m246.024 113.949-.207-1.01c0-.028-2.85 0-2.85 0l-.914.268-.527.274-1.252-.153c-.39 1.881.508 2.822 2.692 2.822s3.203-.734 3.058-2.201zM252.636 151.27l-1.6.163s-1.117-.051-1.55-.029c-.432.023-2.09.85-2.09.85l-.19-.32c.972-.532 1.707-1.385 2.866-1.219.11.015.144-.155.034-.17-1.208-.173-2.007.605-3.019 1.155l-.267-.358c.475-.352.908-.762 1.398-1.094.311-.211.575-.352.954-.385.201-.018.396-.045.592-.094.107-.027.05-.191-.056-.163-.529.133-.982.09-1.453.409-.53.359-1 .794-1.514 1.174l-.152-.29c.44-.406.783-.906 1.228-1.303.532-.475 1.197-.633 1.841-.89.103-.04.047-.203-.055-.161-.626.247-1.273.403-1.803.838-.485.395-.841.925-1.294 1.355l-.228-.435s.906-1.281 1.35-1.667c.445-.386 1.534-1.01 1.534-1.01s.922-.536 2.888-.68c.515-.037 1.507-3.031 2.36-2.33.14.117 1.371.891 1.562 1.036l-.178 2.476s-1.134 2.377-1.762 2.614l-1.396.529" fill="#FFD4C0"/>
                <g transform="translate(250.084 114.908)">
                    <mask id="h" fill="#fff">
                        <use xlink:href="#g"/>
                    </mask>
                    <path d="M0 0c4.47 1.505 6.022 1.98 10.041 7.343 3.46 4.616 5.797 7.728 6.828 9.645 1.031 1.917 2.105 5.028-1.034 8.005-2.591 2.457-9.973 9.816-9.973 9.816l-4.198-3.783 6.055-11.618-6.678-5.577" fill="#173D6D" mask="url(#h)"/>
                </g>
            </g>
        </g>
    </g>
</svg>
