<?xml version="1.0" encoding="UTF-8"?>
<svg viewBox="0 0 343 220" version="1.1" xmlns="http://www.w3.org/2000/svg" xmlns:xlink="http://www.w3.org/1999/xlink">
<style type="text/css">
	.won-talk-box2 {
		transform-box:fill-box;
		transform-origin:50% 50%;
		transform-style:preserve-3d;
		animation-name:won-box-rotate;
		animation-duration:.8s;
		animation-delay:.4s;
		animation-fill-mode:forwards;
		animation-direction:alternate;
		animation-timing-function:linear;
		animation-iteration-count:infinite;
	}

	@-webkit-keyframes won-box-rotate {
        0%   { transform:rotateY(0deg); }
        100% { transform:rotateY(-90deg); }
    }
</style>
<g id="wrap-car-phone-man" class="wrap-car-phone-man">
	<g class="center-phone">
		<path fill="#dadee5" fill-rule="evenodd" clip-rule="evenodd" d="M135.4,180.7h73.2V61.5h-73.2L135.4,180.7L135.4,180.7z M136.1,52.8c-3.9,0-7.1,3.2-7.1,7.1v128
			c0,3.9,3.2,7.1,7.1,7.1h71.8c3.9,0,7.1-3.2,7.1-7.1v-128c0-3.9-3.2-7.1-7.1-7.1H136.1z"/>
		<path fill="#ffffff" fill-rule="evenodd" clip-rule="evenodd" d="M175.4,187.7c0,2.1-1.7,3.9-3.9,3.9c-2.1,0-3.9-1.7-3.9-3.9c0-2.1,1.7-3.9,3.9-3.9
			C173.7,183.9,175.4,185.6,175.4,187.7 M164.6,57.3h16v-1.3h-16V57.3z"/>
	</g>
	<g class="slide-right-area">
		<path fill-rule="evenodd" clip-rule="evenodd" fill="#eaf0f7" d="M228.9,154.1c0,1.2,0.8,1.9,1.8,1.6l69.4-9.4c1-0.2,1.8-1.4,1.8-2.5v-67c0-1.2-0.8-1.9-1.8-1.6l-69.4,9.4
			c-1,0.2-1.8,1.4-1.8,2.5L228.9,154.1L228.9,154.1z"/>

		<g class="right-car">
			<path fill="#dadee5" fill-rule="evenodd" clip-rule="evenodd" d="M272.7,101.8l-6.1,1.1l-4.8,0.9c-3.8,0.7-7.3,3.6-9.3,7.6l-3.1,6.3l-1.1,0.2c-4.5,1-8,5.8-8,10.9v2.5l0,0
				c0.2,1.5,1.4,2.4,2.8,2.2l37.5-7.1c1.4-0.3,2.6-1.6,2.9-3.2l0,0l0.6-10.8l-1.5-4.4c-1.4-3.9-4.6-6.2-8.4-6.2
				C273.8,101.7,273.3,101.7,272.7,101.8z"/>
			<path fill="#dadee5" fill-rule="evenodd" clip-rule="evenodd" d="M283.7,111l-1.8,0.3l-30.9,5.7V132l32.7-6.2c2.7-0.5,5-3.4,5-6.5v-3.6c0-2.7-1.8-4.7-4.1-4.7
				C284.3,111,284,111,283.7,111z"/>
			<path fill="#767676" fill-rule="evenodd" clip-rule="evenodd" d="M286.9,116.1c-1,0.2-1.8,1.2-1.8,2.3c0,1.1,0.8,1.8,1.8,1.6l1.8-0.3c0-0.2,0-0.3,0-0.5v-3.5
				C288.7,115.8,286.9,116.1,286.9,116.1z"/>
			<path fill="#ffffff" fill-rule="evenodd" clip-rule="evenodd" d="M264.9,105.3l-3.8,0.7c-2.6,0.5-4.9,2.4-6.2,5.1l-1.9,4c-0.1,0.2-0.1,0.4-0.1,0.5c0,0.6,0.4,0.9,0.9,0.9
				l11.1-2c0.5-0.1,0.9-0.6,0.9-1.2v-7.1c0-0.5-0.3-0.9-0.8-0.9C265,105.3,265,105.3,264.9,105.3z M273.5,103.8l-4.9,0.9
				c-0.5,0.1-0.9,0.6-0.9,1.2v7.1c0,0.6,0.4,0.9,0.9,0.9l10.7-2c0.2,0,0.5-0.2,0.7-0.3c0.8-0.6,1.2-1.8,0.8-2.6l-0.8-1.8
				c-1-2.2-3-3.5-5.3-3.5C274.2,103.7,273.8,103.7,273.5,103.8z"/>
			<path fill="#767676" fill-rule="evenodd" clip-rule="evenodd" d="M252.5,124.6c-2.9,0.5-5.3,3.7-5.3,7c0,3.3,2.4,5.6,5.3,5c2.9-0.6,5.2-3.7,5.2-7c0-3-1.9-5.1-4.4-5.1
				C253.1,124.5,252.8,124.5,252.5,124.6z M276.6,120.1c-2.9,0.5-5.3,3.7-5.3,7s2.3,5.5,5.3,5c2.9-0.6,5.3-3.7,5.3-7c0-3-1.9-5-4.4-5
				C277.2,120,276.9,120,276.6,120.1z"/>
			<path fill="#ffffff" fill-rule="evenodd" clip-rule="evenodd" d="M252.5,127.4c-1.5,0.3-2.8,2-2.8,3.7c0,1.8,1.2,3,2.8,2.7c1.5-0.3,2.8-2,2.8-3.7c0-1.6-1-2.7-2.3-2.7
				C252.9,127.4,252.7,127.4,252.5,127.4z"/>
			<path id="a_1_" fill="#ffffff" fill-rule="evenodd" clip-rule="evenodd" d="M276.6,122.9c-1.5,0.3-2.8,1.9-2.8,3.7c0,1.7,1.2,2.9,2.8,2.6c1.5-0.3,2.8-1.9,2.8-3.7
				c0-1.6-1-2.7-2.3-2.7C276.9,122.8,276.8,122.8,276.6,122.9L276.6,122.9z"/>
		</g>
	</g>
	<g class="slide-center-area">
		<path fill="#F3F8FF" fill-rule="evenodd" clip-rule="evenodd" d="M224.8,153.7c0,1.2-1.2,2.1-2.6,2.1H121.7c-1.5,0-2.6-0.9-2.6-2.1V87c0-1.2,1.2-2.1,2.6-2.1h100.5	c1.5,0,2.6,0.9,2.6,2.1L224.8,153.7L224.8,153.7z"/>
		
		<g class="cetner-car">
			<path id="b" fill="#FFCC00" fill-rule="evenodd" clip-rule="evenodd" d="M180.7,105.9c4.7,0,9,3,10.6,7.4l1.9,5.3l-0.7,10.8h0c-0.2,1.5-1.6,2.7-3.2,2.7h-42
				c-1.6,0-2.9-1.1-3.1-2.7h0v-3.2c0-4.7,3.7-8.5,8.3-8.6l1.8-0.1l3.7-6.1c2-3.4,5.7-5.5,9.7-5.5H180.7L180.7,105.9z"/>
			<g>
				<path id="c_1_" fill="#FFCC00" fill-rule="evenodd" clip-rule="evenodd" d="M155.9,117.3h37c2.9,0,5.2,2.3,5.2,5.2v4.5c0,2.9-2.3,5.2-5.2,5.2h-37V117.3z"/>
			</g>
			<defs>
				<filter id="Adobe_OpacityMaskFilter" filterUnits="userSpaceOnUse" x="194.1" y="123" width="4" height="4">
					<feColorMatrix  type="matrix" values="1 0 0 0 0  0 1 0 0 0  0 0 1 0 0  0 0 0 1 0"/>
				</filter>
			</defs>
			<mask maskUnits="userSpaceOnUse" x="194.1" y="123" width="4" height="4" id="d_1_">
				<g filter="url(#Adobe_OpacityMaskFilter)">
					<path id="c_2_" fill="#ffffff" fill-rule="evenodd" clip-rule="evenodd" d="M155.9,117.3h37c2.9,0,5.2,2.3,5.2,5.2v4.5c0,2.9-2.3,5.2-5.2,5.2h-37V117.3z"/>
				</g>
			</mask>
			<path fill="#FFA75D" fill-rule="evenodd" clip-rule="evenodd" d="M196,123h2.1v4H196c-1,0-1.9-0.8-1.9-1.9v-0.2C194.1,123.8,195,123,196,123L196,123z"/>
			<path fill="#ffffff" fill-rule="evenodd" clip-rule="evenodd" d="M167,108.1h4.6c0.5,0,0.9,0.4,0.9,0.9v7.3c0,0.5-0.4,0.9-0.9,0.9l-12.6,0c-0.5,0-0.9-0.4-0.9-0.9
				c0-0.2,0-0.3,0.1-0.5l2.4-4C161.8,109.5,164.3,108.1,167,108.1L167,108.1z M175.5,108.1h5.5c3.1,0,5.9,1.8,7.3,4.6l1,2.1
				c0.4,0.9,0,1.9-0.8,2.3c-0.2,0.1-0.5,0.2-0.7,0.2l-12.2,0c-0.5,0-0.9-0.4-0.9-0.9V109C174.6,108.5,175,108.1,175.5,108.1
				L175.5,108.1z"/>
			<path fill="#767676" fill-rule="evenodd" clip-rule="evenodd" d="M157.6,137.1c3.2,0,5.9-2.7,5.9-6c0-3.3-2.6-6-5.9-6c-3.2,0-5.9,2.7-5.9,6
				C151.8,134.4,154.4,137.1,157.6,137.1z M184.6,137.1c3.2,0,5.9-2.7,5.9-6c0-3.3-2.6-6-5.9-6s-5.9,2.7-5.9,6
				C178.7,134.4,181.4,137.1,184.6,137.1z"/>
			<path fill="#ffffff" fill-rule="evenodd" clip-rule="evenodd" d="M157.6,134.3c1.7,0,3.1-1.4,3.1-3.2c0-1.8-1.4-3.2-3.1-3.2c-1.7,0-3.1,1.4-3.1,3.2
				C154.5,132.8,155.9,134.3,157.6,134.3z M184.6,134.3c1.7,0,3.1-1.4,3.1-3.2c0-1.8-1.4-3.2-3.1-3.2c-1.7,0-3.1,1.4-3.1,3.2
				C181.5,132.8,182.9,134.3,184.6,134.3z"/>
		</g>
	</g>	
	<g class="slide-left-area">
		<path fill-rule="evenodd" clip-rule="evenodd" fill="#eaf0f7" d="M115.1,154.1c0,1.2-0.8,1.9-1.8,1.6l-69.4-9.4c-1-0.2-1.8-1.4-1.8-2.5v-67c0-1.2,0.8-1.9,1.8-1.6l69.4,9.4
			c1,0.2,1.8,1.4,1.8,2.5V154.1z"/>
		<g class="left-car">
			<path fill="#dadee5" fill-rule="evenodd" clip-rule="evenodd" d="M64.3,104.4l-3.2,5l-1.1-0.2c-4.6-0.6-8.3,2.7-8.3,7.6v2.4l0,0c0.2,1.5,1.4,2.8,2.9,3.1l39,7
				c1.5,0.3,2.8-0.7,3-2.1l0,0l0.7-10.6l-1.6-4.9c-1.6-5-5.9-8.9-10.6-9.7l-11.2-1.8c-0.6-0.1-1.1-0.1-1.7-0.1
				C68.9,100.1,66,101.7,64.3,104.4z"/>
			<path fill="#dadee5" fill-rule="evenodd" clip-rule="evenodd" d="M62.6,123.8l34,6.1c2.8,0.5,5.2-1.6,5.2-4.6v-3.6c0-3.1-2.3-6-5.2-6.5l-1.8-0.3l-32.2-5.5L62.6,123.8
				L62.6,123.8z"/>
			<path fill="#767676" fill-rule="evenodd" clip-rule="evenodd" d="M58.7,122.1c0,3.2,2.4,6.3,5.5,6.8c3,0.6,5.5-1.6,5.5-4.9s-2.4-6.3-5.5-6.8c-0.3-0.1-0.6-0.1-0.9-0.1
				C60.7,117.1,58.7,119.2,58.7,122.1z M83.8,126.6c0,3.3,2.4,6.4,5.5,6.9c3,0.6,5.5-1.7,5.5-5c0-3.3-2.4-6.4-5.5-6.9
				c-0.3-0.1-0.6-0.1-0.9-0.1C85.7,121.5,83.8,123.6,83.8,126.6z"/>
			<path fill="#ffffff" fill-rule="evenodd" clip-rule="evenodd" d="M61.3,122.6c0,1.7,1.3,3.3,2.9,3.6c1.6,0.3,2.9-0.9,2.9-2.6c0-1.7-1.3-3.3-2.9-3.6c-0.2,0-0.3,0-0.5,0
				C62.3,119.9,61.3,121,61.3,122.6z M86.3,127c0,1.7,1.3,3.4,2.9,3.7c1.6,0.3,2.9-0.9,2.9-2.6c0-1.7-1.3-3.4-2.9-3.7
				c-0.2,0-0.3,0-0.5,0C87.4,124.4,86.3,125.5,86.3,127z M66.7,105l-2,3.2c-0.1,0.1-0.1,0.3-0.1,0.5c0,0.5,0.4,1.1,0.9,1.2l11.6,2
				c0.5,0.1,0.9-0.3,0.9-0.8v-7c0-0.6-0.4-1.1-0.9-1.2l-3.9-0.6c-0.4-0.1-0.8-0.1-1.2-0.1C69.8,102.1,67.8,103.2,66.7,105z
				M79.9,104.3v7c0,0.6,0.4,1.1,0.9,1.2l11.1,1.9c0.3,0,0.5,0,0.7-0.1c0.9-0.3,1.2-1.3,0.8-2.3l-0.9-2c-1.2-3-3.9-5.2-6.7-5.7
				l-5.1-0.8c0,0-0.1,0-0.1,0C80.2,103.5,79.9,103.8,79.9,104.3z"/>
			<path fill="#767676" fill-rule="evenodd" clip-rule="evenodd" d="M98.1,123.1c0,1.1,0.8,2.1,1.8,2.3l1.8,0.3c0-0.2,0-0.3,0-0.5v-3.5l-1.8-0.3c-0.1,0-0.2,0-0.3,0
				C98.7,121.4,98.1,122.1,98.1,123.1z"/>
		</g>
	</g>
	<g class="won-talk-box-rotate">
		<g class="won-talk-box1">
			<path fill="#2589ff" d="M180.6,8c5.5,0,10,4.5,10,10v11.1c0,5.5-4.5,10-10,10h-5.5l-2.5,3.2c0,0-0.1,0.1-0.1,0.1l-0.1,0.1   c-0.5,0.4-1.3,0.3-1.8-0.2l-2.5-3.2h-5.5c-5.5,0-10-4.5-10-10V18c0-5.5,4.5-10,10-10C162.6,8,180.6,8,180.6,8z"/>
			<path fill="#2589ff" stroke="#FFFFFF" stroke-width="1.872" stroke-linecap="round" stroke-linejoin="round" d="M163.2,24.1h3.6 M176.4,24.1h3.6 M178,18l-3.1,11.2L171.8,18h-0.2l-3.1,11.2L165.3,18"/>
		</g>
		<g class="won-talk-box2">
			<path fill="#FF0000" d="M180.6,8c5.5,0,10,4.5,10,10v11.1c0,5.5-4.5,10-10,10h-5.5l-2.5,3.2c0,0-0.1,0.1-0.1,0.1l-0.1,0.1
				c-0.5,0.4-1.3,0.3-1.8-0.2l-2.5-3.2h-5.5c-5.5,0-10-4.5-10-10V18c0-5.5,4.5-10,10-10C162.6,8,180.6,8,180.6,8z"/>
			<path fill="#FF0000" stroke="#FFFFFF" stroke-width="1.872" stroke-linecap="round" stroke-linejoin="round" d="M163.2,24.1h3.6 M176.4,24.1h3.6 M178,18l-3.1,11.2L171.8,18h-0.2l-3.1,11.2L165.3,18"/>
		</g>
	</g>
	<g class="max-illust">
		<g>
			<g>
				<path fill="#621717" fill-rule="evenodd" clip-rule="evenodd" d="M247.3,101c-0.4-0.1-0.7-0.3-1-0.5c-4.8-3.8-7.1-0.5-8,3.9c-0.2,1.2,1.4,2.5,4.3,4c2.1,1.1,1.3,3.7,2.3,3.5
					c0.5-0.1,2.1-0.8,2.4-1.2C249.1,109.6,251.9,102.1,247.3,101z"/>
				<path fill="#FFD4C0" d="M240.1,113.3c-0.8,0.5-0.7,1.1-0.5,1.5c0.5,1.1,1.9,2.2,3.4,2.2c2.2,0,3.4-1.6,3.3-3.1l-0.3-0.3l-0.1,0
					c0,0-0.8-0.2-1-0.8c-0.1-1.5,0.5-2.7,0.5-2.7l0-0.1c0,0.1,0,0.2,0.1,0.2c0.2,0.5,1.2,0.6,2.2-1.1c0.6-1-0.4-1.8-1-1.5
					c-0.5,0.2-0.7,0.4-1,0.4l0,0.2c0-0.1,0-0.2,0-0.3c0.3-1.2,0.3-1.6-0.9-2.3c-1.8-1-0.7-3.2-2.8-3.2c-1.1,0.1-2.2,0.7-2.8,2
					c0,0-0.5,1-0.8,2.2c-0.1,0.5-0.2,1-0.2,1.6c-0.1,1.4,0.3,2.8,1.5,3.8c0.1,0.4,0.2,0.6,0.2,1L240.1,113.3z"/>
				<path fill="#030241" fill-rule="evenodd" clip-rule="evenodd" d="M241.7,112.9c0.6,0,1.3-0.2,1.8-0.5c0,0,0.1-0.1,0-0.1c0,0,0,0,0,0c0,0-0.1-0.1-0.1,0c0,0,0,0,0,0
					c-1.6,1.1-3.4,0-3.4-0.1c0,0-0.1,0-0.1,0c0,0,0,0.1,0,0.1c0,0,0,0,0,0C239.9,112.4,240.7,112.9,241.7,112.9"/>
				<path fill="#030241" fill-rule="evenodd" clip-rule="evenodd" d="M247.2,109.4c0,0,0.3-0.4,0.4-0.7c0-0.3-0.3-0.6-0.6-0.6c0,0-0.1,0-0.1,0.1c0,0,0,0,0,0c0,0,0,0.1,0.1,0.1
					c0.2,0,0.4,0.2,0.4,0.4c0,0.3-0.3,0.6-0.3,0.6c0,0,0,0.1,0,0.1c0,0,0,0,0,0C247.1,109.4,247.1,109.4,247.2,109.4z"/>
			</g>
			<g>
				<path fill="#030241" d="M241.4,105.4c0,0-0.2-0.3-0.6-0.5l0,0c-0.3-0.2-0.7-0.3-1.2-0.2c0,0,0,0,0,0c0,0-0.1,0.1-0.1,0.1
					c0,0,0,0,0,0c0,0,0.1,0.1,0.1,0.1c1-0.2,1.6,0.6,1.6,0.7c0,0,0.1,0,0.1,0C241.4,105.5,241.5,105.4,241.4,105.4z"/>
				<path fill="#030241" fill-rule="evenodd" clip-rule="evenodd" d="M243.9,105.7c0.5,0.1,0.9,0.5,0.9,0.6c0,0,0,0.1,0,0.1s-0.1,0-0.1,0c0,0-0.7-0.8-1.6-0.5c0,0-0.1,0-0.1-0.1
					c0,0,0-0.1,0.1-0.1C243.4,105.6,243.7,105.6,243.9,105.7"/>
				<path fill="#030241" fill-rule="evenodd" clip-rule="evenodd" d="M241,108.6c-0.2-0.1-0.4-0.2-0.5-0.4c-0.1-0.2-0.1-0.4,0-0.6c0.2-0.3,0.4-0.7,0.6-0.9
					c0.1-0.1,0.3,0,0.2,0.1c-0.2,0.3-0.4,0.6-0.6,0.9c-0.1,0.1-0.1,0.3,0,0.4c0.1,0.2,0.3,0.4,0.7,0.4c0.1,0,0.1,0,0.1,0.1
					c0,0,0,0,0,0c0,0.1,0,0.1-0.1,0.1C241.3,108.6,241.1,108.6,241,108.6"/>
				<path fill="#17170F" fill-rule="evenodd" clip-rule="evenodd" d="M243.2,107.2c-0.1,0.3,0.1,0.5,0.2,0.5c0.2,0,0.4-0.1,0.4-0.4c0.1-0.3-0.1-0.5-0.2-0.5
					C243.5,106.8,243.3,106.9,243.2,107.2"/>
				<path fill="#17170F" fill-rule="evenodd" clip-rule="evenodd" d="M239.8,106c-0.1,0.3,0.1,0.5,0.2,0.5c0.2,0,0.4-0.1,0.4-0.4c0.1-0.3-0.1-0.5-0.2-0.5
					C240,105.5,239.8,105.7,239.8,106"/>
				<path fill="#ffffff" fill-rule="evenodd" clip-rule="evenodd" d="M239.7,108.6c0,0,1.2,0.5,2.5,0.5c0,0-0.4,2-1.8,1.8C239,110.6,239.7,108.6,239.7,108.6"/>
			</g>
		</g>
		<g>
			<g>
				<path fill="#505050" fill-rule="evenodd" clip-rule="evenodd" d="M256.4,202.5l-6.2-1c0,0-0.3,3.3-0.3,3.4c0,0-0.6,2.5-0.6,4.3c0,0.2,0.1,0.4,0.2,0.6l0,0c0,0,0,0,0,0
					c0.1,0.1,0.3,0.2,0.6,0.2h12.5c0.4,0,0.9-0.4,0.8-0.8c-0.3-2.9-2.6-2.4-4.4-2.8C256.4,205.8,256.4,202.5,256.4,202.5L256.4,202.5
					z"/>
				<path fill="#B0A9A9" fill-rule="evenodd" clip-rule="evenodd" d="M249.5,209.8L249.5,209.8L249.5,209.8c0.2,0.2,0.4,0.3,0.6,0.3h12.5c0.4,0,0.9-0.4,0.8-0.8l0-0.1h-14.1v0.1
					C249.3,209.4,249.4,209.6,249.5,209.8z"/>
			</g>
			<g>
				<path fill="#505050" fill-rule="evenodd" clip-rule="evenodd" d="M232.1,202.5l6.2-1c0,0,0.3,3.3,0.3,3.4c0,0,0.6,2.5,0.6,4.3c0,0.2-0.1,0.4-0.2,0.6l0,0c0,0,0,0,0,0
					c-0.1,0.1-0.4,0.2-0.6,0.2h-12.5c-0.4,0-0.9-0.4-0.8-0.8c0.3-2.9,2.6-2.4,4.4-2.8C232.1,205.8,232.1,202.5,232.1,202.5
					L232.1,202.5z"/>
				<path fill="#B0A9A9" fill-rule="evenodd" clip-rule="evenodd" d="M238.9,209.8L238.9,209.8L238.9,209.8c-0.2,0.2-0.4,0.3-0.6,0.3h-12.5c-0.4,0-0.9-0.4-0.8-0.8l0-0.1h14.1
					v0.1C239.2,209.4,239.1,209.6,238.9,209.8L238.9,209.8z"/>
			</g>
			<path fill="#69AFEB" fill-rule="evenodd" clip-rule="evenodd" d="M230.5,141.1c0,0-2,5.6-2.6,9.2c-1,6.2,0,23.8,0.7,31.9c0.8,8.7,0.2,15.4,1,18.8c0.5,2.1,2.3,2.8,5.5,2.7
				c2.3-0.1,5.3,0.5,5.3-2.3c-0.2-7.2,0.4-13.7,0.1-17c-0.2-3.3-0.2-23.8-0.4-25.1c-0.2-1.4,1.2-1.4,1.3-0.1c0.5,5.5,3,19.4,3.5,24.7
				c0.5,6,2.4,13.8,3.4,18.2c0.4,1.7,4.3,1.7,5.6,1.7c3.2,0,5.2-0.5,5.2-1.5c0-7.5-1.8-15.5-2.5-19.8c-0.7-4.7-1.6-23.5-1.9-26.7
				c-0.5-6.1-2.5-13.3-2.5-13.3L230.5,141.1L230.5,141.1z"/>
		</g>
		<g>
			<path fill="#173D6D" d="M251,115.2l-5.1-1.5l0,0.2c0.1,1.5-0.9,2.2-3.1,2.2c-2.2,0-3.3-1-2.9-2.8c-1.1-0.1-2.3-0.3-3.5-0.6
				c-4.4-1-5.6,1.8-5.6,1.8s-1.5,5.3-1.6,13.3c-0.1,5.6-0.4,13.8,0.6,14.8c2.3,2.7,17.1,0.6,21.3,0.2c2.3-0.2,1.5-3.2,2.1-7
				c0.7-4.6,1.8-9.5,1.8-9.5L251,115.2z"/>
			<g>
				<path fill="#FFD4C0" d="M254.4,144.6c-0.9-0.7-1.8,2.3-2.4,2.3c-2,0.1-2.9,0.7-2.9,0.7s-1.1,0.6-1.5,1c-0.4,0.4-1.3,1.7-1.3,1.7
					l0.2,0.4c0.5-0.4,0.8-1,1.3-1.4c0.5-0.4,1.2-0.6,1.8-0.8c0.1,0,0.2,0.1,0.1,0.2c-0.6,0.3-1.3,0.4-1.8,0.9
					c-0.4,0.4-0.8,0.9-1.2,1.3l0.2,0.3c0.5-0.4,1-0.8,1.5-1.2c0.5-0.3,0.9-0.3,1.5-0.4c0.1,0,0.2,0.1,0.1,0.2c-0.2,0-0.4,0.1-0.6,0.1
					c-0.4,0-0.6,0.2-1,0.4c-0.5,0.3-0.9,0.7-1.4,1.1l0.3,0.4c1-0.6,1.8-1.3,3-1.2c0.1,0,0.1,0.2,0,0.2c-1.2-0.2-1.9,0.7-2.9,1.2
					l0.2,0.3c0,0,1.7-0.8,2.1-0.8c0.4,0,1.5,0,1.5,0l1.6-0.2v0l1.4-0.5c0.6-0.2,1.8-2.6,1.8-2.6l0.2-2.5
					C255.8,145.5,254.5,144.7,254.4,144.6z"/>
				<g transform="translate(250.084 114.908)">
					<defs>
						<filter id="Adobe_OpacityMaskFilter_1_" filterUnits="userSpaceOnUse" x="0" y="0" width="17.9" height="34.8">
							<feColorMatrix  type="matrix" values="1 0 0 0 0  0 1 0 0 0  0 0 1 0 0  0 0 0 1 0"/>
						</filter>
					</defs>
					<mask maskUnits="userSpaceOnUse" x="0" y="0" width="17.9" height="34.8" id="h_1_">
						<g filter="url(#Adobe_OpacityMaskFilter_1_)">
							<path id="g_1_" fill="#ffffff" fill-rule="evenodd" clip-rule="evenodd" d="M0,0h17.9v34.8H0V0z"/>
						</g>
					</mask>
					<path fill="#173D6D" fill-rule="evenodd" clip-rule="evenodd" d="M0,0c4.5,1.5,6,2,10,7.3c3.5,4.6,5.8,7.7,6.8,9.6s2.1,5-1,8c-2.6,2.5-10,9.8-10,9.8L1.7,31l6.1-11.6
						L1,13.8L0,0z"/>
				</g>
			</g>
			<g>
				<g transform="translate(208 100.95)">
					<defs>
						<filter id="Adobe_OpacityMaskFilter_2_" filterUnits="userSpaceOnUse" x="0" y="0" width="5" height="11.1">
							<feColorMatrix  type="matrix" values="1 0 0 0 0  0 1 0 0 0  0 0 1 0 0  0 0 0 1 0"/>
						</filter>
					</defs>
					<mask maskUnits="userSpaceOnUse" x="0" y="0" width="5" height="11.1" id="f_1_">
						<g filter="url(#Adobe_OpacityMaskFilter_2_)">
							<path id="e_1_" fill="#ffffff" fill-rule="evenodd" clip-rule="evenodd" d="M0,0h5v11.1H0V0z"/>
						</g>
					</mask>
					<path fill="#FFD4C0" fill-rule="evenodd" clip-rule="evenodd" d="M0,6.6c0.1-1.2,1-1.6,1.6-2.2c0.7-0.7-1.1-5.2,0.2-4.3C2.3,0.5,3,4.2,3,4.2l0.4,0.4l0.6,0
						c0,0,0.8,0.2,1,1.3c0.1,0.7-0.1,1.5-0.1,1.5L4.6,8.6C5,9.4,4.9,9.9,4.9,9.9l-2.7,1.3L1.8,9.2L1.4,8.8C1.4,8.8,0,7.7,0,6.6"/>
				</g>
				<path fill="#173D6D" fill-rule="evenodd" clip-rule="evenodd" d="M236,112.6c-5.4-1-10.1,4.2-13.9,6.8c-0.7,0.5-3.6,2.8-4.1,1.7c-1.9-4.4-4-9.5-4.3-10.8
					c-0.2-0.6-4.7,0.1-4.7,0.5c0,4.6,0.9,8.4,2.9,16.2c1.2,4.7,7,4.2,9,3.4c4.6-1.7,8.2-2.3,11.1-3.9c3.2-1.7,7.1-3.4,7.5-7.6
					C240,113.5,236,112.6,236,112.6z"/>
			</g>
		</g>
	</g>
</g>
</svg>
