<svg width="92" height="110" xmlns="http://www.w3.org/2000/svg" xmlns:xlink="http://www.w3.org/1999/xlink">
    <defs>
        <path id="a" d="M-.115 0h34v38h-34z"/>
    </defs>
    <g fill="none" fill-rule="evenodd">
        <path d="M0 0h92v110H0z"/>
        <path fill="#FFD4C0" d="m59.733 81.032 5.035 17H53.705l-6.333-17z"/>
        <path d="M60.435 82.352a1.163 1.163 0 0 0 .9-1.507c-1.069-3.242-1.88-6.3-2.257-8.612-2.997-18.324-12.12-22.6-12.12-22.6l-6.184 9.554s2.148 14.139 5.915 25.632l13.746-2.467z" fill="#003E71"/>
        <path d="M81.388 32.802a4.696 4.696 0 1 1-9.392-.001 4.696 4.696 0 0 1 9.392 0" fill="#1F3245"/>
        <path fill="#FF6C3A" d="m59.857 59.652-5.264 1.685.008-20.16 5.264-1.685z"/>
        <path d="M56.064 39.86c-.965-3.423-4.174-5.421-7.165-4.463-2.991.958-4.634 4.509-3.668 7.931.966 3.423 4.174 5.42 7.165 4.463 2.991-.958 4.634-4.51 3.668-7.931" fill="#FF6C3A"/>
        <path fill="#FF2C2C" d="m65.801 43.027-1.802.64-1.856.66-9.218 3.272-3.474-12.314 8.915-3.166 3.559-1.262.402-.143z"/>
        <path fill="#E50000" d="M62.504 31.694 64 43.667l-1.857.66-3.775-12.208 3.557-1.263z"/>
        <path fill="#EEE" d="m80.349 44.927-17.143-.06-3.996-14.164 14.27-10.119z"/>
        <path d="M81.65 44.267c.173.617-.123 1.258-.664 1.431-.54.173-1.118-.187-1.293-.805l-6.742-23.895c-.175-.618.121-1.26.662-1.432.54-.173 1.12.188 1.294.805l6.742 23.896z" fill="#FF6C3A"/>
        <path d="M80.952 24.861a.393.393 0 0 1-.424-.143.496.496 0 0 1 .025-.648l3.176-3.153c.167-.165.427-.143.58.05a.496.496 0 0 1-.024.648l-3.177 3.151a.377.377 0 0 1-.156.095M88.665 38.22a.429.429 0 0 0 .285-.364c.032-.25-.125-.488-.35-.532l-4.272-.837c-.224-.045-.432.123-.464.373-.032.25.124.488.349.532l4.273.837a.364.364 0 0 0 .179-.01" fill="#FFF"/>
        <path d="M88.665 38.22a.429.429 0 0 0 .285-.364c.032-.25-.125-.488-.35-.532l-4.272-.837c-.224-.045-.432.123-.464.373-.032.25.124.488.349.532l4.273.837a.364.364 0 0 0 .179-.01z" stroke="#BCBCBC"/>
        <path d="M80.952 24.861a.393.393 0 0 1-.424-.143.496.496 0 0 1 .025-.648l3.176-3.153c.167-.165.427-.143.58.05a.496.496 0 0 1-.024.648l-3.177 3.151a.377.377 0 0 1-.156.095" fill="#FFF"/>
        <path d="M80.952 24.861a.393.393 0 0 1-.424-.143.496.496 0 0 1 .025-.648l3.176-3.153c.167-.165.427-.143.58.05a.496.496 0 0 1-.024.648l-3.177 3.151a.377.377 0 0 1-.156.095z" stroke="#BCBCBC"/>
        <path d="m87.037 29.585-3.724 1.158c-.217.067-.447-.077-.514-.322-.068-.245.054-.498.27-.565l3.725-1.157c.216-.067.447.077.514.321.067.245-.054.498-.27.565" fill="#FFF"/>
        <path d="m87.037 29.585-3.724 1.158c-.217.067-.447-.077-.514-.322-.068-.245.054-.498.27-.565l3.725-1.157c.216-.067.447.077.514.321.067.245-.054.498-.27.565z" stroke="#BCBCBC"/>
        <g transform="translate(7.115 2)">
            <mask id="b" fill="#fff">
                <use xlink:href="#a"/>
            </mask>
            <path d="M10.777 3.163a6.525 6.525 0 0 0 2.785-.808c4.011-2.193 9.098-3.673 13.084-.631 4.03 3.078 5.35 8.721 6.657 13.431 1.214 4.377.666 8.87-2.96 11.878-1.496.933-3.384 1.82-5.815 2.543C13.945 32.723 13.972 38 13.972 38s-6.475-2.04-10.4-8.744c-3.925-6.702-8.195-24.01 7.205-26.093" fill="#621717" mask="url(#b)"/>
        </g>
        <path d="M42.918 47.773c-5.09 3.394-12.491 6.126-18.714 6.69-1.229.11-9.751-1.268-9.444-5.083.91-.323 2.08-1.349 3.462-1.725 1.18-.32 1.434-1.07 1.593-1.683.897-3.44-1.277-12.134-1.36-13.185.024-.024.046-.049.072-.074l-1.19-6.724c.792.778 1.502.597 1.435-.93-.153-3.477-.065-4.715 3.255-5.879 5.24-1.835 3.215-8.613 8.667-7.545 2.822.805 5.492 3.12 6.324 7.102 0 0 .791 2.95.978 6.7a27.8 27.8 0 0 1-.124 4.507c-.456 3.893-1.958 7.774-5.743 9.738.154 2.494.46 5.084 1.153 5.754.605.584 1.161.638 2.351.835 2.182.362 5.12.919 7.285 1.502" fill="#FFD4C0"/>
        <path d="M34.49 22.119c-1.555.12-2.678 1.057-2.695 1.07a.243.243 0 0 0 .315.37c.088-.074 2.196-1.82 4.568-.457a.244.244 0 0 0 .332-.089.245.245 0 0 0-.09-.332 4.15 4.15 0 0 0-2.43-.562M23.674 23.036a5.582 5.582 0 0 0-1.845 1.126.243.243 0 1 0 .345.342c.082-.083 2.06-2.023 4.698-.994a.243.243 0 0 0 .177-.454c-1.306-.508-2.475-.352-3.375-.02M33.821 26.27c.057.735.59 1.293 1.19 1.247.599-.047 1.04-.681.982-1.416-.057-.736-.59-1.294-1.19-1.248-.598.047-1.038.68-.982 1.416M24.22 27.325c.054.735.584 1.296 1.184 1.252.6-.044 1.042-.676.989-1.411-.055-.736-.585-1.297-1.185-1.254-.6.045-1.041.677-.988 1.413M28.543 40.64c-1.573 0-3.327-.415-4.987-1.7a.265.265 0 1 1 .325-.42c4.373 3.382 9.474.316 9.525.285a.266.266 0 0 1 .279.453c-.035.02-2.292 1.382-5.142 1.382M30.683 32.013c.574-.091 1.086-.372 1.427-.808.383-.488.485-1.08.282-1.626a87.7 87.7 0 0 1-.986-2.795c-.153-.4-.64-.185-.487.214.272.814.605 1.771.985 2.79.127.34.055.721-.197 1.043-.327.416-1.054.815-2.028.57-.14-.035-.282.06-.314.216-.03.153.06.307.202.343.38.095.76.11 1.116.053" fill="#030241"/>
        <path d="M16.573 25.345c1.079.857 1.516 1.444 2.26 1.61l-.06 5.174a1.46 1.46 0 0 1-.246.583c-.849 1.18-3.486.932-5.254-3.954-1.115-3.086 1.852-4.566 3.3-3.413" fill="#FFD4C0"/>
        <path d="M14.88 29.582a.221.221 0 0 1-.224-.104c-.029-.05-.71-1.208-.573-2.123a1.56 1.56 0 0 1 1.811-1.245.22.22 0 1 1-.065.434 1.136 1.136 0 0 0-1.311.876c-.113.759.51 1.822.516 1.834a.22.22 0 0 1-.154.328" fill="#030241"/>
        <path d="M29.477 37.089c.566.065 1.098.103 1.648-.072.186-.06.278.226.093.285-.6.191-1.189.152-1.805.08-.192-.022-.127-.315.064-.293" fill="#FF9175"/>
        <path d="M27.413 34.85c.058.103.116.195.16.263.265.426.678.776 1.174 1.005.991.459 2.257.4 3.178-.219.134-.085.264-.187.388-.297.83-.74 1.357-1.9.236-1.744a17.633 17.633 0 0 1-3.767.1c-.395-.029-.87-.216-1.272-.099l-.033.01c-.448.155-.26.633-.064.981" fill="#FFF"/>
        <path d="M27.413 34.85c.058.103.116.195.16.263.265.426.678.776 1.174 1.005.991.459 2.257.4 3.178-.219.134-.085.264-.187.388-.297-.374-.586-1.592-1.018-3.036-1.02-.697 0-1.34.099-1.864.268" fill="#FFF"/>
        <path d="M49.093 98.063c3.394-30.297-1.054-47.594-1.055-47.596-4.147-2.724-8.09-3.717-11.162-4.29l-2.056-.414c-6.205 4.357-15.757.674-15.757.674-.888-.343-3.338.688-4.254.937-1.489.406-2.956.9-4.375 1.522-4.776 2.092-7.759 5.163-9.275 10.286-1.713 5.79-1.459 12.021.31 17.764l2.685 21.117h44.94z" fill="#003E71"/>
        <path d="M47.372 60.285s3.091 10.704 2.54 27.03" stroke="#030241" stroke-width=".5" stroke-linecap="round" stroke-linejoin="round"/>
        <path d="M52.633 62.199c.046-.133 1.83-6.436 8.116-9.336 6.286-2.9 4.4 2.287 4.4 2.287s1.886.31.598 3.546c0 0 1.807.932.26 3.503 0 0 1.296 2.33-1.967 3.869 0 0-1.41 1.45-4.407 2.914l-7-6.783z" fill="#FFD4C0"/>
        <path stroke="#030241" stroke-width=".5" stroke-linecap="round" stroke-linejoin="round" d="m65.236 55.077-2.299 1.518M65.918 58.468l-2.299 1.518M66.128 61.859l-1.678 1.108"/>
        <path d="M56.807 70.363s-5.192 4.286-12.258 9.5c-7.027 5.183-12.228 10.676-19.98 13.256-7.05 2.349-13.596.956-16.573-5.028-.677-1.361-1.657-3.818-1.313-7.904.716-8.51 11.058-6.065 14.767-7.288C34.286 68.669 50.43 63 50.43 63l6.377 7.363z" fill="#FFD4C0"/>
        <g>
            <path d="M53.134 62 25 71.76l29.783.24s7.121-3.96 9.217-6.317" fill="#FFD4C0"/>
            <path stroke="#030241" stroke-width=".5" stroke-linecap="round" stroke-linejoin="round" d="m2 76 3 6M16 62l5 8"/>
        </g>
    </g>
</svg>
