<?xml version="1.0" encoding="UTF-8"?>
<svg viewBox="0 0 343 220" version="1.1" xmlns="http://www.w3.org/2000/svg" xmlns:xlink="http://www.w3.org/1999/xlink">
	<g id="wrap-car-phone-man" class="wrap-car-phone-man">
		<g class="center-phone">
			<path fill="#dadee5" fill-rule="evenodd" clip-rule="evenodd" d="M135.4,180.7h73.2V61.5h-73.2L135.4,180.7L135.4,180.7z M136.1,52.8c-3.9,0-7.1,3.2-7.1,7.1v128
				c0,3.9,3.2,7.1,7.1,7.1h71.8c3.9,0,7.1-3.2,7.1-7.1v-128c0-3.9-3.2-7.1-7.1-7.1H136.1z"/>
			<path fill="#ffffff" fill-rule="evenodd" clip-rule="evenodd" d="M175.4,187.7c0,2.1-1.7,3.9-3.9,3.9c-2.1,0-3.9-1.7-3.9-3.9c0-2.1,1.7-3.9,3.9-3.9
				C173.7,183.9,175.4,185.6,175.4,187.7 M164.6,57.3h16v-1.3h-16V57.3z"/>
		</g>
		<g class="slide-right-area">
			<path fill-rule="evenodd" clip-rule="evenodd" fill="#eaf0f7" d="M228.9,154.1c0,1.2,0.8,1.9,1.8,1.6l69.4-9.4c1-0.2,1.8-1.4,1.8-2.5v-67c0-1.2-0.8-1.9-1.8-1.6l-69.4,9.4
				c-1,0.2-1.8,1.4-1.8,2.5L228.9,154.1L228.9,154.1z"/>

			<g class="right-car">
				<path fill="#dadee5" fill-rule="evenodd" clip-rule="evenodd" d="M272.7,101.8l-6.1,1.1l-4.8,0.9c-3.8,0.7-7.3,3.6-9.3,7.6l-3.1,6.3l-1.1,0.2c-4.5,1-8,5.8-8,10.9v2.5l0,0
					c0.2,1.5,1.4,2.4,2.8,2.2l37.5-7.1c1.4-0.3,2.6-1.6,2.9-3.2l0,0l0.6-10.8l-1.5-4.4c-1.4-3.9-4.6-6.2-8.4-6.2
					C273.8,101.7,273.3,101.7,272.7,101.8z"/>
				<path fill="#dadee5" fill-rule="evenodd" clip-rule="evenodd" d="M283.7,111l-1.8,0.3l-30.9,5.7V132l32.7-6.2c2.7-0.5,5-3.4,5-6.5v-3.6c0-2.7-1.8-4.7-4.1-4.7
					C284.3,111,284,111,283.7,111z"/>
				<path fill="#767676" fill-rule="evenodd" clip-rule="evenodd" d="M286.9,116.1c-1,0.2-1.8,1.2-1.8,2.3c0,1.1,0.8,1.8,1.8,1.6l1.8-0.3c0-0.2,0-0.3,0-0.5v-3.5
					C288.7,115.8,286.9,116.1,286.9,116.1z"/>
				<path fill="#ffffff" fill-rule="evenodd" clip-rule="evenodd" d="M264.9,105.3l-3.8,0.7c-2.6,0.5-4.9,2.4-6.2,5.1l-1.9,4c-0.1,0.2-0.1,0.4-0.1,0.5c0,0.6,0.4,0.9,0.9,0.9
					l11.1-2c0.5-0.1,0.9-0.6,0.9-1.2v-7.1c0-0.5-0.3-0.9-0.8-0.9C265,105.3,265,105.3,264.9,105.3z M273.5,103.8l-4.9,0.9
					c-0.5,0.1-0.9,0.6-0.9,1.2v7.1c0,0.6,0.4,0.9,0.9,0.9l10.7-2c0.2,0,0.5-0.2,0.7-0.3c0.8-0.6,1.2-1.8,0.8-2.6l-0.8-1.8
					c-1-2.2-3-3.5-5.3-3.5C274.2,103.7,273.8,103.7,273.5,103.8z"/>
				<path fill="#767676" fill-rule="evenodd" clip-rule="evenodd" d="M252.5,124.6c-2.9,0.5-5.3,3.7-5.3,7c0,3.3,2.4,5.6,5.3,5c2.9-0.6,5.2-3.7,5.2-7c0-3-1.9-5.1-4.4-5.1
					C253.1,124.5,252.8,124.5,252.5,124.6z M276.6,120.1c-2.9,0.5-5.3,3.7-5.3,7s2.3,5.5,5.3,5c2.9-0.6,5.3-3.7,5.3-7c0-3-1.9-5-4.4-5
					C277.2,120,276.9,120,276.6,120.1z"/>
				<path fill="#ffffff" fill-rule="evenodd" clip-rule="evenodd" d="M252.5,127.4c-1.5,0.3-2.8,2-2.8,3.7c0,1.8,1.2,3,2.8,2.7c1.5-0.3,2.8-2,2.8-3.7c0-1.6-1-2.7-2.3-2.7
					C252.9,127.4,252.7,127.4,252.5,127.4z"/>
				<path id="a_1_" fill="#ffffff" fill-rule="evenodd" clip-rule="evenodd" d="M276.6,122.9c-1.5,0.3-2.8,1.9-2.8,3.7c0,1.7,1.2,2.9,2.8,2.6c1.5-0.3,2.8-1.9,2.8-3.7
					c0-1.6-1-2.7-2.3-2.7C276.9,122.8,276.8,122.8,276.6,122.9L276.6,122.9z"/>
			</g>
		</g>
		<g class="slide-center-area">
			<path fill="#F3F8FF" fill-rule="evenodd" clip-rule="evenodd" d="M224.8,153.7c0,1.2-1.2,2.1-2.6,2.1H121.7c-1.5,0-2.6-0.9-2.6-2.1V87c0-1.2,1.2-2.1,2.6-2.1h100.5	c1.5,0,2.6,0.9,2.6,2.1L224.8,153.7L224.8,153.7z"/>
		</g>	
		<g class="slide-left-area">
			<path fill-rule="evenodd" clip-rule="evenodd" fill="#eaf0f7" d="M115.1,154.1c0,1.2-0.8,1.9-1.8,1.6l-69.4-9.4c-1-0.2-1.8-1.4-1.8-2.5v-67c0-1.2,0.8-1.9,1.8-1.6l69.4,9.4
				c1,0.2,1.8,1.4,1.8,2.5V154.1z"/>
			<g class="left-car">
				<path fill="#dadee5" fill-rule="evenodd" clip-rule="evenodd" d="M64.3,104.4l-3.2,5l-1.1-0.2c-4.6-0.6-8.3,2.7-8.3,7.6v2.4l0,0c0.2,1.5,1.4,2.8,2.9,3.1l39,7
					c1.5,0.3,2.8-0.7,3-2.1l0,0l0.7-10.6l-1.6-4.9c-1.6-5-5.9-8.9-10.6-9.7l-11.2-1.8c-0.6-0.1-1.1-0.1-1.7-0.1
					C68.9,100.1,66,101.7,64.3,104.4z"/>
				<path fill="#dadee5" fill-rule="evenodd" clip-rule="evenodd" d="M62.6,123.8l34,6.1c2.8,0.5,5.2-1.6,5.2-4.6v-3.6c0-3.1-2.3-6-5.2-6.5l-1.8-0.3l-32.2-5.5L62.6,123.8
					L62.6,123.8z"/>
				<path fill="#767676" fill-rule="evenodd" clip-rule="evenodd" d="M58.7,122.1c0,3.2,2.4,6.3,5.5,6.8c3,0.6,5.5-1.6,5.5-4.9s-2.4-6.3-5.5-6.8c-0.3-0.1-0.6-0.1-0.9-0.1
					C60.7,117.1,58.7,119.2,58.7,122.1z M83.8,126.6c0,3.3,2.4,6.4,5.5,6.9c3,0.6,5.5-1.7,5.5-5c0-3.3-2.4-6.4-5.5-6.9
					c-0.3-0.1-0.6-0.1-0.9-0.1C85.7,121.5,83.8,123.6,83.8,126.6z"/>
				<path fill="#ffffff" fill-rule="evenodd" clip-rule="evenodd" d="M61.3,122.6c0,1.7,1.3,3.3,2.9,3.6c1.6,0.3,2.9-0.9,2.9-2.6c0-1.7-1.3-3.3-2.9-3.6c-0.2,0-0.3,0-0.5,0
					C62.3,119.9,61.3,121,61.3,122.6z M86.3,127c0,1.7,1.3,3.4,2.9,3.7c1.6,0.3,2.9-0.9,2.9-2.6c0-1.7-1.3-3.4-2.9-3.7
					c-0.2,0-0.3,0-0.5,0C87.4,124.4,86.3,125.5,86.3,127z M66.7,105l-2,3.2c-0.1,0.1-0.1,0.3-0.1,0.5c0,0.5,0.4,1.1,0.9,1.2l11.6,2
					c0.5,0.1,0.9-0.3,0.9-0.8v-7c0-0.6-0.4-1.1-0.9-1.2l-3.9-0.6c-0.4-0.1-0.8-0.1-1.2-0.1C69.8,102.1,67.8,103.2,66.7,105z
					M79.9,104.3v7c0,0.6,0.4,1.1,0.9,1.2l11.1,1.9c0.3,0,0.5,0,0.7-0.1c0.9-0.3,1.2-1.3,0.8-2.3l-0.9-2c-1.2-3-3.9-5.2-6.7-5.7
					l-5.1-0.8c0,0-0.1,0-0.1,0C80.2,103.5,79.9,103.8,79.9,104.3z"/>
				<path fill="#767676" fill-rule="evenodd" clip-rule="evenodd" d="M98.1,123.1c0,1.1,0.8,2.1,1.8,2.3l1.8,0.3c0-0.2,0-0.3,0-0.5v-3.5l-1.8-0.3c-0.1,0-0.2,0-0.3,0
					C98.7,121.4,98.1,122.1,98.1,123.1z"/>
			</g>
		</g>
	</g>
</svg>
