<?xml version="1.0" encoding="utf-8"?>
<!-- Generator: Adobe Illustrator 25.2.0, SVG Export Plug-In . SVG Version: 6.00 Build 0)  -->
<svg version="1.1" id="Layer_1" xmlns="http://www.w3.org/2000/svg" xmlns:xlink="http://www.w3.org/1999/xlink" x="0px" y="0px"
	 viewBox="0 0 38.1 34.8" style="enable-background:new 0 0 38.1 34.8;" xml:space="preserve">
<style type="text/css">
	.st0{fill:#2589FF;}
	.st1{fill:#2589FF;stroke:#FFFFFF;stroke-width:1.872;stroke-linecap:round;stroke-linejoin:round;}
</style>
<g>
	<g>
		<path class="st0" d="M28.1,0c5.5,0,10,4.5,10,10v11.1c0,5.5-4.5,10-10,10h-5.5l-2.5,3.2L20,34.4l-0.1,0.1
			c-0.5,0.4-1.3,0.3-1.8-0.2l-2.5-3.2h-5.5c-5.5,0-10-4.5-10-10V10c0-5.5,4.5-10,10-10C10.1,0,28.1,0,28.1,0z"/>
		<path class="st1" d="M10.7,16.1h3.6 M23.9,16.1h3.6 M25.5,10l-3.1,11.2L19.3,10h-0.2L16,21.2L12.8,10"/>
	</g>
</g>
</svg>
