<?xml version="1.0" encoding="UTF-8"?>
<svg viewBox="0 0 343 220" version="1.1" xmlns="http://www.w3.org/2000/svg" xmlns:xlink="http://www.w3.org/1999/xlink">
<g id="wrap-car-phone-man" class="wrap-car-phone-man">
	<g class="slide-center-area">
		<g class="cetner-car">
			<path id="b" fill="#FFCC00" fill-rule="evenodd" clip-rule="evenodd" d="M180.7,105.9c4.7,0,9,3,10.6,7.4l1.9,5.3l-0.7,10.8h0c-0.2,1.5-1.6,2.7-3.2,2.7h-42
				c-1.6,0-2.9-1.1-3.1-2.7h0v-3.2c0-4.7,3.7-8.5,8.3-8.6l1.8-0.1l3.7-6.1c2-3.4,5.7-5.5,9.7-5.5H180.7L180.7,105.9z"/>
			<g>
				<path id="c_1_" fill="#FFCC00" fill-rule="evenodd" clip-rule="evenodd" d="M155.9,117.3h37c2.9,0,5.2,2.3,5.2,5.2v4.5c0,2.9-2.3,5.2-5.2,5.2h-37V117.3z"/>
			</g>
			<defs>
				<filter id="Adobe_OpacityMaskFilter" filterUnits="userSpaceOnUse" x="194.1" y="123" width="4" height="4">
					<feColorMatrix  type="matrix" values="1 0 0 0 0  0 1 0 0 0  0 0 1 0 0  0 0 0 1 0"/>
				</filter>
			</defs>
			<mask maskUnits="userSpaceOnUse" x="194.1" y="123" width="4" height="4" id="d_1_">
				<g filter="url(#Adobe_OpacityMaskFilter)">
					<path id="c_2_" fill="#ffffff" fill-rule="evenodd" clip-rule="evenodd" d="M155.9,117.3h37c2.9,0,5.2,2.3,5.2,5.2v4.5c0,2.9-2.3,5.2-5.2,5.2h-37V117.3z"/>
				</g>
			</mask>
			<path fill="#FFA75D" fill-rule="evenodd" clip-rule="evenodd" d="M196,123h2.1v4H196c-1,0-1.9-0.8-1.9-1.9v-0.2C194.1,123.8,195,123,196,123L196,123z"/>
			<path fill="#ffffff" fill-rule="evenodd" clip-rule="evenodd" d="M167,108.1h4.6c0.5,0,0.9,0.4,0.9,0.9v7.3c0,0.5-0.4,0.9-0.9,0.9l-12.6,0c-0.5,0-0.9-0.4-0.9-0.9
				c0-0.2,0-0.3,0.1-0.5l2.4-4C161.8,109.5,164.3,108.1,167,108.1L167,108.1z M175.5,108.1h5.5c3.1,0,5.9,1.8,7.3,4.6l1,2.1
				c0.4,0.9,0,1.9-0.8,2.3c-0.2,0.1-0.5,0.2-0.7,0.2l-12.2,0c-0.5,0-0.9-0.4-0.9-0.9V109C174.6,108.5,175,108.1,175.5,108.1
				L175.5,108.1z"/>
			<path fill="#767676" fill-rule="evenodd" clip-rule="evenodd" d="M157.6,137.1c3.2,0,5.9-2.7,5.9-6c0-3.3-2.6-6-5.9-6c-3.2,0-5.9,2.7-5.9,6
				C151.8,134.4,154.4,137.1,157.6,137.1z M184.6,137.1c3.2,0,5.9-2.7,5.9-6c0-3.3-2.6-6-5.9-6s-5.9,2.7-5.9,6
				C178.7,134.4,181.4,137.1,184.6,137.1z"/>
			<path fill="#ffffff" fill-rule="evenodd" clip-rule="evenodd" d="M157.6,134.3c1.7,0,3.1-1.4,3.1-3.2c0-1.8-1.4-3.2-3.1-3.2c-1.7,0-3.1,1.4-3.1,3.2
				C154.5,132.8,155.9,134.3,157.6,134.3z M184.6,134.3c1.7,0,3.1-1.4,3.1-3.2c0-1.8-1.4-3.2-3.1-3.2c-1.7,0-3.1,1.4-3.1,3.2
				C181.5,132.8,182.9,134.3,184.6,134.3z"/>
		</g>
	</g>
</g>
</svg>
