<svg width="140" height="96" xmlns="http://www.w3.org/2000/svg" xmlns:xlink="http://www.w3.org/1999/xlink">
    <defs>
        <path id="a" d="M0 0h18.713v18.713H0z"/>
    </defs>
    <g fill="none" fill-rule="evenodd">
        <path d="M0 0h140v96H0z"/>
        <path d="M41.03 13.91a.715.715 0 0 0-.727.702v71.23c0 2.447 2.05 4.43 4.577 4.43h51.18v-75.66a.715.715 0 0 0-.726-.703H41.03z" fill="#F8F8F8"/>
        <path d="M104.545 78.882v6.789c0 2.541-2.1 4.602-4.69 4.602H42.728c2.59 0 4.69-2.06 4.69-4.602v-6.789c0-.403.333-.73.744-.73h55.64c.411 0 .744.327.744.73" fill="#EEE"/>
        <path d="M88.43 29.667H63.69c-.197 0-.357-.272-.357-.606 0-.335.16-.606.358-.606h24.74c.197 0 .357.27.357.606 0 .334-.16.606-.358.606M88.43 34.515H63.69c-.197 0-.357-.271-.357-.606 0-.335.16-.606.358-.606h24.74c.197 0 .357.271.357.606 0 .335-.16.606-.358.606M88.43 40.576H63.69c-.197 0-.357-.272-.357-.606 0-.335.16-.606.358-.606h24.74c.197 0 .357.27.357.606 0 .334-.16.606-.358.606M88.424 50.273H45.516c-.201 0-.364-.272-.364-.606 0-.335.163-.606.364-.606h42.908c.2 0 .364.27.364.606 0 .334-.163.606-.364.606" fill="#999"/>
        <path d="M60.12 41.788H45.94c-.436 0-.788-.326-.788-.728V27.97c0-.402.352-.728.788-.728h14.18c.436 0 .79.326.79.728v13.09c0 .402-.354.728-.79.728" fill="#DDD"/>
        <g transform="translate(107.182 15.182)">
            <circle fill="#85D1E9" cx="11" cy="11" r="11"/>
            <g transform="translate(4.4 4.4)" stroke="#FFF">
                <g stroke-linecap="round" stroke-linejoin="round" stroke-width=".5">
                    <path d="m2.846 5.5.72 3.3.84-3.277.84 3.277.723-3.3M3.08 7.11H2.2M6.6 7.11h-.88"/>
                </g>
                <rect x=".5" y=".5" width="7.8" height="12.2" rx="2"/>
                <g stroke-linecap="round">
                    <path d="M12.113 9.9V3.878M9.9 5.916 12.1 3.3l2.2 2.616"/>
                </g>
            </g>
        </g>
        <g transform="translate(10 3)">
            <circle fill="#FF9C49" cx="19.394" cy="19.394" r="19.394"/>
            <g stroke="#FFF">
                <path d="m19.394 7.993 6.497 6.728c1.801 1.864 2.7 4.309 2.7 6.752 0 2.444-.899 4.889-2.7 6.754-1.794 1.858-4.145 2.788-6.497 2.788-2.352 0-4.703-.93-6.497-2.788-1.8-1.865-2.7-4.31-2.7-6.754 0-2.443.9-4.888 2.7-6.753l6.497-6.727z"/>
                <path stroke-linecap="round" stroke-linejoin="round" d="M15.758 20.606h7.272M19.394 16.97v7.273"/>
            </g>
        </g>
        <g transform="translate(29.394 57.545)">
            <circle fill="#C9D562" cx="12.121" cy="12.121" r="12.121"/>
            <g stroke="#FFF">
                <path d="m12.121 5.574 6.57 2.02v3.963c0 2.167-.648 4.097-1.83 5.542-1.133 1.385-2.754 2.32-4.74 2.598-1.986-.278-3.607-1.213-4.739-2.598-1.182-1.445-1.831-3.375-1.831-5.542V7.594l6.57-2.02z"/>
                <path stroke-linecap="round" stroke-linejoin="round" d="M9.765 12.627h4.714M12.122 10.399v4.456"/>
            </g>
        </g>
        <g>
            <path d="M106.857 73.188c-4.8 4.8-12.577 4.8-17.377 0-4.8-4.8-4.8-12.577 0-17.378 4.795-4.795 12.577-4.8 17.377 0 4.8 4.8 4.795 12.582 0 17.378M85.535 51.865c-6.976 6.976-6.976 18.292 0 25.268 6.976 6.976 18.285 6.97 25.261-.006 6.976-6.976 6.976-18.28 0-25.256-6.976-6.976-18.285-6.982-25.261-.006" fill="#626C78"/>
            <g transform="translate(107.522 73.856)">
                <mask id="b" fill="#fff">
                    <use xlink:href="#a"/>
                </mask>
                <path d="M15.04 8.728c4.038 4.038 4.436 7.262 2.693 9.005-1.743 1.743-4.967 1.345-9.005-2.694C4.689 11.001-1.438 2.048.305.305 2.048-1.438 11 4.689 15.039 8.728" fill="#2589FF" mask="url(#b)"/>
            </g>
            <path d="M115.062 73.394a5.489 5.489 0 0 0-1.825-1.24c-.068.093-.12.188-.216.275-2.35 2.108-4.384 5.434-7.2 6.275.23.976.699 1.906 1.443 2.667 2.154 2.203 3.827.35 5.98-1.853 2.154-2.203 3.971-3.921 1.818-6.124" fill="#3C4B59"/>
            <path d="M106.857 73.188c-4.8 4.8-12.577 4.8-17.377 0-4.8-4.8-4.8-12.577 0-17.378 4.795-4.795 12.577-4.8 17.377 0 4.8 4.8 4.795 12.582 0 17.378M85.535 51.865c-6.976 6.976-6.976 18.292 0 25.268 6.976 6.976 18.285 6.97 25.261-.006 6.976-6.976 6.976-18.28 0-25.256-6.976-6.976-18.285-6.982-25.261-.006" fill="#626C78"/>
        </g>
    </g>
</svg>
